<svg width="220" height="408" viewBox="0 0 220 408" fill="none" xmlns="http://www.w3.org/2000/svg">
<path d="M406 203.999L405.98 205.189L405.92 206.378L405.821 207.566L405.681 208.753L405.502 209.939L405.282 211.122L405.024 212.302L404.725 213.48L404.387 214.654L404.009 215.824L403.592 216.99L403.136 218.151L402.64 219.308L402.105 220.458L401.531 221.603L400.918 222.742L400.267 223.873L399.577 224.998L398.848 226.115L398.081 227.223L397.276 228.324L396.433 229.416L395.553 230.498L394.635 231.571L393.679 232.634L392.686 233.686L391.657 234.728L390.591 235.759L389.488 236.778L388.349 237.785L387.175 238.779L385.964 239.761L384.718 240.73L383.437 241.686L382.122 242.628L380.771 243.556L379.387 244.469L377.968 245.367L376.516 246.25L375.031 247.118L373.513 247.97L371.962 248.806L370.379 249.625L368.764 250.427L367.117 251.212L365.439 251.98L363.731 252.73L361.992 253.462L360.223 254.175L358.424 254.87L356.596 255.546L354.74 256.202L352.855 256.839L350.942 257.457L349.001 258.054L347.033 258.631L345.039 259.187L343.018 259.723L340.971 260.237L338.899 260.731L336.803 261.202L334.681 261.652L332.536 262.08L330.368 262.486L328.176 262.87L325.962 263.231L323.726 263.569L321.468 263.884L319.189 264.177L316.89 264.446L314.571 264.691L312.232 264.913L309.874 265.111L307.498 265.285L305.104 265.436L302.693 265.562L300.264 265.663L297.82 265.741L295.359 265.794L292.884 265.822L290.393 265.826L287.889 265.804L285.37 265.758L282.839 265.687L280.295 265.591L277.74 265.47L275.173 265.324L272.595 265.152L270.007 264.956L267.409 264.734L264.802 264.487L262.186 264.215L259.563 263.917L256.932 263.595L254.294 263.246L251.65 262.873L249 262.475L246.346 262.051L243.686 261.602L241.023 261.129L238.356 260.63L235.687 260.106L233.015 259.557L230.342 258.983L227.667 258.385L224.993 257.762L222.318 257.115L219.644 256.443L216.971 255.746L214.3 255.026L211.631 254.281L208.965 253.512L206.303 252.72L203.645 251.904L200.991 251.064L198.343 250.201L195.7 249.315L193.064 248.406L190.435 247.474L187.813 246.52L185.2 245.543L182.595 244.544L179.999 243.523L177.412 242.48L174.836 241.415L172.271 240.33L169.717 239.223L167.175 238.095L164.645 236.947L162.128 235.778L159.625 234.59L157.135 233.381L154.66 232.153L152.2 230.906L149.755 229.64L147.327 228.355L144.914 227.052L142.519 225.731L140.142 224.393L137.782 223.036L135.44 221.663L133.118 220.273L130.815 218.867L128.532 217.444L126.269 216.006L124.027 214.553L121.806 213.084L119.607 211.601L117.43 210.104L115.276 208.593L113.144 207.068L111.036 205.53L108.952 203.979L106.891 202.416L104.856 200.841L102.845 199.255L100.86 197.657L98.901 196.049L96.9679 194.43L95.0613 192.801L93.1816 191.163L91.3291 189.516L89.5043 187.86L87.7074 186.196L85.9388 184.524L84.1988 182.844L82.4877 181.158L80.8059 179.465L79.1536 177.767L77.5312 176.063L75.9389 174.353L74.3771 172.639L72.846 170.921L71.3458 169.199L69.8769 167.474L68.4395 165.746L67.0338 164.015L65.66 162.283L64.3185 160.549L63.0094 158.815L61.733 157.079L60.4894 155.344L59.2788 153.609L58.1015 151.876L56.9576 150.143L55.8473 148.413L54.7707 146.685L53.728 144.96L52.7194 143.238L51.745 141.52L50.8049 139.806L49.8993 138.097L49.0282 136.393L48.1918 134.695L47.3902 133.003L46.6234 131.318L45.8916 129.64L45.1948 127.969L44.533 126.307L43.9064 124.653L43.315 123.009L42.7588 121.374L42.2378 119.749L41.7521 118.134L41.3016 116.53L40.8865 114.938L40.5067 113.358L40.1621 111.79L39.8527 110.234L39.5786 108.692L39.3397 107.164L39.1359 105.65L38.9672 104.151L38.8335 102.666L38.7347 101.198L38.6708 99.7446L38.6417 98.3081L38.6473 96.8885L38.6875 95.4861L38.7621 94.1015L38.8711 92.735L39.0143 91.387L39.1916 90.058L39.4029 88.7484L39.6479 87.4586L39.9266 86.1889L40.2387 84.9399L40.5841 83.712L40.9626 82.5054L41.374 81.3206L41.8181 80.158L42.2948 79.0179L42.8037 77.9008L43.3447 76.807L43.9176 75.7369L44.522 74.6908L45.1579 73.6691L45.8248 72.6721L46.5226 71.7002L47.251 70.7538L48.0097 69.833L48.7985 68.9384L49.617 68.0702L50.465 67.2287L51.3422 66.4142L52.2482 65.627L53.1828 64.8675L54.1457 64.1359L55.1364 63.4325L56.1547 62.7576L57.2003 62.1114L58.2728 61.4942L59.3719 60.9064L60.4972 60.348L61.6483 59.8194L62.8249 59.3209L64.0266 58.8525L65.2531 58.4147L66.5039 58.0075L67.7787 57.6312L69.077 57.286L70.3986 56.9721L71.7429 56.6897L73.1097 56.4389L74.4983 56.2199L75.9086 56.033L77.34 55.8781L78.7921 55.7556L80.2644 55.6655L81.7567 55.608L83.2683 55.5832L84.7989 55.5913L86.3481 55.6322L87.9153 55.7062L89.5002 55.8133L91.1022 55.9536L92.721 56.1272L94.3561 56.3342L96.0069 56.5745L97.6731 56.8484L99.3541 57.1558L101.05 57.4968L102.759 57.8713L104.482 58.2795L106.218 58.7213L107.966 59.1967L109.726 59.7058L111.498 60.2485L113.281 60.8248L115.074 61.4346L116.877 62.078L118.69 62.7549L120.512 63.4652L122.343 64.2089L124.182 64.9859L126.028 65.7962L127.881 66.6396L129.742 67.516L131.608 68.4254L133.479 69.3676L135.356 70.3426L137.238 71.3501L139.123 72.3901L141.012 73.4624L142.904 74.5668L144.799 75.7033L146.696 76.8716L148.595 78.0716L150.495 79.303L152.395 80.5657L154.296 81.8595L156.196 83.1842L158.095 84.5396L159.993 85.9253L161.89 87.3413L163.784 88.7873L165.675 90.263L167.563 91.7681L169.447 93.3025L171.327 94.8657L173.202 96.4577L175.072 98.078L176.937 99.7264L178.795 101.403L180.647 103.106L182.492 104.837L184.329 106.595L186.159 108.379L187.98 110.189L189.792 112.026L191.595 113.887L193.388 115.774L195.171 117.686L196.944 119.622L198.705 121.582L200.455 123.566L202.193 125.573L203.919 127.603L205.632 129.655L207.333 131.73L209.019 133.826L210.692 135.943L212.35 138.081L213.994 140.24L215.622 142.418L217.235 144.616L218.833 146.834L220.414 149.069L221.978 151.323L223.526 153.595L225.056 155.884L226.568 158.189L228.063 160.511L229.54 162.849L230.997 165.202L232.436 167.57L233.856 169.953L235.256 172.349L236.636 174.758L237.995 177.181L239.335 179.615L240.653 182.062L241.951 184.52L243.227 186.988L244.481 189.467L245.714 191.956L246.925 194.454L248.113 196.96L249.279 199.475L250.421 201.997L251.541 204.527L252.638 207.062L253.711 209.604L254.76 212.152L255.785 214.704L256.786 217.26L257.763 219.821L258.716 222.384L259.644 224.95L260.547 227.519L261.425 230.088L262.278 232.659L263.106 235.23L263.908 237.802L264.685 240.372L265.437 242.941L266.162 245.508L266.862 248.073L267.536 250.635L268.184 253.194L268.806 255.748L269.401 258.298L269.971 260.842L270.514 263.381L271.03 265.913L271.521 268.439L271.985 270.957L272.422 273.467L272.833 275.968L273.218 278.461L273.576 280.943L273.908 283.416L274.213 285.877L274.491 288.327L274.744 290.765L274.97 293.191L275.169 295.604L275.342 298.003L275.489 300.388L275.61 302.759L275.705 305.114L275.773 307.454L275.816 309.777L275.833 312.084L275.824 314.374L275.79 316.645L275.73 318.899L275.644 321.133L275.533 323.348L275.397 325.544L275.236 327.719L275.051 329.873L274.84 332.006L274.605 334.117L274.346 336.206L274.062 338.272L273.755 340.315L273.423 342.334L273.068 344.328L272.69 346.299L272.288 348.244L271.864 350.163L271.416 352.057L270.947 353.924L270.454 355.765L269.94 357.578L269.404 359.363L268.847 361.12L268.268 362.849L267.668 364.549L267.047 366.219L266.406 367.86L265.745 369.47L265.064 371.051L264.363 372.6L263.643 374.118L262.904 375.604L262.146 377.059L261.37 378.481L260.576 379.871L259.764 381.228L258.935 382.552L258.088 383.841L257.225 385.098L256.345 386.32L255.45 387.507L254.539 388.66L253.612 389.777L252.671 390.86L251.714 391.907L250.744 392.918L249.76 393.893L248.762 394.831L247.751 395.734L246.728 396.599L245.692 397.428L244.644 398.219L243.584 398.973L242.514 399.689L241.432 400.368L240.341 401.009L239.239 401.611L238.128 402.176L237.008 402.702L235.878 403.19L234.741 403.639L233.596 404.049L232.443 404.42L231.283 404.753L230.117 405.046L228.944 405.3L227.765 405.515L226.581 405.691L225.393 405.827L224.199 405.924L223.002 405.982L221.801 406L220.596 405.979L219.389 405.918L218.18 405.817L216.968 405.677L215.755 405.498L214.541 405.279L213.327 405.021L212.112 404.723L210.897 404.386L209.683 404.009L208.47 403.593L207.259 403.139L206.049 402.645L204.842 402.112L203.638 401.54L202.437 400.929L201.24 400.28L200.047 399.592L198.858 398.866L197.674 398.102L196.496 397.299L195.323 396.459L194.156 395.581L192.997 394.665L191.844 393.712L190.698 392.721L189.561 391.694L188.431 390.629L187.31 389.529L186.199 388.391L185.096 387.218L184.004 386.009L182.922 384.764L181.85 383.484L180.789 382.169L179.74 380.819L178.702 379.435L177.677 378.016L176.664 376.564L175.664 375.077L174.677 373.558L173.704 372.005L172.744 370.42L171.799 368.803L170.868 367.153L169.953 365.472L169.053 363.76L168.168 362.017L167.299 360.243L166.447 358.44L165.611 356.606L164.792 354.743L163.991 352.851L163.206 350.931L162.44 348.983L161.692 347.006L160.962 345.003L160.251 342.972L159.559 340.916L158.886 338.833L158.232 336.725L157.598 334.591L156.984 332.433L156.391 330.251L155.818 328.045L155.265 325.816L154.734 323.565L154.223 321.291L153.734 318.995L153.267 316.678L152.821 314.34L152.398 311.982L151.996 309.605L151.617 307.208L151.26 304.792L150.926 302.358L150.615 299.907L150.327 297.438L150.062 294.953L149.82 292.452L149.602 289.935L149.407 287.403L149.236 284.857L149.089 282.297L148.966 279.723L148.866 277.137L148.791 274.539L148.74 271.929L148.713 269.307L148.71 266.676L148.732 264.034L148.778 261.383L148.849 258.723L148.944 256.055L149.064 253.379L149.208 250.696L149.377 248.006L149.57 245.311L149.788 242.61L150.031 239.904L150.298 237.194L150.59 234.481L150.907 231.764L151.248 229.045L151.613 226.324L152.003 223.601L152.417 220.878L152.855 218.155L153.318 215.432L153.805 212.711L154.316 209.99L154.851 207.272L155.409 204.557L155.992 201.845L156.598 199.137L157.228 196.433L157.881 193.735L158.557 191.042L159.256 188.355L159.979 185.675L160.724 183.002L161.492 180.337L162.282 177.68L163.095 175.033L163.93 172.395L164.786 169.767L165.665 167.15L166.565 164.544L167.486 161.95L168.428 159.368L169.391 156.799L170.375 154.243L171.379 151.701L172.403 149.173L173.447 146.661L174.511 144.164L175.594 141.683L176.696 139.218L177.817 136.771L178.956 134.34L180.114 131.928L181.289 129.535L182.483 127.16L183.693 124.805L184.921 122.469L186.165 120.155L187.426 117.861L188.702 115.588L189.995 113.337L191.303 111.109L192.625 108.903L193.963 106.72L195.315 104.561L196.68 102.426L198.06 100.315L199.452 98.2296L200.858 96.169L202.275 94.1342L203.705 92.1254L205.147 90.1431L206.6 88.1876L208.064 86.2593L209.538 84.3587L211.023 82.486L212.517 80.6416L214.021 78.826L215.533 77.0393L217.054 75.282L218.583 73.5544L220.119 71.8568L221.663 70.1895L223.213 68.5529L224.77 66.9472L226.333 65.3727L227.901 63.8297L229.474 62.3186L231.052 60.8395L232.633 59.3927L234.219 57.9786L235.808 56.5972L237.399 55.2489L238.993 53.9339L240.588 52.6525L242.185 51.4047L243.783 50.1909L245.381 49.0113L246.98 47.8659L248.577 46.7551L250.174 45.679L251.77 44.6377L253.364 43.6315L254.955 42.6604L256.544 41.7245L258.129 40.8242L259.711 39.9593L261.288 39.1302L262.861 38.3368L264.428 37.5793L265.991 36.8577L267.547 36.1722L269.096 35.5228L270.638 34.9096L272.173 34.3326L273.701 33.7918L275.219 33.2874L276.729 32.8194L278.23 32.3877L279.72 31.9923L281.201 31.6334L282.671 31.3109L284.129 31.0247L285.576 30.7748L287.011 30.5613L288.434 30.384L289.844 30.2429L291.24 30.1381L292.622 30.0693L293.99 30.0365L295.344 30.0397L296.682 30.0788L298.005 30.1536L299.312 30.2641L300.602 30.4101L301.876 30.5916L303.132 30.8083L304.37 31.0602L305.591 31.3471L306.793 31.6688L307.976 32.0252L309.14 32.4162L310.284 32.8414L311.408 33.3009L312.512 33.7942L313.595 34.3214L314.656 34.882L315.696 35.476L316.715 36.1031L317.71 36.7631L318.683 37.4557L319.634 38.1807L320.56 38.9378L321.463 39.7267L322.342 40.5473L323.197 41.3992L324.027 42.2821L324.832 43.1958L325.611 44.1399L326.365 45.1142L327.093 46.1183L327.795 47.152L328.47 48.2148L329.119 49.3066L329.74 50.4268L330.334 51.5753L330.9 52.7516L331.439 53.9554L331.949 55.1863L332.431 56.444L332.884 57.7281L333.309 59.0382L333.704 60.374L334.071 61.735L334.407 63.1208L334.714 64.5312L334.991 65.9655L335.238 67.4236L335.455 68.9048L335.641 70.4089L335.797 71.9354L335.922 73.4838L336.016 75.0538L336.079 76.6449L336.111 78.2567L336.112 79.8886L336.081 81.5403L336.018 83.2113L335.924 84.9013L335.798 86.6095L335.64 88.3358L335.451 90.0795L335.229 91.8402L334.975 93.6174L334.689 95.4107L334.371 97.2195L334.021 99.0435L333.639 100.882L333.224 102.735L332.777 104.601L332.297 106.48L331.786 108.373L331.242 110.277L330.666 112.193L330.057 114.12L329.416 116.057L328.743 118.005L328.038 119.963L327.301 121.929L326.532 123.905L325.731 125.888L324.898 127.879L324.033 129.877L323.137 131.882L322.209 133.893L321.25 135.91L320.259 137.931L319.237 139.957L318.184 141.987L317.1 144.021L315.985 146.058L314.84 148.097L313.664 150.139L312.458 152.181L311.222 154.225L309.956 156.27L308.66 158.314L307.335 160.358L305.981 162.4L304.597 164.442L303.185 166.481L301.744 168.518L300.275 170.552L298.778 172.582L297.253 174.608L295.7 176.63L294.12 178.647L292.514 180.659L290.88 182.664L289.22 184.663L287.534 186.655L285.823 188.64L284.086 190.617L282.324 192.586L280.537 194.546L278.725 196.497L276.89 198.438L275.03 200.369L273.148 202.289L271.242 204.199L269.314 206.096L267.363 207.982L265.391 209.856L263.397 211.717L261.382 213.565L259.346 215.399L257.291 217.219L255.215 219.025L253.12 220.815L251.005 222.591L248.872 224.351L246.721 226.095L244.553 227.822L242.367 229.533L240.164 231.226L237.945 232.902L235.71 234.56L233.46 236.2L231.194 237.821L228.914 239.423L226.621 241.006L224.313 242.57L221.993 244.113L219.66 245.636L217.315 247.138L214.959 248.62L212.591 250.08L210.214 251.519L207.826 252.935L205.428 254.33L203.022 255.703L200.607 257.052L198.184 258.379L195.754 259.683L193.317 260.963L190.874 262.22L188.424 263.452L185.97 264.661L183.511 265.845L181.047 267.005L178.58 268.14L176.11 269.249L173.638 270.334L171.163 271.393L168.687 272.427L166.21 273.435L163.732 274.417L161.255 275.373L158.779 276.303L156.304 277.207L153.83 278.084L151.36 278.934L148.892 279.758L146.428 280.555L143.967 281.325L141.512 282.068L139.061 282.784L136.617 283.473L134.179 284.134L131.747 284.768L129.323 285.375L126.907 285.954L124.5 286.506L122.101 287.03L119.712 287.526L117.334 287.996L114.966 288.437L112.609 288.851L110.265 289.237L107.932 289.596L105.613 289.927L103.307 290.23L101.015 290.506L98.737 290.755L96.4744 290.976L94.2274 291.17L91.9965 291.336L89.7822 291.476L87.585 291.588L85.4054 291.673L83.244 291.731L81.1013 291.762L78.9777 291.766L76.8738 291.744L74.7901 291.695L72.727 291.62L70.685 291.519L68.6647 291.391L66.6665 291.238L64.6909 291.059L62.7383 290.854L60.8093 290.623L58.9043 290.367L57.0237 290.087L55.1679 289.781L53.3376 289.45L51.533 289.095L49.7546 288.716L48.0029 288.313L46.2783 287.886L44.5811 287.435L42.9119 286.961L41.271 286.463L39.6588 285.943L38.0757 285.4L36.5221 284.835L34.9984 284.247L33.5049 283.638L32.0421 283.008L30.6103 282.355L29.2098 281.682L27.841 280.989L26.5043 280.275L25.2 279.54L23.9283 278.786L22.6897 278.013L21.4844 277.221L20.3128 276.409L19.1751 275.579L18.0717 274.731L17.0028 273.866L15.9687 272.982L14.9697 272.082L14.006 271.165L13.078 270.232L12.1857 269.282L11.3296 268.317L10.5097 267.337L9.7264 266.341L8.9798 265.332L8.27017 264.308L7.59769 263.27L6.96254 262.219L6.36491 261.155L5.80499 260.078L5.2829 258.989L4.79884 257.888L4.35292 256.776L3.94532 255.653L3.57613 254.519L3.24551 253.375L2.95352 252.222L2.70033 251.059L2.48601 249.887L2.31061 248.706L2.17426 247.518L2.077 246.322L2.01889 245.118L2 243.908L2.02035 242.692L2.08 241.469L2.17896 240.241L2.31726 239.008L2.49489 237.77L2.71183 236.528L2.96811 235.282L3.26369 234.033L3.59856 232.781L3.97265 231.526L4.38593 230.27L4.83836 229.011L5.32986 227.752L5.86035 226.492L6.42977 225.231L7.03804 223.971L7.685 222.711L8.37059 221.452L9.09471 220.195L9.85718 218.939L10.6579 217.686L11.4967 216.435L12.3735 215.188L13.2881 213.943L14.2402 212.704L15.2299 211.468L16.2567 210.237L17.3207 209.012L18.4215 207.792L19.5589 206.578L20.7328 205.37L21.9428 204.17L23.1889 202.977L24.4706 201.791L25.7878 200.614L27.1402 199.445L28.5276 198.285L29.9496 197.135L31.406 195.994L32.8964 194.863L34.4207 193.742L35.9784 192.633L37.5693 191.534L39.193 190.447L40.8492 189.372L42.5375 188.31L44.2577 187.26L46.0094 186.223L47.7921 185.2L49.6056 184.19L51.4495 183.194L53.3233 182.213L55.2268 181.246L57.1594 180.295L59.1208 179.359L61.1107 178.439L63.1285 177.534L65.1738 176.646L67.2463 175.775L69.3455 174.921L71.471 174.084L73.6223 173.264L75.7989 172.463L78.0004 171.679L80.2264 170.914L82.4763 170.167L84.7498 169.44L87.0463 168.731L89.3653 168.042L91.7063 167.372L94.069 166.723L96.4526 166.093L98.8569 165.484L101.281 164.896L103.725 164.328L106.188 163.781L108.669 163.256L111.168 162.751L113.685 162.269L116.219 161.808L118.769 161.369L121.335 160.952L123.916 160.557L126.512 160.185L129.122 159.835L131.745 159.508L134.382 159.203L137.031 158.922L139.693 158.664L142.365 158.429L145.049 158.217L147.742 158.028L150.446 157.863L153.158 157.721L155.879 157.603L158.608 157.509L161.344 157.439L164.088 157.392L166.837 157.369L169.592 157.37L172.352 157.395L175.116 157.443L177.884 157.516L180.656 157.613L183.43 157.734L186.207 157.878L188.984 158.047L191.763 158.239L194.542 158.455L197.321 158.696L200.099 158.96L202.876 159.248L205.65 159.559L208.422 159.894L211.191 160.253L213.956 160.635L216.717 161.041L219.472 161.47L222.222 161.922L224.966 162.398L227.704 162.896L230.434 163.417L233.156 163.961L235.87 164.528L238.575 165.117L241.27 165.728L243.955 166.362L246.63 167.017L249.293 167.695L251.945 168.394L254.584 169.114L257.21 169.856L259.823 170.619L262.422 171.403L265.006 172.207L267.575 173.032L270.129 173.877L272.666 174.742L275.187 175.627L277.691 176.532L280.177 177.455L282.645 178.398L285.094 179.36L287.523 180.34L289.934 181.338L292.323 182.354L294.692 183.388L297.04 184.439L299.367 185.507L301.671 186.592L303.952 187.693L306.211 188.811L308.446 189.944L310.657 191.093L312.843 192.257L315.005 193.436L317.141 194.63L319.251 195.838L321.336 197.059L323.394 198.294L325.424 199.542L327.428 200.803L329.403 202.076L331.351 203.361L333.27 204.658L335.16 205.966L337.02 207.285L338.851 208.614L340.652 209.953L342.423 211.303L344.163 212.661L345.872 214.028L347.549 215.404L349.195 216.788L350.809 218.18L352.39 219.579L353.939 220.984L355.455 222.396L356.938 223.815L358.387 225.238L359.803 226.667L361.185 228.101L362.532 229.539L363.845 230.98L365.124 232.425L366.367 233.873L367.576 235.324L368.749 236.777L369.886 238.231L370.988 239.687L372.054 241.143L373.084 242.6L374.078 244.056L375.035 245.512L375.955 246.967L376.839 248.42L377.687 249.872L378.497 251.321L379.27 252.767L380.006 254.21L380.705 255.649L381.366 257.084L381.991 258.514L382.577 259.939L383.126 261.359L383.638 262.772L384.111 264.179L384.547 265.579L384.946 266.972L385.306 268.357L385.629 269.734L385.914 271.102L386.162 272.461L386.372 273.81L386.544 275.149L386.678 276.478L386.775 277.796L386.834 279.102L386.856 280.397L386.84 281.68L386.787 282.95L386.697 284.207L386.57 285.45L386.405 286.679L386.204 287.895L385.965 289.095L385.69 290.28L385.379 291.45L385.031 292.604L384.647 293.741L384.226 294.862L383.77 295.965L383.278 297.051L382.75 298.119L382.187 299.169L381.589 300.2L380.956 301.212L380.288 302.204L379.585 303.177L378.849 304.13L378.078 305.062L377.273 305.973L376.435 306.863L375.563 307.731L374.659 308.578L373.722 309.402L372.752 310.204L371.75 310.983L370.717 311.738L369.651 312.471L368.555 313.179L367.427 313.863L366.269 314.523L365.081 315.158L363.863 315.769L362.615 316.354L361.338 316.913L360.032 317.447L358.698 317.955L357.335 318.436L355.945 318.891L354.528 319.319L353.083 319.72L351.612 320.094L350.114 320.441L348.591 320.76L347.043 321.051L345.469 321.314L343.871 321.549L342.249 321.755L340.604 321.933L338.935 322.082L337.243 322.202L335.529 322.293L333.793 322.355L332.035 322.387L330.257 322.39L328.458 322.364L326.639 322.307L324.8 322.221L322.943 322.105L321.066 321.959L319.172 321.783L317.26 321.576L315.33 321.34L313.384 321.072L311.422 320.775L309.444 320.447L307.451 320.089L305.443 319.7L303.421 319.281L301.386 318.831L299.337 318.35L297.276 317.839L295.202 317.298L293.117 316.725L291.021 316.123L288.914 315.49L286.797 314.826L284.67 314.132L282.535 313.408L280.391 312.654L278.239 311.869L276.079 311.054L273.913 310.209L271.74 309.335L269.562 308.43L267.378 307.496L265.189 306.532L262.996 305.538L260.799 304.516L258.599 303.464L256.397 302.383L254.192 301.273L251.986 300.134L249.778 298.967L247.57 297.772L245.362 296.548L243.154 295.296L240.947 294.017L238.742 292.71L236.539 291.376L234.338 290.014L232.14 288.626L229.946 287.211L227.756 285.77L225.571 284.302L223.391 282.809L221.216 281.29L219.047 279.746L216.885 278.177L214.731 276.583L212.583 274.964L210.444 273.322L208.313 271.655L206.192 269.965L204.08 268.252L201.977 266.516L199.886 264.758L197.805 262.977L195.736 261.175L193.679 259.351L191.633 257.506L189.601 255.64L187.582 253.754L185.577 251.848L183.586 249.923L181.609 247.978L179.647 246.015L177.701 244.033L175.771 242.033L173.856 240.015L171.959 237.981L170.078 235.93L168.215 233.862L166.37 231.779L164.543 229.68L162.735 227.566L160.946 225.438L159.176 223.296L157.426 221.14L155.696 218.971L153.986 216.79L152.298 214.596L150.63 212.39L148.984 210.174L147.36 207.946L145.758 205.709L144.178 203.461L142.621 201.204L141.088 198.939L139.577 196.665L138.091 194.384L136.628 192.095L135.189 189.799L133.775 187.497L132.386 185.19L131.022 182.877L129.683 180.56L128.369 178.238L127.081 175.913L125.819 173.585L124.584 171.254L123.375 168.921L122.192 166.587L121.036 164.251L119.907 161.916L118.805 159.58L117.731 157.245L116.684 154.911L115.665 152.578L114.673 150.248L113.71 147.921L112.775 145.597L111.868 143.277L110.989 140.961L110.138 138.65L109.317 136.345L108.523 134.045L107.759 131.753L107.024 129.467L106.317 127.189L105.639 124.919L104.99 122.658L104.371 120.406L103.78 118.163L103.219 115.931L102.687 113.71L102.184 111.5L101.71 109.303L101.266 107.117L100.85 104.945L100.464 102.786L100.107 100.64L99.7791 98.5099L99.4803 96.3943L99.2106 94.2942L98.9699 92.2102L98.7581 90.1427L98.5752 88.0923L98.4211 86.0593L98.2957 84.0445L98.1989 82.0481L98.1307 80.0708L98.0909 78.113L98.0794 76.1752L98.0961 74.2578L98.1408 72.3614L98.2135 70.4864L98.314 68.6332L98.4421 66.8024L98.5977 64.9944L98.7806 63.2097L98.9906 61.4487L99.2276 59.7118L99.4914 57.9994L99.7818 56.3121L100.099 54.6502L100.442 53.0142L100.811 51.4045L101.205 49.8215L101.625 48.2655L102.071 46.7371L102.542 45.2366L103.037 43.7643L103.557 42.3207L104.101 40.9061L104.67 39.521L105.262 38.1656L105.877 36.8404L106.516 35.5457L107.178 34.2817L107.862 33.049L108.569 31.8477L109.297 30.6783L110.048 29.541L110.82 28.4362L111.613 27.3642L112.426 26.3251L113.261 25.3195L114.115 24.3474L114.989 23.4092L115.882 22.5052L116.795 21.6357L117.726 20.8008L118.675 20.0008L119.643 19.236L120.628 18.5066L121.63 17.8127L122.65 17.1547L123.685 16.5327L124.737 15.947L125.805 15.3976L126.887 14.8849L127.985 14.4089L129.098 13.9698L130.224 13.5678L131.364 13.203L132.518 12.8756L133.684 12.5857L134.863 12.3334L136.054 12.1188L137.257 11.9421L138.471 11.8033L139.695 11.7026L140.93 11.6399L142.175 11.6154L143.43 11.6292L144.694 11.6812L145.966 11.7716L147.247 11.9003L148.535 12.0675L149.831 12.273L151.134 12.517L152.443 12.7994L153.758 13.1202L155.079 13.4795L156.405 13.8771L157.735 14.313L159.07 14.7872L160.409 15.2997L161.751 15.8504L163.096 16.4392L164.443 17.066L165.793 17.7308L167.144 18.4335L168.496 19.1738L169.85 19.9519L171.203 20.7674L172.556 21.6203L173.908 22.5105L175.26 23.4378L176.61 24.402L177.958 25.403L179.303 26.4406L180.646 27.5147L181.986 28.625L183.321 29.7713L184.653 30.9534L185.98 32.1712L187.303 33.4243L188.619 34.7127L189.93 36.0359L191.235 37.3938L192.533 38.7861L193.825 40.2126L195.108 41.673L196.384 43.167L197.651 44.6942L198.91 46.2546L200.16 47.8476L201.4 49.473L202.63 51.1306L203.85 52.8199L205.06 54.5406L206.258 56.2924L207.445 58.075L208.62 59.888L209.783 61.731L210.933 63.6036L212.071 65.5055L213.195 67.4364L214.306 69.3957L215.402 71.3832L216.485 73.3984L217.552 75.4409L218.605 77.5103L219.643 79.6062L220.665 81.7281L221.671 83.8756L222.66 86.0483L223.633 88.2457L224.59 90.4674L225.529 92.7129L226.45 94.9818L227.354 97.2735L228.24 99.5877L229.108 101.924L229.957 104.281L230.787 106.66L231.598 109.059L232.389 111.478L233.162 113.916L233.914 116.373L234.646 118.849L235.358 121.343L236.049 123.854L236.72 126.382L237.37 128.927L237.998 131.487L238.606 134.062L239.191 136.653L239.755 139.257L240.297 141.875L240.818 144.506L241.316 147.15L241.791 149.806L242.244 152.473L242.675 155.151L243.082 157.84L243.467 160.538L243.829 163.245L244.167 165.961L244.483 168.685L244.775 171.417L245.043 174.155L245.288 176.9L245.51 179.65L245.708 182.406L245.882 185.166L246.032 187.93L246.159 190.697L246.262 193.467L246.341 196.24L246.395 199.014L246.426 201.789L246.434 204.565L246.417 207.34L246.376 210.115L246.311 212.889L246.223 215.66L246.11 218.43L245.974 221.196L245.814 223.958L245.63 226.717L245.423 229.47L245.191 232.218L244.937 234.96L244.659 237.696L244.357 240.424L244.032 243.145L243.684 245.858L243.313 248.561L242.919 251.256L242.502 253.94L242.062 256.614L241.6 259.276L241.115 261.927L240.608 264.566L240.079 267.192L239.528 269.804L238.955 272.403L238.361 274.987L237.745 277.557L237.108 280.111L236.449 282.648L235.77 285.17L235.07 287.674L234.35 290.16L233.61 292.629L232.849 295.078L232.069 297.509L231.27 299.92L230.451 302.311L229.613 304.681L228.756 307.029L227.881 309.357L226.988 311.662L226.077 313.944L225.148 316.204L224.202 318.439L223.239 320.651L222.259 322.839L221.263 325.001L220.25 327.138L219.222 329.25L218.178 331.335L217.119 333.393L216.046 335.425L214.957 337.429L213.855 339.405L212.739 341.353L211.609 343.272L210.466 345.162L209.311 347.022L208.143 348.853L206.963 350.654L205.771 352.424L204.568 354.163L203.354 355.871L202.13 357.547L200.896 359.192L199.652 360.804L198.398 362.384L197.136 363.931L195.865 365.445L194.586 366.925L193.299 368.372L192.005 369.784L190.705 371.162L189.397 372.506L188.084 373.815L186.765 375.089L185.44 376.328L184.111 377.531L182.778 378.699L181.44 379.831L180.099 380.926L178.755 381.985L177.409 383.008L176.06 383.994L174.709 384.943L173.358 385.856L172.005 386.731L170.652 387.568L169.298 388.369L167.946 389.131L166.594 389.856L165.243 390.544L163.894 391.193L162.548 391.804L161.204 392.377L159.863 392.913L158.526 393.41L157.193 393.868L155.864 394.289L154.54 394.67L153.221 395.014L151.909 395.319L150.602 395.586L149.302 395.814L148.009 396.004L146.724 396.156L145.447 396.269L144.178 396.344L142.918 396.38L141.667 396.378L140.426 396.338L139.195 396.26L137.975 396.144L136.765 395.989L135.567 395.797L134.381 395.567L133.207 395.3L132.046 394.995L130.898 394.652L129.764 394.272L128.643 393.855L127.536 393.401L126.445 392.91L125.368 392.382L124.307 391.818L123.261 391.217L122.232 390.581L121.22 389.908L120.225 389.2L119.247 388.456L118.286 387.677L117.344 386.862L116.421 386.013L115.516 385.13L114.63 384.212L113.764 383.26L112.918 382.274L112.092 381.255L111.287 380.202L110.503 379.117L109.74 377.999L108.998 376.848L108.278 375.666L107.581 374.452L106.905 373.206L106.253 371.93L105.624 370.622L105.018 369.285L104.435 367.917L103.877 366.52L103.342 365.094L102.832 363.638L102.347 362.155L101.886 360.643L101.451 359.103L101.041 357.536L100.657 355.942L100.299 354.321L99.9664 352.675L99.6603 351.003L99.3808 349.305L99.1278 347.583L98.9018 345.836L98.7028 344.065L98.531 342.271L98.3866 340.453L98.2697 338.614L98.1805 336.751L98.1192 334.868L98.0858 332.963L98.0806 331.037L98.1036 329.091L98.155 327.125L98.2349 325.14L98.3433 323.136L98.4804 321.114L98.6462 319.074L98.8408 317.016L99.0644 314.942L99.317 312.851L99.5985 310.745L99.9092 308.623L100.249 306.486L100.618 304.336L101.016 302.171L101.443 299.993L101.9 297.803L102.385 295.6L102.9 293.385L103.444 291.16L104.017 288.924L104.62 286.677L105.251 284.421L105.912 282.157L106.601 279.883L107.32 277.602L108.067 275.313L108.843 273.018L109.648 270.716L110.481 268.408L111.343 266.095L112.234 263.778L113.152 261.456L114.099 259.13L115.074 256.802L116.077 254.471L117.107 252.138L118.165 249.803L119.251 247.468L120.364 245.132L121.504 242.796L122.67 240.461L123.864 238.127L125.084 235.795L126.33 233.465L127.603 231.138L128.901 228.814L130.225 226.495L131.574 224.179L132.949 221.868L134.348 219.563L135.772 217.264L137.221 214.971L138.693 212.685L140.19 210.407L141.71 208.136L143.253 205.874L144.819 203.621L146.408 201.378L148.019 199.144L149.652 196.921L151.307 194.709L152.983 192.508L154.68 190.319L156.398 188.143L158.136 185.979L159.895 183.829L161.672 181.692L163.469 179.57L165.285 177.462L167.12 175.37L168.972 173.293L170.842 171.232L172.73 169.187L174.634 167.16L176.555 165.149L178.492 163.157L180.444 161.182L182.412 159.226L184.395 157.289L186.392 155.372L188.403 153.474L190.427 151.596L192.465 149.739L194.515 147.902L196.577 146.087L198.651 144.294L200.737 142.522L202.832 140.773L204.939 139.046L207.055 137.342L209.18 135.662L211.314 134.005L213.457 132.372L215.607 130.764L217.765 129.18L219.93 127.621L222.101 126.087L224.278 124.578L226.461 123.096L228.648 121.639L230.84 120.208L233.035 118.804L235.234 117.427L237.436 116.076L239.64 114.753L241.846 113.457L244.053 112.189L246.261 110.949L248.469 109.737L250.677 108.553L252.884 107.397L255.09 106.271L257.294 105.172L259.496 104.103L261.695 103.063L263.89 102.052L266.081 101.071L268.268 100.119L270.45 99.197L272.626 98.3045L274.796 97.4419L276.96 96.6093L279.116 95.8068L281.265 95.0344L283.406 94.2922L285.538 93.5803L287.66 92.8988L289.773 92.2476L291.876 91.627L293.968 91.0368L296.048 90.4771L298.117 89.948L300.173 89.4494L302.217 88.9814L304.247 88.5439L306.263 88.1369L308.265 87.7605L310.252 87.4146L312.223 87.0991L314.179 86.8141L316.118 86.5594L318.041 86.335L319.946 86.1409L321.833 85.9769L323.702 85.843L325.552 85.7391L327.382 85.6651L329.193 85.6209L330.984 85.6064L332.754 85.6214L334.503 85.6659L336.23 85.7396L337.935 85.8425L339.617 85.9745L341.277 86.1352L342.913 86.3247L344.525 86.5427L346.113 86.789L347.677 87.0635L349.215 87.3659L350.728 87.6961L352.214 88.0538L353.675 88.4389L355.108 88.8511L356.515 89.2902L357.894 89.7559L359.245 90.2481L360.568 90.7664L361.862 91.3107L363.127 91.8806L364.363 92.476L365.569 93.0964L366.745 93.7417L367.89 94.4116L369.005 95.1057L370.089 95.8238L371.141 96.5656L372.162 97.3308L373.151 98.119L374.107 98.9299L375.031 99.7633L375.922 100.619L376.78 101.496L377.605 102.395L378.396 103.314L379.153 104.255L379.876 105.216L380.564 106.196L381.218 107.197L381.837 108.217L382.421 109.255L382.969 110.313L383.482 111.388L383.96 112.481L384.402 113.592L384.807 114.719L385.177 115.863L385.51 117.024L385.807 118.2L386.067 119.391L386.29 120.598L386.477 121.819L386.626 123.054L386.738 124.303L386.813 125.565L386.851 126.84L386.852 128.128L386.815 129.427L386.74 130.739L386.628 132.061L386.478 133.394L386.291 134.737L386.066 136.091L385.803 137.453L385.502 138.825L385.164 140.205L384.788 141.593L384.374 142.989L383.923 144.392L383.434 145.802L382.907 147.218L382.343 148.64L381.741 150.067L381.101 151.499L380.425 152.936L379.711 154.377L378.96 155.821L378.171 157.268L377.346 158.718L376.484 160.171L375.585 161.625L374.649 163.08L373.677 164.536L372.669 165.993L371.624 167.449L370.544 168.905L369.427 170.36L368.275 171.814L367.088 173.266L365.865 174.716L364.607 176.163L363.315 177.606L361.988 179.047L360.626 180.483L359.23 181.914L357.801 183.341L356.338 184.763L354.842 186.179L353.312 187.588L351.75 188.991L350.155 190.387L348.528 191.776L346.87 193.156L345.179 194.529L343.458 195.892L341.705 197.247L339.922 198.592L338.109 199.928L336.266 201.253L334.393 202.567L332.492 203.871L330.561 205.163L328.602 206.443L326.615 207.711L324.6 208.967L322.559 210.21L320.49 211.439L318.395 212.655L316.274 213.857L314.127 215.045L311.955 216.218L309.759 217.375L307.538 218.518L305.294 219.645L303.026 220.756L300.735 221.851L298.422 222.929L296.087 223.99L293.73 225.035L291.352 226.061L288.954 227.07L286.536 228.061L284.098 229.033L281.642 229.987L279.166 230.922L276.673 231.838L274.162 232.735L271.635 233.611L269.091 234.468L266.531 235.305L263.955 236.122L261.365 236.918L258.76 237.693L256.142 238.448L253.51 239.181L250.866 239.893L248.21 240.583L245.542 241.251L242.863 241.898L240.173 242.523L237.474 243.125L234.766 243.705L232.048 244.262L229.323 244.797L226.59 245.309L223.849 245.798L221.103 246.264L218.35 246.707L215.593 247.126L212.83 247.522L210.064 247.895L207.293 248.244L204.52 248.57L201.745 248.872L198.968 249.15L196.189 249.404L193.41 249.634L190.631 249.841L187.853 250.024L185.075 250.183L182.3 250.317L179.527 250.428L176.756 250.515L173.99 250.578L171.227 250.617L168.469 250.632L165.716 250.624L162.969 250.591L160.229 250.535L157.496 250.454L154.77 250.35L152.052 250.223L149.343 250.072L146.644 249.897L143.954 249.699L141.275 249.477L138.607 249.233L135.951 248.965L133.307 248.674L130.675 248.361L128.057 248.024L125.452 247.665L122.863 247.284L120.288 246.88L117.728 246.454L115.185 246.006L112.658 245.536L110.148 245.045L107.656 244.532L105.182 243.998L102.727 243.442L100.291 242.866L97.8751 242.269L95.4791 241.652L93.104 241.014L90.7501 240.356L88.4179 239.679L86.108 238.982L83.8209 238.265L81.557 237.53L79.3167 236.776L77.1007 236.003L74.9092 235.212L72.7429 234.403L70.602 233.576L68.4872 232.732L66.3989 231.871L64.3374 230.993L62.3032 230.098L60.2967 229.187L58.3184 228.261L56.3686 227.318L54.4479 226.361L52.5564 225.388L50.6947 224.401L48.8632 223.4L47.0622 222.384L45.2921 221.355L43.5532 220.313L41.8459 219.258L40.1706 218.19L38.5276 217.11L36.9172 216.019L35.3398 214.916L33.7957 213.802L32.2852 212.677L30.8086 211.542L29.3662 210.397L27.9583 209.242L26.5851 208.079L25.247 206.906L23.9442 205.726L22.677 204.537L21.4456 203.341L20.2502 202.137L19.0912 200.927L17.9686 199.711L16.8828 198.489L15.834 197.261L14.8222 196.028L13.8478 194.791L12.911 193.549L12.0118 192.304L11.1504 191.055L10.3271 189.803L9.54197 188.549L8.7951 187.292L8.08666 186.034L7.4168 184.775L6.78559 183.515L6.19315 182.254L5.63956 180.994L5.12494 179.734L4.64936 178.475L4.21286 177.217L3.81552 175.961L3.45741 174.708L3.13854 173.457L2.85896 172.209L2.6187 170.964L2.41778 169.724L2.25618 168.488L2.1339 167.257L2.05096 166.031L2.00732 164.811L2.00297 163.597L2.03783 162.39L2.1119 161.189L2.22508 159.996L2.37735 158.811L2.5686 157.634L2.7988 156.465L3.06779 155.306L3.37551 154.157L3.72188 153.017L4.10672 151.887L4.52995 150.769L4.99143 149.661L5.49099 148.565L6.02851 147.481L6.60381 146.409L7.21675 145.35L7.86713 144.305L8.55477 143.273L9.27948 142.254L10.041 141.25L10.8393 140.261L11.6739 139.287L12.5448 138.328L13.4517 137.385L14.3943 136.458L15.3724 135.548L16.3857 134.655L17.434 133.779L18.517 132.92L19.6344 132.079L20.786 131.257L21.9713 130.453L23.1902 129.669L24.4423 128.903L25.7273 128.157L27.0449 127.431L28.3948 126.725L29.7765 126.04L31.1898 125.375L32.6343 124.732L34.1096 124.11L35.6154 123.51L37.1514 122.931L38.717 122.375L40.312 121.841L41.9359 121.33L43.5885 120.842L45.2691 120.378L46.9775 119.936L48.7132 119.519L50.4759 119.125L52.2649 118.756L54.0801 118.411L55.9208 118.091L57.7867 117.795L59.6773 117.524L61.5922 117.279L63.5309 117.059L65.4929 116.864L67.4778 116.696L69.485 116.553L71.5142 116.436L73.5648 116.345L75.6364 116.281L77.7284 116.243L79.8404 116.231L81.9718 116.247L84.1222 116.289L86.2911 116.358L88.4779 116.454L90.6821 116.577L92.9033 116.727L95.1408 116.905L97.3942 117.11L99.663 117.342L101.947 117.602L104.244 117.889L106.556 118.204L108.881 118.546L111.218 118.916L113.568 119.313L115.929 119.739L118.302 120.191L120.684 120.671L123.077 121.179L125.479 121.715L127.89 122.278L130.31 122.868L132.737 123.486L135.171 124.131L137.612 124.804L140.059 125.503L142.511 126.23L144.969 126.984L147.431 127.765L149.897 128.573L152.366 129.408L154.838 130.269L157.312 131.157L159.787 132.071L162.264 133.012L164.742 133.979L167.219 134.971L169.696 135.99L172.171 137.034L174.645 138.104L177.117 139.199L179.586 140.319L182.051 141.464L184.513 142.633L186.97 143.827L189.423 145.046L191.87 146.288L194.31 147.554L196.745 148.844L199.172 150.157L201.592 151.494L204.003 152.853L206.406 154.234L208.799 155.638L211.183 157.064L213.557 158.511L215.92 159.98L218.272 161.47L220.612 162.981L222.94 164.512L225.255 166.064L227.557 167.635L229.845 169.226L232.119 170.836L234.378 172.465L236.622 174.112L238.851 175.777L241.063 177.46L243.259 179.161L245.438 180.878L247.6 182.613L249.743 184.363L251.869 186.129L253.975 187.911L256.063 189.708L258.13 191.52L260.178 193.346L262.205 195.185L264.212 197.038L266.197 198.905L268.161 200.783L270.102 202.674L272.021 204.577L273.918 206.491L275.791 208.415L277.64 210.351L279.466 212.296L281.268 214.25L283.044 216.214L284.796 218.186L286.523 220.166L288.224 222.154L289.9 224.149L291.549 226.151L293.171 228.159L294.767 230.173L296.336 232.192L297.877 234.215L299.391 236.244L300.877 238.275L302.334 240.31L303.764 242.348L305.164 244.388L306.536 246.43L307.878 248.474L309.192 250.518L310.475 252.562L311.729 254.606L312.953 256.65L314.147 258.692L315.31 260.733L316.443 262.771L317.545 264.807L318.617 266.839L319.657 268.868L320.666 270.892L321.644 272.911L322.591 274.926L323.506 276.934L324.389 278.936L325.241 280.932L326.061 282.92L326.849 284.9L327.605 286.872L328.329 288.835L329.021 290.788L329.681 292.732L330.309 294.666L330.904 296.588L331.467 298.499L331.998 300.399L332.497 302.286L332.963 304.16L333.397 306.021L333.798 307.868L334.168 309.7L334.505 311.518L334.81 313.321L335.082 315.107L335.323 316.878L335.532 318.632L335.708 320.369L335.853 322.087L335.966 323.788L336.047 325.471L336.097 327.134L336.115 328.778L336.102 330.401L336.057 332.005L335.982 333.587L335.875 335.149L335.737 336.688L335.569 338.205L335.371 339.7L335.141 341.172L334.882 342.621L334.593 344.045L334.274 345.446L333.925 346.821L333.547 348.172L333.14 349.498L332.703 350.797L332.238 352.071L331.745 353.317L331.223 354.537L330.673 355.73L330.095 356.895L329.49 358.032L328.858 359.141L328.198 360.221L327.512 361.272L326.8 362.293L326.061 363.285L325.297 364.247L324.507 365.179L323.692 366.08L322.852 366.951L321.987 367.79L321.098 368.597L320.186 369.373L319.249 370.118L318.29 370.829L317.307 371.509L316.302 372.155L315.275 372.769L314.227 373.349L313.156 373.896L312.065 374.41L310.953 374.889L309.82 375.335L308.668 375.746L307.496 376.123L306.306 376.465L305.096 376.773L303.868 377.046L302.622 377.283L301.359 377.486L300.078 377.653L298.781 377.784L297.468 377.88L296.139 377.94L294.794 377.965L293.435 377.953L292.061 377.906L290.673 377.823L289.271 377.703L287.856 377.547L286.428 377.355L284.988 377.127L283.537 376.862L282.073 376.561L280.599 376.224L279.114 375.85L277.619 375.44L276.115 374.993L274.602 374.51L273.079 373.991L271.549 373.436L270.011 372.844L268.466 372.216L266.913 371.552L265.355 370.852L263.791 370.115L262.221 369.343L260.646 368.535L259.067 367.692L257.484 366.812L255.897 365.897L254.307 364.947L252.715 363.962L251.12 362.941L249.524 361.886L247.927 360.796L246.329 359.671L244.73 358.511L243.132 357.318L241.534 356.09L239.938 354.829L238.343 353.533L236.75 352.205L235.16 350.843L233.573 349.448L231.989 348.021L230.409 346.561L228.833 345.069L227.262 343.545L225.696 341.989L224.135 340.401L222.581 338.783L221.033 337.134L219.493 335.454L217.959 333.744L216.433 332.005L214.916 330.235L213.407 328.437L211.907 326.609L210.417 324.754L208.937 322.869L207.466 320.957L206.007 319.018L204.558 317.052L203.122 315.058L201.696 313.039L200.284 310.994L198.883 308.923L197.496 306.827L196.122 304.706L194.762 302.561L193.416 300.392L192.085 298.2L190.768 295.985L189.466 293.748L188.18 291.488L186.91 289.206L185.656 286.904L184.419 284.581L183.198 282.237L181.994 279.874L180.808 277.492L179.64 275.09L178.49 272.671L177.358 270.234L176.245 267.779L175.15 265.308L174.075 262.82L173.019 260.316L171.983 257.798L170.967 255.264L169.971 252.717L168.996 250.155L168.042 247.581L167.108 244.994L166.195 242.395L165.304 239.784L164.435 237.163L163.587 234.531L162.761 231.889L161.958 229.237L161.176 226.577L160.418 223.909L159.682 221.233L158.969 218.551L158.279 215.861L157.612 213.166L156.968 210.465L156.348 207.759L155.752 205.05L155.179 202.336L154.63 199.62L154.105 196.901L153.604 194.18L153.127 191.458L152.674 188.734L152.245 186.011L151.841 183.288L151.461 180.567L151.106 177.846L150.775 175.128L150.468 172.413L150.187 169.7L149.929 166.992L149.697 164.288L149.489 161.59L149.305 158.897L149.146 156.21L149.012 153.529L148.902 150.857L148.817 148.192L148.756 145.535L148.72 142.888L148.708 140.25L148.721 137.623L148.758 135.006L148.819 132.4L148.904 129.807L149.013 127.226L149.146 124.658L149.303 122.103L149.484 119.563L149.688 117.037L149.916 114.527L150.167 112.032L150.442 109.553L150.739 107.092L151.06 104.647L151.403 102.221L151.769 99.8126L152.157 97.4235L152.568 95.0537L153 92.704L153.455 90.3746L153.931 88.0663L154.429 85.7794L154.948 83.5144L155.488 81.2719L156.049 79.0522L156.63 76.856L157.232 74.6837L157.854 72.5357L158.496 70.4125L159.157 68.3145L159.838 66.2423L160.538 64.1962L161.257 62.1768L161.994 60.1843L162.75 58.2193L163.524 56.2823L164.315 54.3735L165.124 52.4934L165.95 50.6424L166.792 48.821L167.651 47.0294L168.527 45.2682L169.418 43.5376L170.324 41.838L171.246 40.1699L172.182 38.5334L173.133 36.9291L174.098 35.3573L175.077 33.8182L176.07 32.3122L177.075 30.8397L178.093 29.4009L179.124 27.9961L180.166 26.6257L181.22 25.2899L182.285 23.989L183.361 22.7233L184.448 21.493L185.544 20.2985L186.65 19.14L187.766 18.0176L188.89 16.9317L190.023 15.8824L191.164 14.87L192.312 13.8947L193.468 12.9567L194.631 12.0561L195.8 11.1933L196.975 10.3683L198.156 9.58121L199.342 8.83237L200.532 8.1218L201.727 7.44972L202.926 6.81621L204.128 6.22141L205.334 5.66543L206.542 5.14838L207.752 4.67037L208.964 4.23146L210.177 3.83176L211.392 3.47133L212.607 3.15022L213.821 2.86847L215.036 2.62619L216.249 2.42332L217.462 2.25996L218.673 2.1361L219.881 2.05177L221.087 2.00693L222.29 2.0016L223.49 2.03576L224.686 2.10938L225.877 2.2224L227.064 2.37483L228.246 2.56655L229.422 2.79756L230.592 3.06775L231.756 3.37702L232.913 3.72535L234.063 4.11259L235.205 4.53864L236.339 5.00338L237.465 5.50671L238.582 6.04849L239.689 6.62859L240.787 7.24681L241.874 7.90303L242.951 8.59711L244.017 9.32882L245.072 10.098L246.115 10.9045L247.146 11.748L248.165 12.6284L249.17 13.5455L250.162 14.499L251.141 15.4887L252.106 16.5144L253.056 17.5757L253.991 18.6726L254.912 19.8046L255.817 20.9715L256.706 22.173L257.579 23.4089L258.435 24.6789L259.274 25.9826L260.097 27.3197L260.901 28.69L261.688 30.093L262.457 31.5285L263.207 32.9962L263.939 34.4956L264.651 36.0264L265.344 37.5883L266.017 39.1809L266.67 40.8039L267.303 42.4567L267.915 44.1392L268.506 45.8508L269.076 47.5911L269.625 49.3599L270.152 51.1566L270.658 52.9808L271.141 54.8321L271.601 56.7101L272.04 58.6144L272.455 60.5444L272.847 62.4999L273.216 64.4802L273.561 66.4849L273.883 68.5137L274.181 70.566L274.454 72.6414L274.704 74.7393L274.929 76.8593L275.129 79.001L275.305 81.1637L275.456 83.3471L275.581 85.5506L275.682 87.7737L275.757 90.016L275.807 92.2769L275.831 94.5558L275.829 96.8524L275.802 99.166L275.749 101.496L275.669 103.842L275.564 106.204L275.433 108.58L275.275 110.971L275.091 113.376L274.881 115.794L274.644 118.225L274.381 120.668L274.092 123.123L273.776 125.589L273.433 128.066L273.064 130.552L272.669 133.048L272.247 135.553L271.799 138.067L271.324 140.588L270.823 143.116L270.296 145.651L269.742 148.192L269.162 150.739L268.555 153.291L267.923 155.847L267.265 158.407L266.58 160.97L265.87 163.536L265.134 166.104L264.372 168.674L263.585 171.245L262.772 173.816L261.934 176.387L261.07 178.958L260.182 181.527L259.269 184.094L258.331 186.659L257.368 189.222L256.381 191.781L255.37 194.335L254.335 196.886L253.276 199.431L252.194 201.97L251.088 204.504L249.959 207.03L248.807 209.549L247.632 212.061L246.434 214.564L245.215 217.058L243.973 219.543L242.71 222.018L241.425 224.482L240.119 226.935L238.792 229.377L237.444 231.807L236.076 234.224L234.688 236.628L233.28 239.019L231.852 241.395L230.406 243.757L228.94 246.104L227.457 248.435L225.954 250.751L224.435 253.05L222.897 255.331L221.343 257.596L219.771 259.843L218.184 262.071L216.58 264.28L214.961 266.47L213.326 268.641L211.676 270.791L210.012 272.921L208.334 275.03L206.642 277.117L204.936 279.183L203.218 281.226L201.487 283.246L199.744 285.244L197.989 287.218L196.223 289.169L194.446 291.095L192.659 292.996L190.862 294.873L189.055 296.724L187.239 298.55L185.415 300.35L183.582 302.123L181.741 303.87L179.894 305.59L178.039 307.282L176.178 308.947L174.311 310.584L172.439 312.193L170.562 313.774L168.68 315.325L166.794 316.848L164.905 318.341L163.012 319.804L161.117 321.238L159.22 322.642L157.322 324.015L155.422 325.358L153.522 326.67L151.621 327.951L149.721 329.201L147.821 330.42L145.923 331.607L144.027 332.762L142.133 333.886L140.242 334.977L138.355 336.036L136.471 337.063L134.591 338.058L132.716 339.019L130.847 339.948L128.983 340.844L127.126 341.707L125.275 342.537L123.432 343.334L121.596 344.097L119.769 344.827L117.951 345.524L116.142 346.187L114.342 346.817L112.553 347.413L110.775 347.976L109.008 348.505L107.252 349L105.509 349.462L103.778 349.89L102.061 350.284L100.357 350.645L98.6676 350.972L96.9926 351.266L95.3326 351.526L93.6881 351.753L92.0596 351.947L90.4476 352.107L88.8525 352.233L87.2747 352.327L85.7148 352.387L84.1732 352.415L82.6502 352.41L81.1464 352.371L79.6622 352.301L78.1981 352.197L76.7544 352.062L75.3315 351.894L73.93 351.694L72.5503 351.462L71.1926 351.198L69.8575 350.903L68.5453 350.576L67.2565 350.218L65.9915 349.829L64.7505 349.41L63.5341 348.959L62.3425 348.479L61.1763 347.968L60.0356 347.427L58.921 346.857L57.8327 346.257L56.7711 345.628L55.7366 344.97L54.7295 344.283L53.75 343.568L52.7987 342.825L51.8757 342.055L50.9814 341.256L50.1161 340.431L49.28 339.578L48.4736 338.699L47.697 337.794L46.9506 336.863L46.2347 335.906L45.5494 334.924L44.8951 333.917L44.272 332.885L43.6804 331.829L43.1205 330.749L42.5925 329.646L42.0967 328.519L41.6333 327.37L41.2025 326.198L40.8044 325.005L40.4394 323.789L40.1075 322.553L39.809 321.295L39.544 320.017L39.3127 318.72L39.1153 317.402L38.9519 316.065L38.8226 314.71L38.7276 313.336L38.667 311.944L38.6409 310.534L38.6494 309.108L38.6927 307.664L38.7707 306.205L38.8837 304.73L39.0317 303.239L39.2147 301.734L39.4328 300.214L39.686 298.68L39.9745 297.133L40.2982 295.572L40.6571 293.999L41.0514 292.414L41.4809 290.817L41.9457 289.209L42.4457 287.59L42.9811 285.96L43.5516 284.321L44.1574 282.673L44.7983 281.016L45.4744 279.35L46.1855 277.677L46.9316 275.996L47.7125 274.308L48.5284 272.613L49.3789 270.913L50.2641 269.207L51.1837 267.496L52.1378 265.78L53.1262 264.06L54.1487 262.337L55.2052 260.611L56.2955 258.881L57.4195 257.15L58.5771 255.417L59.768 253.683L60.992 251.948L62.249 250.213L63.5388 248.478L64.8611 246.743L66.2158 245.01L67.6025 243.279L69.0212 241.549L70.4714 239.822L71.9531 238.098L73.4659 236.378L75.0096 234.661L76.5839 232.949L78.1884 231.242L79.8231 229.54L81.4874 227.843L83.1812 226.153L84.904 224.47L86.6557 222.793L88.4359 221.125L90.2443 219.464L92.0804 217.811L93.944 216.168L95.8347 214.533L97.7522 212.909L99.696 211.294L101.666 209.69L103.661 208.097L105.682 206.515L107.728 204.945L109.798 203.387L111.892 201.841L114.01 200.308L116.151 198.789L118.314 197.283L120.5 195.792L122.708 194.315L124.938 192.852L127.188 191.405L129.46 189.973L131.751 188.557L134.062 187.158L136.392 185.774L138.741 184.408L141.108 183.059L143.493 181.727L145.895 180.414L148.314 179.118L150.749 177.841L153.2 176.582L155.666 175.343L158.147 174.123L160.643 172.923L163.152 171.742L165.674 170.582L168.209 169.442L170.756 168.323L173.315 167.224L175.884 166.147L178.465 165.092L181.055 164.058L183.655 163.045L186.263 162.055L188.88 161.088L191.505 160.142L194.137 159.22L196.776 158.32L199.421 157.443L202.071 156.59L204.727 155.76L207.387 154.953L210.051 154.171L212.718 153.412L215.387 152.677L218.059 151.966L220.733 151.28L223.407 150.618L226.082 149.98L228.757 149.367L231.431 148.779L234.104 148.215L236.775 147.677L239.443 147.163L242.108 146.674L244.77 146.211L247.428 145.772L250.08 145.359L252.728 144.971L255.369 144.608L258.004 144.27L260.632 143.957L263.253 143.67L265.865 143.408L268.468 143.171L271.062 142.96L273.646 142.774L276.22 142.613L278.782 142.477L281.333 142.366L283.872 142.28L286.398 142.219L288.911 142.183L291.409 142.172L293.894 142.186L296.363 142.224L298.818 142.287L301.256 142.374L303.677 142.486L306.082 142.622L308.468 142.782L310.837 142.966L313.187 143.173L315.518 143.405L317.829 143.66L320.12 143.939L322.39 144.24L324.639 144.565L326.866 144.912L329.071 145.283L331.254 145.675L333.413 146.09L335.548 146.527L337.66 146.986L339.746 147.467L341.808 147.969L343.844 148.492L345.854 149.036L347.838 149.601L349.795 150.186L351.724 150.792L353.626 151.417L355.5 152.062L357.345 152.726L359.161 153.41L360.947 154.112L362.704 154.833L364.431 155.573L366.127 156.33L367.792 157.105L369.426 157.897L371.028 158.706L372.598 159.532L374.135 160.374L375.64 161.232L377.112 162.107L378.55 162.996L379.955 163.9L381.326 164.82L382.662 165.753L383.963 166.701L385.23 167.662L386.461 168.636L387.657 169.623L388.818 170.623L389.942 171.635L391.029 172.659L392.081 173.694L393.095 174.74L394.073 175.797L395.013 176.864L395.916 177.941L396.781 179.027L397.609 180.122L398.398 181.226L399.15 182.338L399.862 183.458L400.537 184.586L401.173 185.72L401.77 186.861L402.328 188.009L402.846 189.162L403.326 190.32L403.767 191.483L404.168 192.651L404.529 193.823L404.851 194.999L405.134 196.177L405.376 197.359L405.579 198.543L405.743 199.729L405.866 200.917L405.949 202.105L405.993 203.294L405.997 204.484L405.96 205.673L405.884 206.862L405.768 208.05L405.613 209.236L405.417 210.421L405.182 211.603L404.907 212.782L404.592 213.958L404.238 215.131L403.844 216.3L403.411 217.464L402.938 218.623L402.427 219.777L401.876 220.926L401.286 222.068L400.658 223.203L399.99 224.332L399.285 225.454L398.54 226.567L397.758 227.673L396.938 228.77L396.079 229.858L395.183 230.936L394.25 232.005L393.279 233.064L392.272 234.112L391.227 235.149L390.146 236.175L389.029 237.189L387.875 238.191L386.686 239.181L385.461 240.158L384.201 241.121L382.906 242.071L381.576 243.008L380.212 243.929L378.813 244.837L377.381 245.729L375.915 246.606L374.417 247.467L372.885 248.312L371.321 249.141L369.725 249.954L368.097 250.749L366.438 251.527L364.747 252.287L363.026 253.03L361.275 253.754L359.494 254.46L357.683 255.147L355.844 255.815L353.975 256.464L352.079 257.093L350.154 257.702L348.203 258.291L346.224 258.86L344.219 259.408L342.187 259.935L340.13 260.441L338.048 260.925L335.941 261.388L333.81 261.829L331.656 262.248L329.478 262.645L327.277 263.02L325.054 263.371L322.809 263.7L320.542 264.006L318.255 264.289L315.948 264.548L313.621 264.784L311.274 264.997L308.909 265.185L306.525 265.349L304.124 265.49L301.706 265.606L299.271 265.698L296.819 265.765L294.353 265.808L291.871 265.826L289.375 265.82L286.864 265.788L284.341 265.732L281.804 265.651L279.256 265.545L276.695 265.413L274.124 265.257L271.542 265.075L268.95 264.869L266.348 264.636L263.737 264.379L261.119 264.097L258.492 263.789L255.858 263.456L253.218 263.097L250.571 262.714L247.92 262.305L245.263 261.871L242.602 261.412L239.937 260.928L237.269 260.419L234.599 259.885L231.926 259.326L229.253 258.743L226.578 258.134L223.903 257.501L221.228 256.844L218.555 256.162L215.882 255.456L213.212 254.725L210.545 253.971L207.88 253.192L205.219 252.39L202.563 251.565L199.912 250.716L197.266 249.843L194.626 248.948L191.992 248.029L189.366 247.088L186.748 246.125L184.138 245.139L181.536 244.131L178.944 243.101L176.362 242.049L173.79 240.976L171.229 239.881L168.68 238.766L166.143 237.63L163.618 236.473L161.107 235.297L158.609 234.1L156.125 232.883L153.656 231.648L151.202 230.393L148.764 229.119L146.342 227.827L143.937 226.516L141.549 225.188L139.178 223.842L136.826 222.479L134.492 221.099L132.178 219.702L129.883 218.289L127.608 216.86L125.353 215.416L123.12 213.956L120.908 212.482L118.718 210.993L116.55 209.49L114.405 207.973L112.282 206.443L110.184 204.9L108.109 203.344L106.059 201.776L104.034 200.196L102.034 198.605L100.059 197.003L98.1104 195.39L96.188 193.767L94.2923 192.135L92.4237 190.493L90.5824 188.842L88.7689 187.183L86.9835 185.515L85.2265 183.84L83.4982 182.158L81.799 180.469L80.1292 178.774L78.4891 177.073L76.8789 175.367L75.299 173.656L73.7496 171.94L72.2311 170.22L70.7437 168.497L69.2875 166.77L67.863 165.041L66.4703 163.31L65.1097 161.577L63.7814 159.843L62.4856 158.108L61.2225 156.373L59.9923 154.637L58.7953 152.903L57.6315 151.17L56.5013 149.438L55.4047 147.709L54.3419 145.982L53.3131 144.258L52.3184 142.537L51.3579 140.821L50.4319 139.109L49.5403 137.402L48.6833 135.7L47.8611 134.005L47.0736 132.316L46.3211 130.633L45.6035 128.958L44.921 127.291L44.2735 125.632L43.6612 123.982L43.0842 122.342L42.5423 120.71L42.0357 119.09L41.5643 117.479L41.1283 115.88L40.7275 114.293L40.362 112.717L40.0318 111.155L39.7368 109.605L39.477 108.068L39.2524 106.546L39.0629 105.038L38.9085 103.544L38.789 102.066L38.7045 100.604L38.6548 99.1575L38.6398 97.7278L38.6595 96.3151L38.7137 94.9199L38.8024 93.5426L38.9253 92.1836L39.0825 90.8433L39.2736 89.5221L39.4986 88.2205L39.7574 86.9389L40.0497 85.6777L40.3754 84.4372L40.7343 83.2178L41.1262 82.0201L41.551 80.8443L42.0084 79.6908L42.4982 78.5601L43.0202 77.4524L43.5742 76.3682L44.16 75.3078L44.7773 74.2717L45.4258 73.26L46.1054 72.2732L46.8156 71.3116L47.5564 70.3756L48.3274 69.4654L49.1283 68.5815L49.9589 67.7241L50.8188 66.8936L51.7078 66.0902L52.6255 65.3143L53.5716 64.5661L54.5459 63.8459L55.5479 63.1541L56.5774 62.4909L57.634 61.8565L58.7173 61.2512L59.8271 60.6753L60.963 60.1291L62.1245 59.6127L63.3114 59.1264L64.5232 58.6705L65.7597 58.2451L67.0203 57.8505L68.3047 57.4868L69.6126 57.1543L70.9435 56.8532L72.297 56.5837L73.6727 56.3459L75.0702 56.1399L76.4891 55.966L77.929 55.8243L79.3894 55.715L80.8699 55.6382L82.3701 55.594L83.8895 55.5825L85.4277 55.6039L86.9843 55.6583L88.5588 55.7458L90.1507 55.8664L91.7596 56.0203L93.3851 56.2075L95.0266 56.428L96.6838 56.6821L98.3561 56.9696L100.043 57.2906L101.744 57.6453L103.459 58.0335L105.187 58.4554L106.928 58.9109L108.681 59.4L110.446 59.9228L112.223 60.4792L114.01 61.0692L115.807 61.6927L117.615 62.3497L119.432 63.0402L121.257 63.7641L123.091 64.5214L124.933 65.312L126.782 66.1357L128.638 66.9926L130.501 67.8825L132.369 68.8052L134.243 69.7608L136.122 70.749L138.005 71.7698L139.892 72.823L141.783 73.9084L143.676 75.0259L145.572 76.1754L147.47 77.3566L149.369 78.5694L151.269 79.8136L153.169 81.089L155.07 82.3954L156.97 83.7326L158.869 85.1004L160.766 86.4985L162.661 87.9267L164.554 89.3848L166.444 90.8725L168.331 92.3896L170.213 93.9358L172.091 95.5108L173.965 97.1143L175.833 98.7461L177.695 100.406L179.551 102.093L181.4 103.808L183.241 105.55L185.076 107.318L186.902 109.113L188.719 110.934L190.528 112.781L192.327 114.653L194.116 116.55L195.895 118.472L197.663 120.418L199.42 122.387L201.165 124.381L202.898 126.397L204.619 128.436L206.327 130.498L208.021 132.581L209.702 134.686L211.369 136.812L213.021 138.958L214.659 141.125L216.281 143.311L217.888 145.517L219.478 147.742L221.053 149.985L222.61 152.247L224.151 154.525L225.674 156.821L227.18 159.133L228.667 161.462L230.136 163.806L231.586 166.165L233.017 168.539L234.428 170.927L235.82 173.329L237.192 175.743L238.543 178.171L239.874 180.61L241.184 183.062L242.473 185.524L243.741 187.997L244.986 190.48L246.21 192.972L247.412 195.474L248.591 197.984L249.747 200.502L250.88 203.027L251.991 205.559L253.078 208.097L254.141 210.641L255.18 213.191L256.196 215.745L257.187 218.303L258.154 220.864L259.097 223.429L260.015 225.996L260.908 228.565L261.775 231.135L262.618 233.707L263.436 236.278L264.228 238.849L264.994 241.419L265.735 243.987L266.45 246.554L267.14 249.117L267.803 251.678L268.44 254.235L269.051 256.787L269.636 259.335L270.195 261.877L270.727 264.413L271.233 266.943L271.713 269.466L272.166 271.98L272.593 274.487L272.993 276.985L273.367 279.473L273.714 281.952L274.035 284.42L274.329 286.877L274.597 289.322L274.839 291.755L275.054 294.176L275.243 296.583L275.405 298.977L275.542 301.356L275.652 303.72L275.736 306.069L275.794 308.402L275.826 310.719L275.833 313.019L275.813 315.301L275.768 317.565L275.698 319.811L275.602 322.038L275.481 324.245L275.335 326.432L275.164 328.599L274.968 330.744L274.747 332.868L274.502 334.971L274.233 337.05L273.94 339.107L273.623 341.14L273.282 343.149L272.917 345.134L272.529 347.094L272.118 349.029L271.684 350.938L271.228 352.821L270.749 354.677L270.248 356.506L269.725 358.308L269.18 360.082L268.613 361.828L268.026 363.545L267.418 365.233L266.789 366.891L266.139 368.52L265.47 370.118L264.781 371.685L264.072 373.222L263.344 374.727L262.598 376.201L261.832 377.642L261.049 379.052L260.247 380.428L259.428 381.771L258.592 383.081L257.739 384.357L256.869 385.6L255.983 386.807L255.081 387.981L254.163 389.119L253.23 390.223L252.283 391.291L251.321 392.323L250.345 393.319L249.355 394.28L248.352 395.203L247.336 396.091L246.307 396.941L245.266 397.754L244.214 398.53L243.15 399.269L242.075 399.97L240.989 400.633L239.893 401.259L238.788 401.846L237.673 402.395L236.549 402.905L235.416 403.377L234.275 403.81L233.127 404.205L231.971 404.56L230.809 404.877L229.64 405.154L228.464 405.393L227.284 405.592L226.098 405.751L224.907 405.872L223.712 405.953L222.513 405.994L221.31 405.996L220.105 405.958L218.897 405.881L217.686 405.765L216.474 405.609L215.261 405.413L214.046 405.178L212.832 404.904L211.617 404.59L210.402 404.237L209.189 403.845L207.976 403.413L206.766 402.942L205.557 402.432L204.351 401.884L203.148 401.296L201.949 400.67L200.753 400.005L199.562 399.301L198.375 398.559L197.193 397.779L196.017 396.961L194.847 396.106L193.683 395.212L192.526 394.281L191.376 393.313L190.234 392.307L189.099 391.265L187.974 390.185L186.856 389.07L185.748 387.918L184.65 386.73L183.562 385.506L182.484 384.247L181.417 382.953L180.36 381.623L179.316 380.259L178.283 378.861L177.263 377.429L176.255 375.962L175.26 374.462L174.279 372.929L173.311 371.364L172.357 369.765L171.418 368.135L170.494 366.472L169.584 364.779L168.69 363.054L167.812 361.298L166.95 359.512L166.105 357.696L165.276 355.851L164.464 353.976L163.669 352.073L162.892 350.141L162.133 348.181L161.392 346.193L160.67 344.179L159.967 342.138L159.282 340.07L158.617 337.977L157.971 335.859L157.346 333.715L156.74 331.547L156.155 329.355L155.59 327.14L155.046 324.902L154.523 322.641L154.022 320.358L153.541 318.054L153.083 315.728L152.646 313.382L152.231 311.016L151.839 308.631L151.469 306.226L151.121 303.803L150.797 301.362L150.495 298.903L150.216 296.428L149.961 293.936L149.729 291.428L149.52 288.905L149.335 286.368L149.173 283.816L149.036 281.25L148.922 278.671L148.833 276.08L148.767 273.477L148.726 270.862L148.709 268.237L148.716 265.601L148.748 262.955L148.804 260.3L148.885 257.637L148.99 254.965L149.12 252.287L149.274 249.601L149.453 246.909L149.656 244.211L149.884 241.508L150.137 238.801L150.414 236.089L150.716 233.374L151.043 230.657L151.393 227.937L151.769 225.215L152.169 222.492L152.593 219.769L153.041 217.046L153.513 214.324L154.01 211.602L154.531 208.883L155.075 206.166L155.644 203.452L156.236 200.741L156.852 198.035L157.491 195.333L158.153 192.637L158.839 189.946L159.548 187.262L160.28 184.585L161.034 181.915L161.811 179.254L162.611 176.601L163.432 173.957L164.276 171.323L165.141 168.7L166.029 166.087L166.937 163.486L167.867 160.897L168.818 158.32L169.789 155.756L170.781 153.206L171.793 150.67L172.826 148.148L173.878 145.642L174.949 143.151L176.04 140.677L177.15 138.219L178.279 135.778L179.426 133.356L180.591 130.951L181.773 128.565L182.974 126.198L184.191 123.851L185.426 121.524L186.677 119.218L187.944 116.932L189.227 114.669L190.526 112.427L191.84 110.207L193.168 108.011L194.512 105.838L195.869 103.688L197.241 101.563L198.625 99.4627L200.023 97.3871L201.434 95.337L202.857 93.3127L204.291 91.3147L205.738 89.3432L207.195 87.3988L208.663 85.4817L210.142 83.5924L211.63 81.7313L213.129 79.8985L214.636 78.0946L216.152 76.3199L217.676 74.5747L219.208 72.8592L220.747 71.1739L222.294 69.5191L223.847 67.895L225.406 66.302L226.971 64.7404L228.541 63.2103L230.116 61.7122L231.696 60.2462L233.279 58.8127L234.866 57.4119L236.455 56.044L238.048 54.7092L239.642 53.4079L241.239 52.1401L242.836 50.9062L244.434 49.7062L246.032 48.5406L247.631 47.4093L249.228 46.3126L250.825 45.2506L252.419 44.2236L254.012 43.2316L255.603 42.2749L257.19 41.3535L258.774 40.4676L260.354 39.6173L261.929 38.8027L263.5 38.0239L265.065 37.281L266.625 36.5741L268.179 35.9033L269.725 35.2686L271.265 34.6701L272.797 34.1079L274.32 33.582L275.835 33.0924L277.341 32.6391L278.838 32.2222L280.325 31.8418L281.801 31.4976L283.266 31.1899L284.72 30.9185L286.162 30.6834L287.592 30.4847L289.01 30.3222L290.414 30.1959L291.805 30.1057L293.181 30.0516L294.544 30.0335L295.891 30.0513L297.223 30.105L298.539 30.1943L299.839 30.3193L301.123 30.4798L302.389 30.6756L303.638 30.9067L304.87 31.1728L306.083 31.4739L307.277 31.8098L308.453 32.1803L309.608 32.5853L310.744 33.0245L311.86 33.4978L312.956 34.0049L314.03 34.5457L315.083 35.12L316.114 35.7275L317.123 36.368L318.109 37.0413L319.073 37.7471L320.014 38.4852L320.931 39.2553L321.824 40.0572L322.693 40.8906L323.538 41.7551L324.358 42.6506L325.152 43.5767L325.921 44.5332L326.665 45.5197L327.382 46.5358L328.073 47.5814L328.738 48.6561L329.375 49.7595L329.985 50.8912L330.568 52.0511L331.123 53.2386L331.65 54.4535L332.149 55.6954L332.619 56.9639L333.061 58.2586L333.474 59.5793L333.857 60.9253L334.211 62.2965L334.536 63.6924L334.831 65.1126L335.096 66.5567L335.33 68.0242L335.535 69.5148L335.709 71.028L335.852 72.5635L335.964 74.1208L336.046 75.6994L336.096 77.299L336.115 78.919L336.103 80.559L336.059 82.2187L335.984 83.8975L335.877 85.5949L335.738 87.3106L335.567 89.044L335.364 90.7946L335.13 92.5622L334.863 94.346L334.564 96.1457L334.233 97.9607L333.869 99.7907L333.474 101.635L333.046 103.493L332.585 105.365L332.093 107.25L331.568 109.147L331.011 111.056L330.422 112.976L329.8 114.908L329.146 116.85L328.46 118.802L327.742 120.763L326.992 122.733L326.21 124.712L325.396 126.698L324.55 128.692L323.672 130.693L322.763 132.701L321.822 134.714L320.85 136.732L319.846 138.756L318.812 140.784L317.746 142.815L316.65 144.85L315.522 146.888L314.365 148.929L313.176 150.971L311.958 153.014L310.71 155.058L309.432 157.102L308.124 159.146L306.787 161.19L305.421 163.232L304.025 165.273L302.601 167.311L301.149 169.347L299.668 171.379L298.16 173.408L296.624 175.433L295.06 177.452L293.469 179.467L291.851 181.476L290.207 183.479L288.537 185.476L286.84 187.465L285.118 189.447L283.371 191.42L281.599 193.386L279.802 195.342L277.98 197.289L276.135 199.226L274.266 201.152L272.374 203.068L270.459 204.973L268.522 206.866L266.563 208.747L264.581 210.616L262.579 212.471L260.555 214.314L258.511 216.142L256.447 217.956L254.364 219.756L252.261 221.54L250.139 223.31L247.998 225.063L245.84 226.8L243.664 228.521L241.472 230.225L239.262 231.911L237.036 233.58L234.795 235.23L232.539 236.863L230.267 238.476L227.982 240.071L225.682 241.646L223.37 243.201L221.044 244.736L218.706 246.25L216.357 247.744L213.996 249.217L211.624 250.669L209.242 252.098L206.85 253.506L204.449 254.892L202.039 256.255L199.621 257.596L197.195 258.913L194.762 260.207L192.322 261.478L189.877 262.725L187.425 263.948L184.969 265.146L182.508 266.32L180.043 267.47L177.575 268.595L175.103 269.694L172.63 270.769L170.154 271.818L167.678 272.841L165.201 273.838L162.723 274.81L160.246 275.755L157.77 276.674L155.296 277.567L152.824 278.434L150.354 279.273L147.888 280.086L145.425 280.872L142.966 281.631L140.513 282.363L138.065 283.068L135.623 283.745L133.187 284.396L130.759 285.019L128.338 285.614L125.925 286.182L123.522 286.723L121.127 287.235L118.742 287.721L116.368 288.179L114.005 288.609L111.653 289.011L109.313 289.386L106.986 289.734L104.672 290.054L102.371 290.346L100.085 290.611L97.8135 290.848L95.5572 291.058L93.3167 291.241L91.0924 291.396L88.8851 291.524L86.695 291.626L84.5228 291.7L82.3689 291.747L80.2339 291.767L78.1183 291.76L76.0225 291.727L73.9472 291.668L71.8926 291.582L69.8594 291.47L67.8481 291.332L65.859 291.168L63.8927 290.978L61.9497 290.763L60.0304 290.522L58.1352 290.256L56.2647 289.965L54.4193 289.649L52.5993 289.309L50.8054 288.944L49.0378 288.555L47.2971 288.142L45.5836 287.705L43.8978 287.244L42.24 286.761L40.6108 286.254L39.0104 285.725L37.4392 285.173L35.8978 284.598L34.3864 284.002L32.9053 283.384L31.4551 282.744L30.036 282.084L28.6484 281.402L27.2926 280.7L25.9691 279.978L24.678 279.236L23.4197 278.474L22.1947 277.693L21.0031 276.892L19.8453 276.073L18.7215 275.236L17.6321 274.381L16.5774 273.508L15.5575 272.618L14.5729 271.711L13.6237 270.787L12.7102 269.847L11.8326 268.891L10.9912 267.92L10.1862 266.933L9.41781 265.932L8.68628 264.916L7.99173 263.887L7.33446 262.843L6.71457 261.787L6.13227 260.717L5.58772 259.636L5.08112 258.542L4.61259 257.436L4.18224 256.32L3.79028 255.192L3.43679 254.054L3.1219 252.906L2.84571 251.749L2.60834 250.582L2.40985 249.407L2.25035 248.223L2.12992 247.032L2.04859 245.832L2.00645 244.626L2.00356 243.413L2.03991 242.194L2.11558 240.97L2.23054 239.739L2.38487 238.504L2.57852 237.265L2.81148 236.021L3.08377 234.774L3.39537 233.523L3.74621 232.27L4.13627 231.015L4.56551 229.757L5.03386 228.499L5.54126 227.239L6.08763 225.978L6.67288 224.718L7.29689 223.458L7.95964 222.198L8.66093 220.94L9.40067 219.683L10.1787 218.428L10.995 217.176L11.8493 215.926L12.7415 214.68L13.6714 213.438L14.6388 212.2L15.6437 210.966L16.6857 209.737L17.7646 208.514L18.8804 207.296L20.0327 206.085L21.2213 204.881L22.4461 203.683L23.7067 202.493L25.0029 201.311L26.3345 200.137L27.7012 198.972L29.1027 197.815L30.5387 196.669L32.009 195.532L33.5133 194.405L35.0512 193.289L36.6224 192.184L38.2267 191.09L39.8637 190.008L41.533 188.938L43.2344 187.881L44.9675 186.836L46.7318 185.804L48.5272 184.787L50.3531 183.782L52.2092 182.793L54.0951 181.817L56.0105 180.857L57.9549 179.912L59.928 178.982L61.9293 178.068L63.9583 177.171L66.0148 176.289L68.0982 175.425L70.2082 174.578L72.3442 173.748L74.5059 172.936L76.6927 172.141L78.9042 171.365L81.14 170.607L83.3996 169.869L85.6825 169.149L87.9882 168.448L90.3163 167.767L92.6662 167.105L95.0374 166.464L97.4295 165.843L99.842 165.242L102.274 164.662L104.726 164.103L107.196 163.565L109.685 163.048L112.192 162.552L114.715 162.078L117.256 161.626L119.812 161.196L122.384 160.788L124.971 160.403L127.573 160.039L130.189 159.699L132.818 159.381L135.46 159.086L138.114 158.814L140.78 158.565L143.457 158.339L146.145 158.137L148.842 157.958L151.55 157.802L154.266 157.67L156.99 157.562L159.722 157.478L162.461 157.417L165.207 157.38L167.958 157.366L170.715 157.377L173.477 157.412L176.243 157.47L179.013 157.553L181.786 157.659L184.561 157.79L187.338 157.944L190.116 158.122L192.895 158.324L195.674 158.55L198.453 158.8L201.23 159.074L204.006 159.372L206.78 159.693L209.55 160.038L212.318 160.406L215.081 160.798L217.84 161.213L220.593 161.651L223.341 162.113L226.082 162.598L228.817 163.105L231.544 163.636L234.263 164.189L236.973 164.765L239.674 165.363L242.365 165.983L245.046 166.626L247.716 167.291L250.375 167.977L253.021 168.685L255.655 169.414L258.276 170.164L260.883 170.936L263.476 171.728L266.054 172.541L268.617 173.374L271.165 174.227L273.695 175.1L276.209 175.993L278.706 176.906L281.184 177.837L283.644 178.787L286.086 179.757L288.508 180.744L290.909 181.75L293.291 182.773L295.651 183.814L297.991 184.872L300.308 185.947L302.603 187.039L304.875 188.147L307.124 189.271L309.349 190.411L311.55 191.566L313.727 192.736L315.878 193.921L318.004 195.12L320.104 196.333L322.177 197.56L324.224 198.801L326.244 200.054L328.236 201.32L330.2 202.598L332.136 203.888L334.043 205.189L335.921 206.502L337.77 207.825L339.589 209.158L341.377 210.502L343.135 211.855L344.863 213.217L346.559 214.588L348.223 215.967L349.856 217.354L351.457 218.749L353.025 220.15L354.561 221.559L356.063 222.973L357.532 224.394L358.968 225.82L360.37 227.251L361.738 228.686L363.071 230.125L364.37 231.569L365.635 233.015L366.864 234.464L368.058 235.916L369.216 237.369L370.339 238.824L371.427 240.28L372.478 241.736L373.493 243.193L374.472 244.649L375.414 246.105L376.32 247.559L377.189 249.012L378.021 250.462L378.816 251.91L379.574 253.355L380.295 254.796L380.979 256.234L381.625 257.667L382.234 259.095L382.805 260.518L383.339 261.935L383.835 263.346L384.293 264.75L384.714 266.148L385.097 267.537L385.442 268.919L385.75 270.292L386.02 271.656L386.252 273.011L386.446 274.357L386.603 275.692L386.722 277.016L386.804 278.329L386.848 279.631L386.854 280.921L386.823 282.199L386.755 283.463L386.65 284.715L386.507 285.952L386.328 287.176L386.111 288.385L385.858 289.58L385.568 290.759L385.241 291.922L384.879 293.069L384.48 294.2L384.045 295.313L383.574 296.41L383.067 297.488L382.525 298.549L381.948 299.591L381.335 300.615L380.688 301.619L380.006 302.603L379.289 303.568L378.539 304.512L377.754 305.435L376.936 306.338L376.084 307.219L375.199 308.079L374.281 308.916L373.331 309.731L372.348 310.524L371.333 311.293L370.286 312.04L369.208 312.762L368.099 313.461L366.959 314.135L365.789 314.785L364.588 315.41L363.358 316.01L362.098 316.585L360.81 317.134L359.492 317.657L358.146 318.154L356.772 318.625L355.371 319.069L353.942 319.486L352.487 319.876L351.005 320.239L349.497 320.574L347.964 320.882L346.405 321.161L344.821 321.413L343.214 321.636L341.582 321.831L339.927 321.997L338.248 322.134L336.547 322.243L334.824 322.322L333.079 322.372L331.313 322.392L329.527 322.383L327.719 322.344L325.892 322.276L324.046 322.177L322.181 322.049L320.297 321.891L318.395 321.702L316.476 321.483L314.54 321.234L312.587 320.955L310.618 320.645L308.634 320.305L306.635 319.934L304.621 319.533L302.594 319.101L300.553 318.639L298.499 318.146L296.432 317.622L294.354 317.068L292.264 316.484L290.164 315.869L288.052 315.223L285.932 314.547L283.801 313.841L281.662 313.104L279.515 312.338L277.36 311.541L275.198 310.714L273.029 309.857L270.854 308.97L268.673 308.053L266.487 307.107L264.296 306.131L262.102 305.125L259.904 304.091L257.703 303.027L255.499 301.934L253.293 300.813L251.086 299.662L248.879 298.484L246.67 297.277L244.462 296.042L242.255 294.779L240.049 293.488L237.844 292.17L235.642 290.825L233.443 289.452L231.246 288.053L229.054 286.627L226.866 285.175L224.682 283.697L222.504 282.193L220.332 280.664L218.166 279.11L216.007 277.53L213.855 275.926L211.711 274.298L209.575 272.646L207.448 270.97L205.33 269.27L203.222 267.548L201.124 265.803L199.037 264.035L196.961 262.246L194.896 260.435L192.844 258.602L190.804 256.749L188.777 254.875L186.764 252.98L184.764 251.066L182.779 249.133L180.808 247.181L178.853 245.21L176.913 243.22L174.989 241.213L173.081 239.189L171.191 237.147L169.317 235.089L167.462 233.015L165.624 230.926L163.804 228.821L162.004 226.701L160.223 224.567L158.461 222.419L156.719 220.258L154.997 218.084L153.296 215.897L151.616 213.699L149.957 211.489L148.32 209.268L146.705 207.036L145.112 204.794L143.541 202.543L141.994 200.282L140.47 198.014L138.969 195.737L137.492 193.452L136.039 191.16L134.61 188.862L133.206 186.558L131.827 184.249L130.473 181.934L129.144 179.615L127.841 177.292L126.564 174.965L125.313 172.636L124.088 170.304L122.89 167.97L121.718 165.636L120.573 163.3L119.455 160.964L118.364 158.628L117.301 156.294L116.266 153.96L115.258 151.629L114.278 149.3L113.326 146.974L112.402 144.651L111.506 142.333L110.639 140.019L109.8 137.71L108.99 135.407L108.209 133.111L107.456 130.821L106.732 128.538L106.037 126.263L105.371 123.997L104.735 121.739L104.127 119.491L103.548 117.253L102.999 115.025L102.478 112.809L101.987 110.604L101.526 108.411L101.093 106.231L100.689 104.063L100.315 101.91L99.9699 99.7708L99.6539 97.6462L99.3669 95.5369L99.109 93.4433L98.8801 91.366L98.6801 89.3054L98.5089 87.262L98.3665 85.2364L98.2528 83.229L98.1677 81.2403L98.111 79.2709L98.0828 77.3212V75.3916L98.1109 73.4827L98.1671 71.595L98.2511 69.7288L98.3628 67.8848L98.5021 66.0632L98.6689 64.2646L98.8629 62.4895L99.0839 60.7382L99.3319 59.0113L99.6065 57.3091L99.9077 55.6321L100.235 53.9807L100.589 52.3553L100.968 50.7564L101.373 49.1844L101.804 47.6396L102.26 46.1225L102.74 44.6334L103.246 43.1728L103.776 41.741L104.33 40.3383L104.908 38.9653L105.51 37.6221L106.135 36.3093L106.783 35.0271L107.454 33.7758L108.147 32.5559L108.863 31.3675L109.601 30.2112L110.36 29.0871L111.14 27.9955L111.942 26.9369L112.764 25.9114L113.606 24.9194L114.468 23.9611L115.35 23.0369L116.252 22.1469L117.172 21.2914L118.11 20.4707L119.067 19.685L120.042 18.9346L121.034 18.2196L122.044 17.5404L123.069 16.897L124.112 16.2898L125.17 15.7188L126.244 15.1843L127.333 14.6865L128.437 14.2255L129.555 13.8015L130.687 13.4147L131.833 13.0651L132.991 12.753L134.163 12.4784L135.347 12.2414L136.543 12.0423L137.75 11.881L138.968 11.7577L140.197 11.6725L141.436 11.6253L142.685 11.6164L143.944 11.6458L145.211 11.7134L146.487 11.8194L147.771 11.9638L149.062 12.1466L150.361 12.3678L151.666 12.6274L152.978 12.9255L154.295 13.262L155.618 13.6368L156.946 14.05L158.278 14.5016L159.615 14.9914L160.955 15.5194L162.298 16.0857L163.645 16.6899L164.993 17.3322L166.343 18.0125L167.695 18.7305L169.048 19.4862L170.401 20.2795L171.754 21.1103L173.107 21.9785L174.459 22.8838L175.81 23.8261L177.159 24.8053L178.506 25.8213L179.851 26.8737L181.192 27.9626L182.53 29.0876L183.864 30.2485L185.194 31.4452L186.52 32.6774L187.84 33.9449L189.154 35.2475L190.463 36.5849L191.765 37.9568L193.06 39.3631L194.348 40.8034L195.629 42.2775L196.901 43.7851L198.165 45.3259L199.42 46.8996L200.666 48.5058L201.902 50.1444L203.128 51.8149L204.344 53.517L205.549 55.2505L206.743 57.0149L207.925 58.8099L209.095 60.6351L210.253 62.4902L211.398 64.3748L212.53 66.2886L213.649 68.2311L214.754 70.202L215.845 72.2008L216.921 74.2271L217.983 76.2807L219.03 78.3609L220.061 80.4674L221.076 82.5998L222.076 84.7576L223.059 86.9404L224.025 89.1478L224.974 91.3792L225.906 93.6343L226.821 95.9126L227.717 98.2135L228.596 100.537L229.456 102.882L230.297 105.248L231.119 107.635L231.923 110.042L232.706 112.469L233.47 114.915L234.214 117.38L234.938 119.863L235.642 122.364L236.325 124.882L236.987 127.417L237.628 129.968L238.248 132.534L238.847 135.116L239.424 137.712L239.979 140.322L240.512 142.945L241.023 145.582L241.512 148.231L241.978 150.891L242.422 153.563L242.843 156.245L243.242 158.938L243.617 161.64L243.969 164.351L244.299 167.07L244.604 169.797L244.887 172.531L245.146 175.272L245.381 178.019L245.593 180.772L245.782 183.529L245.946 186.291L246.087 189.057L246.204 191.825L246.297 194.597L246.366 197.37L246.411 200.144L246.432 202.92L246.43 205.695L246.403 208.471L246.352 211.245L246.278 214.018L246.18 216.789L246.058 219.557L245.912 222.321L245.742 225.082L245.548 227.839L245.331 230.59L245.09 233.336L244.826 236.075L244.539 238.808L244.227 241.534L243.893 244.251L243.536 246.96L243.155 249.66L242.752 252.35L242.326 255.03L241.877 257.7L241.405 260.357L240.912 263.004L240.396 265.637L239.857 268.258L239.297 270.865L238.716 273.458L238.112 276.036L237.488 278.599L236.842 281.146L236.175 283.678L235.488 286.192L234.779 288.689L234.051 291.168L233.302 293.629L232.534 296.071L231.746 298.493L230.938 300.896L230.112 303.278L229.266 305.64L228.402 307.98L227.52 310.298L226.619 312.594L225.701 314.867L224.765 317.117L223.812 319.343L222.842 321.545L221.855 323.723L220.852 325.875L219.833 328.002L218.799 330.102L217.749 332.177L216.684 334.224L215.604 336.244L214.51 338.237L213.402 340.202L212.28 342.138L211.145 344.045L209.997 345.923L208.836 347.772L207.663 349.59L206.479 351.379L205.282 353.136L204.075 354.863L202.857 356.558L201.629 358.221L200.39 359.853L199.142 361.452L197.885 363.018L196.619 364.552L195.345 366.052L194.063 367.518L192.773 368.951L191.476 370.35L190.173 371.714L188.863 373.044L187.547 374.339L186.226 375.598L184.899 376.823L183.569 378.011L182.233 379.164L180.894 380.281L179.552 381.362L178.207 382.406L176.86 383.414L175.51 384.385L174.159 385.319L172.807 386.216L171.454 387.076L170.1 387.899L168.747 388.684L167.395 389.431L166.043 390.141L164.693 390.813L163.345 391.446L162 392.042L160.657 392.6L159.318 393.12L157.982 393.601L156.651 394.044L155.324 394.449L154.002 394.815L152.686 395.143L151.376 395.433L150.072 395.684L148.775 395.896L147.485 396.071L146.203 396.206L144.929 396.304L143.664 396.363L142.407 396.384L141.16 396.366L139.923 396.311L138.697 396.217L137.481 396.085L136.276 395.916L135.083 395.708L133.902 395.463L132.733 395.18L131.577 394.859L130.434 394.502L129.305 394.107L128.19 393.674L127.09 393.205L126.004 392.699L124.934 392.157L123.879 391.578L122.84 390.962L121.818 390.311L120.812 389.624L119.824 388.901L118.853 388.143L117.9 387.349L116.966 386.521L116.05 385.658L115.153 384.76L114.275 383.828L113.417 382.862L112.579 381.863L111.762 380.83L110.965 379.764L110.189 378.665L109.435 377.534L108.702 376.37L107.991 375.175L107.303 373.948L106.637 372.69L105.994 371.401L105.374 370.081L104.777 368.731L104.205 367.352L103.656 365.943L103.131 364.504L102.631 363.037L102.156 361.542L101.706 360.019L101.281 358.468L100.882 356.89L100.508 355.285L100.16 353.654L99.8385 351.997L99.5433 350.314L99.2745 348.606L99.0325 346.874L98.8175 345.117L98.6295 343.337L98.4688 341.533L98.3356 339.707L98.23 337.858L98.1522 335.987L98.1022 334.094L98.0803 332.181L98.0866 330.247L98.1211 328.292L98.1841 326.319L98.2756 324.326L98.3956 322.314L98.5444 320.285L98.722 318.238L98.9284 316.173L99.1638 314.092L99.4281 311.995L99.7215 309.882L100.044 307.754L100.396 305.612L100.776 303.456L101.186 301.285L101.626 299.102L102.094 296.907L102.591 294.699L103.118 292.48L103.674 290.25L104.259 288.01L104.873 285.76L105.517 283.5L106.189 281.232L106.89 278.955L107.621 276.671L108.38 274.379L109.167 272.081L109.984 269.777L110.829 267.467L111.703 265.152L112.604 262.832L113.535 260.509L114.493 258.182L115.479 255.853L116.493 253.521L117.535 251.187L118.604 248.852L119.701 246.516L120.825 244.18L121.976 241.845L123.153 239.51L124.358 237.177L125.588 234.846L126.845 232.517L128.128 230.191L129.437 227.869L130.772 225.551L132.131 223.237L133.516 220.929L134.925 218.626L136.359 216.329L137.818 214.039L139.3 211.756L140.806 209.481L142.335 207.214L143.888 204.955L145.463 202.706L147.061 200.467L148.682 198.237L150.324 196.019L151.987 193.811L153.672 191.615L155.378 189.431L157.104 187.26L158.85 185.101L160.616 182.957L162.402 180.826L164.207 178.709L166.03 176.608L167.872 174.522L169.732 172.451L171.609 170.397L173.503 168.359L175.415 166.339L177.342 164.335L179.285 162.35L181.244 160.383L183.218 158.435L185.207 156.506L187.21 154.596L189.226 152.706L191.256 150.837L193.299 148.988L195.354 147.16L197.421 145.354L199.499 143.569L201.589 141.807L203.689 140.067L205.8 138.349L207.919 136.655L210.048 134.984L212.186 133.337L214.332 131.714L216.486 130.116L218.646 128.542L220.814 126.993L222.987 125.469L225.167 123.971L227.351 122.499L229.54 121.053L231.734 119.633L233.931 118.24L236.131 116.873L238.334 115.534L240.538 114.222L242.745 112.938L244.953 111.681L247.161 110.452L249.369 109.251L251.577 108.079L253.783 106.935L255.988 105.82L258.191 104.733L260.392 103.676L262.589 102.648L264.783 101.649L266.973 100.68L269.157 99.74L271.337 98.8298L273.511 97.9495L275.678 97.0991L277.839 96.2788L279.993 95.4885L282.138 94.7284L284.275 93.9985L286.403 93.299L288.522 92.6298L290.631 91.9911L292.729 91.3829L294.817 90.8051L296.892 90.2579L298.956 89.7412L301.007 89.2551L303.045 88.7995L305.07 88.3744L307.08 87.9799L309.076 87.6159L311.057 87.2824L313.022 86.9794L314.971 86.7067L316.903 86.4643L318.819 86.2523L320.717 86.0704L322.596 85.9187L324.457 85.7971L326.3 85.7054L328.122 85.6435L329.925 85.6114L331.707 85.6089L333.469 85.636L335.209 85.6924L336.927 85.778L338.623 85.8928L340.296 86.0365L341.946 86.209L343.573 86.4101L345.175 86.6396L346.753 86.8974L348.306 87.1833L349.834 87.497L351.336 87.8385L352.812 88.2074L354.262 88.6035L355.685 89.0267L357.08 89.4767L358.448 89.9532L359.787 90.4561L361.098 90.985L362.381 91.5398L363.634 92.1201L364.858 92.7257L366.051 93.3563L367.215 94.0116L368.348 94.6914L369.45 95.3953L370.521 96.1231L371.561 96.8745L372.569 97.6491L373.544 98.4466L374.488 99.2667L375.398 100.109L376.276 100.974L377.12 101.86L377.931 102.767L378.708 103.695L379.451 104.644L380.16 105.613L380.835 106.602L381.474 107.61L382.079 108.638L382.648 109.684L383.183 110.749L383.681 111.831L384.144 112.931L384.571 114.049L384.962 115.183L385.317 116.334L385.635 117.501L385.917 118.683L386.162 119.881L386.371 121.093L386.542 122.32L386.676 123.561L386.773 124.815L386.833 126.083L386.856 127.363L386.841 128.656L386.789 129.96L386.699 131.276L386.572 132.603L386.406 133.94L386.204 135.288L385.963 136.645L385.685 138.011L385.369 139.386L385.015 140.77L384.624 142.161L384.195 143.56L383.728 144.966L383.224 146.378L382.682 147.797L382.102 149.221L381.485 150.65L380.83 152.084L380.138 153.522L379.409 154.965L378.643 156.41L377.84 157.859L376.999 159.31L376.122 160.763L375.208 162.217L374.258 163.673L373.271 165.129L372.248 166.586L371.188 168.042L370.093 169.498L368.962 170.953L367.796 172.406L366.594 173.857L365.357 175.305L364.085 176.751L362.778 178.194L361.437 179.632L360.062 181.067L358.652 182.496L357.209 183.921L355.732 185.34L354.223 186.753L352.68 188.16L351.104 189.561L349.496 190.954L347.857 192.339L346.185 193.716L344.482 195.085L342.748 196.445L340.983 197.796L339.187 199.138L337.362 200.469L335.507 201.79L333.622 203.1L331.709 204.399L329.766 205.686L327.796 206.961L325.798 208.224L323.772 209.475L321.719 210.712L319.64 211.936L317.534 213.146L315.402 214.342L313.246 215.524L311.064 216.691L308.857 217.843L306.627 218.979L304.373 220.1L302.095 221.204L299.795 222.292L297.473 223.364L295.129 224.418L292.764 225.455L290.378 226.474L287.972 227.476L285.545 228.459L283.1 229.424L280.636 230.37L278.153 231.298L275.652 232.206L273.135 233.094L270.6 233.963L268.05 234.812L265.483 235.641L262.902 236.449L260.306 237.236L257.695 238.003L255.072 238.749L252.435 239.473L249.785 240.176L247.124 240.858L244.452 241.517L241.769 242.155L239.075 242.771L236.372 243.364L233.66 243.935L230.939 244.483L228.21 245.008L225.474 245.511L222.731 245.99L219.982 246.447L217.228 246.88L214.468 247.29L211.704 247.677L208.936 248.04L206.164 248.38L203.39 248.695L200.614 248.988L197.836 249.256L195.057 249.501L192.278 249.722L189.499 249.918L186.721 250.091L183.945 250.24L181.17 250.366L178.398 250.467L175.629 250.544L172.864 250.597L170.103 250.626L167.347 250.632L164.597 250.613L161.852 250.571L159.115 250.505L156.384 250.415L153.662 250.301L150.948 250.164L148.243 250.003L145.547 249.819L142.862 249.611L140.187 249.381L137.524 249.127L134.872 248.849L132.233 248.549L129.607 248.226L126.994 247.881L124.396 247.513L121.812 247.122L119.243 246.709L116.69 246.274L114.153 245.817L111.633 245.339L109.131 244.838L106.646 244.317L104.18 243.774L101.733 243.21L99.3046 242.625L96.8966 242.02L94.5091 241.394L92.1425 240.748L89.7975 240.083L87.4743 239.397L85.1736 238.692L82.8959 237.968L80.6415 237.225L78.4111 236.463L76.205 235.683L74.0237 234.885L71.8677 234.068L69.7374 233.235L67.6333 232.383L65.5559 231.515L63.5054 230.63L61.4825 229.729L59.4875 228.812L57.5207 227.879L55.5827 226.93L53.6738 225.966L51.7945 224.988L49.945 223.995L48.1259 222.988L46.3374 221.967L44.5799 220.932L42.8539 219.885L41.1596 218.824L39.4974 217.752L37.8677 216.667L36.2707 215.571L34.7068 214.463L33.1764 213.345L31.6796 212.216L30.2169 211.077L28.7885 209.928L27.3947 208.769L26.0358 207.602L24.712 206.426L23.4237 205.242L22.171 204.051L20.9543 202.851L19.7737 201.645L18.6295 200.433L17.5219 199.214L16.4511 197.989L15.4173 196.76L14.4208 195.525L13.4617 194.286L12.5401 193.042L11.6563 191.795L10.8105 190.545L10.0027 189.292L9.23309 188.037L8.50188 186.78L7.80914 185.521L7.155 184.262L6.53956 183.001L5.96295 181.741L5.42524 180.48L4.92649 179.221L4.46682 177.962L4.04629 176.705L3.6649 175.45L3.32279 174.198L3.01992 172.948L2.75636 171.701L2.5321 170.459L2.34721 169.22L2.20163 167.986L2.09538 166.757L2.02844 165.533L2.00082 164.316L2.01244 163.104L2.06328 161.9L2.15327 160.702L2.2824 159.512L2.45055 158.33L2.65767 157.157L2.90369 155.992L3.18847 154.837L3.51196 153.691L3.87401 152.555L4.27451 151.43L4.71331 150.316L5.19032 149.213L5.70538 148.122L6.25831 147.043L6.84896 145.977L7.47716 144.923L8.14275 143.883L8.8455 142.856L9.58527 141.844L10.3618 140.846L11.1749 139.862L12.0243 138.894L12.9099 137.942L13.8314 137.006L14.7885 136.085L15.781 135.182L16.8086 134.296L17.871 133.427L18.9681 132.575L20.0994 131.742L21.2648 130.927L22.4638 130.131L23.6963 129.354L24.9618 128.597L26.2601 127.859L27.5909 127.141L28.9538 126.444L30.3484 125.767L31.7744 125.111L33.2315 124.476L34.7193 123.863L36.2375 123.271L37.7855 122.702L39.3632 122.155L40.97 121.63L42.6057 121.129L44.2697 120.65L45.9617 120.195L47.6813 119.763L49.428 119.356L51.2015 118.972L53.0012 118.612L54.8268 118.277L56.6779 117.967L58.5539 117.682L60.4545 117.421L62.3791 117.186L64.3273 116.977L66.2987 116.792L68.2927 116.634L70.309 116.502L72.347 116.396L74.4062 116.316L76.4861 116.262L78.5863 116.235L80.7063 116.234L82.8455 116.26L85.0035 116.314L87.1797 116.394L89.3737 116.501L91.5849 116.635L93.8128 116.796L96.0568 116.985L98.3166 117.201L100.591 117.445L102.881 117.715L105.184 118.014L107.501 118.34L109.832 118.693L112.174 119.075L114.528 119.483L116.894 119.92L119.271 120.384L121.658 120.875L124.055 121.394L126.46 121.941L128.875 122.515L131.297 123.116L133.727 123.745L136.164 124.402L138.608 125.085L141.057 125.796L143.512 126.534L145.971 127.299L148.435 128.091L150.902 128.91L153.372 129.755L155.845 130.628L158.32 131.526L160.796 132.451L163.273 133.403L165.751 134.38L168.228 135.383L170.704 136.412L173.179 137.467L175.652 138.547L178.123 139.652L180.59 140.782L183.055 141.937L185.515 143.117L187.97 144.321L190.42 145.549L192.865 146.801L195.303 148.077L197.734 149.376L200.159 150.699L202.575 152.045L204.983 153.413L207.382 154.803L209.772 156.216L212.152 157.651L214.521 159.107L216.88 160.585L219.227 162.083L221.562 163.602L223.884 165.142L226.194 166.701L228.49 168.281L230.773 169.879L233.041 171.497L235.294 173.133L237.532 174.788L239.754 176.461L241.96 178.151L244.149 179.859L246.321 181.583L248.475 183.324L250.611 185.081L252.729 186.853L254.828 188.641L256.907 190.444L258.967 192.262L261.006 194.093L263.025 195.939L265.023 197.797L267 199.668L268.954 201.552L270.887 203.448L272.797 205.355L274.683 207.273L276.547 209.202L278.387 211.142L280.203 213.091L281.994 215.049L283.761 217.016L285.503 218.992L287.219 220.975L288.91 222.966L290.575 224.964L292.213 226.968L293.825 228.979L295.409 230.995L296.967 233.016L298.497 235.041L300 237.071L301.474 239.104L302.92 241.14L304.338 243.179L305.726 245.22L307.086 247.263L308.417 249.306L309.718 251.351L310.99 253.395L312.231 255.439L313.443 257.482L314.624 259.524L315.775 261.563L316.896 263.601L317.985 265.635L319.044 267.666L320.072 269.693L321.068 271.715L322.034 273.733L322.967 275.745L323.87 277.75L324.74 279.75L325.579 281.742L326.386 283.727L327.161 285.704L327.904 287.672L328.615 289.632L329.294 291.581L329.941 293.521L330.555 295.45L331.137 297.368L331.687 299.274L332.205 301.169L332.69 303.051L333.143 304.919L333.564 306.775L333.953 308.616L334.309 310.443L334.633 312.254L334.925 314.051L335.184 315.831L335.412 317.594L335.608 319.341L335.771 321.071L335.903 322.783L336.003 324.476L336.071 326.15L336.108 327.806L336.114 329.441L336.088 331.057L336.03 332.652L335.942 334.226L335.823 335.778L335.673 337.309L335.492 338.817L335.281 340.303L335.039 341.765L334.768 343.204L334.466 344.619L334.135 346.009L333.774 347.375L333.384 348.715L332.965 350.03L332.517 351.319L332.041 352.582L331.535 353.818L331.002 355.026L330.441 356.208L329.852 357.361L329.236 358.487L328.592 359.584L327.922 360.652L327.225 361.691L326.502 362.701L325.753 363.681L324.978 364.631L324.178 365.55L323.353 366.439L322.503 367.296L321.628 368.123L320.729 368.917L319.807 369.68L318.861 370.411L317.892 371.11L316.901 371.776L315.887 372.409L314.851 373.009L313.793 373.576L312.714 374.11L311.614 374.609L310.494 375.075L309.353 375.507L308.193 375.904L307.014 376.267L305.815 376.595L304.598 376.888L303.363 377.147L302.11 377.37L300.839 377.558L299.552 377.71L298.248 377.828L296.929 377.909L295.593 377.955L294.242 377.965L292.877 377.939L291.497 377.876L290.103 377.778L288.696 377.644L287.276 377.473L285.843 377.266L284.398 377.023L282.942 376.744L281.474 376.428L279.995 376.076L278.507 375.687L277.008 375.262L275.5 374.801L273.983 374.303L272.457 373.769L270.923 373.199L269.382 372.593L267.834 371.95L266.279 371.271L264.718 370.556L263.152 369.805L261.58 369.019L260.003 368.196L258.422 367.338L256.838 366.444L255.25 365.515L253.659 364.55L252.065 363.55L250.47 362.516L248.874 361.446L247.276 360.341L245.677 359.203L244.079 358.029L242.481 356.822L240.884 355.58L239.288 354.305L237.694 352.996L236.102 351.654L234.513 350.279L232.927 348.871L231.345 347.43L229.766 345.957L228.192 344.452L226.623 342.915L225.059 341.346L223.501 339.746L221.95 338.115L220.405 336.453L218.867 334.761L217.337 333.039L215.814 331.288L214.3 329.506L212.795 327.696L211.299 325.857L209.813 323.989L208.336 322.094L206.871 320.171L205.416 318.22L203.972 316.243L202.54 314.239L201.119 312.209L199.712 310.153L198.317 308.072L196.935 305.966L195.567 303.835L194.212 301.681L192.872 299.502L191.547 297.301L190.236 295.076L188.941 292.83L187.661 290.561L186.397 288.271L185.15 285.96L183.919 283.628L182.706 281.277L181.509 278.906L180.33 276.516L179.169 274.107L178.026 271.68L176.902 269.236L175.796 266.774L174.71 264.296L173.643 261.802L172.595 259.292L171.567 256.767L170.559 254.228L169.572 251.675L168.605 249.108L167.659 246.529L166.734 243.937L165.83 241.333L164.947 238.718L164.087 236.092L163.248 233.456L162.431 230.81L161.637 228.155L160.865 225.492L160.115 222.82L159.389 220.141L158.685 217.456L158.004 214.764L157.347 212.066L156.713 209.363L156.102 206.656L155.515 203.945L154.952 201.23L154.413 198.512L153.898 195.793L153.406 193.071L152.939 190.348L152.496 187.625L152.078 184.902L151.683 182.18L151.313 179.458L150.968 176.739L150.647 174.022L150.351 171.307L150.079 168.597L149.832 165.89L149.609 163.188L149.411 160.492L149.237 157.801L149.089 155.117L148.964 152.44L148.865 149.77L148.789 147.108L148.739 144.456L148.712 141.812L148.711 139.179L148.733 136.555L148.78 133.943L148.85 131.343L148.945 128.754L149.064 126.178L149.207 123.616L149.374 121.067L149.564 118.532L149.778 116.013L150.015 113.508L150.276 111.02L150.56 108.548L150.867 106.094L151.197 103.657L151.549 101.238L151.924 98.8371L152.322 96.4558L152.741 94.0941L153.183 91.7526L153.646 89.4318L154.131 87.1321L154.637 84.8541L155.165 82.5982L155.714 80.3649L156.283 78.1548L156.873 75.9682L157.483 73.8057L158.113 71.6678L158.763 69.5548L159.432 67.4673L160.121 65.4057L160.829 63.3704L161.555 61.3619L162.3 59.3805L163.063 57.4269L163.844 55.5013L164.642 53.6041L165.458 51.7359L166.291 49.8969L167.14 48.0876L168.006 46.3083L168.888 44.5595L169.785 42.8415L170.698 41.1547L171.625 39.4994L172.568 37.876L173.525 36.2849L174.495 34.7264L175.48 33.2007L176.478 31.7083L177.488 30.2495L178.511 28.8245L179.547 27.4337L180.594 26.0773L181.653 24.7557L182.722 23.4691L183.802 22.2179L184.893 21.0022L185.994 19.8222L187.104 18.6784L188.223 17.5708L189.351 16.4998L190.487 15.4655L191.631 14.4682L192.782 13.5081L193.941 12.5853L195.106 11.7001L196.278 10.8526L197.455 10.0431L198.638 9.27155L199.826 8.53829L201.018 7.84338L202.215 7.18698L203.415 6.56923L204.619 5.99024L205.826 5.45011L207.035 4.94896L208.246 4.48685L209.458 4.06392L210.672 3.68019L211.887 3.33577L213.101 3.03071L214.316 2.76502L215.53 2.53878L216.743 2.35202L217.955 2.20475L219.165 2.09699L220.373 2.02873L221.578 2L222.779 2.01077L223.978 2.06098L225.172 2.15065L226.361 2.27975L227.546 2.44817L228.726 2.65593L229.9 2.90289L231.067 3.189L232.228 3.5142L233.383 3.87839L234.529 4.28146L235.668 4.72329L236.799 5.20376L237.921 5.72278L239.034 6.28019L240.137 6.87582L241.231 7.50955L242.314 8.18121L243.387 8.89063L244.448 9.63765L245.498 10.422L246.537 11.2436L247.562 12.1022L248.576 12.9976L249.576 13.9295L250.563 14.8978L251.536 15.9022L252.494 16.9424L253.439 18.0183L254.368 19.1294L255.282 20.2757L256.181 21.4568L257.063 22.6723L257.929 23.9222L258.779 25.2059L259.612 26.5232L260.427 27.8739L261.224 29.2576L262.004 30.6739L262.765 32.1225L263.508 33.6031L264.231 35.1154L264.936 36.6589L265.62 38.2334L266.285 39.8384L266.93 41.4736L267.555 43.1385L268.158 44.8329L268.741 46.5563L269.303 48.3082L269.843 50.0884L270.361 51.8964L270.857 53.7317L271.331 55.5939L271.783 57.4826L272.211 59.3975L272.617 61.3379L273 63.3035L273.359 65.2939L273.695 67.3085L274.007 69.3469L274.295 71.4086L274.559 73.4933L274.798 75.6002L275.014 77.7291L275.204 79.8794L275.369 82.0506L275.51 84.2423L275.625 86.4539L275.716 88.6848L275.78 90.9348L275.82 93.2031L275.833 95.4892L275.821 97.7928L275.783 100.113L275.72 102.45L275.63 104.802L275.514 107.17L275.372 109.553L275.203 111.949L275.009 114.36L274.788 116.783L274.54 119.219L274.266 121.667L273.966 124.126L273.639 126.597L273.286 129.078L272.907 131.568L272.5 134.068L272.068 136.576L271.609 139.093L271.123 141.617L270.611 144.148L270.073 146.686L269.509 149.229L268.918 151.778L268.301 154.332L267.658 156.889L266.989 159.451L266.294 162.015L265.573 164.582L264.826 167.151L264.054 169.721L263.256 172.292L262.433 174.863L261.585 177.434L260.711 180.004L259.813 182.573L258.89 185.14L257.942 187.704L256.969 190.265L255.973 192.822L254.952 195.375L253.907 197.923L252.838 200.466L251.746 203.003L250.631 205.534L249.492 208.057L248.331 210.573L247.147 213.081L245.94 215.581L244.712 218.071L243.461 220.552L242.189 223.023L240.895 225.483L239.581 227.931L238.245 230.368L236.889 232.793L235.513 235.205L234.116 237.603L232.701 239.988L231.265 242.359L229.811 244.715L228.338 247.056L226.847 249.38L225.338 251.689L223.81 253.981L222.266 256.256L220.705 258.513L219.127 260.752L217.532 262.973L215.922 265.175L214.297 267.357L212.656 269.519L211 271.661L209.33 273.782L207.646 275.883L205.949 277.961L204.238 280.018L202.514 282.052L200.778 284.063L199.03 286.051L197.271 288.016L195.501 289.956L193.72 291.872L191.928 293.764L190.127 295.63L188.316 297.471L186.497 299.286L184.669 301.076L182.833 302.838L180.99 304.574L179.139 306.283L177.282 307.964L175.418 309.618L173.549 311.243L171.675 312.84L169.796 314.409L167.912 315.949L166.025 317.459L164.134 318.94L162.241 320.392L160.345 321.814L158.447 323.205L156.548 324.566L154.648 325.896L152.747 327.196L150.847 328.464L148.947 329.702L147.048 330.907L145.151 332.082L143.255 333.224L141.363 334.334L139.473 335.413L137.587 336.459L135.704 337.472L133.827 338.453L131.954 339.401L130.087 340.317L128.226 341.2L126.371 342.049L124.523 342.865L122.683 343.649L120.851 344.398L119.027 345.115L117.213 345.798L115.407 346.448L113.612 347.064L111.827 347.646L110.054 348.195L108.291 348.71L106.541 349.192L104.802 349.64L103.077 350.055L101.365 350.435L99.6672 350.783L97.9835 351.096L96.3145 351.376L94.6608 351.623L93.0228 351.836L91.401 352.016L89.7958 352.162L88.2077 352.275L86.6371 352.356L85.0846 352.403L83.5505 352.417L82.0353 352.398L80.5395 352.347L79.0634 352.262L77.6075 352.146L76.1723 351.997L74.758 351.816L73.3653 351.603L71.9945 351.358L70.646 351.082L69.3202 350.774L68.0175 350.434L66.7383 350.064L65.483 349.662L64.252 349.23L63.0457 348.767L61.8644 348.274L60.7085 347.751L59.5784 347.198L58.4745 346.616L57.397 346.004L56.3464 345.363L55.323 344.694L54.3272 343.996L53.3591 343.269L52.4193 342.515L51.5079 341.733L50.6254 340.923L49.7719 340.087L48.9479 339.223L48.1536 338.334L47.3893 337.418L46.6553 336.476L45.9518 335.509L45.2791 334.517L44.6375 333.499L44.0272 332.458L43.4485 331.392L42.9016 330.303L42.3867 329.19L41.904 328.054L41.4538 326.896L41.0364 325.715L40.6517 324.512L40.3002 323.288L39.9819 322.043L39.697 320.777L39.4457 319.491L39.2282 318.185L39.0446 316.86L38.8951 315.515L38.7797 314.152L38.6987 312.771L38.6522 311.372L38.6402 309.955L38.6628 308.522L38.7203 307.072L38.8125 305.606L38.9397 304.124L39.102 302.628L39.2993 301.116L39.5317 299.591L39.7993 298.051L40.1021 296.499L40.4401 294.933L40.8135 293.355L41.2221 291.765L41.6659 290.163L42.1451 288.55L42.6595 286.927L43.2092 285.294L43.7942 283.651L44.4143 281.999L45.0695 280.338L45.7598 278.669L46.4852 276.993L47.2455 275.309L48.0407 273.618L48.8706 271.921L49.7353 270.218L50.6345 268.51L51.5682 266.797L52.5363 265.08L53.5386 263.359L54.5749 261.634L55.6452 259.907L56.7493 258.176L57.887 256.444L59.0582 254.711L60.2626 252.976L61.5001 251.241L62.7704 249.506L64.0735 247.771L65.409 246.037L66.7768 244.305L68.1766 242.574L69.6081 240.845L71.0712 239.119L72.5656 237.397L74.091 235.678L75.6472 233.963L77.2338 232.253L78.8507 230.548L80.4974 228.848L82.1738 227.154L83.8795 225.467L85.6141 223.786L87.3775 222.113L89.1692 220.447L90.9889 218.79L92.8362 217.141L94.7109 215.501L96.6126 213.87L98.5408 212.25L100.495 210.639L102.476 209.04L104.481 207.451L106.512 205.874L108.568 204.308L110.648 202.755L112.752 201.215L114.879 199.688L117.029 198.174L119.202 196.674L121.397 195.188L123.614 193.717L125.852 192.261L128.111 190.82L130.391 189.395L132.69 187.985L135.009 186.592L137.347 185.216L139.703 183.856L142.077 182.514L144.469 181.19L146.878 179.884L149.304 178.595L151.746 177.326L154.203 176.075L156.675 174.844L159.162 173.632L161.663 172.439L164.178 171.267L166.705 170.115L169.245 168.984L171.797 167.873L174.36 166.783L176.934 165.715L179.519 164.668L182.113 163.643L184.716 162.639L187.328 161.658L189.949 160.7L192.577 159.764L195.211 158.85L197.853 157.96L200.5 157.093L203.153 156.249L205.81 155.428L208.471 154.632L211.137 153.859L213.805 153.11L216.476 152.385L219.148 151.684L221.822 151.007L224.497 150.355L227.172 149.728L229.846 149.125L232.52 148.546L235.192 147.993L237.862 147.465L240.529 146.961L243.193 146.483L245.853 146.029L248.509 145.601L251.16 145.198L253.805 144.82L256.444 144.467L259.076 144.14L261.701 143.837L264.318 143.56L266.926 143.309L269.526 143.082L272.116 142.881L274.696 142.705L277.265 142.554L279.823 142.428L282.369 142.328L284.902 142.252L287.423 142.201L289.93 142.176L292.423 142.175L294.902 142.198L297.365 142.247L299.813 142.319L302.244 142.417L304.659 142.538L307.056 142.684L309.436 142.854L311.797 143.047L314.139 143.265L316.462 143.506L318.765 143.771L321.047 144.059L323.309 144.37L325.549 144.704L327.767 145.06L329.963 145.44L332.136 145.842L334.286 146.266L336.411 146.712L338.513 147.179L340.589 147.669L342.641 148.179L344.666 148.711L346.665 149.264L348.638 149.837L350.584 150.43L352.502 151.044L354.393 151.677L356.255 152.33L358.088 153.003L359.892 153.694L361.666 154.404L363.411 155.132L365.125 155.879L366.809 156.643L368.461 157.425L370.082 158.224L371.671 159.04L373.228 159.873L374.752 160.722L376.244 161.587L377.702 162.467L379.127 163.363L380.517 164.273L381.874 165.198L383.196 166.137L384.484 167.09L385.736 168.057L386.953 169.037L388.134 170.029L389.28 171.034L390.389 172.051L391.462 173.079L392.498 174.119L393.498 175.169L394.46 176.23L395.385 177.301L396.273 178.382L397.123 179.472L397.935 180.571L398.709 181.678L399.445 182.794L400.142 183.917L400.801 185.047L401.42 186.184L402.002 187.328L402.544 188.478L403.047 189.633L403.51 190.793L403.935 191.958L404.32 193.128L404.665 194.301L404.971 195.478L405.237 196.658L405.464 197.841L405.651 199.026L405.798 200.213L405.905 201.401L405.972 202.59L405.999 203.779" stroke="#EBE9E2" stroke-width="3"/>
</svg>
