<svg width="453" height="526" viewBox="0 0 453 526" fill="none" xmlns="http://www.w3.org/2000/svg">
<path d="M562 282.499L561.972 284.145L561.89 285.79L561.752 287.435L561.559 289.077L561.31 290.717L561.007 292.354L560.649 293.987L560.236 295.617L559.768 297.241L559.245 298.861L558.668 300.474L558.037 302.081L557.351 303.681L556.611 305.273L555.817 306.857L554.969 308.432L554.067 309.998L553.112 311.554L552.104 313.099L551.043 314.633L549.929 316.156L548.763 317.667L547.545 319.165L546.274 320.649L544.952 322.12L543.579 323.576L542.154 325.017L540.679 326.443L539.153 327.853L537.577 329.246L535.952 330.623L534.277 331.982L532.553 333.323L530.781 334.645L528.96 335.948L527.092 337.232L525.176 338.495L523.214 339.738L521.205 340.96L519.149 342.161L517.049 343.34L514.903 344.496L512.712 345.629L510.478 346.739L508.199 347.826L505.878 348.888L503.514 349.925L501.108 350.938L498.66 351.925L496.171 352.887L493.642 353.822L491.073 354.73L488.465 355.612L485.818 356.466L483.132 357.292L480.41 358.091L477.65 358.86L474.854 359.601L472.022 360.313L469.155 360.996L466.254 361.649L463.319 362.271L460.351 362.864L457.35 363.425L454.318 363.956L451.254 364.456L448.16 364.924L445.036 365.36L441.883 365.764L438.702 366.136L435.493 366.476L432.257 366.783L428.995 367.057L425.707 367.298L422.394 367.506L419.058 367.681L415.698 367.821L412.315 367.928L408.911 368.002L405.485 368.041L402.039 368.046L398.574 368.016L395.089 367.952L391.587 367.854L388.067 367.721L384.531 367.554L380.979 367.351L377.412 367.114L373.831 366.842L370.236 366.536L366.629 366.194L363.01 365.817L359.38 365.405L355.74 364.959L352.09 364.477L348.432 363.961L344.765 363.409L341.092 362.823L337.413 362.202L333.727 361.547L330.038 360.856L326.344 360.131L322.647 359.372L318.948 358.578L315.248 357.751L311.547 356.889L307.846 355.993L304.145 355.063L300.447 354.099L296.751 353.102L293.059 352.072L289.37 351.008L285.686 349.912L282.008 348.783L278.337 347.621L274.673 346.427L271.016 345.201L267.369 343.943L263.731 342.654L260.103 341.333L256.487 339.981L252.882 338.599L249.29 337.186L245.712 335.743L242.147 334.27L238.598 332.768L235.064 331.237L231.546 329.676L228.046 328.087L224.563 326.47L221.099 324.826L217.655 323.154L214.23 321.455L210.826 319.729L207.443 317.977L204.083 316.2L200.745 314.397L197.431 312.569L194.141 310.716L190.876 308.84L187.637 306.94L184.423 305.017L181.237 303.071L178.078 301.103L174.947 299.113L171.845 297.102L168.772 295.07L165.729 293.018L162.716 290.946L159.735 288.855L156.786 286.745L153.869 284.617L150.985 282.471L148.134 280.309L145.318 278.129L142.536 275.934L139.789 273.723L137.078 271.498L134.404 269.258L131.765 267.004L129.165 264.738L126.601 262.458L124.076 260.167L121.59 257.865L119.143 255.551L116.735 253.228L114.368 250.894L112.041 248.552L109.755 246.202L107.51 243.844L105.307 241.479L103.146 239.107L101.027 236.73L98.9512 234.347L96.9188 231.96L94.9298 229.569L92.9849 227.175L91.0841 224.778L89.2279 222.379L87.4165 219.979L85.6504 217.578L83.9297 215.177L82.2546 212.776L80.6256 210.378L79.0429 207.98L77.5065 205.586L76.0169 203.195L74.5742 200.808L73.1786 198.425L71.8304 196.048L70.5296 193.677L69.2765 191.312L68.0712 188.955L66.9139 186.605L65.8048 184.264L64.7438 181.932L63.7312 179.61L62.767 177.299L61.8514 174.999L60.9844 172.711L60.166 170.435L59.3964 168.173L58.6755 165.924L58.0035 163.69L57.3802 161.471L56.8058 159.268L56.2802 157.082L55.8035 154.912L55.3754 152.76L54.9962 150.626L54.6655 148.512L54.3836 146.417L54.1501 144.342L53.9651 142.288L53.8285 140.256L53.7401 138.246L53.6998 136.258L53.7076 134.294L53.7631 132.353L53.8664 130.437L54.0172 128.547L54.2154 126.681L54.4607 124.843L54.753 123.031L55.092 121.246L55.4776 119.489L55.9095 117.761L56.3874 116.062L56.9111 114.392L57.4804 112.753L58.0949 111.144L58.7544 109.567L59.4586 108.021L60.2072 106.508L60.9998 105.027L61.8362 103.58L62.716 102.166L63.6388 100.786L64.6043 99.4416L65.6122 98.132L66.662 96.8581L67.7533 95.6202L68.8859 94.4189L70.0593 93.2545L71.273 92.1275L72.5266 91.0384L73.8198 89.9874L75.152 88.9751L76.5229 88.0019L77.9319 87.068L79.3787 86.1739L80.8626 85.32L82.3834 84.5066L83.9404 83.734L85.5331 83.0026L87.1612 82.3128L88.8239 81.6648L90.521 81.0589L92.2516 80.4955L94.0155 79.9749L95.8121 79.4972L97.6406 79.0629L99.5007 78.6721L101.392 78.3251L103.313 78.0221L105.265 77.7634L107.245 77.5492L109.254 77.3797L111.292 77.255L113.356 77.1755L115.448 77.1412L117.566 77.1523L119.709 77.2089L121.878 77.3113L124.071 77.4594L126.288 77.6536L128.527 77.8938L130.79 78.1802L133.074 78.5128L135.379 78.8917L137.705 79.3171L140.051 79.7889L142.416 80.3071L144.8 80.8719L147.202 81.4832L149.621 82.141L152.057 82.8454L154.508 83.5963L156.975 84.3937L159.456 85.2375L161.952 86.1278L164.46 87.0643L166.981 88.0472L169.514 89.0762L172.058 90.1513L174.613 91.2724L177.178 92.4394L179.751 93.6521L182.333 94.9104L184.923 96.2141L187.52 97.5631L190.123 98.9572L192.732 100.396L195.346 101.88L197.964 103.408L200.586 104.981L203.211 106.597L205.838 108.257L208.467 109.961L211.096 111.709L213.726 113.499L216.355 115.332L218.983 117.207L221.61 119.124L224.233 121.084L226.854 123.084L229.471 125.126L232.083 127.209L234.69 129.332L237.291 131.495L239.886 133.698L242.474 135.94L245.054 138.22L247.625 140.54L250.188 142.897L252.74 145.292L255.283 147.724L257.814 150.193L260.334 152.698L262.841 155.238L265.336 157.814L267.817 160.425L270.284 163.07L272.737 165.749L275.174 168.461L277.595 171.206L280 173.983L282.388 176.792L284.759 179.632L287.111 182.502L289.445 185.402L291.759 188.332L294.054 191.291L296.328 194.277L298.581 197.292L300.813 200.333L303.023 203.401L305.211 206.494L307.376 209.613L309.517 212.756L311.634 215.923L313.727 219.114L315.795 222.326L317.838 225.561L319.855 228.817L321.846 232.094L323.81 235.39L325.747 238.705L327.657 242.039L329.538 245.391L331.391 248.76L333.216 252.145L335.011 255.546L336.777 258.962L338.513 262.391L340.218 265.835L341.893 269.291L343.538 272.759L345.15 276.239L346.732 279.729L348.281 283.229L349.798 286.737L351.283 290.254L352.735 293.779L354.153 297.31L355.539 300.848L356.89 304.39L358.208 307.937L359.492 311.488L360.742 315.042L361.957 318.597L363.137 322.155L364.283 325.712L365.393 329.27L366.468 332.826L367.508 336.381L368.512 339.934L369.48 343.483L370.412 347.028L371.309 350.568L372.169 354.102L372.993 357.63L373.781 361.151L374.532 364.663L375.247 368.167L375.926 371.662L376.568 375.146L377.173 378.619L377.742 382.08L378.274 385.528L378.77 388.964L379.228 392.384L379.651 395.79L380.036 399.18L380.385 402.554L380.698 405.911L380.974 409.249L381.214 412.569L381.417 415.869L381.584 419.149L381.715 422.408L381.81 425.645L381.869 428.86L381.893 432.052L381.88 435.22L381.833 438.363L381.75 441.481L381.631 444.573L381.478 447.638L381.29 450.676L381.067 453.685L380.81 456.666L380.519 459.617L380.194 462.538L379.835 465.428L379.443 468.287L379.017 471.113L378.559 473.907L378.067 476.667L377.544 479.393L376.988 482.085L376.401 484.741L375.782 487.361L375.132 489.945L374.451 492.491L373.739 495L372.998 497.47L372.226 499.901L371.425 502.293L370.595 504.645L369.736 506.957L368.849 509.227L367.934 511.455L366.992 513.642L366.022 515.786L365.026 517.886L364.003 519.943L362.955 521.956L361.881 523.924L360.782 525.846L359.658 527.724L358.511 529.555L357.34 531.34L356.145 533.078L354.929 534.769L353.689 536.412L352.429 538.007L351.146 539.553L349.844 541.051L348.521 542.5L347.178 543.899L345.816 545.248L344.436 546.546L343.037 547.795L341.621 548.992L340.187 550.139L338.737 551.233L337.271 552.277L335.79 553.268L334.294 554.207L332.783 555.094L331.259 555.927L329.721 556.709L328.171 557.437L326.609 558.111L325.035 558.733L323.451 559.3L321.855 559.814L320.251 560.274L318.637 560.68L317.014 561.032L315.383 561.329L313.745 561.572L312.1 561.761L310.449 561.895L308.792 561.975L307.13 562L305.464 561.97L303.793 561.886L302.12 561.747L300.444 561.553L298.765 561.305L297.085 561.002L295.405 560.645L293.724 560.233L292.043 559.766L290.363 559.245L288.685 558.67L287.009 558.041L285.336 557.357L283.666 556.62L281.999 555.829L280.338 554.984L278.681 554.086L277.03 553.134L275.385 552.129L273.747 551.071L272.116 549.961L270.494 548.798L268.88 547.583L267.275 546.316L265.68 544.997L264.095 543.626L262.521 542.205L260.958 540.732L259.407 539.209L257.869 537.636L256.344 536.012L254.832 534.339L253.335 532.617L251.852 530.846L250.384 529.026L248.932 527.158L247.497 525.243L246.078 523.28L244.676 521.27L243.292 519.213L241.927 517.111L240.58 514.963L239.252 512.77L237.945 510.532L236.657 508.249L235.39 505.923L234.145 503.554L232.921 501.142L231.719 498.688L230.539 496.192L229.383 493.655L228.25 491.078L227.14 488.46L226.055 485.803L224.995 483.107L223.96 480.373L222.95 477.6L221.966 474.791L221.008 471.945L220.077 469.063L219.172 466.146L218.296 463.194L217.446 460.208L216.625 457.189L215.832 454.137L215.067 451.053L214.332 447.937L213.626 444.791L212.949 441.614L212.303 438.408L211.686 435.174L211.1 431.911L210.544 428.621L210.019 425.305L209.526 421.962L209.064 418.595L208.633 415.203L208.235 411.787L207.868 408.348L207.534 404.887L207.232 401.405L206.962 397.902L206.725 394.379L206.522 390.836L206.351 387.276L206.213 383.697L206.109 380.102L206.038 376.49L206.001 372.863L205.998 369.222L206.028 365.567L206.092 361.898L206.189 358.218L206.321 354.526L206.487 350.824L206.686 347.111L206.92 343.39L207.188 339.66L207.489 335.923L207.825 332.179L208.195 328.43L208.599 324.675L209.037 320.916L209.508 317.154L210.014 313.389L210.553 309.622L211.126 305.854L211.733 302.086L212.373 298.319L213.047 294.553L213.754 290.789L214.494 287.028L215.267 283.271L216.073 279.518L216.912 275.771L217.783 272.03L218.686 268.296L219.622 264.57L220.59 260.852L221.59 257.144L222.621 253.446L223.683 249.758L224.777 246.083L225.901 242.419L227.056 238.769L228.241 235.133L229.457 231.512L230.702 227.906L231.976 224.317L233.28 220.744L234.613 217.189L235.974 213.653L237.363 210.136L238.78 206.639L240.225 203.162L241.697 199.707L243.195 196.274L244.72 192.864L246.271 189.477L247.848 186.115L249.45 182.777L251.076 179.465L252.727 176.179L254.402 172.92L256.101 169.689L257.822 166.486L259.567 163.312L261.333 160.168L263.122 157.053L264.931 153.97L266.761 150.918L268.612 147.897L270.482 144.91L272.372 141.956L274.281 139.035L276.207 136.149L278.152 133.298L280.114 130.483L282.092 127.703L284.087 124.96L286.098 122.255L288.123 119.587L290.163 116.957L292.217 114.366L294.285 111.814L296.365 109.301L298.458 106.829L300.562 104.398L302.678 102.007L304.804 99.6583L306.94 97.3513L309.085 95.0868L311.239 92.865L313.401 90.6865L315.571 88.5516L317.748 86.4606L319.93 84.4141L322.119 82.4122L324.313 80.4555L326.511 78.5441L328.713 76.6786L330.918 74.859L333.126 73.0859L335.335 71.3595L337.546 69.68L339.758 68.0478L341.969 66.463L344.18 64.926L346.39 63.437L348.598 61.9963L350.803 60.6039L353.005 59.2603L355.203 57.9654L357.396 56.7196L359.585 55.523L361.767 54.3757L363.944 53.2779L366.113 52.2297L368.274 51.2313L370.427 50.2828L372.571 49.3842L374.705 48.5357L376.829 47.7374L378.942 46.9892L381.043 46.2913L383.132 45.6436L385.209 45.0463L387.271 44.4993L389.32 44.0027L391.354 43.5564L393.372 43.1604L395.374 42.8146L397.36 42.5192L399.328 42.2739L401.279 42.0787L403.211 41.9336L405.123 41.8384L407.017 41.7931L408.889 41.7975L410.741 41.8516L412.571 41.9552L414.379 42.108L416.165 42.3101L417.927 42.5611L419.665 42.861L421.379 43.2095L423.068 43.6065L424.731 44.0517L426.368 44.5448L427.978 45.0857L429.561 45.6742L431.117 46.3099L432.644 46.9925L434.142 47.7219L435.611 48.4976L437.05 49.3196L438.459 50.1872L439.837 51.1004L441.183 52.0587L442.498 53.0619L443.78 54.1094L445.03 55.2011L446.246 56.3365L447.428 57.5152L448.577 58.7369L449.69 60.0011L450.769 61.3075L451.812 62.6555L452.82 64.0449L453.791 65.4752L454.725 66.9458L455.622 68.4564L456.482 70.0064L457.304 71.5955L458.087 73.2231L458.832 74.8887L459.539 76.5919L460.205 78.3322L460.833 80.1089L461.42 81.9217L461.967 83.7699L462.474 85.6531L462.94 87.5707L463.365 89.5221L463.748 91.5068L464.09 93.5242L464.39 95.5738L464.648 97.6549L464.863 99.7671L465.036 101.91L465.166 104.082L465.253 106.283L465.297 108.514L465.298 110.772L465.255 113.057L465.169 115.369L465.038 117.707L464.864 120.071L464.646 122.46L464.383 124.872L464.077 127.309L463.726 129.768L463.33 132.249L462.89 134.752L462.405 137.275L461.876 139.819L461.302 142.383L460.684 144.965L460.02 147.566L459.312 150.184L458.56 152.819L457.763 155.47L456.921 158.136L456.034 160.817L455.103 163.512L454.127 166.221L453.107 168.942L452.043 171.675L450.935 174.42L449.782 177.175L448.586 179.939L447.346 182.713L446.062 185.496L444.734 188.286L443.363 191.083L441.949 193.886L440.492 196.695L438.992 199.509L437.45 202.328L435.865 205.149L434.238 207.974L432.569 210.8L430.859 213.628L429.107 216.457L427.314 219.286L425.481 222.114L423.607 224.94L421.693 227.765L419.738 230.587L417.745 233.405L415.712 236.219L413.64 239.028L411.53 241.832L409.382 244.629L407.196 247.42L404.973 250.203L402.713 252.978L400.416 255.744L398.084 258.501L395.715 261.247L393.312 263.983L390.873 266.707L388.401 269.419L385.895 272.118L383.355 274.804L380.782 277.476L378.177 280.133L375.541 282.775L372.873 285.401L370.174 288.01L367.444 290.603L364.686 293.178L361.898 295.734L359.081 298.272L356.236 300.791L353.364 303.289L350.465 305.767L347.539 308.224L344.588 310.659L341.612 313.072L338.611 315.462L335.587 317.829L332.539 320.172L329.468 322.491L326.376 324.785L323.262 327.054L320.128 329.297L316.973 331.514L313.799 333.704L310.607 335.867L307.396 338.003L304.168 340.11L300.924 342.189L297.663 344.239L294.388 346.259L291.097 348.25L287.793 350.21L284.476 352.14L281.146 354.039L277.805 355.907L274.453 357.743L271.09 359.546L267.718 361.318L264.337 363.056L260.949 364.762L257.552 366.434L254.15 368.073L250.741 369.677L247.328 371.248L243.91 372.783L240.489 374.284L237.065 375.75L233.638 377.18L230.211 378.575L226.783 379.934L223.356 381.257L219.929 382.543L216.504 383.794L213.082 385.007L209.664 386.184L206.249 387.324L202.839 388.427L199.435 389.492L196.037 390.52L192.647 391.511L189.264 392.463L185.891 393.379L182.526 394.256L179.172 395.095L175.829 395.897L172.498 396.66L169.18 397.385L165.874 398.072L162.583 398.722L159.307 399.332L156.046 399.905L152.802 400.439L149.575 400.936L146.365 401.394L143.174 401.814L140.003 402.196L136.851 402.54L133.721 402.846L130.612 403.114L127.525 403.344L124.461 403.537L121.421 403.692L118.405 403.809L115.414 403.89L112.45 403.933L109.511 403.939L106.6 403.908L103.717 403.841L100.862 403.737L98.037 403.597L95.2415 403.42L92.4767 403.208L89.7431 402.96L87.0414 402.676L84.3723 402.357L81.7363 402.003L79.1342 401.615L76.5665 401.192L74.0339 400.735L71.537 400.243L69.0763 399.719L66.6526 399.161L64.2662 398.57L61.918 397.946L59.6083 397.29L57.3378 396.601L55.1071 395.882L52.9166 395.13L50.767 394.348L48.6587 393.535L46.5922 392.693L44.5681 391.82L42.587 390.918L40.6492 389.986L38.7553 389.026L36.9057 388.038L35.1009 387.022L33.3414 385.979L31.6276 384.909L29.9599 383.813L28.3388 382.69L26.7646 381.542L25.2378 380.368L23.7588 379.171L22.328 377.949L20.9457 376.703L19.6123 375.434L18.3282 374.142L17.0936 372.829L15.909 371.493L14.7746 370.137L13.6907 368.76L12.6577 367.362L11.6758 365.946L10.7453 364.51L9.86649 363.055L9.03957 361.583L8.26482 360.093L7.54243 358.586L6.87266 357.063L6.25565 355.524L5.69167 353.97L5.18083 352.401L4.72337 350.819L4.31935 349.222L3.96902 347.613L3.67247 345.992L3.42978 344.359L3.24112 342.714L3.10655 341.059L3.02614 339.394L3 337.719L3.02816 336.036L3.11069 334.345L3.24762 332.645L3.43899 330.939L3.68476 329.226L3.98493 327.508L4.33954 325.784L4.74852 324.056L5.21187 322.323L5.72948 320.587L6.30133 318.848L6.92733 317.107L7.6074 315.365L8.34143 313.621L9.12931 311.877L9.97095 310.133L10.8661 308.39L11.8148 306.648L12.8167 304.908L13.8717 303.171L14.9796 301.436L16.1403 299.706L17.3534 297.98L18.6189 296.258L19.9364 294.543L21.3057 292.833L22.7265 291.13L24.1986 289.434L25.7218 287.746L27.2956 286.067L28.9199 284.396L30.5942 282.735L32.3183 281.084L34.0918 279.444L35.9143 277.815L37.7856 276.198L39.7053 274.593L41.6728 273.001L43.688 271.422L45.7503 269.857L47.8593 268.307L50.0147 266.771L52.2159 265.251L54.4625 263.748L56.7542 262.26L59.0903 260.79L61.4704 259.337L63.8941 257.903L66.3609 256.487L68.8701 255.089L71.4214 253.712L74.0142 252.354L76.6479 251.017L79.3221 249.7L82.036 248.405L84.7893 247.132L87.5813 245.88L90.4113 244.652L93.279 243.446L96.1836 242.264L99.1245 241.106L102.101 239.972L105.113 238.863L108.159 237.779L111.239 236.72L114.352 235.687L117.498 234.68L120.675 233.7L123.884 232.746L127.123 231.82L130.392 230.921L133.691 230.05L137.017 229.207L140.372 228.393L143.753 227.607L147.161 226.851L150.594 226.124L154.052 225.426L157.535 224.758L161.04 224.12L164.569 223.513L168.119 222.936L171.69 222.39L175.282 221.874L178.894 221.39L182.524 220.938L186.172 220.517L189.838 220.127L193.52 219.77L197.218 219.445L200.931 219.151L204.658 218.89L208.399 218.662L212.152 218.466L215.917 218.303L219.693 218.172L223.479 218.075L227.275 218.01L231.079 217.978L234.891 217.98L238.709 218.014L242.534 218.081L246.365 218.182L250.2 218.316L254.038 218.483L257.88 218.683L261.723 218.916L265.568 219.182L269.414 219.482L273.259 219.814L277.103 220.179L280.944 220.578L284.783 221.009L288.619 221.473L292.45 221.969L296.276 222.498L300.095 223.059L303.908 223.653L307.714 224.278L311.51 224.936L315.298 225.626L319.076 226.347L322.842 227.1L326.597 227.884L330.34 228.699L334.069 229.545L337.785 230.421L341.485 231.328L345.171 232.266L348.839 233.233L352.491 234.23L356.125 235.256L359.74 236.312L363.336 237.396L366.912 238.509L370.467 239.651L374 240.82L377.511 242.017L380.999 243.242L384.463 244.493L387.903 245.771L391.318 247.076L394.706 248.406L398.068 249.762L401.403 251.143L404.71 252.549L407.988 253.979L411.237 255.434L414.455 256.912L417.644 258.413L420.8 259.937L423.925 261.484L427.018 263.052L430.077 264.642L433.102 266.252L436.093 267.884L439.049 269.535L441.969 271.206L444.853 272.896L447.701 274.605L450.511 276.331L453.283 278.076L456.016 279.837L458.711 281.616L461.366 283.41L463.981 285.22L466.556 287.045L469.089 288.884L471.581 290.737L474.031 292.604L476.438 294.484L478.803 296.376L481.124 298.28L483.401 300.194L485.634 302.12L487.822 304.056L489.965 306.001L492.063 307.954L494.115 309.917L496.12 311.887L498.079 313.864L499.991 315.847L501.855 317.837L503.672 319.832L505.441 321.831L507.162 323.835L508.834 325.842L510.457 327.852L512.031 329.864L513.555 331.878L515.03 333.893L516.455 335.909L517.83 337.924L519.155 339.939L520.428 341.952L521.652 343.963L522.824 345.971L523.945 347.976L525.015 349.977L526.033 351.973L527 353.964L527.915 355.95L528.779 357.929L529.591 359.901L530.35 361.865L531.058 363.821L531.713 365.768L532.317 367.705L532.868 369.632L533.367 371.548L533.814 373.453L534.208 375.346L534.551 377.227L534.841 379.093L535.079 380.947L535.265 382.785L535.399 384.609L535.481 386.416L535.511 388.208L535.49 389.983L535.416 391.74L535.291 393.479L535.115 395.199L534.887 396.9L534.609 398.582L534.279 400.243L533.898 401.883L533.467 403.501L532.986 405.098L532.454 406.672L531.872 408.222L531.241 409.749L530.56 411.251L529.83 412.729L529.051 414.182L528.223 415.608L527.347 417.009L526.423 418.382L525.451 419.728L524.431 421.046L523.365 422.335L522.252 423.596L521.092 424.828L519.886 426.029L518.635 427.2L517.338 428.341L515.996 429.45L514.61 430.528L513.18 431.574L511.706 432.587L510.188 433.567L508.628 434.514L507.026 435.427L505.382 436.306L503.696 437.15L501.97 437.959L500.203 438.734L498.396 439.472L496.55 440.175L494.665 440.841L492.741 441.47L490.78 442.063L488.781 442.618L486.745 443.135L484.673 443.615L482.566 444.056L480.423 444.459L478.246 444.823L476.035 445.148L473.791 445.433L471.514 445.679L469.204 445.885L466.863 446.052L464.492 446.178L462.09 446.263L459.658 446.308L457.197 446.312L454.708 446.275L452.191 446.198L449.647 446.078L447.077 445.918L444.48 445.715L441.859 445.472L439.213 445.186L436.544 444.858L433.851 444.489L431.136 444.077L428.399 443.624L425.642 443.128L422.864 442.59L420.066 442.009L417.249 441.387L414.414 440.722L411.562 440.015L408.693 439.266L405.808 438.474L402.907 437.64L399.992 436.764L397.063 435.846L394.12 434.886L391.166 433.884L388.199 432.84L385.221 431.754L382.234 430.627L379.236 429.458L376.23 428.247L373.215 426.996L370.194 425.703L367.165 424.369L364.131 422.995L361.091 421.58L358.047 420.124L355 418.628L351.949 417.093L348.896 415.517L345.841 413.903L342.786 412.248L339.731 410.555L336.676 408.824L333.623 407.053L330.571 405.245L327.523 403.399L324.478 401.515L321.437 399.594L318.401 397.636L315.371 395.642L312.347 393.612L309.33 391.545L306.321 389.444L303.321 387.307L300.329 385.136L297.347 382.93L294.376 380.691L291.416 378.418L288.468 376.112L285.533 373.774L282.61 371.404L279.701 369.002L276.807 366.569L273.928 364.105L271.065 361.611L268.219 359.087L265.389 356.535L262.577 353.953L259.783 351.343L257.008 348.706L254.253 346.042L251.518 343.351L248.804 340.634L246.111 337.892L243.44 335.125L240.791 332.333L238.166 329.518L235.564 326.68L232.986 323.819L230.433 320.937L227.905 318.033L225.403 315.108L222.928 312.163L220.479 309.199L218.057 306.216L215.663 303.215L213.298 300.197L210.961 297.161L208.654 294.109L206.377 291.042L204.129 287.96L201.912 284.864L199.727 281.754L197.573 278.632L195.451 275.497L193.361 272.351L191.304 269.194L189.28 266.027L187.289 262.851L185.333 259.666L183.41 256.473L181.523 253.273L179.67 250.067L177.852 246.855L176.07 243.637L174.324 240.416L172.615 237.191L170.942 233.963L169.305 230.733L167.706 227.501L166.144 224.269L164.619 221.037L163.133 217.806L161.684 214.577L160.274 211.35L158.902 208.126L157.569 204.905L156.275 201.69L155.02 198.479L153.804 195.275L152.627 192.078L151.49 188.888L150.393 185.706L149.335 182.534L148.317 179.371L147.339 176.219L146.402 173.078L145.504 169.949L144.647 166.833L143.83 163.731L143.053 160.643L142.317 157.569L141.621 154.512L140.965 151.471L140.35 148.447L139.775 145.441L139.241 142.453L138.747 139.485L138.293 136.537L137.88 133.61L137.507 130.704L137.174 127.821L136.881 124.96L136.628 122.123L136.414 119.31L136.241 116.522L136.107 113.76L136.012 111.024L135.957 108.315L135.942 105.633L135.965 102.98L136.027 100.356L136.127 97.7621L136.266 95.198L136.443 92.6647L136.659 90.1631L136.912 87.6936L137.202 85.2569L137.53 82.8537L137.895 80.4844L138.297 78.1497L138.735 75.8502L139.21 73.5865L139.721 71.3592L140.267 69.1688L140.848 67.0159L141.465 64.9011L142.116 62.8249L142.801 60.7877L143.521 58.7903L144.274 56.833L145.06 54.9164L145.879 53.0411L146.731 51.2074L147.615 49.4159L148.53 47.6671L149.477 45.9613L150.455 44.2992L151.464 42.6812L152.502 41.1075L153.57 39.5788L154.667 38.0954L155.793 36.6578L156.947 35.2663L158.129 33.9213L159.338 32.6232L160.575 31.3724L161.837 30.1692L163.126 29.014L164.439 27.9071L165.778 26.8488L167.141 25.8395L168.528 24.8795L169.938 23.969L171.371 23.1084L172.827 22.2979L174.304 21.5378L175.802 20.8283L177.321 20.1697L178.86 19.5621L180.419 19.0059L181.997 18.5012L183.593 18.0482L185.207 17.647L186.838 17.298L188.486 17.0011L190.15 16.7565L191.829 16.5645L193.524 16.4251L195.233 16.3384L196.956 16.3045L198.692 16.3236L200.44 16.3956L202.201 16.5206L203.973 16.6987L205.755 16.93L207.548 17.2144L209.351 17.552L211.162 17.9428L212.982 18.3867L214.809 18.8837L216.644 19.4339L218.485 20.0371L220.332 20.6932L222.185 21.4024L224.042 22.1643L225.903 22.979L227.767 23.8463L229.634 24.7661L231.504 25.7384L233.375 26.7628L235.247 27.8393L237.12 28.9677L238.992 30.1479L240.863 31.3796L242.733 32.6627L244.601 33.9968L246.466 35.3819L248.328 36.8176L250.186 38.3037L252.039 39.84L253.888 41.4261L255.73 43.0618L257.567 44.7467L259.396 46.4807L261.218 48.2633L263.032 50.0942L264.838 51.9731L266.634 53.8996L268.421 55.8734L270.197 57.8941L271.962 59.9612L273.716 62.0745L275.457 64.2334L277.186 66.4376L278.902 68.6867L280.605 70.9802L282.293 73.3176L283.966 75.6985L285.624 78.1225L287.266 80.5889L288.892 83.0974L290.501 85.6475L292.093 88.2387L293.667 90.8703L295.223 93.5419L296.759 96.253L298.277 99.003L299.775 101.791L301.252 104.618L302.709 107.481L304.144 110.381L305.558 113.317L306.95 116.288L308.32 119.295L309.666 122.335L310.989 125.409L312.289 128.516L313.564 131.655L314.814 134.826L316.04 138.028L317.241 141.261L318.415 144.523L319.564 147.814L320.686 151.133L321.781 154.48L322.85 157.854L323.891 161.254L324.904 164.68L325.889 168.131L326.845 171.605L327.773 175.103L328.672 178.624L329.542 182.166L330.382 185.73L331.193 189.314L331.973 192.918L332.723 196.54L333.443 200.181L334.132 203.839L334.79 207.514L335.417 211.204L336.013 214.91L336.577 218.63L337.109 222.363L337.61 226.109L338.078 229.867L338.514 233.636L338.918 237.416L339.29 241.204L339.629 245.002L339.936 248.808L340.21 252.62L340.451 256.439L340.659 260.264L340.834 264.093L340.976 267.926L341.085 271.763L341.161 275.601L341.204 279.441L341.214 283.282L341.19 287.122L341.134 290.961L341.045 294.799L340.922 298.634L340.766 302.466L340.578 306.293L340.356 310.115L340.102 313.932L339.815 317.742L339.495 321.544L339.143 325.339L338.758 329.124L338.341 332.899L337.891 336.664L337.41 340.417L336.896 344.158L336.351 347.886L335.774 351.6L335.165 355.299L334.526 358.984L333.855 362.652L333.154 366.303L332.422 369.936L331.659 373.551L330.866 377.147L330.044 380.723L329.191 384.278L328.31 387.812L327.399 391.323L326.459 394.812L325.491 398.276L324.494 401.717L323.47 405.132L322.418 408.522L321.338 411.885L320.232 415.221L319.099 418.529L317.94 421.808L316.755 425.058L315.544 428.278L314.308 431.468L313.047 434.626L311.762 437.752L310.453 440.846L309.12 443.906L307.765 446.933L306.386 449.925L304.985 452.882L303.562 455.803L302.118 458.689L300.653 461.537L299.167 464.348L297.661 467.12L296.136 469.855L294.591 472.55L293.028 475.205L291.447 477.82L289.848 480.395L288.232 482.928L286.599 485.419L284.951 487.869L283.286 490.275L281.607 492.638L279.913 494.958L278.205 497.233L276.484 499.464L274.749 501.65L273.003 503.79L271.244 505.885L269.474 507.933L267.694 509.935L265.904 511.889L264.104 513.797L262.295 515.656L260.477 517.467L258.652 519.23L256.82 520.944L254.981 522.609L253.135 524.225L251.285 525.79L249.43 527.306L247.57 528.772L245.707 530.187L243.84 531.551L241.972 532.865L240.101 534.127L238.229 535.338L236.357 536.497L234.485 537.604L232.613 538.659L230.742 539.663L228.873 540.613L227.007 541.512L225.144 542.358L223.285 543.151L221.429 543.891L219.579 544.579L217.734 545.214L215.896 545.795L214.064 546.324L212.24 546.799L210.423 547.221L208.615 547.59L206.817 547.906L205.028 548.169L203.249 548.379L201.482 548.535L199.726 548.639L197.983 548.689L196.252 548.687L194.535 548.631L192.832 548.523L191.143 548.362L189.47 548.149L187.812 547.883L186.171 547.565L184.547 547.194L182.94 546.772L181.352 546.298L179.782 545.772L178.231 545.195L176.7 544.567L175.189 543.887L173.7 543.157L172.231 542.377L170.785 541.546L169.361 540.665L167.96 539.734L166.583 538.754L165.23 537.725L163.901 536.646L162.598 535.52L161.32 534.345L160.068 533.122L158.843 531.852L157.644 530.535L156.474 529.171L155.331 527.761L154.217 526.304L153.131 524.802L152.075 523.255L151.049 521.664L150.053 520.028L149.088 518.348L148.154 516.624L147.251 514.858L146.38 513.049L145.542 511.199L144.736 509.306L143.963 507.373L143.223 505.399L142.518 503.386L141.846 501.333L141.209 499.241L140.607 497.11L140.04 494.942L139.508 492.736L139.012 490.494L138.553 488.216L138.129 485.902L137.742 483.553L137.392 481.17L137.079 478.753L136.804 476.303L136.566 473.82L136.367 471.306L136.205 468.76L136.081 466.183L135.997 463.577L135.95 460.941L135.943 458.276L135.975 455.584L136.046 452.864L136.157 450.117L136.307 447.344L136.496 444.546L136.726 441.723L136.995 438.876L137.304 436.006L137.654 433.113L138.044 430.199L138.473 427.263L138.943 424.307L139.454 421.331L140.005 418.336L140.596 415.322L141.227 412.291L141.899 409.243L142.612 406.179L143.365 403.1L144.158 400.006L144.991 396.898L145.865 393.776L146.779 390.642L147.733 387.497L148.727 384.34L149.761 381.174L150.835 377.997L151.948 374.812L153.102 371.619L154.294 368.419L155.526 365.212L156.797 362L158.107 358.782L159.456 355.56L160.844 352.335L162.27 349.107L163.734 345.876L165.236 342.645L166.776 339.413L168.353 336.181L169.967 332.95L171.619 329.721L173.307 326.494L175.031 323.27L176.792 320.05L178.588 316.835L180.42 313.625L182.287 310.421L184.189 307.224L186.125 304.034L188.096 300.853L190.1 297.68L192.137 294.517L194.208 291.365L196.311 288.223L198.446 285.093L200.613 281.976L202.812 278.872L205.041 275.781L207.301 272.705L209.59 269.644L211.91 266.599L214.258 263.57L216.635 260.559L219.04 257.565L221.473 254.59L223.933 251.633L226.419 248.697L228.932 245.781L231.47 242.885L234.033 240.011L236.621 237.16L239.232 234.331L241.867 231.525L244.525 228.744L247.205 225.987L249.907 223.255L252.63 220.548L255.373 217.868L258.136 215.215L260.919 212.589L263.72 209.991L266.539 207.421L269.376 204.88L272.23 202.368L275.099 199.886L277.984 197.435L280.885 195.015L283.799 192.626L286.727 190.268L289.668 187.943L292.621 185.651L295.585 183.392L298.561 181.166L301.547 178.974L304.542 176.817L307.546 174.695L310.558 172.607L313.578 170.556L316.605 168.54L319.637 166.56L322.675 164.618L325.718 162.712L328.764 160.843L331.814 159.012L334.866 157.22L337.92 155.465L340.975 153.749L344.031 152.072L347.086 150.433L350.14 148.835L353.192 147.275L356.241 145.756L359.288 144.277L362.33 142.838L365.367 141.439L368.399 140.081L371.425 138.764L374.444 137.488L377.455 136.253L380.458 135.059L383.452 133.907L386.436 132.797L389.409 131.728L392.371 130.701L395.321 129.716L398.258 128.773L401.181 127.872L404.091 127.014L406.985 126.197L409.864 125.423L412.726 124.69L415.571 124.001L418.399 123.353L421.208 122.748L423.998 122.185L426.767 121.664L429.517 121.185L432.245 120.749L434.951 120.354L437.634 120.002L440.294 119.691L442.93 119.423L445.541 119.196L448.127 119.01L450.686 118.867L453.22 118.764L455.725 118.703L458.203 118.683L460.652 118.704L463.072 118.765L465.461 118.867L467.821 119.01L470.149 119.192L472.445 119.415L474.709 119.677L476.94 119.979L479.137 120.319L481.3 120.699L483.429 121.118L485.522 121.575L487.579 122.07L489.599 122.602L491.583 123.173L493.529 123.78L495.437 124.425L497.307 125.106L499.137 125.823L500.928 126.576L502.678 127.365L504.388 128.188L506.057 129.047L507.684 129.94L509.269 130.866L510.812 131.827L512.311 132.821L513.767 133.847L515.18 134.906L516.548 135.996L517.871 137.118L519.15 138.272L520.383 139.455L521.57 140.669L522.711 141.912L523.805 143.185L524.852 144.486L525.853 145.816L526.805 147.173L527.71 148.557L528.566 149.968L529.374 151.405L530.133 152.868L530.843 154.356L531.504 155.869L532.115 157.405L532.677 158.965L533.188 160.548L533.649 162.154L534.059 163.781L534.419 165.43L534.728 167.099L534.986 168.789L535.193 170.498L535.348 172.226L535.452 173.972L535.505 175.737L535.505 177.518L535.454 179.317L535.351 181.131L535.196 182.961L534.988 184.805L534.729 186.664L534.418 188.536L534.054 190.422L533.638 192.32L533.17 194.229L532.65 196.15L532.077 198.082L531.453 200.023L530.776 201.974L530.047 203.933L529.266 205.9L528.433 207.875L527.549 209.857L526.613 211.845L525.625 213.838L524.585 215.836L523.494 217.839L522.353 219.845L521.16 221.855L519.916 223.867L518.621 225.88L517.276 227.895L515.881 229.911L514.435 231.926L512.94 233.941L511.396 235.954L509.802 237.966L508.159 239.975L506.467 241.98L504.726 243.982L502.938 245.98L501.102 247.973L499.218 249.96L497.287 251.941L495.309 253.915L493.284 255.882L491.214 257.841L489.098 259.791L486.936 261.733L484.73 263.664L482.479 265.585L480.184 267.496L477.845 269.395L475.463 271.282L473.038 273.156L470.571 275.018L468.062 276.865L465.512 278.699L462.921 280.518L460.289 282.321L457.618 284.109L454.907 285.881L452.158 287.635L449.37 289.373L446.545 291.092L443.683 292.793L440.784 294.476L437.849 296.139L434.879 297.782L431.874 299.405L428.835 301.007L425.762 302.588L422.656 304.148L419.518 305.685L416.349 307.2L413.148 308.692L409.917 310.16L406.656 311.605L403.366 313.025L400.048 314.421L396.702 315.792L393.329 317.138L389.93 318.457L386.505 319.751L383.055 321.019L379.581 322.259L376.084 323.472L372.564 324.658L369.021 325.816L365.458 326.946L361.874 328.048L358.27 329.12L354.647 330.164L351.006 331.178L347.347 332.163L343.671 333.118L339.98 334.043L336.273 334.938L332.552 335.802L328.817 336.636L325.069 337.438L321.309 338.209L317.538 338.949L313.756 339.658L309.965 340.334L306.165 340.979L302.356 341.592L298.54 342.172L294.718 342.72L290.89 343.236L287.057 343.719L283.22 344.169L279.38 344.587L275.537 344.972L271.693 345.324L267.847 345.643L264.002 345.929L260.158 346.181L256.315 346.401L252.474 346.588L248.637 346.741L244.804 346.862L240.976 346.949L237.153 347.003L233.337 347.024L229.528 347.011L225.727 346.966L221.936 346.888L218.154 346.777L214.382 346.633L210.622 346.457L206.874 346.248L203.139 346.006L199.417 345.732L195.71 345.425L192.018 345.087L188.343 344.716L184.684 344.314L181.043 343.88L177.42 343.415L173.817 342.918L170.233 342.39L166.67 341.831L163.129 341.242L159.61 340.622L156.113 339.972L152.641 339.292L149.193 338.582L145.77 337.843L142.372 337.075L139.002 336.277L135.659 335.451L132.344 334.597L129.057 333.715L125.8 332.805L122.573 331.867L119.377 330.903L116.213 329.912L113.08 328.894L109.98 327.851L106.914 326.781L103.882 325.687L100.884 324.568L97.9221 323.424L94.996 322.256L92.1064 321.064L89.254 319.849L86.4393 318.611L83.6631 317.351L80.9257 316.069L78.2279 314.765L75.5702 313.44L72.9531 312.094L70.3771 310.728L67.8429 309.342L65.3509 307.937L62.9017 306.514L60.4956 305.072L58.1333 303.612L55.8153 302.134L53.5419 300.64L51.3137 299.13L49.1311 297.604L46.9946 296.062L44.9045 294.506L42.8614 292.935L40.8656 291.351L38.9175 289.754L37.0175 288.144L35.166 286.521L33.3634 284.888L31.61 283.243L29.9061 281.588L28.2522 279.923L26.6484 278.249L25.0952 276.566L23.5928 274.874L22.1415 273.176L20.7416 271.47L19.3934 269.758L18.0971 268.04L16.8529 266.316L15.6611 264.588L14.5219 262.856L13.4356 261.121L12.4021 259.382L11.4219 257.641L10.495 255.899L9.62164 254.155L8.8019 252.411L8.03592 250.667L7.32386 248.924L6.66582 247.182L6.06185 245.442L5.51207 243.704L5.01656 241.969L4.57535 240.238L4.18851 238.512L3.85607 236.79L3.57807 235.074L3.35447 233.364L3.18528 231.66L3.07052 229.964L3.01013 228.276L3.00411 226.596L3.05235 224.925L3.15483 223.264L3.31143 221.613L3.52213 219.973L3.78675 218.345L4.10527 216.728L4.47746 215.124L4.90324 213.533L5.3825 211.956L5.915 210.394L6.5006 208.846L7.13913 207.313L7.83035 205.797L8.5741 204.297L9.37012 202.814L10.2182 201.349L11.1181 199.902L12.0696 198.474L13.0724 197.065L14.1261 195.676L15.2306 194.307L16.3855 192.959L17.5905 191.632L18.8453 190.327L20.1496 189.045L21.5029 187.785L22.905 186.549L24.3555 185.337L25.854 184.149L27.4001 182.986L28.9934 181.848L30.6336 180.736L32.3201 179.65L34.0526 178.591L35.8306 177.559L37.6538 176.554L39.5215 175.578L41.4333 174.629L43.3888 173.71L45.3875 172.82L47.4289 171.959L49.5124 171.128L51.6376 170.328L53.804 169.558L56.0109 168.82L58.2579 168.113L60.5444 167.438L62.8699 166.795L65.2337 166.184L67.6354 165.607L70.0743 165.062L72.5498 164.551L75.0613 164.074L77.6083 163.63L80.1901 163.221L82.806 162.847L85.4556 162.507L88.138 162.203L90.8528 161.934L93.5992 161.7L96.3766 161.502L99.1843 161.34L102.022 161.215L104.888 161.126L107.783 161.073L110.705 161.058L113.654 161.079L116.63 161.137L119.63 161.233L122.656 161.365L125.706 161.536L128.78 161.744L131.876 161.99L134.993 162.273L138.133 162.595L141.292 162.954L144.472 163.351L147.67 163.787L150.887 164.261L154.121 164.772L157.373 165.322L160.64 165.911L163.922 166.537L167.219 167.201L170.53 167.904L173.854 168.645L177.19 169.424L180.537 170.241L183.896 171.095L187.264 171.988L190.641 172.919L194.027 173.887L197.421 174.893L200.821 175.936L204.227 177.017L207.639 178.135L211.056 179.29L214.476 180.481L217.899 181.71L221.325 182.975L224.752 184.276L228.18 185.614L231.607 186.988L235.034 188.397L238.46 189.842L241.883 191.322L245.303 192.837L248.719 194.386L252.13 195.971L255.537 197.589L258.937 199.241L262.33 200.927L265.716 202.646L269.093 204.398L272.461 206.183L275.82 208L279.168 209.849L282.504 211.729L285.829 213.641L289.141 215.583L292.439 217.556L295.724 219.559L298.993 221.591L302.248 223.653L305.485 225.744L308.706 227.862L311.91 230.009L315.095 232.183L318.261 234.384L321.407 236.612L324.533 238.866L327.638 241.145L330.722 243.449L333.783 245.778L336.822 248.131L339.837 250.508L342.827 252.907L345.793 255.329L348.734 257.773L351.649 260.239L354.537 262.725L357.398 265.231L360.232 267.758L363.037 270.303L365.813 272.867L368.56 275.45L371.277 278.049L373.963 280.665L376.619 283.298L379.242 285.946L381.834 288.61L384.393 291.287L386.92 293.978L389.412 296.683L391.871 299.4L394.295 302.129L396.684 304.869L399.038 307.619L401.356 310.38L403.638 313.15L405.883 315.928L408.091 318.714L410.262 321.508L412.394 324.308L414.489 327.114L416.545 329.925L418.562 332.741L420.539 335.561L422.477 338.384L424.375 341.209L426.233 344.037L428.05 346.865L429.826 349.694L431.561 352.522L433.254 355.35L434.906 358.176L436.516 360.999L438.083 363.819L439.608 366.636L441.091 369.448L442.53 372.255L443.927 375.056L445.28 377.85L446.59 380.637L447.856 383.416L449.079 386.187L450.257 388.947L451.392 391.698L452.482 394.438L453.528 397.167L454.53 399.883L455.488 402.586L456.401 405.275L457.269 407.951L458.093 410.611L458.872 413.255L459.606 415.883L460.296 418.494L460.941 421.087L461.541 423.662L462.097 426.218L462.608 428.754L463.075 431.269L463.497 433.763L463.874 436.235L464.207 438.685L464.496 441.112L464.74 443.515L464.94 445.893L465.097 448.247L465.209 450.574L465.278 452.876L465.303 455.15L465.285 457.397L465.223 459.615L465.118 461.805L464.971 463.965L464.78 466.096L464.548 468.195L464.273 470.263L463.956 472.3L463.597 474.304L463.197 476.275L462.755 478.213L462.272 480.117L461.749 481.986L461.186 483.82L460.582 485.618L459.938 487.38L459.256 489.105L458.534 490.793L457.773 492.443L456.973 494.055L456.136 495.628L455.261 497.162L454.349 498.657L453.399 500.111L452.414 501.525L451.392 502.897L450.334 504.228L449.241 505.518L448.113 506.764L446.951 507.969L445.754 509.13L444.525 510.247L443.262 511.321L441.966 512.351L440.639 513.336L439.279 514.276L437.889 515.17L436.468 516.019L435.016 516.823L433.535 517.579L432.025 518.29L430.487 518.953L428.92 519.57L427.326 520.139L425.704 520.66L424.056 521.134L422.383 521.56L420.684 521.937L418.96 522.266L417.212 522.546L415.44 522.777L413.646 522.959L411.828 523.092L409.989 523.175L408.129 523.209L406.248 523.193L404.347 523.127L402.426 523.012L400.486 522.846L398.529 522.631L396.553 522.365L394.561 522.049L392.552 521.683L390.527 521.266L388.487 520.8L386.433 520.283L384.365 519.715L382.283 519.097L380.189 518.429L378.083 517.711L375.965 516.942L373.837 516.123L371.699 515.254L369.551 514.335L367.395 513.367L365.23 512.348L363.058 511.279L360.879 510.162L358.694 508.994L356.503 507.777L354.308 506.512L352.108 505.197L349.905 503.833L347.699 502.421L345.49 500.961L343.28 499.452L341.069 497.896L338.857 496.292L336.645 494.64L334.435 492.941L332.226 491.196L330.019 489.404L327.815 487.566L325.615 485.681L323.419 483.752L321.227 481.776L319.041 479.756L316.86 477.692L314.686 475.583L312.519 473.43L310.361 471.234L308.21 468.994L306.068 466.713L303.936 464.389L301.815 462.023L299.704 459.615L297.604 457.167L295.516 454.679L293.441 452.15L291.379 449.582L289.331 446.975L287.296 444.33L285.277 441.646L283.273 438.925L281.285 436.168L279.313 433.373L277.358 430.543L275.42 427.678L273.501 424.778L271.6 421.843L269.718 418.876L267.856 415.875L266.013 412.842L264.191 409.777L262.39 406.68L260.611 403.554L258.854 400.397L257.118 397.211L255.406 393.996L253.717 390.754L252.052 387.484L250.411 384.188L248.794 380.865L247.202 377.517L245.636 374.145L244.096 370.749L242.582 367.329L241.094 363.887L239.633 360.423L238.2 356.938L236.794 353.433L235.416 349.907L234.066 346.364L232.746 342.801L231.454 339.222L230.191 335.625L228.958 332.013L227.755 328.386L226.582 324.744L225.439 321.089L224.328 317.42L223.247 313.74L222.197 310.048L221.179 306.345L220.192 302.633L219.237 298.912L218.314 295.182L217.424 291.445L216.566 287.702L215.741 283.952L214.948 280.198L214.188 276.439L213.462 272.677L212.768 268.912L212.108 265.145L211.482 261.378L210.889 257.61L210.33 253.842L209.804 250.076L209.312 246.312L208.854 242.551L208.43 238.794L208.04 235.041L207.684 231.294L207.362 227.553L207.075 223.818L206.821 220.092L206.601 216.374L206.415 212.666L206.263 208.967L206.145 205.28L206.061 201.604L206.011 197.941L205.995 194.292L206.012 190.656L206.063 187.035L206.148 183.43L206.265 179.842L206.416 176.27L206.601 172.717L206.818 169.182L207.068 165.667L207.351 162.173L207.666 158.699L208.013 155.247L208.393 151.817L208.805 148.411L209.248 145.029L209.723 141.672L210.229 138.34L210.767 135.034L211.335 131.755L211.933 128.504L212.562 125.281L213.221 122.087L213.91 118.922L214.628 115.788L215.375 112.686L216.151 109.614L216.956 106.576L217.789 103.57L218.649 100.598L219.538 97.6598L220.453 94.757L221.395 91.8897L222.364 89.0586L223.358 86.2644L224.378 83.5075L225.424 80.7886L226.494 78.1084L227.589 75.4672L228.708 72.8659L229.851 70.3048L231.017 67.7845L232.206 65.3056L233.417 62.8686L234.649 60.474L235.904 58.1224L237.179 55.8142L238.475 53.55L239.791 51.3301L241.126 49.1552L242.481 47.0256L243.854 44.9419L245.245 42.9044L246.654 40.9136L248.079 38.9698L249.522 37.0736L250.98 35.2253L252.454 33.4254L253.943 31.6741L255.446 29.9718L256.963 28.319L258.494 26.7159L260.037 25.163L261.593 23.6604L263.161 22.2086L264.739 20.8078L266.328 19.4583L267.928 18.1604L269.536 16.9143L271.154 15.7204L272.78 14.5788L274.413 13.4898L276.054 12.4537L277.702 11.4705L279.355 10.5406L281.014 9.66401L282.678 8.84102L284.345 8.07172L286.017 7.3563L287.692 6.69489L289.369 6.08759L291.048 5.53453L292.728 5.03583L294.409 4.59151L296.089 4.20168L297.77 3.86643L299.449 3.58574L301.127 3.3597L302.802 3.18832L304.474 3.07163L306.143 3.00959L307.808 3.00221L309.467 3.04949L311.122 3.15135L312.771 3.30773L314.413 3.51863L316.048 3.78392L317.676 4.10356L319.295 4.4774L320.905 4.90533L322.506 5.3873L324.097 5.92311L325.678 6.51262L327.247 7.15567L328.804 7.85211L330.349 8.60175L331.882 9.40441L333.4 10.2598L334.905 11.1678L336.395 12.1282L337.871 13.1406L339.33 14.2049L340.773 15.3208L342.2 16.488L343.609 17.7062L345 18.9751L346.373 20.2944L347.727 21.6638L349.062 23.083L350.377 24.5516L351.671 26.0692L352.945 27.6355L354.197 29.2501L355.427 30.9127L356.635 32.6227L357.82 34.3799L358.981 36.1838L360.119 38.034L361.233 39.9299L362.321 41.8713L363.385 43.8575L364.423 45.8883L365.435 47.9629L366.421 50.0811L367.379 52.2423L368.31 54.4459L369.214 56.6915L370.09 58.9785L370.937 61.3064L371.755 63.6747L372.544 66.0828L373.303 68.5301L374.033 71.0161L374.732 73.5402L375.4 76.1018L376.038 78.7004L376.644 81.3352L377.218 84.0058L377.761 86.7114L378.271 89.4515L378.749 92.2255L379.194 95.0326L379.606 97.8723L379.985 100.744L380.33 103.647L380.642 106.58L380.919 109.543L381.162 112.536L381.371 115.557L381.545 118.606L381.684 121.682L381.788 124.785L381.856 127.913L381.89 131.066L381.888 134.244L381.85 137.445L381.776 140.669L381.666 143.915L381.521 147.183L381.339 150.471L381.121 153.78L380.866 157.107L380.575 160.453L380.248 163.817L379.884 167.197L379.483 170.594L379.046 174.006L378.572 177.433L378.062 180.873L377.515 184.327L376.931 187.793L376.311 191.271L375.654 194.759L374.961 198.257L374.231 201.765L373.464 205.281L372.662 208.805L371.823 212.336L370.948 215.872L370.037 219.415L369.09 222.961L368.107 226.512L367.088 230.065L366.034 233.621L364.945 237.178L363.82 240.735L362.661 244.293L361.466 247.85L360.237 251.405L358.973 254.957L357.676 258.507L356.344 262.052L354.978 265.592L353.579 269.127L352.147 272.656L350.682 276.178L349.184 279.692L347.654 283.197L346.091 286.693L344.497 290.178L342.872 293.653L341.215 297.117L339.527 300.568L337.809 304.006L336.061 307.43L334.283 310.84L332.476 314.234L330.64 317.613L328.775 320.975L326.882 324.32L324.961 327.646L323.013 330.954L321.038 334.242L319.037 337.51L317.009 340.758L314.956 343.983L312.878 347.187L310.775 350.368L308.647 353.525L306.497 356.659L304.322 359.767L302.126 362.85L299.907 365.907L297.666 368.938L295.404 371.941L293.121 374.916L290.819 377.863L288.496 380.781L286.155 383.669L283.795 386.527L281.418 389.355L279.023 392.15L276.611 394.914L274.183 397.646L271.739 400.345L269.281 403.01L266.808 405.641L264.321 408.238L261.821 410.799L259.309 413.326L256.784 415.816L254.248 418.27L251.702 420.687L249.145 423.066L246.579 425.408L244.004 427.712L241.421 429.977L238.83 432.203L236.233 434.39L233.629 436.536L231.02 438.643L228.405 440.709L225.787 442.734L223.165 444.718L220.54 446.66L217.913 448.561L215.284 450.419L212.655 452.234L210.025 454.007L207.396 455.737L204.768 457.423L202.142 459.065L199.518 460.664L196.897 462.218L194.281 463.729L191.669 465.194L189.062 466.615L186.461 467.99L183.867 469.321L181.281 470.606L178.702 471.846L176.132 473.04L173.571 474.188L171.021 475.291L168.481 476.347L165.953 477.357L163.437 478.321L160.934 479.239L158.444 480.11L155.968 480.935L153.508 481.714L151.062 482.446L148.634 483.131L146.222 483.77L143.827 484.362L141.451 484.908L139.093 485.408L136.755 485.86L134.438 486.267L132.141 486.627L129.865 486.941L127.612 487.208L125.382 487.43L123.175 487.605L120.992 487.735L118.833 487.818L116.7 487.856L114.593 487.849L112.512 487.796L110.458 487.698L108.432 487.555L106.435 487.368L104.466 487.135L102.527 486.858L100.618 486.537L98.7393 486.173L96.8919 485.764L95.0763 485.312L93.293 484.817L91.5426 484.279L89.8256 483.698L88.1425 483.075L86.4938 482.41L84.88 481.703L83.3018 480.955L81.7595 480.166L80.2537 479.336L78.7848 478.465L77.3534 477.555L75.9599 476.605L74.6046 475.616L73.2883 474.588L72.0112 473.521L70.7737 472.417L69.5764 471.274L68.4196 470.095L67.3038 468.878L66.2293 467.626L65.1965 466.337L64.2059 465.013L63.2577 463.654L62.3524 462.261L61.4902 460.833L60.6716 459.372L59.8969 457.878L59.1664 456.352L58.4803 454.793L57.8391 453.203L57.243 451.581L56.6922 449.93L56.1871 448.248L55.728 446.537L55.3149 444.797L54.9483 443.029L54.6283 441.233L54.3551 439.41L54.1289 437.561L53.9501 435.685L53.8186 433.784L53.7347 431.858L53.6986 429.908L53.7104 427.934L53.7703 425.937L53.8783 423.917L54.0346 421.876L54.2394 419.814L54.4926 417.731L54.7943 415.628L55.1448 413.505L55.5439 411.364L55.9918 409.205L56.4884 407.028L57.0339 404.835L57.6282 402.625L58.2714 400.4L58.9633 398.16L59.704 395.906L60.4935 393.638L61.3317 391.357L62.2185 389.064L63.1539 386.759L64.1378 384.444L65.1701 382.118L66.2508 379.782L67.3796 377.438L68.5564 375.085L69.7812 372.724L71.0537 370.357L72.3739 367.983L73.7414 365.603L75.1562 363.219L76.6181 360.83L78.1267 358.437L79.682 356.042L81.2836 353.644L82.9314 351.244L84.6251 348.844L86.3643 346.443L88.149 344.042L89.9786 341.642L91.853 339.244L93.7718 336.848L95.7347 334.455L97.7414 332.066L99.7916 329.68L101.885 327.3L104.021 324.925L106.199 322.555L108.419 320.193L110.681 317.838L112.984 315.491L115.327 313.153L117.711 310.823L120.135 308.504L122.598 306.195L125.1 303.897L127.641 301.61L130.22 299.336L132.836 297.075L135.489 294.827L138.178 292.592L140.904 290.373L143.665 288.168L146.461 285.98L149.292 283.807L152.156 281.651L155.053 279.513L157.983 277.392L160.946 275.29L163.94 273.207L166.965 271.143L170.02 269.099L173.105 267.075L176.219 265.073L179.361 263.092L182.532 261.132L185.729 259.196L188.953 257.282L192.203 255.391L195.479 253.525L198.778 251.682L202.102 249.864L205.449 248.072L208.819 246.304L212.21 244.563L215.623 242.849L219.055 241.16L222.508 239.499L225.98 237.866L229.47 236.261L232.977 234.683L236.501 233.135L240.042 231.615L243.597 230.125L247.168 228.664L250.752 227.233L254.349 225.833L257.959 224.463L261.58 223.124L265.212 221.816L268.853 220.539L272.505 219.294L276.164 218.081L279.832 216.9L283.506 215.752L287.186 214.636L290.872 213.553L294.562 212.503L298.256 211.486L301.953 210.503L305.653 209.553L309.353 208.637L313.054 207.755L316.755 206.907L320.455 206.093L324.153 205.313L327.849 204.568L331.541 203.857L335.229 203.181L338.912 202.539L342.589 201.932L346.26 201.36L349.923 200.823L353.578 200.321L357.224 199.854L360.86 199.421L364.486 199.024L368.1 198.661L371.702 198.334L375.291 198.041L378.867 197.783L382.428 197.561L385.973 197.372L389.503 197.219L393.016 197.1L396.511 197.016L399.988 196.966L403.445 196.951L406.883 196.97L410.3 197.023L413.696 197.11L417.069 197.23L420.42 197.385L423.747 197.573L427.049 197.794L430.327 198.049L433.578 198.337L436.803 198.657L440.001 199.01L443.171 199.395L446.312 199.813L449.424 200.262L452.506 200.743L455.557 201.255L458.576 201.798L461.564 202.372L464.519 202.977L467.44 203.612L470.327 204.277L473.18 204.972L475.997 205.695L478.779 206.448L481.523 207.23L484.231 208.04L486.901 208.877L489.532 209.743L492.124 210.635L494.677 211.555L497.19 212.5L499.662 213.472L502.093 214.47L504.482 215.493L506.829 216.54L509.133 217.613L511.393 218.709L513.61 219.828L515.782 220.971L517.91 222.136L519.992 223.324L522.029 224.534L524.019 225.764L525.962 227.016L527.859 228.288L529.708 229.579L531.509 230.89L533.261 232.22L534.965 233.568L536.62 234.934L538.225 236.318L539.781 237.718L541.286 239.134L542.741 240.567L544.144 242.014L545.497 243.476L546.798 244.953L548.047 246.443L549.244 247.946L550.389 249.461L551.482 250.989L552.521 252.528L553.508 254.077L554.441 255.637L555.321 257.207L556.146 258.786L556.919 260.373L557.637 261.969L558.3 263.571L558.91 265.181L559.465 266.797L559.965 268.418L560.411 270.045L560.801 271.676L561.137 273.311L561.418 274.949L561.644 276.59L561.815 278.234L561.93 279.878L561.99 281.524L561.995 283.17L561.945 284.816L561.84 286.46L561.68 288.104L561.464 289.745L561.193 291.384L560.868 293.02L560.487 294.652L560.052 296.279L559.562 297.902L559.017 299.519L558.417 301.129L557.764 302.733L557.056 304.33L556.294 305.919L555.478 307.5L554.608 309.071L553.685 310.633L552.708 312.185L551.678 313.726L550.596 315.255L549.461 316.773L548.273 318.278L547.033 319.771L545.742 321.25L544.399 322.715L543.004 324.165L541.559 325.6L540.063 327.019L538.517 328.423L536.921 329.809L535.276 331.179L533.581 332.53L531.837 333.863L530.045 335.178L528.205 336.473L526.317 337.749L524.383 339.004L522.401 340.239L520.373 341.452L518.299 342.644L516.18 343.813L514.016 344.96L511.807 346.084L509.555 347.185L507.259 348.261L504.92 349.314L502.539 350.341L500.116 351.343L497.651 352.32L495.146 353.271L492.6 354.195L490.015 355.093L487.391 355.963L484.728 356.806L482.028 357.621L479.29 358.408L476.515 359.166L473.705 359.895L470.859 360.595L467.978 361.265L465.063 361.906L462.114 362.516L459.132 363.096L456.119 363.645L453.073 364.163L449.997 364.65L446.891 365.105L443.755 365.529L440.591 365.92L437.398 366.279L434.178 366.605L430.931 366.899L427.658 367.159L424.361 367.387L421.038 367.581L417.692 367.742L414.322 367.869L410.931 367.962L407.518 368.022L404.084 368.047L400.63 368.038L397.157 367.994L393.665 367.917L390.155 367.804L386.629 367.657L383.086 367.476L379.528 367.259L375.955 367.008L372.368 366.722L368.769 366.4L365.156 366.045L361.533 365.654L357.899 365.228L354.254 364.767L350.601 364.271L346.939 363.74L343.27 363.175L339.594 362.574L335.912 361.939L332.225 361.27L328.533 360.565L324.839 359.826L321.141 359.053L317.441 358.245L313.74 357.404L310.039 356.528L306.338 355.618L302.639 354.674L298.941 353.697L295.247 352.687L291.555 351.643L287.869 350.566L284.187 349.456L280.512 348.314L276.843 347.139L273.182 345.932L269.529 344.693L265.886 343.422L262.252 342.12L258.629 340.786L255.017 339.422L251.417 338.027L247.831 336.602L244.258 335.147L240.699 333.662L237.156 332.148L233.629 330.604L230.118 329.032L226.625 327.432L223.15 325.804L219.694 324.148L216.257 322.465L212.841 320.755L209.446 319.019L206.072 317.256L202.721 315.468L199.393 313.655L196.088 311.817L192.808 309.955L189.554 308.069L186.325 306.159L183.122 304.227L179.947 302.272L176.799 300.295L173.68 298.296L170.589 296.276L167.528 294.236L164.498 292.176L161.498 290.096L158.53 287.997L155.594 285.88L152.69 283.745L149.82 281.592L146.983 279.423L144.181 277.237L141.413 275.035L138.681 272.819L135.984 270.587L133.325 268.342L130.702 266.083L128.116 263.811L125.568 261.526L123.059 259.231L120.589 256.923L118.157 254.606L115.766 252.278L113.415 249.942L111.105 247.596L108.835 245.242L106.607 242.881L104.421 240.514L102.277 238.139L100.176 235.76L98.1181 233.375L96.1033 230.986L94.1322 228.594L92.2052 226.199L90.3226 223.801L88.4846 221.401L86.6916 219.001L84.9439 216.6L83.2418 214.199L81.5855 211.799L79.9753 209.401L78.4114 207.005L76.8941 204.612L75.4236 202.222L74 199.837L72.6237 197.456L71.2948 195.081L70.0134 192.713L68.7798 190.351L67.594 187.996L66.4563 185.65L65.3667 183.313L64.3255 180.985L63.3326 178.668L62.3882 176.361L61.4923 174.066L60.6451 171.782L59.8466 169.512L59.0969 167.255L58.3959 165.013L57.7437 162.785L57.1404 160.572L56.5859 158.375L56.0802 156.196L55.6232 154.033L55.215 151.889L54.8556 149.763L54.5448 147.656L54.2826 145.569L54.0689 143.503L53.9036 141.458L53.7866 139.434L53.7179 137.433L53.6972 135.455L53.7244 133.5L53.7994 131.57L53.9221 129.664L54.0922 127.784L54.3096 125.929L54.5741 124.101L54.8854 122.3L55.2435 120.527L55.6479 118.782L56.0986 117.065L56.5952 115.378L57.1375 113.721L57.7252 112.094L58.3581 110.498L59.0359 108.933L59.7582 107.401L60.5248 105.901L61.3353 104.433L62.1893 103L63.0867 101.6L64.027 100.234L65.0098 98.9039L66.0347 97.6088L67.1015 96.3495L68.2098 95.1264L69.359 93.9401L70.5488 92.7909L71.7788 91.6793L73.0487 90.6056L74.3578 89.5704L75.7058 88.5739L77.0923 87.6167L78.5167 86.699L79.9787 85.8212L81.4777 84.9837L83.0133 84.1869L84.5849 83.4311L86.1921 82.7166L87.8343 82.0438L89.5111 81.4129L91.2219 80.8243L92.9662 80.2783L94.7434 79.7751L96.5531 79.3151L98.3946 78.8984L100.267 78.5255L102.171 78.1964L104.105 77.9114L106.068 77.6708L108.06 77.4748L110.081 77.3235L112.129 77.2172L114.205 77.156L116.308 77.1402L118.436 77.1698L120.59 77.2451L122.768 77.3661L124.971 77.533L127.197 77.7459L129.446 78.0049L131.718 78.3101L134.011 78.6616L136.324 79.0594L138.659 79.5036L141.012 79.9944L143.385 80.5316L145.776 81.1153L148.185 81.7455L150.611 82.4223L153.053 83.1457L155.511 83.9155L157.984 84.7318L160.471 85.5946L162.972 86.5037L165.486 87.4591L168.012 88.4608L170.549 89.5086L173.098 90.6025L175.657 91.7423L178.225 92.9279L180.802 94.1592L183.387 95.436L185.98 96.7581L188.58 98.1255L191.185 99.5379L193.796 100.995L196.412 102.497L199.032 104.043L201.655 105.634L204.281 107.268L206.909 108.946L209.538 110.668L212.167 112.433L214.797 114.24L217.426 116.09L220.053 117.983L222.679 119.917L225.301 121.894L227.921 123.911L230.536 125.97L233.146 128.069L235.751 130.208L238.349 132.387L240.941 134.606L243.526 136.864L246.102 139.161L248.67 141.495L251.229 143.868L253.777 146.278L256.315 148.725L258.842 151.209L261.357 153.728L263.859 156.284L266.348 158.874L268.824 161.499L271.285 164.158L273.731 166.85L276.162 169.575L278.577 172.333L280.975 175.124L283.356 177.945L285.719 180.797L288.064 183.68L290.39 186.592L292.696 189.534L294.982 192.504L297.248 195.502L299.493 198.527L301.716 201.58L303.917 204.658L306.095 207.762L308.251 210.891L310.382 214.044L312.49 217.22L314.573 220.42L316.631 223.642L318.663 226.885L320.669 230.149L322.649 233.434L324.602 236.738L326.528 240.061L328.426 243.402L330.296 246.761L332.138 250.137L333.951 253.528L335.734 256.935L337.488 260.357L339.211 263.793L340.904 267.241L342.567 270.702L344.198 274.175L345.798 277.659L347.367 281.153L348.903 284.657L350.407 288.169L351.878 291.689L353.316 295.217L354.722 298.751L356.093 302.29L357.431 305.835L358.735 309.383L360.005 312.935L361.241 316.49L362.442 320.046L363.608 323.604L364.739 327.162L365.835 330.719L366.896 334.275L367.921 337.829L368.91 341.38L369.864 344.927L370.782 348.47L371.664 352.008L372.509 355.54L373.318 359.065L374.092 362.583L374.828 366.092L375.528 369.592L376.192 373.082L376.819 376.562L377.409 380.03L377.963 383.486L378.48 386.929L378.961 390.359L379.405 393.774L379.812 397.173L380.183 400.557L380.517 403.924L380.815 407.273L381.076 410.604L381.301 413.916L381.49 417.208L381.642 420.479L381.758 423.73L381.839 426.958L381.883 430.163L381.892 433.345L381.865 436.503L381.803 439.636L381.706 442.744L381.573 445.825L381.406 448.879L381.203 451.905L380.967 454.903L380.696 457.872L380.391 460.811L380.052 463.719L379.679 466.597L379.273 469.442L378.834 472.255L378.362 475.036L377.858 477.782L377.321 480.494L376.753 483.171L376.152 485.813L375.521 488.418L374.858 490.986L374.164 493.518L373.441 496.011L372.687 498.465L371.903 500.881L371.091 503.256L370.249 505.592L369.378 507.886L368.48 510.14L367.554 512.351L366.6 514.52L365.62 516.646L364.612 518.729L363.579 520.768L362.52 522.763L361.436 524.712L360.327 526.617L359.194 528.475L358.037 530.288L356.856 532.054L355.653 533.773L354.426 535.444L353.178 537.067L351.909 538.643L350.618 540.169L349.307 541.647L347.976 543.076L346.626 544.454L345.256 545.783L343.868 547.061L342.462 548.289L341.039 549.465L339.599 550.591L338.142 551.665L336.67 552.687L335.182 553.657L333.68 554.574L332.164 555.44L330.634 556.252L329.092 557.012L327.536 557.718L325.969 558.371L324.391 558.97L322.802 559.516L321.203 560.008L319.594 560.446L317.976 560.83L316.35 561.159L314.717 561.435L313.076 561.656L311.428 561.822L309.775 561.934L308.115 561.992L306.452 561.994L304.784 561.943L303.112 561.836L301.437 561.675L299.76 561.459L298.081 561.188L296.401 560.863L294.72 560.483L293.039 560.049L291.359 559.561L289.68 559.018L288.002 558.42L286.327 557.769L284.655 557.063L282.986 556.304L281.322 555.491L279.662 554.624L278.008 553.704L276.359 552.731L274.717 551.705L273.082 550.626L271.455 549.494L269.835 548.309L268.225 547.073L266.624 545.785L265.033 544.445L263.452 543.053L261.883 541.611L260.325 540.118L258.779 538.574L257.246 536.98L255.726 535.337L254.22 533.644L252.729 531.901L251.252 530.11L249.791 528.271L248.345 526.384L246.917 524.449L245.505 522.467L244.11 520.438L242.734 518.363L241.376 516.241L240.037 514.075L238.717 511.863L237.418 509.607L236.139 507.307L234.88 504.964L233.643 502.577L232.428 500.148L231.236 497.677L230.065 495.164L228.918 492.61L227.795 490.016L226.696 487.383L225.621 484.71L224.57 481.998L223.545 479.248L222.546 476.461L221.572 473.636L220.625 470.776L219.705 467.879L218.812 464.948L217.946 461.982L217.108 458.983L216.298 455.95L215.517 452.885L214.764 449.787L214.041 446.659L213.347 443.5L212.682 440.312L212.048 437.094L211.443 433.848L210.87 430.574L210.327 427.273L209.815 423.946L209.334 420.593L208.885 417.216L208.467 413.814L208.081 410.389L207.728 406.941L207.407 403.471L207.118 399.98L206.862 396.469L206.638 392.938L206.448 389.388L206.291 385.82L206.167 382.235L206.076 378.632L206.019 375.015L205.996 371.382L206.006 367.735L206.05 364.074L206.127 360.401L206.239 356.715L206.384 353.019L206.564 349.312L206.777 345.596L207.025 341.871L207.307 338.139L207.622 334.399L207.972 330.652L208.356 326.901L208.773 323.144L209.225 319.384L209.71 315.62L210.23 311.854L210.783 308.087L211.369 304.319L211.99 300.551L212.644 296.784L213.331 293.019L214.051 289.256L214.805 285.497L215.591 281.742L216.411 277.991L217.263 274.246L218.147 270.508L219.064 266.777L220.013 263.054L220.993 259.341L222.006 255.636L223.05 251.942L224.125 248.26L225.231 244.589L226.368 240.931L227.535 237.286L228.733 233.656L229.96 230.041L231.218 226.442L232.504 222.859L233.82 219.294L235.164 215.746L236.536 212.218L237.937 208.709L239.365 205.22L240.821 201.752L242.304 198.306L243.813 194.882L245.349 191.481L246.91 188.104L248.497 184.752L250.109 181.425L251.746 178.123L253.407 174.848L255.091 171.601L256.799 168.381L258.53 165.19L260.284 162.028L262.059 158.895L263.856 155.793L265.674 152.723L267.513 149.683L269.371 146.677L271.25 143.703L273.147 140.762L275.063 137.856L276.997 134.984L278.949 132.147L280.918 129.346L282.903 126.581L284.904 123.854L286.921 121.163L288.953 118.511L290.998 115.896L293.058 113.321L295.131 110.785L297.216 108.289L299.314 105.834L301.423 103.419L303.543 101.045L305.673 98.7134L307.812 96.4237L309.961 94.1765L312.119 91.9723L314.284 89.8115L316.457 87.6945L318.636 85.6216L320.821 83.5932L323.012 81.6097L325.208 79.6714L327.407 77.7786L329.611 75.9318L331.817 74.1312L334.026 72.377L336.236 70.6697L338.447 69.0094L340.659 67.3965L342.87 65.8311L345.081 64.3137L347.289 62.8443L349.496 61.4233L351.7 60.0507L353.901 58.7269L356.097 57.452L358.288 56.2262L360.475 55.0496L362.655 53.9225L364.828 52.8449L366.994 51.817L369.152 50.8389L371.302 49.9107L373.442 49.0326L375.572 48.2045L377.691 47.4265L379.799 46.6988L381.896 46.0214L383.98 45.3942L386.051 44.8174L388.108 44.291L390.15 43.8148L392.178 43.389L394.19 43.0135L396.185 42.6882L398.164 42.4132L400.125 42.1883L402.068 42.0136L403.992 41.8888L405.897 41.814L407.782 41.7889L409.646 41.8136L411.489 41.8878L413.31 42.0115L415.109 42.1844L416.885 42.4064L418.638 42.6774L420.366 42.9971L422.07 43.3654L423.748 43.782L425.401 44.2467L427.027 44.7594L428.627 45.3197L430.198 45.9274L431.742 46.5823L433.258 47.284L434.744 48.0323L436.201 48.8269L437.628 49.6675L439.024 50.5537L440.389 51.4853L441.723 52.462L443.024 53.4832L444.293 54.5488L445.529 55.6584L446.732 56.8114L447.9 58.0077L449.035 59.2468L450.134 60.5282L451.198 61.8516L452.227 63.2166L453.22 64.6226L454.176 66.0693L455.095 67.5563L455.977 69.083L456.821 70.649L457.628 72.2539L458.396 73.897L459.125 75.578L459.815 77.2964L460.466 79.0515L461.077 80.843L461.648 82.6703L462.179 84.5328L462.669 86.4301L463.118 88.3615L463.526 90.3266L463.892 92.3247L464.217 94.3552L464.5 96.4178L464.74 98.5116L464.939 100.636L465.094 102.791L465.207 104.975L465.276 107.188L465.303 109.43L465.286 111.699L465.225 113.996L465.121 116.319L464.973 118.667L464.781 121.041L464.544 123.44L464.264 125.862L463.939 128.308L463.57 130.776L463.156 133.266L462.698 135.777L462.195 138.309L461.648 140.861L461.056 143.433L460.419 146.022L459.737 148.63L459.011 151.255L458.24 153.897L457.425 156.554L456.565 159.226L455.66 161.913L454.711 164.614L453.717 167.328L452.679 170.054L451.597 172.792L450.471 175.541L449.3 178.3L448.086 181.068L446.828 183.846L445.526 186.631L444.181 189.424L442.792 192.224L441.361 195.03L439.886 197.841L438.369 200.657L436.809 203.477L435.207 206.3L433.563 209.125L431.878 211.952L430.15 214.781L428.382 217.609L426.572 220.438L424.722 223.265L422.832 226.091L420.901 228.915L418.931 231.735L416.921 234.552L414.873 237.364L412.786 240.171L410.66 242.972L408.496 245.767L406.295 248.555L404.057 251.335L401.782 254.106L399.47 256.868L397.123 259.621L394.74 262.363L392.323 265.094L389.87 267.813L387.384 270.52L384.864 273.214L382.311 275.894L379.725 278.56L377.107 281.211L374.458 283.846L371.777 286.466L369.066 289.069L366.324 291.654L363.553 294.221L360.754 296.77L357.925 299.3L355.069 301.811L352.186 304.301L349.276 306.77L346.34 309.218L343.379 311.644L340.393 314.048L337.382 316.429L334.348 318.786L331.291 321.12L328.211 323.429L325.11 325.712L321.988 327.971L318.845 330.203L315.683 332.41L312.501 334.589L309.301 336.741L306.083 338.864L302.849 340.96L299.598 343.027L296.331 345.065L293.049 347.074L289.753 349.052L286.444 351L283.121 352.917L279.787 354.804L276.441 356.658L273.084 358.481L269.718 360.272L266.342 362.03L262.958 363.755L259.566 365.447L256.167 367.106L252.762 368.73L249.351 370.321L245.936 371.877L242.517 373.399L239.094 374.885L235.669 376.337L232.242 377.752L228.815 379.133L225.387 380.477L221.96 381.785L218.534 383.057L215.11 384.292L211.689 385.491L208.272 386.653L204.859 387.778L201.452 388.865L198.05 389.915L194.655 390.928L191.268 391.903L187.889 392.841L184.519 393.741L181.159 394.602L177.809 395.426L174.471 396.212L171.145 396.96L167.832 397.67L164.532 398.341L161.247 398.975L157.977 399.57L154.723 400.127L151.485 400.646L148.265 401.127L145.063 401.569L141.88 401.974L138.717 402.34L135.574 402.669L132.452 402.959L129.352 403.212L126.274 403.427L123.22 403.604L120.189 403.744L117.184 403.847L114.204 403.912L111.249 403.94L108.322 403.931L105.422 403.885L102.551 403.803L99.7078 403.684L96.8946 403.529L94.1115 403.338L91.3593 403.111L88.6387 402.848L85.9502 402.55L83.2945 402.217L80.6722 401.849L78.0841 401.447L75.5306 401.01L73.0125 400.539L70.5303 400.034L68.0845 399.495L65.676 398.924L63.3051 398.319L60.9724 397.682L58.6787 397.013L56.4243 396.312L54.2099 395.579L52.036 394.815L49.9031 394.021L47.8118 393.196L45.7626 392.341L43.7559 391.456L41.7924 390.542L39.8724 389.599L37.9965 388.627L36.1651 387.628L34.3787 386.601L32.6377 385.547L30.9426 384.466L29.2939 383.358L27.6919 382.225L26.1369 381.067L24.6296 379.883L23.1702 378.676L21.7591 377.444L20.3966 376.189L19.0833 374.911L17.8193 373.61L16.605 372.287L15.4408 370.943L14.3269 369.578L13.2638 368.193L12.2516 366.788L11.2905 365.363L10.3811 363.919L9.52337 362.457L8.71767 360.978L7.9642 359.481L7.26323 357.968L6.61495 356.438L6.01949 354.893L5.47714 353.333L4.98803 351.758L4.55233 350.17L4.17017 348.569L3.84174 346.954L3.56709 345.328L3.3464 343.69L3.17977 342.041L3.06723 340.382L3.00893 338.713L3.00493 337.035L3.05522 335.348L3.15992 333.653L3.31899 331.951L3.53253 330.242L3.80047 328.527L4.12282 326.806L4.49957 325.081L4.93072 323.35L5.41617 321.616L5.95589 319.879L6.5498 318.14L7.19784 316.398L7.89991 314.655L8.65591 312.911L9.46569 311.166L10.3291 309.423L11.2461 307.68L12.2165 305.939L13.24 304.2L14.3166 302.464L15.4461 300.731L16.6281 299.002L17.8626 297.278L19.1493 295.559L20.4879 293.845L21.8782 292.138L23.32 290.438L24.813 288.746L26.3568 287.061L27.9512 285.385L29.5958 283.718L31.2905 282.062L33.0348 280.415L34.8283 278.779L36.6707 277.155L38.5618 275.542L40.501 273.943L42.488 272.356L44.5224 270.783L46.6038 269.224L48.7317 267.679L50.9058 266.15L53.1256 264.637L55.3906 263.14L57.7004 261.659L60.0546 260.196L62.4525 258.751L64.8938 257.324L67.3779 255.915L69.9044 254.526L72.4726 253.156L75.0821 251.807L77.7324 250.478L80.4228 249.17L83.1528 247.884L85.9219 246.619L88.7295 245.377L91.575 244.158L94.4577 242.962L97.3772 241.79L100.333 240.641L103.324 239.517L106.35 238.418L109.41 237.344L112.503 236.296L115.63 235.274L118.788 234.277L121.979 233.308L125.2 232.366L128.451 231.45L131.732 230.563L135.042 229.703L138.38 228.872L141.746 228.069L145.138 227.296L148.556 226.551L152 225.836L155.468 225.15L158.96 224.495L162.475 223.869L166.012 223.274L169.571 222.71L173.151 222.176L176.751 221.673L180.37 221.202L184.008 220.762L187.663 220.354L191.336 219.978L195.025 219.633L198.729 219.321L202.448 219.041L206.181 218.793L209.926 218.578L213.684 218.396L217.454 218.246L221.234 218.129L225.024 218.044L228.823 217.993L232.631 217.975L236.445 217.99L240.267 218.037L244.094 218.118L247.927 218.233L251.763 218.38L255.603 218.56L259.445 218.774L263.29 219.021L267.135 219.3L270.98 219.613L274.825 219.959L278.668 220.338L282.509 220.749L286.346 221.194L290.18 221.671L294.009 222.18L297.832 222.723L301.65 223.297L305.459 223.904L309.261 224.543L313.054 225.213L316.838 225.916L320.611 226.65L324.373 227.415L328.123 228.212L331.861 229.04L335.585 229.898L339.294 230.787L342.988 231.706L346.667 232.656L350.329 233.635L353.973 234.644L357.6 235.683L361.207 236.75L364.795 237.846L368.363 238.971L371.909 240.124L375.433 241.304L378.935 242.513L382.413 243.748L385.868 245.01L389.297 246.299L392.701 247.614L396.079 248.955L399.43 250.321L402.753 251.713L406.049 253.129L409.315 254.569L412.551 256.033L415.758 257.521L418.933 259.031L422.077 260.564L425.189 262.12L428.268 263.697L431.313 265.295L434.325 266.914L437.301 268.554L440.243 270.213L443.148 271.892L446.018 273.59L448.85 275.306L451.644 277.04L454.401 278.791L457.119 280.56L459.797 282.345L462.436 284.145L465.035 285.961L467.592 287.792L470.109 289.637L472.584 291.496L475.017 293.368L477.407 295.253L479.753 297.15L482.057 299.058L484.316 300.978L486.531 302.907L488.701 304.847L490.825 306.795L492.904 308.753L494.937 310.718L496.924 312.691L498.863 314.671L500.756 316.657L502.601 318.649L504.399 320.646L506.148 322.647L507.849 324.652L509.501 326.66L511.104 328.672L512.658 330.685L514.162 332.699L515.617 334.714L517.021 336.73L518.376 338.745L519.68 340.759L520.933 342.771L522.135 344.781L523.287 346.788L524.387 348.791L525.436 350.791L526.433 352.785L527.379 354.774L528.273 356.757L529.116 358.733L529.906 360.702L530.645 362.663L531.331 364.615L531.965 366.558L532.548 368.491L533.078 370.414L533.555 372.326L533.981 374.226L534.354 376.114L534.675 377.989L534.944 379.85L535.161 381.697L535.326 383.53L535.439 385.347L535.5 387.148L535.509 388.933L535.466 390.7L535.371 392.45L535.226 394.182L535.028 395.895L534.78 397.588L534.48 399.261L534.13 400.913L533.729 402.545L533.277 404.154L532.775 405.741L532.223 407.306L531.621 408.847L530.97 410.364L530.269 411.856L529.519 413.324L528.72 414.766L527.872 416.182L526.976 417.571L526.033 418.933L525.041 420.268L524.003 421.575L522.917 422.853L521.785 424.101L520.606 425.321L519.382 426.51L518.112 427.669L516.797 428.797L515.437 429.893L514.033 430.958L512.584 431.99L511.093 432.99L509.558 433.957L507.981 434.89L506.361 435.789L504.7 436.654L502.998 437.484L501.255 438.279L499.472 439.039L497.649 439.763L495.787 440.45L493.886 441.102L491.947 441.716L489.97 442.293L487.956 442.833L485.905 443.335L483.819 443.799L481.697 444.225L479.54 444.612L477.349 444.96L475.125 445.269L472.867 445.538L470.577 445.768L468.254 445.958L465.901 446.108L463.517 446.217L461.103 446.286L458.659 446.315L456.186 446.302L453.686 446.249L451.158 446.154L448.603 446.018L446.022 445.84L443.416 445.621L440.784 445.36L438.129 445.058L435.45 444.713L432.748 444.326L430.024 443.898L427.279 443.427L424.512 442.914L421.726 442.358L418.921 441.761L416.097 441.121L413.255 440.439L410.395 439.715L407.52 438.948L404.628 438.14L401.721 437.289L398.8 436.395L395.866 435.46L392.918 434.483L389.959 433.464L386.987 432.403L384.006 431.3L381.014 430.156L378.012 428.97L375.003 427.743L371.985 426.474L368.961 425.165L365.93 423.814L362.893 422.423L359.852 420.992L356.806 419.52L353.757 418.008L350.705 416.456L347.652 414.864L344.597 413.233L341.541 411.563L338.486 409.855L335.432 408.107L332.379 406.321L329.329 404.497L326.282 402.636L323.239 400.737L320.2 398.801L317.166 396.828L314.138 394.819L311.117 392.774L308.104 390.693L305.098 388.577L302.101 386.427L299.113 384.241L296.136 382.022L293.169 379.769L290.214 377.483L287.271 375.164L284.34 372.812L281.424 370.429L278.521 368.014L275.633 365.569L272.76 363.093L269.904 360.587L267.064 358.051L264.241 355.486L261.437 352.893L258.651 350.272L255.884 347.624L253.137 344.949L250.41 342.247L247.704 339.52L245.02 336.768L242.358 333.991L239.719 331.189L237.103 328.365L234.511 325.517L231.943 322.648L229.4 319.756L226.883 316.844L224.392 313.911L221.927 310.958L219.489 307.986L217.079 304.996L214.696 301.988L212.343 298.962L210.018 295.92L207.723 292.862L205.457 289.789L203.223 286.701L201.018 283.599L198.846 280.484L196.704 277.356L194.595 274.217L192.519 271.066L190.475 267.905L188.465 264.734L186.488 261.555L184.545 258.366L182.637 255.171L180.764 251.968L178.925 248.759L177.122 245.545L175.355 242.326L173.624 239.102L171.929 235.876L170.27 232.647L168.649 229.417L167.065 226.185L165.518 222.953L164.009 219.721L162.538 216.49L161.105 213.262L159.71 210.036L158.354 206.813L157.037 203.595L155.759 200.381L154.52 197.173L153.32 193.972L152.159 190.777L151.038 187.591L149.957 184.413L148.916 181.244L147.914 178.086L146.953 174.938L146.031 171.802L145.15 168.678L144.309 165.568L143.509 162.471L142.748 159.389L142.028 156.322L141.349 153.271L140.71 150.237L140.111 147.22L139.553 144.221L139.035 141.242L138.557 138.282L138.12 135.342L137.723 132.424L137.366 129.527L137.049 126.652L136.773 123.801L136.536 120.974L136.339 118.171L136.181 115.394L136.064 112.642L135.985 109.917L135.946 107.219V104.549L135.985 101.908L136.063 99.296L136.179 96.7139L136.334 94.1623L136.526 91.6419L136.757 89.1532L137.026 86.697L137.331 84.2739L137.675 81.8844L138.055 79.5291L138.471 77.2087L138.924 74.9238L139.414 72.6748L139.939 70.4625L140.499 68.2873L141.095 66.1498L141.726 64.0506L142.391 61.9903L143.09 59.9692L143.823 57.9881L144.59 56.0473L145.39 54.1475L146.222 52.2891L147.087 50.4725L147.984 48.6983L148.912 46.967L149.872 45.279L150.862 43.6348L151.883 42.0347L152.933 40.4794L154.013 38.9691L155.122 37.5043L156.26 36.0854L157.425 34.7127L158.618 33.3868L159.839 32.1079L161.086 30.8765L162.359 29.6928L163.658 28.5572L164.982 27.4701L166.33 26.4318L167.703 25.4425L169.1 24.5026L170.519 23.6125L171.962 22.7722L173.426 21.9822L174.912 21.2427L176.419 20.5539L177.946 19.916L179.493 19.3294L181.059 18.7941L182.645 18.3104L184.248 17.8785L185.869 17.4985L187.507 17.1707L189.162 16.8951L190.832 16.672L192.518 16.5014L194.218 16.3834L195.933 16.3182L197.661 16.3059L199.402 16.3465L201.156 16.4401L202.921 16.5868L204.697 16.7865L206.484 17.0395L208.281 17.3455L210.087 17.7048L211.902 18.1172L213.725 18.5828L215.556 19.1014L217.393 19.6732L219.237 20.298L221.086 20.9757L222.94 21.7064L224.799 22.4898L226.662 23.3259L228.527 24.2147L230.396 25.1559L232.266 26.1494L234.138 27.195L236.01 28.2927L237.882 29.4423L239.754 30.6435L241.625 31.8961L243.494 33.2L245.361 34.5549L247.225 35.9606L249.085 37.4169L250.942 38.9235L252.793 40.4801L254.639 42.0864L256.479 43.7422L258.313 45.4472L260.14 47.201L261.958 49.0033L263.769 50.8538L265.571 52.7521L267.363 54.698L269.145 56.6909L270.917 58.7305L272.678 60.8165L274.426 62.9484L276.163 65.1259L277.887 67.3484L279.597 69.6156L281.294 71.927L282.976 74.2822L284.643 76.6807L286.295 79.122L287.931 81.6057L289.55 84.1312L291.152 86.6981L292.736 89.3058L294.303 91.9538L295.851 94.6416L297.38 97.3686L298.889 100.134L300.379 102.938L301.848 105.779L303.296 108.658L304.723 111.572L306.128 114.523L307.511 117.509L308.871 120.529L310.208 123.583L311.521 126.671L312.811 129.791L314.076 132.943L315.317 136.127L316.532 139.342L317.722 142.586L318.886 145.86L320.024 149.163L321.135 152.493L322.22 155.851L323.277 159.236L324.307 162.647L325.308 166.083L326.282 169.543L327.227 173.027L328.143 176.535L329.03 180.064L329.888 183.615L330.716 187.187L331.514 190.78L332.283 194.391L333.02 198.021L333.728 201.669L334.404 205.334L335.049 209.015L335.663 212.712L336.246 216.423L336.797 220.149L337.317 223.888L337.804 227.639L338.26 231.401L338.683 235.175L339.074 238.958L339.432 242.75L339.758 246.551L340.051 250.36L340.312 254.175L340.539 257.997L340.734 261.823L340.896 265.654L341.024 269.489L341.12 273.326L341.183 277.165L341.212 281.005L341.208 284.846L341.172 288.686L341.102 292.525L340.999 296.362L340.863 300.195L340.694 304.025L340.492 307.851L340.257 311.671L339.989 315.485L339.688 319.292L339.355 323.091L338.99 326.882L338.592 330.663L338.161 334.434L337.699 338.194L337.204 341.942L336.678 345.678L336.12 349.4L335.53 353.109L334.909 356.802L334.256 360.48L333.573 364.141L332.859 367.785L332.115 371.411L331.34 375.018L330.535 378.606L329.7 382.173L328.836 385.72L327.942 389.245L327.02 392.747L326.068 396.226L325.088 399.681L324.081 403.111L323.045 406.516L321.981 409.895L320.891 413.247L319.774 416.572L318.63 419.868L317.46 423.135L316.264 426.373L315.043 429.581L313.797 432.758L312.527 435.903L311.232 439.016L309.913 442.096L308.571 445.143L307.206 448.156L305.818 451.134L304.408 454.076L302.976 456.983L301.524 459.853L300.05 462.686L298.556 465.482L297.042 468.239L295.509 470.957L293.957 473.636L292.386 476.275L290.798 478.874L289.192 481.432L287.569 483.948L285.93 486.422L284.274 488.854L282.604 491.243L280.919 493.589L279.219 495.89L277.505 498.148L275.779 500.36L274.039 502.527L272.288 504.649L270.525 506.725L268.75 508.754L266.966 510.737L265.172 512.672L263.368 514.56L261.555 516.4L259.735 518.191L257.906 519.934L256.071 521.628L254.23 523.273L252.382 524.868L250.53 526.414L248.673 527.909L246.811 529.354L244.947 530.749L243.079 532.093L241.21 533.385L239.339 534.626L237.467 535.816L235.594 536.954L233.722 538.04L231.851 539.074L229.981 540.056L228.113 540.986L226.248 541.863L224.386 542.687L222.528 543.459L220.675 544.178L218.827 544.844L216.985 545.457L215.149 546.017L213.32 546.524L211.499 546.978L209.686 547.378L207.881 547.726L206.087 548.02L204.302 548.261L202.528 548.449L200.765 548.584L199.015 548.666L197.276 548.695L195.551 548.67L193.84 548.593L192.142 548.464L190.46 548.282L188.793 548.047L187.142 547.76L185.508 547.42L183.89 547.029L182.291 546.585L180.71 546.09L179.148 545.543L177.605 544.945L176.082 544.296L174.58 543.596L173.099 542.845L171.639 542.044L170.202 541.193L168.788 540.291L167.396 539.341L166.029 538.34L164.686 537.291L163.367 536.193L162.074 535.047L160.807 533.853L159.565 532.611L158.351 531.321L157.164 529.985L156.005 528.602L154.874 527.173L153.771 525.698L152.698 524.178L151.654 522.612L150.64 521.002L149.656 519.349L148.704 517.651L147.782 515.91L146.892 514.126L146.035 512.3L145.209 510.433L144.417 508.524L143.658 506.574L142.932 504.584L142.24 502.554L141.583 500.485L140.96 498.377L140.372 496.232L139.819 494.048L139.302 491.828L138.821 489.571L138.376 487.278L137.967 484.949L137.595 482.587L137.26 480.19L136.963 477.759L136.703 475.295L136.48 472.8L136.296 470.272L136.15 467.714L136.042 465.125L135.973 462.507L135.943 459.859L135.951 457.183L135.999 454.479L136.086 451.748L136.213 448.991L136.379 446.207L136.585 443.399L136.831 440.566L137.116 437.71L137.442 434.83L137.808 431.929L138.214 429.005L138.66 426.061L139.146 423.097L139.673 420.113L140.241 417.11L140.848 414.09L141.496 411.052L142.185 407.997L142.914 404.927L143.683 401.841L144.492 398.741L145.342 395.628L146.232 392.501L147.163 389.362L148.133 386.212L149.143 383.052L150.194 379.881L151.284 376.701L152.413 373.513L153.583 370.317L154.791 367.113L156.039 363.904L157.326 360.689L158.652 357.47L160.017 354.247L161.42 351.02L162.861 347.791L164.341 344.56L165.858 341.328L167.414 338.096L169.006 334.865L170.636 331.634L172.302 328.406L174.005 325.18L175.744 321.958L177.519 318.74L179.33 315.527L181.177 312.319L183.058 309.118L184.974 305.924L186.924 302.737L188.908 299.559L190.926 296.391L192.977 293.232L195.061 290.084L197.177 286.947L199.325 283.822L201.505 280.71L203.716 277.611L205.958 274.526L208.23 271.456L210.532 268.402L212.863 265.363L215.223 262.342L217.611 259.337L220.028 256.351L222.472 253.383L224.943 250.435L227.44 247.506L229.963 244.599L232.511 241.712L235.084 238.847L237.682 236.005L240.303 233.185L242.947 230.389L245.614 227.618L248.303 224.871L251.014 222.149L253.745 219.453L256.496 216.784L259.268 214.142L262.058 211.527L264.866 208.94L267.693 206.382L270.536 203.853L273.397 201.354L276.273 198.884L279.164 196.445L282.07 194.038L284.99 191.661L287.923 189.317L290.869 187.005L293.827 184.726L296.796 182.481L299.776 180.269L302.766 178.091L305.765 175.948L308.772 173.84L311.788 171.767L314.81 169.73L317.839 167.729L320.874 165.765L323.914 163.837L326.958 161.946L330.006 160.093L333.057 158.278L336.11 156.5L339.165 154.761L342.22 153.061L345.275 151.4L348.33 149.777L351.383 148.195L354.434 146.652L357.483 145.149L360.527 143.686L363.568 142.263L366.603 140.881L369.633 139.54L372.656 138.239L375.672 136.98L378.68 135.762L381.679 134.585L384.669 133.45L387.648 132.357L390.617 131.305L393.574 130.295L396.519 129.327L399.45 128.401L402.368 127.517L405.271 126.676L408.159 125.876L411.032 125.119L413.887 124.404L416.725 123.732L419.545 123.101L422.347 122.513L425.128 121.967L427.89 121.464L430.631 121.002L433.35 120.583L436.046 120.206L438.72 119.87L441.371 119.577L443.996 119.325L446.597 119.115L449.173 118.947L451.722 118.82L454.244 118.734L456.738 118.69L459.204 118.687L461.641 118.724L464.049 118.802L466.426 118.921L468.773 119.079L471.088 119.278L473.371 119.517L475.622 119.795L477.839 120.113L480.022 120.469L482.171 120.865L484.285 121.299L486.364 121.772L488.406 122.282L490.412 122.83L492.38 123.416L494.311 124.038L496.203 124.698L498.057 125.393L499.871 126.125L501.646 126.893L503.38 127.696L505.073 128.534L506.725 129.406L508.335 130.313L509.903 131.254L511.428 132.228L512.91 133.235L514.348 134.274L515.743 135.346L517.092 136.45L518.398 137.584L519.658 138.75L520.872 139.946L522.04 141.172L523.162 142.427L524.237 143.712L525.266 145.024L526.246 146.365L527.179 147.733L528.064 149.129L528.901 150.55L529.689 151.998L530.429 153.471L531.119 154.969L531.759 156.492L532.35 158.038L532.891 159.608L533.382 161.2L533.822 162.814L534.212 164.45L534.551 166.107L534.84 167.785L535.077 169.483L535.262 171.2L535.397 172.935L535.48 174.689L535.511 176.46L535.491 178.249L535.418 180.054L535.294 181.874L535.118 183.71L534.889 185.561L534.609 187.425L534.276 189.303L533.891 191.193L533.454 193.096L532.964 195.01L532.423 196.936L531.829 198.871L531.183 200.816L530.485 202.771L529.735 204.733L528.933 206.704L528.079 208.682L527.174 210.666L526.216 212.656L525.207 214.651L524.147 216.652L523.035 218.656L521.873 220.664L520.659 222.674L519.394 224.687L518.079 226.701L516.714 228.716L515.298 230.732L513.832 232.747L512.317 234.761L510.752 236.774L509.138 238.784L507.475 240.792L505.764 242.796L504.004 244.797L502.196 246.792L500.34 248.783L498.437 250.768L496.487 252.746L494.49 254.717L492.447 256.681L490.357 258.637L488.223 260.583L486.043 262.521L483.818 264.448L481.549 266.365L479.236 268.271L476.88 270.165L474.48 272.047L472.038 273.916L469.554 275.772L467.028 277.614L464.461 279.442L461.854 281.254L459.206 283.052L456.518 284.833L453.792 286.598L451.027 288.345L448.224 290.075L445.384 291.787L442.506 293.481L439.593 295.155L436.643 296.811L433.659 298.446L430.64 300.06L427.587 301.654L424.501 303.226L421.382 304.776L418.231 306.305L415.049 307.81L411.835 309.293L408.592 310.751L405.319 312.186L402.018 313.597L398.688 314.983L395.331 316.343L391.948 317.678L388.538 318.988L385.103 320.271L381.643 321.527L378.159 322.757L374.653 323.959L371.123 325.133L367.572 326.28L364 327.398L360.408 328.488L356.796 329.549L353.166 330.581L349.517 331.583L345.852 332.556L342.17 333.499L338.472 334.412L334.759 335.294L331.032 336.146L327.292 336.966L323.539 337.756L319.774 338.515L315.999 339.242L312.213 339.937L308.418 340.601L304.614 341.232L300.803 341.832L296.984 342.399L293.159 342.934L289.329 343.437L285.494 343.906L281.656 344.343L277.815 344.748L273.971 345.119L270.126 345.458L266.281 345.763L262.436 346.036L258.592 346.275L254.75 346.481L250.911 346.654L247.075 346.794L243.244 346.901L239.418 346.975L235.598 347.015L231.785 347.023L227.979 346.997L224.182 346.938L220.394 346.847L216.616 346.722L212.849 346.565L209.094 346.375L205.351 346.153L201.621 345.898L197.905 345.611L194.204 345.291L190.519 344.94L186.85 344.556L183.199 344.141L179.565 343.694L175.95 343.216L172.354 342.707L168.779 342.166L165.225 341.595L161.693 340.993L158.183 340.361L154.696 339.699L151.233 339.007L147.795 338.285L144.383 337.534L140.996 336.753L137.637 335.944L134.305 335.107L131.001 334.241L127.727 333.347L124.482 332.426L121.268 331.478L118.084 330.502L114.933 329.5L111.813 328.472L108.727 327.418L105.675 326.339L102.657 325.234L99.6734 324.105L96.7258 322.951L93.8144 321.773L90.9399 320.572L88.1028 319.348L85.3037 318.101L82.5433 316.831L79.822 315.54L77.1404 314.228L74.4992 312.894L71.8988 311.54L69.3398 310.166L66.8227 308.772L64.348 307.36L61.9163 305.928L59.5281 304.479L57.1837 303.012L54.8838 301.528L52.6288 300.027L50.4191 298.51L48.2552 296.978L46.1376 295.43L44.0666 293.868L42.0427 292.292L40.0663 290.702L38.1377 289.099L36.2575 287.484L34.4258 285.857L32.6432 284.219L30.9099 282.57L29.2264 280.911L27.5928 279.242L26.0096 277.564L24.4771 275.878L22.9955 274.183L21.5651 272.482L20.1862 270.773L18.8591 269.058L17.584 267.338L16.3611 265.613L15.1907 263.883L14.073 262.15L13.0082 260.413L11.9964 258.673L11.0379 256.932L10.1328 255.189L9.28123 253.445L8.48339 251.701L7.73937 249.957L7.04928 248.214L6.41324 246.473L5.83137 244.733L5.30367 242.997L4.83029 241.264L4.41122 239.534L4.04655 237.81L3.73625 236.09L3.48042 234.376L3.27899 232.669L3.13197 230.968L3.03935 229.275L3.00113 227.59L3.01721 225.914L3.08756 224.247L3.21207 222.59L3.39074 220.944L3.62341 219.309L3.91 217.685L4.25041 216.073L4.64444 214.475L5.09204 212.889L5.59299 211.318L6.14715 209.761L6.75431 208.22L7.41432 206.694L8.127 205.184L8.89206 203.691L9.70934 202.215L10.5785 200.757L11.4995 199.318L12.4719 197.897L13.4955 196.496L14.5699 195.115L15.695 193.755L16.8703 192.416L18.0956 191.098L19.3707 189.802L20.6949 188.529L22.0682 187.279L23.4901 186.053L24.9601 184.85L26.4781 183.672L28.0435 182.52L29.6559 181.392L31.315 180.291L33.0204 179.216L34.7714 178.167L36.5679 177.146L38.4092 176.153L40.2949 175.188L42.2246 174.251L44.1978 173.344L46.2139 172.466L48.2725 171.617L50.3731 170.799L52.5151 170.011L54.6981 169.254L56.9214 168.528L59.1846 167.834L61.487 167.172L63.8282 166.542L66.2075 165.945L68.6244 165.381L71.0783 164.85L73.5685 164.352L76.0946 163.889L78.6558 163.459L81.2516 163.065L83.8813 162.704L86.5443 162.379L89.24 162.089L91.9678 161.834L94.7268 161.615L97.5167 161.432L100.337 161.285L103.186 161.174L106.064 161.1L108.97 161.062L111.903 161.062L114.863 161.098L117.849 161.171L120.86 161.282L123.896 161.43L126.955 161.616L130.038 161.839L133.143 162.101L136.27 162.399L139.417 162.736L142.585 163.111L145.772 163.524L148.978 163.975L152.203 164.464L155.444 164.992L158.702 165.557L161.975 166.161L165.263 166.803L168.566 167.483L171.882 168.201L175.211 168.957L178.552 169.752L181.904 170.584L185.266 171.455L188.638 172.363L192.019 173.309L195.409 174.292L198.805 175.313L202.208 176.372L205.617 177.468L209.03 178.601L212.448 179.771L215.87 180.977L219.294 182.221L222.721 183.501L226.148 184.817L229.576 186.169L233.003 187.557L236.43 188.981L239.854 190.44L243.276 191.935L246.695 193.464L250.109 195.028L253.519 196.626L256.922 198.258L260.32 199.924L263.71 201.623L267.092 203.356L270.466 205.121L273.831 206.919L277.185 208.749L280.528 210.611L283.86 212.504L287.18 214.428L290.486 216.383L293.779 218.368L297.058 220.383L300.321 222.428L303.568 224.501L306.799 226.603L310.013 228.733L313.209 230.891L316.387 233.077L319.545 235.289L322.683 237.527L325.801 239.791L328.897 242.081L331.972 244.395L335.024 246.734L338.053 249.096L341.058 251.482L344.039 253.891L346.994 256.322L349.925 258.775L352.829 261.249L355.706 263.744L358.556 266.258L361.378 268.792L364.171 271.346L366.936 273.917L369.67 276.506L372.375 279.113L375.049 281.736L377.691 284.375L380.302 287.029L382.881 289.698L385.426 292.382L387.939 295.079L390.418 297.788L392.863 300.51L395.273 303.244L397.647 305.988L399.987 308.743L402.29 311.507L404.557 314.28L406.787 317.062L408.98 319.851L411.135 322.648L413.252 325.45L415.331 328.259L417.371 331.072L419.372 333.89L421.333 336.711L423.255 339.535L425.137 342.361L426.978 345.189L428.778 348.017L430.538 350.846L432.256 353.674L433.932 356.501L435.567 359.326L437.159 362.148L438.71 364.967L440.217 367.782L441.682 370.592L443.104 373.397L444.483 376.195L445.819 378.986L447.111 381.77L448.359 384.546L449.564 387.312L450.725 390.069L451.841 392.816L452.914 395.551L453.942 398.274L454.926 400.985L455.865 403.683L456.76 406.367L457.61 409.036L458.415 411.69L459.176 414.328L459.893 416.949L460.564 419.553L461.191 422.139L461.773 424.706L462.311 427.253L462.804 429.781L463.252 432.287L463.656 434.773L464.015 437.236L464.33 439.677L464.601 442.094L464.827 444.487L465.009 446.855L465.148 449.198L465.242 451.515L465.293 453.806L465.301 456.069L465.265 458.304L465.185 460.511L465.063 462.689L464.898 464.837L464.691 466.955L464.441 469.041L464.149 471.097L463.815 473.12L463.439 475.111L463.022 477.069L462.563 478.993L462.064 480.882L461.525 482.737L460.945 484.556L460.325 486.34L459.665 488.087L458.966 489.797L458.228 491.47L457.452 493.104L456.637 494.701L455.784 496.258L454.894 497.776L453.966 499.254L453.002 500.692L452.002 502.089L450.965 503.444L449.893 504.759L448.786 506.031L447.644 507.26L446.468 508.447L445.258 509.59L444.014 510.69L442.738 511.746L441.429 512.757L440.089 513.724L438.717 514.646L437.314 515.522L435.88 516.352L434.417 517.136L432.924 517.874L431.402 518.566L429.852 519.21L428.274 519.807L426.668 520.357L425.036 520.859L423.378 521.313L421.694 521.719L419.984 522.077L418.251 522.386L416.493 522.646L414.712 522.857L412.908 523.019L411.082 523.131L409.234 523.195L407.365 523.208L405.476 523.172L403.567 523.086L401.638 522.951L399.691 522.765L397.726 522.529L395.744 522.242L393.744 521.906L391.729 521.519L389.698 521.082L387.652 520.595L385.592 520.057L383.518 519.469L381.431 518.831L379.332 518.143L377.222 517.404L375.1 516.615L372.967 515.775L370.825 514.886L368.674 513.947L366.514 512.958L364.346 511.919L362.171 510.83L359.99 509.692L357.802 508.504L355.61 507.268L353.412 505.982L351.211 504.647L349.006 503.264L346.799 501.832L344.59 500.352L342.379 498.824L340.168 497.248L337.956 495.625L335.745 493.954L333.535 492.236L331.327 490.472L329.121 488.661L326.919 486.804L324.72 484.901L322.525 482.952L320.336 480.959L318.152 478.921L315.974 476.838L313.803 474.711L311.639 472.541L309.483 470.327L307.336 468.07L305.199 465.771L303.071 463.43L300.953 461.047L298.847 458.623L296.752 456.158L294.669 453.654L292.599 451.109L290.543 448.525L288.5 445.902L286.472 443.241L284.459 440.543L282.461 437.806L280.479 435.034L278.514 432.225L276.566 429.38L274.636 426.501L272.724 423.587L270.831 420.639L268.957 417.657L267.103 414.643L265.269 411.597L263.455 408.519L261.663 405.41L259.892 402.271L258.144 399.103L256.418 395.905L254.715 392.679L253.036 389.425L251.38 386.144L249.749 382.837L248.143 379.504L246.561 376.146L245.006 372.764L243.476 369.358L241.972 365.93L240.496 362.478L239.046 359.006L237.624 355.512L236.229 351.999L234.863 348.466L233.525 344.915L232.216 341.345L230.936 337.759L229.685 334.156L228.464 330.537L227.274 326.904L226.113 323.257L224.983 319.596L223.883 315.922L222.815 312.237L221.778 308.541L220.773 304.834L219.799 301.118L218.857 297.394L217.948 293.661L217.071 289.921L216.226 286.175L215.414 282.424L214.635 278.667L213.888 274.907L213.175 271.144L212.495 267.378L211.849 263.611L211.236 259.843L210.657 256.075L210.111 252.308L209.6 248.542L209.122 244.78L208.678 241.02L208.267 237.265L207.891 233.514L207.549 229.769L207.241 226.031L206.967 222.299L206.727 218.576L206.521 214.862L206.349 211.158L206.211 207.464L206.107 203.781L206.037 200.111L206.001 196.453L205.998 192.809L206.029 189.179L206.094 185.565L206.192 181.967L206.323 178.385L206.488 174.821L206.685 171.275L206.916 167.748L207.179 164.241L207.475 160.755L207.804 157.29L208.164 153.847L208.557 150.427L208.982 147.031L209.438 143.658L209.926 140.311L210.445 136.99L210.994 133.695L211.575 130.427L212.186 127.187L212.827 123.976L213.498 120.794L214.199 117.642L214.929 114.521L215.688 111.431L216.476 108.373L217.292 105.347L218.136 102.355L219.008 99.3967L219.907 96.4731L220.833 93.5847L221.786 90.7321L222.766 87.9159L223.771 85.1368L224.801 82.3954L225.857 79.6922L226.938 77.0277L228.042 74.4027L229.171 71.8177L230.323 69.2732L231.498 66.7697L232.696 64.3078L233.916 61.888L235.158 59.5109L236.421 57.1769L237.705 54.8865L239.009 52.6404L240.332 50.4388L241.676 48.2823L243.038 46.1713L244.418 44.1063L245.817 42.0878L247.232 40.1161L248.665 38.1917L250.114 36.3149L251.579 34.4863L253.059 32.7061L254.553 30.9747L256.063 29.2926L257.585 27.66L259.121 26.0773L260.67 24.5448L262.23 23.0629L263.802 21.6318L265.385 20.2518L266.979 18.9233L268.582 17.6465L270.194 16.4217L271.815 15.2491L273.444 14.1289L275.081 13.0614L276.725 12.0468L278.374 11.0853L280.03 10.177L281.691 9.32227L283.356 8.52114L285.026 7.77378L286.699 7.08037L288.374 6.44096L290.052 5.85577L291.732 5.32482L293.412 4.84826L295.093 4.42615L296.774 4.05852L298.454 3.74549L300.133 3.48707L301.809 3.28331L303.483 3.13421L305.154 3.03976L306.822 3L308.484 3.0149L310.142 3.08438L311.794 3.20845L313.441 3.38708L315.08 3.62012L316.712 3.90758L318.336 4.24929L319.952 4.64518L321.559 5.09515L323.156 5.59905L324.742 6.15677L326.318 6.76811L327.883 7.43293L329.435 8.15107L330.975 8.92234L332.502 9.74649L334.015 10.6234L335.514 11.5527L336.998 12.5343L338.467 13.5679L339.92 14.6533L341.356 15.7901L342.776 16.9781L344.178 18.217L345.562 19.5065L346.927 20.8463L348.273 22.2359L349.6 23.6753L350.907 25.1639L352.193 26.7014L353.457 28.2874L354.701 29.9216L355.922 31.6036L357.12 33.3329L358.296 35.1091L359.448 36.9319L360.576 38.8008L361.679 40.7153L362.758 42.675L363.811 44.6794L364.838 46.7281L365.84 48.8205L366.814 50.9563L367.762 53.1348L368.682 55.3556L369.574 57.6181L370.438 59.9219L371.273 62.2663L372.08 64.6509L372.857 67.075L373.604 69.5381L374.321 72.0398L375.008 74.5792L375.664 77.1559L376.288 79.7693L376.882 82.4188L377.443 85.1037L377.973 87.8234L378.47 90.5774L378.935 93.365L379.366 96.1854L379.765 99.0382L380.13 101.923L380.461 104.838L380.759 107.784L381.022 110.759L381.251 113.763L381.446 116.796L381.606 119.856L381.73 122.943L381.82 126.056L381.874 129.194L381.893 132.358L381.877 135.545L381.824 138.756L381.736 141.989L381.611 145.244L381.451 148.52L381.254 151.817L381.021 155.133L380.752 158.468L380.446 161.821L380.104 165.192L379.725 168.579L379.31 171.982L378.857 175.4L378.369 178.833L377.843 182.279L377.281 185.737L376.683 189.208L376.048 192.69L375.376 196.183L374.668 199.685L373.923 203.196L373.142 206.716L372.325 210.242L371.471 213.776L370.581 217.315L369.655 220.859L368.694 224.407L367.696 227.959L366.663 231.513L365.595 235.07L364.491 238.627L363.352 242.185L362.178 245.742L360.97 249.298L359.726 252.852L358.449 256.404L357.137 259.951L355.792 263.495L354.412 267.033L353 270.566L351.554 274.091L350.076 277.61L348.565 281.12L347.021 284.622L345.446 288.114L343.839 291.595L342.201 295.066L340.531 298.524L338.831 301.97L337.101 305.403L335.34 308.821L333.551 312.225L331.732 315.613L329.884 318.985L328.007 322.34L326.103 325.677L324.171 328.996L322.212 332.296L320.226 335.576L318.214 338.836L316.176 342.074L314.112 345.291L312.024 348.486L309.911 351.657L307.774 354.805L305.614 357.928L303.43 361.026L301.224 364.099L298.996 367.145L296.747 370.165L294.477 373.156L292.186 376.12L289.875 379.055L287.545 381.961L285.196 384.837L282.829 387.683L280.444 390.497L278.042 393.28L275.624 396.031L273.19 398.749L270.74 401.434L268.275 404.086L265.797 406.703L263.304 409.285L260.799 411.833L258.282 414.344L255.753 416.82L253.212 419.259L250.661 421.661L248.101 424.025L245.531 426.351L242.953 428.639L240.366 430.888L237.773 433.098L235.173 435.269L232.567 437.399L229.955 439.489L227.339 441.539L224.719 443.547L222.096 445.514L219.47 447.439L216.842 449.323L214.213 451.163L211.584 452.962L208.954 454.717L206.325 456.429L203.698 458.097L201.072 459.722L198.45 461.302L195.831 462.839L193.216 464.331L190.606 465.778L188.002 467.181L185.404 468.538L182.813 469.85L180.229 471.117L177.654 472.338L175.088 473.513L172.531 474.643L169.985 475.727L167.45 476.764L164.927 477.756L162.416 478.701L159.918 479.6L157.434 480.452L154.964 481.258L152.51 482.017L150.071 482.73L147.649 483.397L145.244 484.017L142.857 484.59L140.488 485.117L138.139 485.598L135.809 486.031L133.5 486.419L131.211 486.76L128.945 487.055L126.701 487.304L124.48 487.507L122.282 487.663L120.109 487.774L117.961 487.839L115.838 487.859L113.742 487.833L111.672 487.762L109.63 487.645L107.615 487.484L105.629 487.278L103.673 487.028L101.746 486.733L99.8488 486.394L97.983 486.011L96.1485 485.585L94.346 485.116L92.576 484.603L90.8391 484.047L89.1358 483.449L87.4667 482.809L85.8322 482.127L84.2328 481.403L82.6692 480.638L81.1417 479.832L79.6509 478.986L78.1972 478.099L76.7811 477.173L75.4032 476.207L74.0637 475.202L72.7633 474.158L71.5023 473.076L70.2811 471.956L69.1003 470.798L67.9602 469.604L66.8611 468.373L65.8035 467.105L64.7879 465.802L63.8145 464.464L62.8837 463.091L61.996 461.683L61.1515 460.242L60.3507 458.768L59.594 457.26L58.8816 455.721L58.2137 454.149L57.5908 452.546L57.0132 450.912L56.481 449.248L55.9945 447.555L55.5541 445.832L55.16 444.08L54.8123 442.301L54.5113 440.494L54.2573 438.66L54.0504 436.8L53.8908 434.913L53.7787 433.002L53.7143 431.066L53.6977 429.106L53.729 427.123L53.8085 425.117L53.9361 423.088L54.1122 421.039L54.3366 418.968L54.6096 416.876L54.9312 414.765L55.3015 412.635L55.7205 410.487L56.1882 408.32L56.7048 406.137L57.2701 403.937L57.8843 401.721L58.5473 399.489L59.2591 397.243L60.0197 394.983L60.829 392.71L61.6871 390.424L62.5937 388.127L63.5489 385.817L64.5525 383.497L65.6045 381.167L66.7048 378.828L67.8532 376.48L69.0495 374.124L70.2938 371.761L71.5857 369.39L72.9252 367.014L74.312 364.633L75.746 362.246L77.227 359.856L78.7546 357.462L80.3288 355.065L81.9493 352.667L83.6158 350.267L85.3281 347.866L87.0858 345.465L88.8888 343.065L90.7368 340.665L92.6292 338.268L94.5661 335.873L96.5469 333.481L98.5713 331.093L100.639 328.71L102.75 326.331L104.903 323.959L107.098 321.592L109.335 319.233L111.614 316.881L113.934 314.537L116.294 312.203L118.694 309.877L121.134 307.562L123.613 305.257L126.131 302.964L128.687 300.682L131.281 298.413L133.912 296.157L136.58 293.915L139.284 291.686L142.024 289.473L144.8 287.275L147.61 285.093L150.454 282.927L153.332 280.778L156.243 278.647L159.186 276.534L162.162 274.439L165.168 272.363L168.205 270.308L171.273 268.272L174.37 266.257L177.495 264.263L180.649 262.291L183.831 260.341L187.039 258.413L190.274 256.509L193.534 254.628L196.82 252.771L200.13 250.939L203.463 249.131L206.819 247.349L210.198 245.592L213.598 243.862L217.018 242.158L220.46 240.481L223.92 238.831L227.399 237.209L230.896 235.615L234.411 234.049L237.942 232.512L241.488 231.004L245.05 229.526L248.626 228.078L252.216 226.659L255.818 225.271L259.432 223.914L263.058 222.587L266.694 221.292L270.34 220.028L273.994 218.796L277.657 217.596L281.327 216.428L285.004 215.293L288.687 214.191L292.375 213.121L296.067 212.085L299.762 211.082L303.46 210.112L307.16 209.176L310.861 208.273L314.562 207.405L318.263 206.571L321.962 205.771L325.659 205.005L329.353 204.274L333.044 203.577L336.73 202.915L340.411 202.288L344.085 201.695L347.753 201.137L351.413 200.614L355.064 200.126L358.706 199.673L362.338 199.255L365.959 198.872L369.569 198.524L373.166 198.21L376.75 197.932L380.319 197.688L383.874 197.48L387.413 197.306L390.936 197.166L394.442 197.062L397.929 196.992L401.398 196.956L404.848 196.954L408.277 196.987L411.686 197.054L415.073 197.155L418.437 197.289L421.778 197.458L425.095 197.659L428.387 197.894L431.654 198.162L434.895 198.463L438.109 198.797L441.296 199.163L444.454 199.561L447.583 199.992L450.683 200.454L453.752 200.948L456.791 201.473L459.797 202.029L462.771 202.615L465.713 203.232L468.62 203.879L471.494 204.556L474.332 205.263L477.135 205.999L479.901 206.763L482.631 207.556L485.323 208.377L487.977 209.227L490.593 210.103L493.169 211.007L495.706 211.937L498.202 212.893L500.657 213.876L503.071 214.884L505.443 215.917L507.772 216.974L510.059 218.056L512.302 219.162L514.5 220.291L516.654 221.443L518.764 222.618L520.827 223.814L522.845 225.032L524.816 226.271L526.741 227.531L528.618 228.811L530.447 230.111L532.229 231.43L533.961 232.767L535.645 234.123L537.28 235.496L538.865 236.886L540.4 238.293L541.885 239.716L543.318 241.154L544.701 242.608L546.033 244.076L547.313 245.558L548.541 247.053L549.717 248.562L550.841 250.082L551.912 251.614L552.929 253.158L553.894 254.712L554.806 256.276L555.663 257.849L556.468 259.432L557.218 261.022L557.914 262.621L558.555 264.226L559.142 265.839L559.675 267.457L560.153 269.08L560.577 270.709L560.945 272.342L561.258 273.978L561.517 275.618L561.72 277.259L561.868 278.903L561.961 280.548L561.999 282.194" stroke="#F09744" stroke-opacity="0.25" stroke-width="5"/>
</svg>
