<svg width="69" height="69" viewBox="0 0 69 69" fill="none" xmlns="http://www.w3.org/2000/svg">
<path d="M68 34.4999L67.9967 34.6972L67.9868 34.8944L67.9702 35.0915L67.9471 35.2883L67.9173 35.4849L67.881 35.6811L67.8381 35.8768L67.7885 36.0721L67.7325 36.2668L67.6698 36.4609L67.6007 36.6543L67.525 36.8469L67.4427 37.0387L67.354 37.2295L67.2589 37.4193L67.1572 37.6081L67.0492 37.7958L66.9347 37.9823L66.8139 38.1675L66.6868 38.3514L66.5533 38.5339L66.4135 38.715L66.2674 38.8945L66.1151 39.0724L65.9567 39.2487L65.7921 39.4232L65.6213 39.596L65.4445 39.7669L65.2616 39.9359L65.0728 40.1029L64.878 40.2679L64.6772 40.4307L64.4706 40.5914L64.2582 40.7499L64.04 40.9061L63.816 41.06L63.5864 41.2114L63.3512 41.3604L63.1104 41.5069L62.8641 41.6508L62.6123 41.792L62.3551 41.9306L62.0925 42.0665L61.8247 42.1995L61.5516 42.3297L61.2734 42.457L60.99 42.5814L60.7016 42.7028L60.4083 42.8211L60.11 42.9363L59.8068 43.0484L59.4989 43.1573L59.1863 43.2629L58.869 43.3653L58.5472 43.4644L58.2208 43.56L57.8901 43.6523L57.5549 43.7411L57.2155 43.8265L56.8719 43.9083L56.5242 43.9865L56.1724 44.0612L55.8166 44.1321L55.457 44.1995L55.0935 44.2631L54.7263 44.3229L54.3555 44.379L53.9811 44.4313L53.6032 44.4798L53.2219 44.5244L52.8373 44.5651L52.4494 44.6019L52.0584 44.6348L51.6643 44.6637L51.2673 44.6886L50.8674 44.7095L50.4647 44.7264L50.0592 44.7392L49.6512 44.748L49.2406 44.7526L48.8276 44.7532L48.4122 44.7497L47.9946 44.7421L47.5748 44.7303L47.153 44.7144L46.7291 44.6943L46.3034 44.67L45.8759 44.6416L45.4466 44.609L45.0158 44.5722L44.5835 44.5313L44.1497 44.4861L43.7146 44.4368L43.2783 44.3833L42.8409 44.3255L42.4024 44.2636L41.9629 44.1976L41.5227 44.1273L41.0816 44.0529L40.64 43.9743L40.1977 43.8916L39.755 43.8047L39.3119 43.7137L38.8686 43.6185L38.425 43.5193L37.9814 43.416L37.5378 43.3086L37.0944 43.1972L36.6511 43.0817L36.2081 42.9622L35.7655 42.8387L35.3234 42.7112L34.8819 42.5798L34.4411 42.4445L34.001 42.3052L33.5618 42.1621L33.1236 42.0152L32.6864 41.8644L32.2504 41.7099L31.8156 41.5516L31.3821 41.3896L30.9501 41.2239L30.5196 41.0545L30.0907 40.8816L29.6634 40.705L29.238 40.525L28.8144 40.3414L28.3928 40.1544L27.9733 39.964L27.5559 39.7702L27.1407 39.573L26.7278 39.3726L26.3174 39.169L25.9094 38.9622L25.504 38.7522L25.1012 38.5391L24.7012 38.3231L24.3039 38.104L23.9096 37.8819L23.5183 37.657L23.13 37.4293L22.7448 37.1988L22.3629 36.9655L21.9843 36.7296L21.609 36.4911L21.2372 36.2501L20.8689 36.0066L20.5042 35.7606L20.1431 35.5123L19.7858 35.2616L19.4323 35.0088L19.0827 34.7537L18.737 34.4966L18.3954 34.2373L18.0578 33.9761L17.7244 33.713L17.3952 33.4481L17.0702 33.1813L16.7496 32.9129L16.4334 32.6427L16.1217 32.3711L15.8145 32.0979L15.5118 31.8233L15.2138 31.5473L14.9205 31.27L14.632 30.9915L14.3482 30.7119L14.0693 30.4312L13.7953 30.1494L13.5262 29.8668L13.2621 29.5833L13.0031 29.2991L12.7492 29.0141L12.5004 28.7286L12.2568 28.4424L12.0184 28.1559L11.7853 27.8689L11.5575 27.5816L11.335 27.2941L11.1179 27.0064L10.9062 26.7186L10.7 26.4308L10.4992 26.1432L10.304 25.8556L10.1143 25.5683L9.93012 25.2813L9.75158 24.9948L9.57866 24.7086L9.41139 24.4231L9.24979 24.1381L9.09389 23.8539L8.9437 23.5705L8.79924 23.2879L8.66053 23.0063L8.52758 22.7257L8.40042 22.4463L8.27905 22.168L8.16349 21.891L8.05375 21.6153L7.94983 21.341L7.85174 21.0683L7.7595 20.7971L7.6731 20.5276L7.59255 20.2598L7.51785 19.9939L7.449 19.7298L7.386 19.4677L7.32886 19.2077L7.27756 18.9498L7.2321 18.6941L7.19247 18.4406L7.15867 18.1895L7.13069 17.9408L7.10852 17.6947L7.09215 17.4511L7.08155 17.2101L7.07673 16.9719L7.07765 16.7365L7.08431 16.5039L7.09669 16.2743L7.11477 16.0476L7.13851 15.8241L7.16792 15.6037L7.20295 15.3865L7.24359 15.1726L7.2898 14.962L7.34156 14.7549L7.39884 14.5512L7.46162 14.3511L7.52985 14.1547L7.6035 13.9618L7.68255 13.7728L7.76695 13.5875L7.85667 13.4061L7.95168 13.2286L8.05192 13.0552L8.15737 12.8857L8.26798 12.7204L8.3837 12.5592L8.5045 12.4022L8.63033 12.2495L8.76113 12.1012L8.89688 11.9572L9.03752 11.8176L9.18299 11.6825L9.33325 11.552L9.48824 11.426L9.64792 11.3047L9.81223 11.1881L9.98111 11.0761L10.1545 10.969L10.3324 10.8666L10.5146 10.7691L10.7013 10.6765L10.8922 10.5889L11.0873 10.5062L11.2866 10.4285L11.49 10.3559L11.6974 10.2884L11.9088 10.226L12.1242 10.1687L12.3433 10.1167L12.5663 10.0698L12.7929 10.0282L13.0232 9.99192L13.2571 9.96091L13.4945 9.93524L13.7353 9.91492L13.9795 9.89998L14.227 9.89044L14.4777 9.88633L14.7315 9.88766L14.9884 9.89445L15.2483 9.90672L15.5112 9.92448L15.7769 9.94775L16.0453 9.97654L16.3165 10.0109L16.5903 10.0507L16.8666 10.0961L17.1454 10.1471L17.4265 10.2037L17.71 10.2658L17.9957 10.3335L18.2836 10.4068L18.5735 10.4856L18.8655 10.57L19.1593 10.66L19.455 10.7556L19.7524 10.8567L20.0515 10.9634L20.3521 11.0757L20.6543 11.1935L20.9579 11.3168L21.2628 11.4457L21.569 11.5801L21.8764 11.7199L22.1849 11.8653L22.4943 12.0161L22.8047 12.1723L23.116 12.334L23.428 12.5011L23.7407 12.6736L24.054 12.8514L24.3678 13.0346L24.6821 13.2231L24.9967 13.4168L25.3115 13.6158L25.6266 13.8201L25.9418 14.0295L26.257 14.244L26.5721 14.4637L26.8871 14.6885L27.2019 14.9183L27.5164 15.1531L27.8305 15.3929L28.1441 15.6377L28.4572 15.8873L28.7697 16.1417L29.0814 16.401L29.3925 16.665L29.7026 16.9337L30.0118 17.2071L30.32 17.4851L30.6271 17.7676L30.9331 18.0547L31.2378 18.3462L31.5412 18.6421L31.8432 18.9423L32.1438 19.2468L32.4428 19.5556L32.7401 19.8685L33.0359 20.1855L33.3298 20.5066L33.6219 20.8317L33.9121 21.1607L34.2004 21.4935L34.4866 21.8302L34.7707 22.1705L35.0527 22.5146L35.3324 22.8622L35.6098 23.2133L35.8848 23.5679L36.1574 23.9259L36.4274 24.2872L36.695 24.6517L36.9598 25.0194L37.222 25.3902L37.4815 25.764L37.7382 26.1407L37.9919 26.5203L38.2428 26.9027L38.4907 27.2878L38.7355 27.6755L38.9773 28.0657L39.2159 28.4584L39.4513 28.8535L39.6835 29.2509L39.9123 29.6505L40.1378 30.0522L40.36 30.456L40.5786 30.8617L40.7938 31.2694L41.0055 31.6788L41.2135 32.0899L41.4179 32.5026L41.6187 32.9168L41.8158 33.3325L42.0091 33.7496L42.1986 34.1679L42.3843 34.5873L42.5661 35.0079L42.7441 35.4294L42.9181 35.8519L43.0881 36.2751L43.2542 36.6991L43.4162 37.1237L43.5742 37.5488L43.7281 37.9744L43.8778 38.4003L44.0235 38.8265L44.1649 39.2529L44.3022 39.6793L44.4353 40.1057L44.5641 40.532L44.6887 40.958L44.8091 41.3838L44.9251 41.8092L45.0369 42.2341L45.1443 42.6584L45.2475 43.082L45.3462 43.5048L45.4407 43.9268L45.5307 44.3479L45.6164 44.7678L45.6977 45.1867L45.7747 45.6042L45.8472 46.0205L45.9154 46.4354L45.9792 46.8487L46.0386 47.2604L46.0936 47.6704L46.1442 48.0786L46.1904 48.485L46.2322 48.8893L46.2697 49.2916L46.3028 49.6918L46.3315 50.0897L46.3559 50.4852L46.3759 50.8783L46.3916 51.269L46.403 51.657L46.4101 52.0423L46.4129 52.4248L46.4114 52.8045L46.4057 53.1813L46.3957 53.555L46.3816 53.9255L46.3632 54.2929L46.3407 54.657L46.314 55.0177L46.2832 55.375L46.2482 55.7287L46.2093 56.0788L46.1663 56.4252L46.1192 56.7678L46.0682 57.1066L46.0133 57.4415L45.9544 57.7723L45.8917 58.099L45.8251 58.4216L45.7546 58.74L45.6805 59.054L45.6025 59.3637L45.5209 59.6689L45.4356 59.9696L45.3467 60.2656L45.2543 60.5571L45.1583 60.8438L45.0588 61.1256L44.9559 61.4027L44.8496 61.6748L44.7399 61.9419L44.6269 62.2039L44.5107 62.4609L44.3913 62.7126L44.2687 62.9592L44.1431 63.2004L44.0143 63.4363L43.8826 63.6668L43.748 63.8918L43.6104 64.1113L43.4701 64.3252L43.3269 64.5335L43.1811 64.7362L43.0325 64.9331L42.8814 65.1243L42.7277 65.3096L42.5716 65.4891L42.413 65.6627L42.2521 65.8304L42.0889 65.9921L41.9234 66.1478L41.7558 66.2974L41.586 66.4409L41.4142 66.5783L41.2404 66.7096L41.0647 66.8346L40.8872 66.9534L40.7079 67.066L40.5268 67.1722L40.3441 67.2722L40.1598 67.3658L39.974 67.453L39.7868 67.5339L39.5981 67.6084L39.4082 67.6764L39.217 67.738L39.0247 67.7931L38.8312 67.8418L38.6367 67.884L38.4413 67.9196L38.2449 67.9488L38.0478 67.9714L37.8499 67.9875L37.6513 67.997L37.4521 68L37.2523 67.9964L37.0521 67.9863L36.8516 67.9697L36.6507 67.9465L36.4495 67.9167L36.2482 67.8804L36.0467 67.8376L35.8452 67.7882L35.6438 67.7323L35.4425 67.6698L35.2413 67.6009L35.0404 67.5255L34.8399 67.4435L34.6397 67.3552L34.44 67.2603L34.2408 67.1591L34.0422 67.0514L33.8444 66.9373L33.6472 66.8169L33.4509 66.6901L33.2555 66.5571L33.061 66.4177L32.8675 66.272L32.6752 66.1201L32.484 65.9621L32.294 65.7978L32.1053 65.6274L31.918 65.4509L31.7322 65.2684L31.5478 65.0798L31.365 64.8852L31.1838 64.6847L31.0043 64.4783L30.8266 64.266L30.6507 64.0479L30.4767 63.824L30.3046 63.5944L30.1345 63.3591L29.9665 63.1182L29.8007 62.8717L29.637 62.6197L29.4756 62.3623L29.3165 62.0994L29.1597 61.8312L29.0054 61.5576L28.8536 61.2788L28.7043 60.9949L28.5576 60.7058L28.4135 60.4117L28.2721 60.1125L28.1335 59.8084L27.9977 59.4995L27.8648 59.1858L27.7347 58.8673L27.6076 58.5441L27.4835 58.2164L27.3625 57.8841L27.2446 57.5474L27.1298 57.2063L27.0181 56.8609L26.9098 56.5113L26.8046 56.1575L26.7028 55.7996L26.6044 55.4377L26.5094 55.0719L26.4177 54.7022L26.3296 54.3288L26.245 53.9517L26.1639 53.571L26.0863 53.1867L26.0124 52.799L25.9422 52.408L25.8756 52.0136L25.8127 51.6161L25.7536 51.2155L25.6982 50.8119L25.6466 50.4053L25.5988 49.9959L25.5548 49.5838L25.5148 49.169L25.4786 48.7516L25.4463 48.3317L25.4179 47.9094L25.3935 47.4849L25.373 47.0581L25.3565 46.6292L25.344 46.1982L25.3356 45.7654L25.3311 45.3307L25.3307 44.8942L25.3343 44.4561L25.3419 44.0165L25.3536 43.5753L25.3694 43.1328L25.3893 42.689L25.4132 42.2441L25.4412 41.798L25.4733 41.351L25.5095 40.9031L25.5497 40.4544L25.5941 40.005L25.6425 39.5549L25.6949 39.1044L25.7515 38.6535L25.8121 38.2022L25.8767 37.7507L25.9454 37.2991L26.0181 36.8475L26.0948 36.396L26.1756 35.9446L26.2603 35.4935L26.349 35.0427L26.4416 34.5924L26.5382 34.1426L26.6388 33.6935L26.7432 33.2451L26.8515 32.7976L26.9637 32.351L27.0797 31.9054L27.1995 31.4609L27.3231 31.0176L27.4504 30.5757L27.5815 30.1351L27.7162 29.6961L27.8547 29.2586L27.9967 28.8228L28.1424 28.3887L28.2916 27.9566L28.4444 27.5263L28.6007 27.0981L28.7604 26.6721L28.9235 26.2482L29.09 25.8266L29.2599 25.4075L29.433 24.9908L29.6094 24.5767L29.7891 24.1652L29.9718 23.7565L30.1577 23.3506L30.3467 22.9475L30.5387 22.5475L30.7336 22.1505L30.9315 21.7567L31.1323 21.3661L31.3359 20.9789L31.5422 20.595L31.7513 20.2145L31.963 19.8376L32.1774 19.4643L32.3942 19.0948L32.6136 18.7289L32.8354 18.367L33.0596 18.0089L33.2861 17.6548L33.5148 17.3048L33.7458 16.9589L33.9789 16.6171L34.214 16.2797L34.4512 15.9465L34.6902 15.6178L34.9312 15.2935L35.174 14.9737L35.4185 14.6585L35.6647 14.3479L35.9125 14.0421L36.1618 13.7409L36.4127 13.4446L36.6649 13.1532L36.9184 12.8667L37.1733 12.5852L37.4293 12.3087L37.6864 12.0372L37.9446 11.7709L38.2037 11.5098L38.4638 11.2539L38.7247 11.0033L38.9863 10.758L39.2486 10.5181L39.5115 10.2836L39.775 10.0545L40.0389 9.83088L40.3032 9.6128L40.5678 9.40028L40.8327 9.19335L41.0977 8.99206L41.3627 8.79642L41.6278 8.60648L41.8928 8.42226L42.1576 8.2438L42.4223 8.07111L42.6866 7.90423L42.9505 7.74318L43.2139 7.58798L43.4769 7.43866L43.7391 7.29524L44.0008 7.15773L44.2616 7.02615L44.5216 6.90052L44.7806 6.78086L45.0387 6.66717L45.2956 6.55947L45.5514 6.45777L45.806 6.36208L46.0592 6.27241L46.3111 6.18876L46.5615 6.11114L46.8103 6.03954L47.0576 5.97398L47.3031 5.91445L47.5469 5.86096L47.7888 5.8135L48.0288 5.77206L48.2668 5.73665L48.5027 5.70725L48.7364 5.68385L48.968 5.66646L49.1973 5.65505L49.4242 5.64962L49.6486 5.65015L49.8706 5.65663L50.0899 5.66904L50.3066 5.68737L50.5206 5.71158L50.7318 5.74167L50.9402 5.77762L51.1456 5.81939L51.348 5.86697L51.5473 5.92032L51.7436 5.97943L51.9366 6.04426L52.1263 6.11479L52.3128 6.19098L52.4958 6.27281L52.6754 6.36023L52.8514 6.45321L53.0239 6.55172L53.1928 6.65572L53.3579 6.76517L53.5193 6.88003L53.6769 7.00026L53.8305 7.12582L53.9803 7.25666L54.1261 7.39275L54.2678 7.53403L54.4054 7.68045L54.5389 7.83198L54.6682 7.98855L54.7932 8.15013L54.914 8.31666L55.0304 8.48808L55.1423 8.66434L55.2499 8.8454L55.3529 9.03118L55.4514 9.22164L55.5453 9.41672L55.6346 9.61636L55.7193 9.8205L55.7992 10.0291L55.8744 10.242L55.9448 10.4593L56.0104 10.6808L56.0711 10.9065L56.127 11.1364L56.1779 11.3703L56.2238 11.6081L56.2648 11.8499L56.3007 12.0956L56.3316 12.345L56.3575 12.5982L56.3782 12.855L56.3938 13.1154L56.4042 13.3792L56.4095 13.6465L56.4096 13.9172L56.4045 14.1911L56.3941 14.4682L56.3785 14.7485L56.3576 15.0318L56.3314 15.3181L56.3 15.6072L56.2632 15.8992L56.2211 16.194L56.1737 16.4914L56.121 16.7914L56.0629 17.0938L55.9995 17.3987L55.9307 17.706L55.8565 18.0155L55.777 18.3272L55.6922 18.641L55.602 18.9568L55.5064 19.2745L55.4055 19.5941L55.2992 19.9155L55.1876 20.2385L55.0707 20.5631L54.9485 20.8893L54.8209 21.2169L54.6881 21.5458L54.5499 21.876L54.4065 22.2074L54.2579 22.5399L54.104 22.8734L53.9449 23.2078L53.7806 23.543L53.6111 23.8791L53.4364 24.2157L53.2567 24.553L53.0718 24.8908L52.8819 25.229L52.6869 25.5675L52.4868 25.9063L52.2818 26.2453L52.0719 26.5843L51.857 26.9233L51.6372 27.2623L51.4126 27.6011L51.1832 27.9396L50.949 28.2778L50.71 28.6156L50.4664 28.9529L50.2181 29.2896L49.9652 29.6256L49.7077 29.961L49.4457 30.2954L49.1792 30.629L48.9083 30.9616L48.6331 31.2931L48.3535 31.6235L48.0696 31.9527L47.7816 32.2806L47.4893 32.6071L47.193 32.9321L46.8926 33.2557L46.5881 33.5776L46.2798 33.8978L45.9676 34.2163L45.6516 34.5329L45.3318 34.8477L45.0083 35.1605L44.6812 35.4712L44.3505 35.7798L44.0163 36.0862L43.6787 36.3904L43.3378 36.6922L42.9935 36.9917L42.6461 37.2887L42.2954 37.5831L41.9417 37.875L41.585 38.1642L41.2253 38.4507L40.8628 38.7344L40.4975 39.0153L40.1295 39.2932L39.7588 39.5682L39.3856 39.8401L39.0099 40.109L38.6319 40.3747L38.2514 40.6372L37.8688 40.8964L37.484 41.1524L37.0971 41.405L36.7082 41.6541L36.3174 41.8998L35.9248 42.142L35.5305 42.3806L35.1345 42.6155L34.7369 42.8468L34.3378 43.0745L33.9373 43.2983L33.5355 43.5183L33.1325 43.7345L32.7283 43.9469L32.3231 44.1553L31.9169 44.3597L31.5099 44.5601L31.102 44.7565L30.6935 44.9488L30.2844 45.137L29.8747 45.3211L29.4646 45.5009L29.0542 45.6766L28.6436 45.8481L28.2328 46.0152L27.822 46.1781L27.4111 46.3367L27.0005 46.4909L26.59 46.6407L26.1798 46.7862L25.77 46.9272L25.3608 47.0639L24.9521 47.196L24.5441 47.3237L24.1369 47.4469L23.7305 47.5657L23.3251 47.6799L22.9207 47.7896L22.5175 47.8947L22.1155 47.9953L21.7148 48.0914L21.3155 48.1829L20.9178 48.2698L20.5216 48.3522L20.1272 48.43L19.7345 48.5032L19.3436 48.5718L18.9548 48.6358L18.568 48.6953L18.1833 48.7502L17.8009 48.8006L17.4207 48.8463L17.043 48.8876L16.6678 48.9242L16.2951 48.9564L15.9252 48.984L15.5579 49.0071L15.1935 49.0257L14.8321 49.0398L14.4736 49.0494L14.1183 49.0546L13.7661 49.0553L13.4172 49.0516L13.0716 49.0435L12.7295 49.0311L12.3908 49.0143L12.0558 48.9931L11.7244 48.9677L11.3968 48.9379L11.0729 48.9039L10.753 48.8657L10.4371 48.8233L10.1252 48.7767L9.81746 48.726L9.51391 48.6712L9.21463 48.6124L8.9197 48.5495L8.6292 48.4826L8.34318 48.4117L8.06172 48.337L7.78489 48.2583L7.51276 48.1758L7.24539 48.0896L6.98285 47.9995L6.7252 47.9058L6.4725 47.8084L6.22483 47.7073L5.98223 47.6027L5.74477 47.4946L5.51252 47.383L5.28552 47.2679L5.06383 47.1495L4.84752 47.0277L4.63663 46.9027L4.43121 46.7744L4.23133 46.643L4.03703 46.5085L3.84835 46.3708L3.66536 46.2302L3.48809 46.0866L3.3166 45.9402L3.15092 45.7909L2.9911 45.6388L2.83719 45.484L2.68922 45.3265L2.54723 45.1665L2.41126 45.0039L2.28136 44.8388L2.15754 44.6713L2.03986 44.5015L1.92833 44.3294L1.823 44.1551L1.72388 43.9786L1.63103 43.8L1.54444 43.6194L1.46416 43.4369L1.39021 43.2525L1.32262 43.0662L1.26139 42.8782L1.20656 42.6885L1.15813 42.4972L1.11614 42.3043L1.0806 42.1099L1.05151 41.9142L1.0289 41.7171L1.01277 41.5187L1.00313 41.3191L1 41.1184L1.00338 40.9167L1.01327 40.7139L1.02968 40.5103L1.05262 40.3058L1.08207 40.1005L1.11805 39.8945L1.16055 39.6879L1.20957 39.4807L1.26511 39.2731L1.32715 39.065L1.39569 38.8566L1.47072 38.6479L1.55223 38.4391L1.64021 38.2301L1.73464 38.021L1.83552 37.812L1.94281 37.6031L2.05651 37.3943L2.1766 37.1858L2.30305 36.9775L2.43584 36.7697L2.57495 36.5622L2.72036 36.3554L2.87203 36.149L3.02994 35.9434L3.19406 35.7385L3.36436 35.5344L3.5408 35.3311L3.72336 35.1288L3.912 34.9275L4.10667 34.7273L4.30735 34.5282L4.514 34.3303L4.72656 34.1337L4.94501 33.9385L5.1693 33.7446L5.39938 33.5523L5.6352 33.3614L5.87674 33.1722L6.12391 32.9846L6.3767 32.7988L6.63503 32.6148L6.89886 32.4326L7.16814 32.2524L7.44281 32.0741L7.72281 31.8979L8.00809 31.7238L8.29858 31.5518L8.59424 31.3821L8.89499 31.2146L9.20078 31.0495L9.51154 30.8868L9.82721 30.7265L10.1477 30.5687L10.473 30.4135L10.803 30.2609L11.1376 30.1109L11.4768 29.9636L11.8206 29.8191L12.1687 29.6775L12.5212 29.5386L12.8779 29.4027L13.2389 29.2698L13.604 29.1398L13.9732 29.0129L14.3463 28.8891L14.7234 28.7684L15.1042 28.6509L15.4888 28.5367L15.877 28.4256L16.2689 28.3179L16.6642 28.2135L17.0629 28.1125L17.4649 28.0149L17.8702 27.9207L18.2787 27.8301L18.6902 27.7429L19.1047 27.6593L19.522 27.5792L19.9422 27.5028L20.3651 27.43L20.7906 27.3608L21.2187 27.2954L21.6492 27.2336L22.0821 27.1756L22.5172 27.1213L22.9545 27.0709L23.3938 27.0242L23.8352 26.9814L24.2784 26.9424L24.7234 26.9072L25.1701 26.8759L25.6185 26.8486L26.0683 26.8251L26.5196 26.8055L26.9721 26.7899L27.4259 26.7782L27.8809 26.7704L28.3368 26.7666L28.7937 26.7668L29.2514 26.7709L29.7099 26.779L30.1689 26.7911L30.6286 26.8071L31.0887 26.8271L31.5491 26.8511L32.0098 26.879L32.4706 26.9109L32.9315 26.9468L33.3924 26.9867L33.8531 27.0305L34.3135 27.0782L34.7737 27.1299L35.2334 27.1854L35.6926 27.2449L36.1511 27.3083L36.6089 27.3756L37.0659 27.4468L37.522 27.5218L37.9771 27.6006L38.4311 27.6832L38.8838 27.7697L39.3353 27.8599L39.7854 27.9538L40.2339 28.0515L40.6809 28.1529L41.1263 28.258L41.5698 28.3667L42.0115 28.4791L42.4512 28.595L42.8889 28.7145L43.3244 28.8375L43.7578 28.964L44.1888 29.094L44.6173 29.2274L45.0434 29.3642L45.4669 29.5044L45.8877 29.6479L46.3058 29.7946L46.721 29.9446L47.1333 30.0978L47.5425 30.2541L47.9487 30.4136L48.3517 30.5761L48.7513 30.7417L49.1477 30.9102L49.5406 31.0816L49.93 31.2559L50.3158 31.4331L50.6979 31.613L51.0763 31.7957L51.4508 31.981L51.8214 32.169L52.1881 32.3595L52.5507 32.5526L52.9092 32.7481L53.2635 32.946L53.6135 33.1463L53.9592 33.3489L54.3004 33.5537L54.6372 33.7607L54.9695 33.9697L55.2971 34.1809L55.6201 34.394L55.9383 34.6091L56.2517 34.826L56.5603 35.0447L56.864 35.2652L57.1626 35.4873L57.4563 35.7111L57.7448 35.9364L58.0282 36.1631L58.3064 36.3913L58.5794 36.6208L58.847 36.8516L59.1093 37.0836L59.3661 37.3167L59.6176 37.5509L59.8635 37.7861L60.1038 38.0222L60.3386 38.2592L60.5678 38.4969L60.7913 38.7354L61.009 38.9745L61.221 39.2141L61.4272 39.4543L61.6277 39.6948L61.8222 39.9358L62.0108 40.177L62.1936 40.4183L62.3703 40.6599L62.5411 40.9014L62.7059 41.143L62.8647 41.3844L63.0174 41.6257L63.164 41.8667L63.3045 42.1074L63.4388 42.3477L63.5671 42.5876L63.6891 42.8268L63.805 43.0655L63.9147 43.3035L64.0182 43.5407L64.1155 43.777L64.2066 44.0124L64.2914 44.2468L64.3699 44.4802L64.4423 44.7124L64.5083 44.9434L64.5681 45.1731L64.6217 45.4014L64.669 45.6283L64.71 45.8536L64.7448 46.0774L64.7733 46.2995L64.7956 46.5199L64.8117 46.7384L64.8215 46.9551L64.8251 47.1698L64.8225 47.3825L64.8137 47.5931L64.7988 47.8016L64.7776 48.0078L64.7503 48.2117L64.7169 48.4132L64.6774 48.6123L64.6318 48.8088L64.5801 49.0028L64.5224 49.1942L64.4587 49.3828L64.389 49.5687L64.3133 49.7517L64.2317 49.9318L64.1442 50.1089L64.0508 50.283L63.9516 50.4539L63.8466 50.6218L63.7358 50.7864L63.6193 50.9477L63.4972 51.1057L63.3693 51.2602L63.2359 51.4114L63.0969 51.5589L62.9523 51.703L62.8023 51.8434L62.6469 51.9801L62.4861 52.113L62.32 52.2422L62.1485 52.3675L61.9719 52.4889L61.79 52.6064L61.6031 52.7199L61.411 52.8293L61.2139 52.9347L61.0119 53.0359L60.805 53.1329L60.5932 53.2257L60.3766 53.3142L60.1553 53.3984L59.9294 53.4782L59.6988 53.5537L59.4637 53.6247L59.2242 53.6912L58.9802 53.7533L58.7319 53.8107L58.4793 53.8636L58.2225 53.9119L57.9615 53.9555L57.6965 53.9944L57.4275 54.0287L57.1546 54.0581L56.8778 54.0829L56.5972 54.1028L56.3129 54.1179L56.025 54.1281L55.7336 54.1335L55.4386 54.134L55.1403 54.1296L54.8386 54.1203L54.5337 54.106L54.2256 54.0867L53.9145 54.0625L53.6003 54.0333L53.2832 53.999L52.9632 53.9598L52.6405 53.9155L52.3151 53.8662L51.987 53.8118L51.6565 53.7524L51.3235 53.6879L50.9882 53.6183L50.6506 53.5437L50.3108 53.464L49.969 53.3793L49.6251 53.2894L49.2793 53.1946L48.9316 53.0946L48.5822 52.9896L48.2311 52.8796L47.8785 52.7645L47.5243 52.6444L47.1688 52.5193L46.8119 52.3892L46.4537 52.254L46.0945 52.1139L45.7342 51.9688L45.3729 51.8188L45.0107 51.6639L44.6477 51.504L44.284 51.3393L43.9197 51.1697L43.5549 50.9952L43.1896 50.8159L42.8239 50.6319L42.458 50.4431L42.0919 50.2495L41.7257 50.0512L41.3595 49.8483L40.9934 49.6407L40.6274 49.4286L40.2617 49.2118L39.8963 48.9905L39.5313 48.7648L39.1669 48.5345L38.803 48.2999L38.4398 48.0608L38.0774 47.8175L37.7158 47.5698L37.3551 47.3179L36.9955 47.0618L36.6369 46.8016L36.2796 46.5372L35.9235 46.2688L35.5687 45.9964L35.2153 45.7201L34.8635 45.4398L34.5132 45.1557L34.1646 44.8678L33.8177 44.5762L33.4726 44.2809L33.1295 43.982L32.7883 43.6795L32.4491 43.3735L32.1121 43.0641L31.7772 42.7514L31.4447 42.4353L31.1144 42.1159L30.7866 41.7934L30.4613 41.4678L30.1385 41.1391L29.8184 40.8074L29.5009 40.4729L29.1862 40.1355L28.8744 39.7953L28.5654 39.4524L28.2594 39.1069L27.9564 38.7588L27.6566 38.4083L27.3598 38.0553L27.0663 37.7001L26.7761 37.3426L26.4892 36.9828L26.2057 36.6211L25.9256 36.2572L25.6491 35.8915L25.3761 35.5238L25.1067 35.1544L24.841 34.7833L24.5791 34.4106L24.3209 34.0364L24.0665 33.6606L23.816 33.2836L23.5695 32.9052L23.3269 32.5256L23.0883 32.1449L22.8538 31.7632L22.6234 31.3805L22.3972 30.997L22.1751 30.6127L21.9573 30.2277L21.7437 29.842L21.5344 29.4559L21.3295 29.0694L21.129 28.6825L20.9328 28.2953L20.7411 27.908L20.5539 27.5206L20.3712 27.1333L20.193 26.746L20.0194 26.3589L19.8504 25.9721L19.686 25.5857L19.5262 25.1997L19.371 24.8143L19.2206 24.4295L19.0749 24.0455L18.9338 23.6623L18.7976 23.2799L18.666 22.8986L18.5393 22.5184L18.4173 22.1393L18.3001 21.7615L18.1877 21.385L18.0801 21.01L17.9774 20.6366L17.8794 20.2647L17.7863 19.8945L17.6981 19.5262L17.6147 19.1597L17.5361 18.7952L17.4624 18.4328L17.3935 18.0725L17.3294 17.7144L17.2702 17.3587L17.2158 17.0053L17.1663 16.6545L17.1216 16.3062L17.0816 15.9606L17.0465 15.6177L17.0162 15.2777L16.9906 14.9405L16.9698 14.6064L16.9538 14.2753L16.9425 13.9474L16.9359 13.6227L16.934 13.3013L16.9367 12.9833L16.9441 12.6688L16.9562 12.3579L16.9729 12.0506L16.9941 11.7469L17.0199 11.4471L17.0502 11.1511L17.0851 10.8591L17.1244 10.571L17.1681 10.287L17.2163 10.0072L17.2688 9.7316L17.3257 9.46028L17.3869 9.19332L17.4523 8.93079L17.522 8.67275L17.5959 8.41927L17.674 8.17042L17.7561 7.92626L17.8424 7.68685L17.9326 7.45226L18.0269 7.22254L18.1251 6.99777L18.2272 6.77799L18.3331 6.56327L18.4428 6.35366L18.5563 6.14921L18.6735 5.95L18.7944 5.75606L18.9188 5.56745L19.0468 5.38423L19.1783 5.20643L19.3133 5.03412L19.4516 4.86734L19.5933 4.70613L19.7382 4.55054L19.8864 4.40062L20.0377 4.25641L20.1922 4.11795L20.3496 3.98528L20.5101 3.85845L20.6734 3.73748L20.8397 3.62241L21.0087 3.51328L21.1805 3.41013L21.3549 3.31299L21.532 3.22188L21.7115 3.13685L21.8936 3.0579L22.0781 2.98509L22.2649 2.91842L22.454 2.85793L22.6453 2.80363L22.8387 2.75555L23.0342 2.71371L23.2317 2.67813L23.4312 2.64882L23.6325 2.6258L23.8356 2.60909L24.0404 2.5987L24.2469 2.59464L24.455 2.59692L24.6646 2.60555L24.8756 2.62054L25.0879 2.64189L25.3016 2.66961L25.5165 2.7037L25.7325 2.74416L25.9496 2.79099L26.1678 2.8442L26.3868 2.90377L26.6067 2.96971L26.8274 3.04201L27.0488 3.12066L27.2708 3.20565L27.4934 3.29698L27.7164 3.39462L27.9399 3.49857L28.1637 3.60882L28.3878 3.72535L28.612 3.84814L28.8364 3.97716L29.0609 4.11241L29.2853 4.25387L29.5095 4.40149L29.7337 4.55528L29.9575 4.71519L30.1811 4.8812L30.4042 5.05327L30.6269 5.2314L30.8491 5.41552L31.0706 5.60563L31.2915 5.80168L31.5116 6.00363L31.7309 6.21146L31.9493 6.42512L32.1667 6.64457L32.3831 6.86976L32.5984 7.10067L32.8125 7.33724L33.0254 7.57943L33.2369 7.8272L33.4471 8.08048L33.6559 8.33925L33.8631 8.60344L34.0688 8.87301L34.2728 9.14789L34.4752 9.42805L34.6757 9.71342L34.8744 10.0039L35.0713 10.2996L35.2662 10.6002L35.459 10.9059L35.6498 11.2164L35.8384 11.5319L36.0249 11.8521L36.2091 12.177L36.391 12.5066L36.5705 12.8408L36.7476 13.1796L36.9222 13.5228L37.0942 13.8703L37.2637 14.2222L37.4305 14.5784L37.5947 14.9387L37.756 15.3031L37.9146 15.6716L38.0704 16.044L38.2232 16.4202L38.3731 16.8003L38.52 17.1841L38.6639 17.5715L38.8047 17.9625L38.9424 18.3569L39.0769 18.7548L39.2081 19.156L39.3362 19.5604L39.4609 19.9679L39.5824 20.3785L39.7004 20.792L39.8151 21.2085L39.9263 21.6278L40.0341 22.0497L40.1383 22.4743L40.239 22.9014L40.3362 23.331L40.4297 23.7629L40.5196 24.1971L40.6059 24.6335L40.6885 25.0719L40.7673 25.5124L40.8425 25.9547L40.9139 26.3989L40.9815 26.8447L41.0453 27.2922L41.1053 27.7412L41.1614 28.1916L41.2137 28.6433L41.2621 29.0963L41.3067 29.5504L41.3473 30.0056L41.3841 30.4618L41.4169 30.9187L41.4458 31.3765L41.4707 31.8349L41.4917 32.2938L41.5087 32.7532L41.5218 33.213L41.5309 33.6731L41.5361 34.1334L41.5373 34.5937L41.5345 35.054L41.5277 35.5142L41.517 35.9741L41.5023 36.4338L41.4836 36.893L41.461 37.3518L41.4345 37.8099L41.404 38.2673L41.3696 38.724L41.3312 39.1797L41.289 39.6345L41.2429 40.0882L41.1929 40.5407L41.139 40.9919L41.0813 41.4417L41.0197 41.8901L40.9544 42.3369L40.8852 42.7821L40.8123 43.2255L40.7357 43.6671L40.6553 44.1067L40.5712 44.5443L40.4834 44.9798L40.392 45.4131L40.297 45.8441L40.1984 46.2727L40.0963 46.6988L39.9906 47.1223L39.8814 47.5432L39.7688 47.9613L39.6528 48.3766L39.5333 48.789L39.4105 49.1983L39.2844 49.6046L39.1551 50.0077L39.0225 50.4075L38.8867 50.804L38.7477 51.197L38.6056 51.5866L38.4605 51.9725L38.3124 52.3548L38.1613 52.7333L38.0073 53.108L37.8504 53.4788L37.6906 53.8456L37.5281 54.2084L37.3629 54.567L37.195 54.9215L37.0244 55.2716L36.8513 55.6174L36.6757 55.9588L36.4976 56.2957L36.3172 56.628L36.1343 56.9557L35.9492 57.2788L35.7619 57.597L35.5723 57.9105L35.3807 58.2191L35.187 58.5227L34.9913 58.8213L34.7937 59.1149L34.5942 59.4033L34.3929 59.6865L34.1899 59.9646L33.9852 60.2373L33.7789 60.5047L33.571 60.7667L33.3617 61.0232L33.1509 61.2742L32.9388 61.5197L32.7254 61.7596L32.5108 61.9939L32.2951 62.2225L32.0782 62.4454L31.8604 62.6624L31.6417 62.8737L31.422 63.0792L31.2016 63.2787L30.9805 63.4724L30.7587 63.66L30.5363 63.8417L30.3134 64.0174L30.0901 64.187L29.8664 64.3505L29.6424 64.5079L29.4182 64.6592L29.1939 64.8043L28.9694 64.9433L28.745 65.076L28.5207 65.2025L28.2965 65.3227L28.0725 65.4367L27.8488 65.5444L27.6255 65.6458L27.4026 65.7408L27.1803 65.8296L26.9585 65.912L26.7374 65.988L26.517 66.0578L26.2975 66.1211L26.0788 66.1781L25.8611 66.2287L25.6444 66.2729L25.4288 66.3108L25.2144 66.3423L25.0013 66.3674L24.7894 66.3862L24.579 66.3986L24.37 66.4046L24.1626 66.4043L23.9568 66.3977L23.7527 66.3847L23.5503 66.3654L23.3497 66.3398L23.151 66.308L22.9543 66.2698L22.7597 66.2255L22.5671 66.1748L22.3767 66.118L22.1885 66.055L22.0026 65.9858L21.8191 65.9105L21.6381 65.8291L21.4595 65.7416L21.2835 65.648L21.1102 65.5484L20.9395 65.4428L20.7716 65.3313L20.6066 65.2138L20.4444 65.0904L20.2851 64.9612L20.1289 64.8262L19.9757 64.6854L19.8257 64.5388L19.6788 64.3866L19.5352 64.2287L19.3949 64.0652L19.2579 63.8962L19.1244 63.7216L18.9943 63.5416L18.8677 63.3562L18.7447 63.1654L18.6253 62.9693L18.5096 62.768L18.3977 62.5614L18.2895 62.3497L18.1851 62.1329L18.0846 61.9111L17.988 61.6843L17.8954 61.4526L17.8067 61.216L17.7222 60.9747L17.6417 60.7286L17.5653 60.4779L17.4931 60.2225L17.4252 59.9626L17.3615 59.6983L17.302 59.4296L17.2469 59.1565L17.1961 58.8791L17.1498 58.5976L17.1078 58.312L17.0703 58.0223L17.0373 57.7286L17.0089 57.4311L16.9849 57.1297L16.9655 56.8245L16.9507 56.5157L16.9406 56.2033L16.935 55.8874L16.9342 55.568L16.938 55.2453L16.9465 54.9193L16.9597 54.59L16.9777 54.2577L17.0005 53.9223L17.028 53.584L17.0602 53.2428L17.0973 52.8988L17.1392 52.5521L17.1859 52.2027L17.2374 51.8509L17.2938 51.4965L17.3549 51.1398L17.4209 50.7808L17.4918 50.4197L17.5675 50.0564L17.6481 49.6911L17.7334 49.3238L17.8237 48.9547L17.9187 48.5839L18.0186 48.2113L18.1233 47.8372L18.2329 47.4616L18.3472 47.0846L18.4664 46.7063L18.5903 46.3267L18.719 45.946L18.8525 45.5643L18.9907 45.1816L19.1337 44.798L19.2813 44.4136L19.4337 44.0286L19.5907 43.6429L19.7524 43.2568L19.9187 42.8702L20.0896 42.4833L20.265 42.0961L20.4451 41.7088L20.6296 41.3214L20.8187 40.934L21.0122 40.5468L21.2101 40.1597L21.4124 39.773L21.6191 39.3866L21.8302 39.0006L22.0455 38.6153L22.265 38.2305L22.4888 37.8465L22.7168 37.4633L22.9488 37.081L23.185 36.6997L23.4252 36.3195L23.6694 35.9404L23.9176 35.5625L24.1697 35.186L24.4256 34.8108L24.6853 34.4372L24.9488 34.0651L25.216 33.6947L25.4869 33.326L25.7613 32.9591L26.0393 32.5942L26.3207 32.2312L26.6056 31.8702L26.8939 31.5114L27.1855 31.1548L27.4803 30.8004L27.7783 30.4485L28.0795 30.0989L28.3837 29.7519L28.6909 29.4074L29.0011 29.0657L29.3141 28.7266L29.6299 28.3903L29.9485 28.0569L30.2697 27.7265L30.5935 27.399L30.9199 27.0747L31.2487 26.7534L31.5799 26.4354L31.9134 26.1207L32.2491 25.8092L32.587 25.5012L32.927 25.1967L33.269 24.8956L33.613 24.5982L33.9588 24.3044L34.3064 24.0143L34.6557 23.7279L35.0066 23.4454L35.3591 23.1667L35.713 22.892L36.0684 22.6212L36.425 22.3544L36.7829 22.0917L37.1419 21.8332L37.5019 21.5788L37.863 21.3286L38.2249 21.0827L38.5877 20.8411L38.9511 20.6038L39.3153 20.371L39.6799 20.1426L40.0451 19.9186L40.4106 19.6992L40.7764 19.4843L41.1425 19.274L41.5087 19.0683L41.8749 18.8673L42.241 18.6709L42.6071 18.4793L42.9729 18.2924L43.3384 18.1103L43.7035 17.933L44.0682 17.7605L44.4322 17.5929L44.7956 17.4301L45.1583 17.2722L45.5201 17.1193L45.8811 16.9713L46.241 16.8282L46.5998 16.6902L46.9574 16.5571L47.3138 16.429L47.6688 16.3059L48.0223 16.1878L48.3743 16.0748L48.7248 15.9668L49.0735 15.8639L49.4204 15.766L49.7654 15.6732L50.1085 15.5854L50.4495 15.5027L50.7884 15.4251L51.1251 15.3526L51.4595 15.2851L51.7914 15.2227L52.121 15.1653L52.4479 15.113L52.7723 15.0657L53.0939 15.0235L53.4127 14.9863L53.7286 14.9541L54.0416 14.9269L54.3515 14.9047L54.6583 14.8874L54.9619 14.8752L55.2622 14.8678L55.5592 14.8654L55.8527 14.8679L56.1428 14.8753L56.4292 14.8875L56.7119 14.9046L56.991 14.9265L57.2662 14.9531L57.5376 14.9845L57.8049 15.0207L58.0683 15.0615L58.3276 15.1071L58.5827 15.1572L58.8335 15.212L59.0801 15.2713L59.3223 15.3352L59.56 15.4035L59.7933 15.4763L60.022 15.5536L60.2461 15.6352L60.4654 15.7212L60.6801 15.8114L60.8899 15.9059L61.0948 16.0047L61.2948 16.1076L61.4898 16.2146L61.6798 16.3257L61.8647 16.4408L62.0445 16.5599L62.219 16.6829L62.3883 16.8098L62.5523 16.9405L62.7109 17.075L62.8641 17.2132L63.0119 17.3551L63.1542 17.5006L63.2909 17.6496L63.4221 17.8021L63.5476 17.9581L63.6675 18.1174L63.7817 18.2801L63.8901 18.446L63.9927 18.6152L64.0896 18.7874L64.1806 18.9627L64.2657 19.1411L64.3449 19.3224L64.4181 19.5065L64.4854 19.6935L64.5467 19.8833L64.6019 20.0757L64.6511 20.2707L64.6943 20.4683L64.7313 20.6684L64.7622 20.8709L64.787 21.0758L64.8056 21.2829L64.8181 21.4922L64.8243 21.7037L64.8244 21.9172L64.8183 22.1328L64.8059 22.3502L64.7873 22.5695L64.7625 22.7906L64.7314 23.0134L64.6941 23.2378L64.6505 23.4638L64.6006 23.6913L64.5445 23.9202L64.4822 24.1504L64.4136 24.3819L64.3387 24.6146L64.2576 24.8484L64.1702 25.0832L64.0766 25.319L63.9768 25.5557L63.8708 25.7932L63.7586 26.0315L63.6402 26.2704L63.5156 26.5099L63.3848 26.7499L63.248 26.9904L63.105 27.2313L62.9559 27.4724L62.8007 27.7138L62.6395 27.9552L62.4723 28.1968L62.2991 28.4384L62.1199 28.6798L61.9347 28.9212L61.7437 29.1622L61.5467 29.403L61.344 29.6434L61.1354 29.8834L60.921 30.1228L60.7009 30.3617L60.4751 30.5999L60.2437 30.8373L60.0066 31.0739L59.764 31.3097L59.5158 31.5445L59.2622 31.7782L59.0031 32.0109L58.7386 32.2424L58.4688 32.4727L58.1937 32.7017L57.9134 32.9293L57.6279 33.1554L57.3373 33.3801L57.0416 33.6032L56.7409 33.8247L56.4352 34.0444L56.1246 34.2624L55.8093 34.4786L55.4891 34.6929L55.1642 34.9052L54.8347 35.1155L54.5006 35.3237L54.1619 35.5298L53.8189 35.7337L53.4714 35.9354L53.1197 36.1347L52.7637 36.3316L52.4035 36.5262L52.0392 36.7182L51.6709 36.9077L51.2987 37.0946L50.9226 37.2789L50.5427 37.4604L50.159 37.6392L49.7718 37.8152L49.381 37.9884L48.9867 38.1587L48.5889 38.326L48.1879 38.4903L47.7836 38.6516L47.3762 38.8098L46.9657 38.9648L46.5522 39.1167L46.1359 39.2654L45.7167 39.4108L45.2947 39.5529L44.8702 39.6917L44.4431 39.8272L44.0135 39.9592L43.5815 40.0878L43.1473 40.2129L42.7109 40.3345L42.2723 40.4525L41.8318 40.567L41.3893 40.6778L40.9451 40.7851L40.4991 40.8887L40.0514 40.9885L39.6022 41.0847L39.1516 41.1772L38.6996 41.2658L38.2463 41.3507L37.7919 41.4318L37.3364 41.5091L36.8799 41.5825L36.4225 41.6521L35.9644 41.7178L35.5056 41.7796L35.0462 41.8375L34.5863 41.8915L34.126 41.9416L33.6654 41.9877L33.2047 42.0299L32.7438 42.0681L32.2829 42.1024L31.8221 42.1327L31.3615 42.159L30.9012 42.1814L30.4413 42.1998L29.9819 42.2142L29.523 42.2246L29.0649 42.2311L28.6075 42.2336L28.151 42.2321L27.6954 42.2267L27.2409 42.2174L26.7876 42.2041L26.3356 42.1868L25.8849 42.1657L25.4357 42.1406L24.988 42.1116L24.5419 42.0788L24.0976 42.042L23.6552 42.0015L23.2146 41.9571L22.7761 41.9089L22.3397 41.8568L21.9055 41.8011L21.4736 41.7415L21.044 41.6783L20.617 41.6113L20.1925 41.5407L19.7707 41.4664L19.3517 41.3884L18.9355 41.3069L18.5222 41.2219L18.1119 41.1333L17.7048 41.0412L17.3008 40.9456L16.9001 40.8466L16.5027 40.7442L16.1088 40.6384L15.7185 40.5294L15.3317 40.417L14.9486 40.3014L14.5693 40.1826L14.1939 40.0607L13.8223 39.9356L13.4548 39.8074L13.0914 39.6762L12.7321 39.5421L12.3771 39.405L12.0264 39.265L11.68 39.1222L11.3381 38.9765L11.0008 38.8282L10.668 38.6771L10.3399 38.5234L10.0166 38.3672L9.69804 38.2083L9.38436 38.0471L9.07561 37.8833L8.77187 37.7172L8.47318 37.5489L8.17963 37.3782L7.89125 37.2054L7.60811 37.0304L7.33028 36.8533L7.05779 36.6742L6.79073 36.4932L6.52913 36.3103L6.27305 36.1255L6.02255 35.939L5.77766 35.7508L5.53845 35.5609L5.30496 35.3694L5.07723 35.1764L4.85532 34.982L4.63926 34.7862L4.4291 34.5891L4.22488 34.3907L4.02665 34.1911L3.83443 33.9904L3.64826 33.7887L3.46819 33.586L3.29424 33.3824L3.12646 33.178L2.96486 32.9727L2.80949 32.7668L2.66037 32.5603L2.51752 32.3532L2.38098 32.1456L2.25077 31.9375L2.12691 31.7292L2.00942 31.5205L1.89833 31.3117L1.79365 31.1027L1.6954 30.8936L1.60359 30.6846L1.51824 30.4757L1.43937 30.2669L1.36698 30.0583L1.30109 29.85L1.2417 29.6421L1.18882 29.4346L1.14245 29.2277L1.10261 29.0213L1.06929 28.8156L1.04249 28.6107L1.02221 28.4065L1.00845 28.2032L1.00121 28.0008L1.00049 27.7995L1.00627 27.5993L1.01856 27.4002L1.03733 27.2023L1.06258 27.0057L1.0943 26.8106L1.13247 26.6168L1.17708 26.4246L1.22812 26.2339L1.28556 26.0449L1.34938 25.8576L1.41957 25.672L1.4961 25.4883L1.57895 25.3066L1.66809 25.1268L1.7635 24.9491L1.86515 24.7735L1.97301 24.6L2.08705 24.4289L2.20724 24.26L2.33354 24.0935L2.46592 23.9294L2.60434 23.7679L2.74877 23.6089L2.89917 23.4525L3.05549 23.2988L3.2177 23.1478L3.38575 22.9997L3.55961 22.8544L3.73921 22.712L3.92452 22.5726L4.11549 22.4362L4.31208 22.3029L4.51422 22.1728L4.72187 22.0458L4.93498 21.9221L5.15349 21.8017L5.37735 21.6846L5.60649 21.571L5.84088 21.4608L6.08043 21.3541L6.32511 21.2509L6.57484 21.1513L6.82956 21.0554L7.0892 20.9632L7.35372 20.8747L7.62304 20.7899L7.8971 20.709L8.17582 20.6319L8.45914 20.5588L8.74699 20.4895L9.03931 20.4243L9.33602 20.363L9.63704 20.3058L9.94231 20.2526L10.2518 20.2036L10.5653 20.1587L10.8829 20.118L11.2044 20.0815L11.5298 20.0493L11.8589 20.0213L12.1918 19.9976L12.5283 19.9782L12.8684 19.9632L13.212 19.9525L13.5589 19.9462L13.9092 19.9443L14.2627 19.9468L14.6193 19.9538L14.979 19.9653L15.3416 19.9812L15.7072 20.0016L16.0755 20.0265L16.4466 20.056L16.8203 20.09L17.1966 20.1285L17.5753 20.1716L17.9564 20.2192L18.3397 20.2714L18.7253 20.3282L19.1129 20.3895L19.5026 20.4554L19.8942 20.5259L20.2876 20.601L20.6828 20.6807L21.0796 20.7649L21.478 20.8537L21.8778 20.947L22.2791 21.0449L22.6816 21.1474L23.0853 21.2544L23.4901 21.3659L23.8959 21.482L24.3026 21.6025L24.7102 21.7276L25.1185 21.8571L25.5274 21.9911L25.9369 22.1295L26.3469 22.2724L26.7572 22.4196L27.1677 22.5712L27.5785 22.7272L27.9893 22.8876L28.4002 23.0522L28.8109 23.2211L29.2215 23.3943L29.6317 23.5717L30.0416 23.7532L30.4511 23.939L30.86 24.1289L31.2683 24.3228L31.6758 24.5209L32.0825 24.7229L32.4883 24.929L32.8931 25.139L33.2968 25.3529L33.6993 25.5707L34.1006 25.7923L34.5005 26.0176L34.899 26.2468L35.296 26.4796L35.6913 26.716L36.085 26.9561L36.4769 27.1997L36.8669 27.4468L37.2549 27.6974L37.641 27.9513L38.0249 28.2086L38.4067 28.4692L38.7861 28.733L39.1633 29L39.538 29.2701L39.9101 29.5433L40.2797 29.8195L40.6466 30.0986L41.0108 30.3807L41.3722 30.6655L41.7307 30.9531L42.0862 31.2434L42.4386 31.5363L42.788 31.8318L43.1342 32.1298L43.4771 32.4303L43.8167 32.7331L44.1529 33.0381L44.4856 33.3455L44.8149 33.655L45.1405 33.9665L45.4625 34.2801L45.7808 34.5957L46.0952 34.9131L46.4059 35.2323L46.7126 35.5532L47.0154 35.8758L47.3142 36.1999L47.6088 36.5256L47.8994 36.8526L48.1858 37.181L48.4679 37.5107L48.7457 37.8416L49.0192 38.1736L49.2883 38.5066L49.553 38.8405L49.8131 39.1754L50.0687 39.511L50.3198 39.8473L50.5662 40.1843L50.8079 40.5218L51.045 40.8597L51.2772 41.1981L51.5047 41.5367L51.7274 41.8756L51.9451 42.2146L52.158 42.5536L52.3659 42.8927L52.5689 43.2316L52.7669 43.5702L52.9598 43.9086L53.1477 44.2467L53.3305 44.5843L53.5082 44.9213L53.6807 45.2577L53.8481 45.5935L54.0103 45.9284L54.1673 46.2624L54.3191 46.5955L54.4656 46.9276L54.6068 47.2585L54.7428 47.5882L54.8735 47.9166L54.9989 48.2436L55.119 48.5691L55.2338 48.8931L55.3432 49.2155L55.4473 49.5361L55.546 49.855L55.6394 50.1719L55.7274 50.4869L55.8101 50.7999L55.8874 51.1107L55.9593 51.4193L56.026 51.7256L56.0872 52.0295L56.1431 52.331L56.1937 52.6299L56.2389 52.9262L56.2788 53.2199L56.3134 53.5107L56.3427 53.7987L56.3667 54.0838L56.3855 54.3659L56.399 54.6449L56.4072 54.9207L56.4102 55.1933L56.408 55.4626L56.4006 55.7285L56.3881 55.991L56.3704 56.2499L56.3476 56.5052L56.3197 56.7568L56.2867 57.0048L56.2487 57.2489L56.2057 57.4891L56.1577 57.7253L56.1048 57.9576L56.047 58.1857L55.9843 58.4098L55.9167 58.6295L55.8444 58.8451L55.7672 59.0563L55.6854 59.263L55.5988 59.4653L55.5076 59.6631L55.4118 59.8563L55.3115 60.0449L55.2066 60.2288L55.0973 60.4079L54.9835 60.5822L54.8653 60.7516L54.7428 60.9161L54.6161 61.0757L54.4851 61.2302L54.3499 61.3796L54.2106 61.524L54.0672 61.6632L53.9198 61.7971L53.7684 61.9258L53.6131 62.0492L53.454 62.1672L53.2911 62.2799L53.1244 62.3871L52.9541 62.4889L52.7801 62.5852L52.6026 62.6759L52.4216 62.761L52.2372 62.8406L52.0494 62.9145L51.8583 62.9827L51.664 63.0452L51.4665 63.1019L51.2659 63.1529L51.0623 63.1982L50.8557 63.2376L50.6461 63.2711L50.4338 63.2988L50.2187 63.3206L50.0009 63.3366L49.7805 63.3466L49.5575 63.3506L49.332 63.3487L49.1041 63.3409L48.8739 63.327L48.6415 63.3072L48.4068 63.2813L48.1701 63.2495L47.9312 63.2116L47.6905 63.1677L47.4478 63.1178L47.2033 63.0619L46.9571 62.9999L46.7092 62.9319L46.4597 62.8578L46.2087 62.7777L45.9562 62.6916L45.7025 62.5995L45.4474 62.5014L45.1911 62.3972L44.9337 62.2871L44.6752 62.171L44.4158 62.0489L44.1554 61.9208L43.8943 61.7868L43.6324 61.6469L43.3698 61.5011L43.1067 61.3493L42.843 61.1918L42.5789 61.0283L42.3145 60.8591L42.0498 60.684L41.7849 60.5032L41.5198 60.3167L41.2548 60.1244L40.9897 59.9265L40.7248 59.7229L40.46 59.5137L40.1955 59.2989L39.9314 59.0785L39.6676 58.8527L39.4044 58.6214L39.1417 58.3846L38.8796 58.1425L38.6183 57.8951L38.3577 57.6423L38.098 57.3843L37.8393 57.121L37.5815 56.8527L37.3248 56.5792L37.0693 56.3006L36.815 56.017L36.562 55.7285L36.3103 55.4351L36.0601 55.1368L35.8114 54.8338L35.5642 54.526L35.3187 54.2135L35.0749 53.8964L34.8328 53.5748L34.5926 53.2487L34.3543 52.9181L34.118 52.5832L33.8837 52.244L33.6514 51.9006L33.4214 51.553L33.1936 51.2013L32.968 50.8456L32.7448 50.4859L32.524 50.1223L32.3056 49.755L32.0897 49.3839L31.8765 49.0091L31.6658 48.6308L31.4578 48.2489L31.2526 47.8636L31.0502 47.475L30.8506 47.0831L30.6539 46.688L30.4601 46.2897L30.2693 45.8885L30.0816 45.4843L29.897 45.0772L29.7155 44.6673L29.5372 44.2548L29.3621 43.8396L29.1903 43.4219L29.0218 43.0018L28.8567 42.5793L28.6949 42.1545L28.5366 41.7275L28.3818 41.2985L28.2304 40.8675L28.0826 40.4345L27.9384 39.9997L27.7978 39.5632L27.6609 39.1251L27.5276 38.6854L27.3981 38.2443L27.2723 37.8018L27.1502 37.358L27.032 36.9131L26.9175 36.4671L26.8069 36.0201L26.7002 35.5722L26.5973 35.1235L26.4984 34.6741L26.4034 34.2241L26.3124 33.7736L26.2253 33.3227L26.1422 32.8714L26.0631 32.4199L25.988 31.9683L25.9169 31.5167L25.8499 31.0652L25.7869 30.6138L25.7279 30.1626L25.6731 29.7118L25.6222 29.2615L25.5755 28.8117L25.5328 28.3626L25.4943 27.9142L25.4597 27.4666L25.4293 27.02L25.403 26.5744L25.3807 26.1299L25.3625 25.6866L25.3484 25.2446L25.3383 24.8041L25.3323 24.3651L25.3303 23.9276L25.3324 23.4919L25.3385 23.0579L25.3486 22.6258L25.3628 22.1957L25.3809 21.7677L25.4029 21.3418L25.429 20.9181L25.4589 20.4968L25.4928 20.0779L25.5306 19.6616L25.5723 19.2478L25.6178 18.8368L25.6671 18.4285L25.7203 18.0232L25.7772 17.6208L25.8379 17.2214L25.9023 16.8252L25.9704 16.4322L26.0421 16.0425L26.1175 15.6562L26.1965 15.2734L26.279 14.8941L26.3651 14.5185L26.4546 14.1466L26.5477 13.7785L26.6441 13.4142L26.7439 13.054L26.8471 12.6977L26.9535 12.3456L27.0632 11.9977L27.1761 11.654L27.2922 11.3147L27.4114 10.9798L27.5337 10.6494L27.6591 10.3235L27.7873 10.0023L27.9186 9.6857L28.0527 9.3739L28.1897 9.06694L28.3294 8.76487L28.4719 8.46775L28.617 8.17566L28.7648 7.88866L28.9151 7.6068L29.068 7.33015L29.2233 7.05876L29.381 6.7927L29.5411 6.53202L29.7034 6.27678L29.868 6.02703L30.0347 5.78281L30.2036 5.5442L30.3745 5.31123L30.5473 5.08396L30.7221 4.86243L30.8988 4.64669L31.0772 4.43678L31.2574 4.23276L31.4393 4.03465L31.6227 3.84252L31.8077 3.65638L31.9942 3.47629L32.182 3.30228L32.3712 3.13438L32.5617 2.97264L32.7534 2.81708L32.9462 2.66773L33.1401 2.52463L33.335 2.3878L33.5308 2.25728L33.7274 2.13309L33.9249 2.01525L34.1231 1.90379L34.3219 1.79873L34.5213 1.70009L34.7212 1.60788L34.9215 1.52213L35.1222 1.44286L35.3232 1.37007L35.5245 1.30378L35.7259 1.24401L35.9273 1.19075L36.1288 1.14403L36.3302 1.10385L36.5315 1.0702L36.7325 1.04311L36.9333 1.02257L37.1338 1.00859L37.3338 1.00115L37.5333 1.00026L37.7322 1.00593L37.9306 1.01814L38.1282 1.03688L38.325 1.06216L38.521 1.09396L38.7161 1.13227L38.9101 1.17708L39.1032 1.22837L39.295 1.28613L39.4857 1.35035L39.6751 1.42101L39.8632 1.49809L40.0499 1.58156L40.2351 1.67141L40.4187 1.76761L40.6008 1.87014L40.7811 1.97897L40.9597 2.09408L41.1365 2.21542L41.3115 2.34299L41.4844 2.47673L41.6554 2.61663L41.8243 2.76264L41.9911 2.91473L42.1556 3.07286L42.3179 3.23699L42.4779 3.40709L42.6355 3.58311L42.7906 3.76501L42.9433 3.95274L43.0934 4.14626L43.2408 4.34553L43.3856 4.55049L43.5276 4.7611L43.6668 4.97731L43.8032 5.19906L43.9366 5.42631L44.0671 5.65899L44.1946 5.89706L44.319 6.14045L44.4403 6.38912L44.5585 6.64299L44.6733 6.90202L44.785 7.16615L44.8933 7.43529L44.9982 7.70941L45.0997 7.98843L45.1978 8.27228L45.2924 8.56091L45.3834 8.85424L45.4708 9.1522L45.5546 9.45473L45.6347 9.76176L45.7111 10.0732L45.7838 10.389L45.8526 10.7091L45.9177 11.0334L45.9789 11.3618L46.0361 11.6943L46.0895 12.0307L46.1389 12.3711L46.1843 12.7153L46.2256 13.0632L46.263 13.4148L46.2962 13.77L46.3253 14.1286L46.3503 14.4907L46.3712 14.8562L46.3879 15.2249L46.4003 15.5967L46.4086 15.9717L46.4125 16.3496L46.4123 16.7305L46.4077 17.1142L46.3989 17.5006L46.3858 17.8897L46.3683 18.2813L46.3465 18.6755L46.3203 19.072L46.2898 19.4708L46.255 19.8718L46.2157 20.275L46.1721 20.6802L46.1241 21.0873L46.0717 21.4962L46.0149 21.907L45.9537 22.3193L45.8882 22.7333L45.8182 23.1487L45.7439 23.5655L45.6651 23.9836L45.582 24.4029L45.4946 24.8234L45.4027 25.2448L45.3065 25.6671L45.206 26.0903L45.1011 26.5142L44.9919 26.9388L44.8784 27.3639L44.7606 27.7894L44.6385 28.2153L44.5122 28.6415L44.3816 29.0678L44.2468 29.4942L44.1078 29.9206L43.9646 30.3469L43.8173 30.773L43.6659 31.1988L43.5103 31.6242L43.3507 32.0492L43.187 32.4735L43.0193 32.8972L42.8477 33.3201L42.6721 33.7422L42.4925 34.1634L42.3091 34.5835L42.1219 35.0025L41.9308 35.4203L41.736 35.8368L41.5374 36.2519L41.3351 36.6656L41.1292 37.0776L40.9197 37.4881L40.7066 37.8967L40.49 38.3036L40.2699 38.7085L40.0464 39.1115L39.8195 39.5124L39.5893 39.9111L39.3558 40.3075L39.1191 40.7017L38.8792 41.0934L38.6361 41.4826L38.3901 41.8692L38.141 42.2532L37.8889 42.6345L37.634 43.0129L37.3761 43.3884L37.1156 43.761L36.8523 44.1306L36.5863 44.497L36.3177 44.8602L36.0466 45.2201L35.773 45.5768L35.497 45.93L35.2187 46.2797L34.9381 46.6258L34.6553 46.9684L34.3703 47.3073L34.0832 47.6424L33.7942 47.9736L33.5031 48.3011L33.2103 48.6245L32.9156 48.9439L32.6192 49.2593L32.3211 49.5705L32.0215 49.8776L31.7204 50.1804L31.4178 50.4788L31.1138 50.7729L30.8086 51.0626L30.5022 51.3478L30.1946 51.6285L29.886 51.9046L29.5764 52.1761L29.2659 52.4429L28.9545 52.705L28.6425 52.9623L28.3297 53.2148L28.0164 53.4624L27.7026 53.7052L27.3883 53.943L27.0737 54.1757L26.7588 54.4035L26.4437 54.6262L26.1286 54.8438L25.8134 55.0563L25.4982 55.2636L25.1832 55.4657L24.8685 55.6626L24.554 55.8542L24.2399 56.0405L23.9263 56.2215L23.6132 56.3971L23.3008 56.5674L22.9891 56.7323L22.6782 56.8918L22.3682 57.0458L22.0591 57.1944L21.751 57.3375L21.4441 57.4752L21.1385 57.6073L20.8341 57.7339L20.531 57.855L20.2295 57.9705L19.9294 58.0805L19.631 58.185L19.3343 58.2838L19.0394 58.3771L18.7463 58.4649L18.4552 58.547L18.1661 58.6236L17.8791 58.6946L17.5943 58.76L17.3117 58.8199L17.0315 58.8741L16.7537 58.9229L16.4784 58.966L16.2057 59.0036L15.9356 59.0357L15.6683 59.0622L15.4038 59.0833L15.1421 59.0988L14.8834 59.1088L14.6277 59.1134L14.3752 59.1125L14.1258 59.1062L13.8796 59.0944L13.6368 59.0773L13.3974 59.0548L13.1614 59.0269L12.929 58.9938L12.7002 58.9553L12.475 58.9116L12.2536 58.8626L12.036 58.8084L11.8222 58.7491L11.6124 58.6846L11.4066 58.615L11.2049 58.5403L11.0073 58.4606L10.8139 58.3759L10.6247 58.2862L10.4399 58.1916L10.2594 58.0921L10.0833 57.9878L9.91177 57.8787L9.74474 57.7648L9.58231 57.6463L9.42453 57.523L9.27146 57.3952L9.12315 57.2628L8.97964 57.1259L8.84099 56.9845L8.70725 56.8388L8.57846 56.6886L8.45468 56.5342L8.33595 56.3755L8.2223 56.2126L8.11379 56.0456L8.01046 55.8745L7.91234 55.6994L7.81949 55.5203L7.73193 55.3373L7.6497 55.1505L7.57285 54.9599L7.5014 54.7656L7.43538 54.5676L7.37485 54.3661L7.31981 54.161L7.2703 53.9524L7.22636 53.7405L7.188 53.5253L7.15526 53.3068L7.12816 53.0851L7.10672 52.8603L7.09096 52.6324L7.08091 52.4016L7.07658 52.1678L7.07799 51.9312L7.08517 51.6919L7.09812 51.4498L7.11685 51.2052L7.14139 50.958L7.17174 50.7083L7.20791 50.4563L7.24991 50.2019L7.29775 49.9453L7.35143 49.6865L7.41096 49.4256L7.47634 49.1627L7.54757 48.8978L7.62465 48.6311L7.70759 48.3626L7.79636 48.0925L7.89099 47.8206L7.99145 47.5473L8.09775 47.2724L8.20986 46.9962L8.32779 46.7186L8.45152 46.4399L8.58104 46.1599L8.71634 45.8789L8.85739 45.5969L9.00419 45.314L9.15671 45.0302L9.31493 44.7457L9.47885 44.4605L9.64842 44.1747L9.82363 43.8884L10.0045 43.6016L10.1909 43.3145L10.3828 43.0271L10.5803 42.7395L10.7833 42.4518L10.9918 42.164L11.2057 41.8763L11.425 41.5886L11.6496 41.3012L11.8796 41.014L12.1149 40.7272L12.3554 40.4408L12.6011 40.1549L12.852 39.8696L13.108 39.5849L13.3691 39.3009L13.6352 39.0178L13.9063 38.7355L14.1823 38.4542L14.4632 38.1739L14.7489 37.8947L15.0394 37.6167L15.3347 37.34L15.6346 37.0645L15.9391 36.7905L16.2481 36.5179L16.5617 36.2469L16.8797 35.9774L17.2021 35.7096L17.5287 35.4436L17.8597 35.1794L18.1948 34.9171L18.534 34.6567L18.8773 34.3983L19.2246 34.142L19.5758 33.8878L19.9309 33.6358L20.2897 33.3861L20.6523 33.1387L21.0185 32.8938L21.3882 32.6512L21.7615 32.4112L22.1381 32.1738L22.5181 31.939L22.9013 31.7068L23.2878 31.4774L23.6773 31.2508L24.0699 31.0271L24.4654 30.8063L24.8638 30.5884L25.2649 30.3735L25.6688 30.1617L26.0753 29.953L26.4843 29.7475L26.8957 29.5452L27.3096 29.3461L27.7257 29.1503L28.1439 28.9579L28.5643 28.7688L28.9867 28.5832L29.4111 28.4011L29.8373 28.2225L30.2652 28.0474L30.6948 27.8759L31.1259 27.708L31.5585 27.5438L31.9925 27.3833L32.4279 27.2266L32.8644 27.0736L33.302 26.9243L33.7406 26.779L34.1802 26.6374L34.6206 26.4998L35.0617 26.366L35.5034 26.2362L35.9457 26.1104L36.3885 25.9885L36.8316 25.8706L37.275 25.7568L37.7185 25.647L38.1621 25.5413L38.6057 25.4396L39.0492 25.3421L39.4924 25.2486L39.9354 25.1593L40.3779 25.0741L40.82 24.993L41.2614 24.9161L41.7021 24.8434L42.142 24.7749L42.5811 24.7105L43.0192 24.6503L43.4562 24.5943L43.892 24.5424L44.3266 24.4948L44.7598 24.4514L45.1915 24.4121L45.6217 24.377L46.0502 24.3461L46.477 24.3194L46.902 24.2969L47.325 24.2785L47.7461 24.2642L48.165 24.2542L48.5817 24.2482L48.9961 24.2463L49.4081 24.2486L49.8177 24.255L50.2247 24.2654L50.629 24.2799L51.0306 24.2984L51.4294 24.3209L51.8252 24.3475L52.218 24.378L52.6078 24.4124L52.9943 24.4508L53.3776 24.4931L53.7575 24.5393L54.134 24.5893L54.507 24.6432L54.8764 24.7008L55.242 24.7622L55.604 24.8273L55.962 24.8962L56.3162 24.9686L56.6663 25.0448L57.0124 25.1244L57.3543 25.2077L57.692 25.2945L58.0253 25.3847L58.3543 25.4784L58.6788 25.5754L58.9988 25.6758L59.3142 25.7795L59.6249 25.8865L59.9309 25.9967L60.2321 26.1101L60.5284 26.2266L60.8197 26.3461L61.1061 26.4687L61.3873 26.5943L61.6635 26.7228L61.9344 26.8542L62.2001 26.9884L62.4605 27.1253L62.7155 27.265L62.9651 27.4074L63.2092 27.5523L63.4477 27.6998L63.6806 27.8498L63.908 28.0023L64.1296 28.1571L64.3454 28.3142L64.5555 28.4736L64.7597 28.6352L64.958 28.7989L65.1504 28.9647L65.3369 29.1326L65.5173 29.3023L65.6916 29.474L65.8599 29.6475L66.022 29.8227L66.1779 29.9997L66.3277 30.1783L66.4712 30.3584L66.6084 30.5401L66.7393 30.7232L66.8639 30.9076L66.9821 31.0933L67.094 31.2803L67.1994 31.4685L67.2984 31.6577L67.391 31.848L67.477 32.0392L67.5566 32.2313L67.6296 32.4242L67.6961 32.6179L67.7561 32.8122L67.8095 33.0072L67.8563 33.2027L67.8966 33.3986L67.9303 33.595L67.9573 33.7917L67.9778 33.9886L67.9916 34.1858L67.9988 34.383L67.9994 34.5803L67.9934 34.7775L67.9808 34.9747L67.9616 35.1717L67.9358 35.3684L67.9033 35.5648L67.8643 35.7609L67.8187 35.9565L67.7665 36.1515L67.7077 36.346L67.6424 36.5398L67.5706 36.7329L67.4922 36.9251L67.4074 37.1165L67.3161 37.307L67.2183 37.4964L67.114 37.6847L67.0033 37.8719L66.8863 38.0579L66.7629 38.2426L66.6331 38.4259L66.4971 38.6079L66.3547 38.7883L66.2061 38.9672L66.0513 39.1444L65.8904 39.32L65.7232 39.4938L65.55 39.6658L65.3707 39.836L65.1854 40.0042L64.9941 40.1703L64.7969 40.3345L64.5938 40.4965L64.3848 40.6563L64.17 40.8138L63.9494 40.9691L63.7232 41.1219L63.4913 41.2724L63.2538 41.4204L63.0107 41.5658L62.7622 41.7086L62.5082 41.8488L62.2488 41.9863L61.9841 42.121L61.7141 42.2529L61.4389 42.382L61.1586 42.5081L60.8732 42.6312L60.5827 42.7513L60.2874 42.8684L59.9871 42.9824L59.682 43.0931L59.3721 43.2007L59.0576 43.305L58.7385 43.4061L58.4148 43.5038L58.0866 43.598L57.7541 43.6889L57.4172 43.7763L57.0761 43.8602L56.7308 43.9406L56.3814 44.0174L56.028 44.0905L55.6706 44.16L55.3094 44.2258L54.9444 44.2879L54.5757 44.3463L54.2034 44.4008L53.8276 44.4515L53.4483 44.4984L53.0656 44.5415L52.6796 44.5806L52.2905 44.6158L51.8982 44.647L51.503 44.6743L51.1047 44.6976L50.7037 44.7168L50.2998 44.7321L49.8933 44.7433L49.4842 44.7504L49.0727 44.7534L48.6587 44.7523L48.2424 44.7471L47.8239 44.7378L47.4032 44.7243L46.9805 44.7067L46.5559 44.6849L46.1295 44.659L45.7012 44.6288L45.2713 44.5945L44.8399 44.5561L44.4069 44.5134L43.9726 44.4665L43.537 44.4155L43.1002 44.3602L42.6624 44.3008L42.2235 44.2372L41.7837 44.1694L41.3431 44.0975L40.9018 44.0214L40.4599 43.9411L40.0174 43.8567L39.5746 43.7681L39.1314 43.6754L38.6879 43.5786L38.2444 43.4777L37.8007 43.3727L37.3572 43.2637L36.9138 43.1506L36.4706 43.0335L36.0278 42.9123L35.5854 42.7872L35.1435 42.6582L34.7022 42.5251L34.2617 42.3882L33.822 42.2474L33.3832 42.1027L32.9454 41.9542L32.5087 41.8019L32.0731 41.6458L31.6389 41.486L31.206 41.3225L30.7745 41.1553L30.3447 40.9845L29.9164 40.8101L29.4899 40.6321L29.0652 40.4506L28.6425 40.2656L28.2217 40.0772L27.803 39.8854L27.3865 39.6903L26.9722 39.4918L26.5603 39.2901L26.1509 39.0851L25.7439 38.877L25.3396 38.6658L24.9379 38.4515L24.539 38.2342L24.143 38.0139L23.7498 37.7907L23.3597 37.5646L22.9727 37.3357L22.5889 37.1041L22.2083 36.8698L21.831 36.6328L21.4571 36.3933L21.0867 36.1512L20.7199 35.9067L20.3566 35.6597L19.9971 35.4105L19.6413 35.1589L19.2894 34.9051L18.9414 34.6492L18.5974 34.3912L18.2574 34.1312L17.9215 33.8692L17.5898 33.6053L17.2623 33.3396L16.9391 33.0722L16.6203 32.803L16.3059 32.5323L15.996 32.26L15.6906 31.9862L15.3899 31.711L15.0938 31.4345L14.8024 31.1567L14.5158 30.8777L14.234 30.5976L13.9571 30.3165L13.6851 30.0344L13.418 29.7514L13.156 29.4676L12.8991 29.1831L12.6472 28.8979L12.4006 28.6121L12.1591 28.3258L11.9228 28.039L11.6919 27.7519L11.4662 27.4645L11.2459 27.1769L11.031 26.8892L10.8215 26.6014L10.6175 26.3136L10.419 26.026L10.226 25.7386L10.0386 25.4514L9.85671 25.1646L9.68046 24.8781L9.50984 24.5922L9.34488 24.3069L9.1856 24.0223L9.03202 23.7384L8.88416 23.4553L8.74204 23.1731L8.60567 22.8919L8.47508 22.6118L8.35028 22.3328L8.23128 22.055L8.11808 21.7785L8.01071 21.5034L7.90917 21.2297L7.81346 20.9576L7.7236 20.6871L7.63958 20.4183L7.56141 20.1513L7.4891 19.8861L7.42263 19.6228L7.36202 19.3616L7.30726 19.1024L7.25833 18.8453L7.21525 18.5905L7.178 18.338L7.14657 18.0879L7.12096 17.8403L7.10115 17.5951L7.08713 17.3526L7.07889 17.1127L7.07641 16.8757L7.07967 16.6414L7.08866 16.41L7.10337 16.1816L7.12376 15.9562L7.14981 15.7339L7.18151 15.5148L7.21883 15.299L7.26174 15.0864L7.31022 14.8772L7.36423 14.6715L7.42375 14.4693L7.48875 14.2707L7.5592 14.0757L7.63505 13.8844L7.71629 13.6968L7.80286 13.5132L7.89474 13.3333L7.99188 13.1575L8.09425 12.9856L8.2018 12.8179L8.3145 12.6542L8.4323 12.4947L8.55515 12.3395L8.68301 12.1886L8.81584 12.042L8.95358 11.8998L9.09619 11.7621L9.24362 11.6288L9.39581 11.5001L9.55272 11.3761L9.71429 11.2566L9.88047 11.1419L10.0512 11.0319L10.2264 10.9267L10.4061 10.8263L10.5901 10.7308L10.7785 10.6402L10.9711 10.5546L11.168 10.4739L11.369 10.3983L11.574 10.3278L11.7831 10.2623L11.9961 10.202L12.213 10.1469L12.4337 10.0969L12.6582 10.0522L12.8863 10.0128L13.1181 9.97865L13.3534 9.94981L13.5922 9.92631L13.8344 9.90818L14.0799 9.89544L14.3287 9.88811L14.5807 9.88621L14.8358 9.88976L15.0939 9.89878L15.355 9.91329L15.6191 9.93329L15.8859 9.95881L16.1554 9.98985L16.4277 10.0264L16.7025 10.0686L16.9798 10.1162L17.2596 10.1695L17.5417 10.2283L17.8261 10.2927L18.1127 10.3627L18.4015 10.4382L18.6922 10.5193L18.9849 10.606L19.2795 10.6983L19.5759 10.7961L19.874 10.8995L20.1737 11.0085L20.475 11.123L20.7778 11.2431L21.0819 11.3687L21.3874 11.4998L21.6941 11.6364L22.0019 11.7785L22.3108 11.9261L22.6207 12.0791L22.9314 12.2376L23.243 12.4014L23.5553 12.5707L23.8683 12.7454L24.1818 12.9254L24.4958 13.1107L24.8102 13.3014L25.1249 13.4973L25.4399 13.6984L25.755 13.9047L26.0702 14.1163L26.3853 14.3329L26.7004 14.5547L27.0153 14.7815L27.33 15.0134L27.6443 15.2502L27.9583 15.492L28.2717 15.7388L28.5846 15.9904L28.8968 16.2468L29.2082 16.508L29.5189 16.7739L29.8287 17.0445L30.1375 17.3198L30.4453 17.5996L30.7519 17.884L31.0574 18.1729L31.3616 18.4662L31.6644 18.7638L31.9658 19.0658L32.2657 19.3721L32.5641 19.6825L32.8608 19.9971L33.1558 20.3158L33.449 20.6385L33.7404 20.9652L34.0298 21.2958L34.3172 21.6302L34.6026 21.9684L34.8858 22.3102L35.1669 22.6557L35.4456 23.0048L35.7221 23.3574L35.9961 23.7134L36.2677 24.0727L36.5367 24.4353L36.8032 24.8011L37.067 25.1701L37.3281 25.5421L37.5864 25.9171L37.8419 26.295L38.0945 26.6758L38.3441 27.0593L38.5908 27.4454L38.8344 27.8341L39.0749 28.2254L39.3122 28.6191L39.5463 29.0151L39.7771 29.4134L40.0046 29.8139L40.2287 30.2165L40.4495 30.621L40.6667 31.0276L40.8805 31.4359L41.0906 31.846L41.2972 32.2578L41.5002 32.6711L41.6994 33.086L41.895 33.5022L42.0867 33.9198L42.2747 34.3386L42.4588 34.7585L42.6391 35.1795L42.8154 35.6014L42.9878 36.0242L43.1563 36.4478L43.3207 36.872L43.481 37.2968L43.6373 37.7222L43.7896 38.1479L43.9376 38.5739L44.0816 39.0002L44.2213 39.4266L44.3569 39.853L44.4883 40.2794L44.6154 40.7056L44.7383 41.1315L44.8569 41.5571L44.9712 41.9823L45.0812 42.407L45.1869 42.831L45.2882 43.2543L45.3852 43.6768L45.4779 44.0984L45.5662 44.5191L45.6501 44.9386L45.7296 45.3569L45.8048 45.774L45.8755 46.1897L45.9419 46.6039L46.0039 47.0166L46.0615 47.4276L46.1147 47.8369L46.1635 48.2444L46.208 48.6499L46.248 49.0535L46.2837 49.4549L46.315 49.8541L46.342 50.2511L46.3646 50.6456L46.3829 51.0378L46.3968 51.4273L46.4064 51.8143L46.4118 52.1985L46.4128 52.5799L46.4096 52.9584L46.4022 53.3339L46.3905 53.7063L46.3746 54.0756L46.3545 54.4416L46.3303 54.8044L46.3019 55.1637L46.2694 55.5195L46.2329 55.8718L46.1922 56.2204L46.1476 56.5652L46.0989 56.9063L46.0463 57.2435L45.9898 57.5767L45.9293 57.9059L45.865 58.231L45.7968 58.5518L45.7249 58.8684L45.6492 59.1807L45.5697 59.4885L45.4866 59.7919L45.3999 60.0907L45.3095 60.3849L45.2156 60.6744L45.1182 60.9592L45.0173 61.2391L44.913 61.5141L44.8053 61.7842L44.6943 62.0492L44.58 62.3092L44.4625 62.5641L44.3417 62.8137L44.2179 63.0581L44.091 63.2971L43.961 63.5308L43.8281 63.7591L43.6923 63.9818L43.5536 64.1991L43.4121 64.4107L43.2678 64.6168L43.1209 64.8171L42.9713 65.0117L42.8191 65.2005L42.6644 65.3835L42.5073 65.5606L42.3478 65.7318L42.1859 65.897L42.0217 66.0563L41.8554 66.2095L41.6869 66.3566L41.5163 66.4976L41.3437 66.6325L41.1691 66.7612L40.9926 66.8837L40.8144 67L40.6343 67.11L40.4526 67.2137L40.2692 67.3111L40.0843 67.4021L39.8979 67.4868L39.7101 67.565L39.5209 67.6369L39.3305 67.7023L39.1388 67.7613L38.946 67.8137L38.7521 67.8598L38.5572 67.8993L38.3614 67.9323L38.1647 67.9588L37.9672 67.9787L37.769 67.9921L37.5702 67.999L37.3708 67.9993L37.1708 67.9931L36.9705 67.9803L36.7698 67.961L36.5687 67.9351L36.3675 67.9027L36.1661 67.8637L35.9647 67.8182L35.7632 67.7662L35.5618 67.7076L35.3605 67.6425L35.1595 67.571L34.9587 67.4929L34.7583 67.4083L34.5583 67.3173L34.3588 67.2199L34.1599 67.116L33.9616 67.0057L33.764 66.8891L33.5671 66.766L33.3712 66.6367L33.1761 66.501L32.9821 66.3591L32.789 66.2109L32.5971 66.0565L32.4064 65.8959L32.217 65.7291L32.0289 65.5562L31.8421 65.3773L31.6569 65.1923L31.4731 65.0012L31.291 64.8042L31.1105 64.6013L30.9317 64.3925L30.7547 64.1778L30.5796 63.9574L30.4063 63.7311L30.2351 63.4992L30.0658 63.2617L29.8987 63.0185L29.7337 62.7698L29.571 62.5155L29.4105 62.2558L29.2523 61.9908L29.0966 61.7204L28.9433 61.4447L28.7925 61.1638L28.6442 60.8777L28.4986 60.5866L28.3556 60.2904L28.2154 59.9892L28.0779 59.6832L27.9432 59.3723L27.8115 59.0566L27.6826 58.7362L27.5567 58.4112L27.4339 58.0816L27.3141 57.7475L27.1974 57.409L27.0839 57.0661L26.9736 56.719L26.8665 56.3676L26.7628 56.0122L26.6623 55.6527L26.5653 55.2892L26.4716 54.9218L26.3814 54.5506L26.2947 54.1756L26.2115 53.797L26.1319 53.4148L26.0558 53.0292L25.9834 52.6401L25.9146 52.2477L25.8495 51.8521L25.7882 51.4533L25.7305 51.0515L25.6767 50.6466L25.6266 50.2389L25.5804 49.8284L25.538 49.4151L25.4995 48.9992L25.4649 48.5808L25.4342 48.16L25.4075 47.7368L25.3847 47.3113L25.3658 46.8836L25.351 46.4539L25.3401 46.0221L25.3333 45.5885L25.3304 45.1531L25.3316 44.716L25.3369 44.2772L25.3462 43.8369L25.3596 43.3952L25.377 42.9522L25.3985 42.5079L25.4241 42.0625L25.4538 41.6161L25.4875 41.1687L25.5254 40.7204L25.5673 40.2714L25.6133 39.8217L25.6633 39.3715L25.7175 38.9208L25.7756 38.4697L25.8379 38.0183L25.9042 37.5668L25.9745 37.1152L26.0489 36.6636L26.1272 36.2121L26.2096 35.7608L26.2959 35.3098L26.3863 34.8592L26.4805 34.4091L26.5787 33.9596L26.6808 33.5107L26.7868 33.0627L26.8967 32.6155L27.0105 32.1693L27.128 31.7242L27.2494 31.2802L27.3745 30.8374L27.5033 30.3961L27.6359 29.9561L27.7722 29.5177L27.9121 29.0808L28.0556 28.6458L28.2028 28.2125L28.3534 27.7811L28.5076 27.3517L28.6653 26.9243L28.8264 26.4991L28.9909 26.0762L29.1588 25.6556L29.33 25.2374L29.5045 24.8218L29.6822 24.4087L29.8631 23.9984L30.0472 23.5908L30.2343 23.186L30.4245 22.7842L30.6177 22.3854L30.8139 21.9897L31.013 21.5972L31.2149 21.208L31.4196 20.8221L31.6271 20.4396L31.8372 20.0606L32.05 19.6851L32.2654 19.3134L32.4833 18.9453L32.7037 18.581L32.9264 18.2206L33.1516 17.8642L33.379 17.5117L33.6087 17.1634L33.8405 16.8192L34.0744 16.4792L34.3104 16.1434L34.5483 15.8121L34.7882 15.4851L35.0299 15.1627L35.2734 14.8447L35.5186 14.5314L35.7654 14.2228L36.0139 13.9188L36.2638 13.6197L36.5152 13.3253L36.768 13.0359L37.0221 12.7514L37.2774 12.4719L37.5339 12.1975L37.7914 11.9281L38.05 11.6639L38.3095 11.405L38.5699 11.1512L38.8311 10.9028L39.0931 10.6597L39.3556 10.4219L39.6188 10.1896L39.8825 9.96274L40.1465 9.74138L40.411 9.52556L40.6757 9.31531L40.9406 9.11068L41.2056 8.91168L41.4707 8.71836L41.7358 8.53075L42.0007 8.34887L42.2655 8.17275L42.53 8.00243L42.7941 7.83792L43.0579 7.67925L43.3211 7.52645L43.5838 7.37953L43.8458 7.23851L44.1071 7.10341L44.3676 6.97426L44.6272 6.85106L44.8859 6.73383L45.1435 6.62258L45.4 6.51732L45.6553 6.41807L45.9093 6.32483L46.162 6.23761L46.4133 6.15641L46.6631 6.08124L46.9113 6.01211L47.1578 5.94901L47.4026 5.89194L47.6456 5.8409L47.8868 5.79589L48.126 5.75691L48.3631 5.72395L48.5982 5.69699L48.831 5.67605L49.0617 5.66109L49.29 5.65212L49.5159 5.64912L49.7393 5.65208L49.9602 5.66097L50.1785 5.67579L50.3941 5.69652L50.607 5.72313L50.8171 5.75561L51.0242 5.79393L51.2284 5.83807L51.4296 5.88801L51.6276 5.94371L51.8226 6.00515L52.0143 6.07231L52.2027 6.14515L52.3877 6.22364L52.5694 6.30774L52.7475 6.39743L52.9221 6.49267L53.0931 6.59342L53.2605 6.69964L53.4241 6.8113L53.5839 6.92836L53.7399 7.05076L53.892 7.17848L54.0402 7.31147L54.1843 7.44967L54.3244 7.59305L54.4603 7.74156L54.5921 7.89515L54.7197 8.05377L54.8429 8.21737L54.9619 8.38589L55.0765 8.55929L55.1867 8.73752L55.2924 8.9205L55.3936 9.1082L55.4902 9.30055L55.5823 9.49749L55.6697 9.69898L55.7524 9.90493L55.8304 10.1153L55.9037 10.33L55.9721 10.549L56.0357 10.7723L56.0945 10.9997L56.1483 11.2312L56.1972 11.4667L56.2411 11.7062L56.28 11.9496L56.3139 12.1968L56.3428 12.4477L56.3665 12.7024L56.3852 12.9606L56.3987 13.2224L56.407 13.4877L56.4102 13.7564L56.4081 14.0284L56.4009 14.3036L56.3884 14.582L56.3706 14.8635L56.3476 15.148L56.3193 15.4355L56.2857 15.7258L56.2467 16.019L56.2025 16.3148L56.1529 16.6133L56.098 16.9143L56.0377 17.2178L55.9721 17.5236L55.9011 17.8318L55.8248 18.1422L55.7431 18.4548L55.6561 18.7694L55.5637 19.086L55.466 19.4045L55.3629 19.7248L55.2544 20.0469L55.1407 20.3706L55.0216 20.6958L54.8972 21.0226L54.7674 21.3507L54.6324 21.6802L54.4922 22.0109L54.3466 22.3427L54.1958 22.6756L54.0398 23.0095L53.8786 23.3442L53.7121 23.6798L53.5406 24.0161L53.3638 24.3531L53.182 24.6906L52.995 25.0285L52.803 25.3669L52.606 25.7055L52.4039 26.0444L52.1969 26.3834L51.985 26.7224L51.7681 27.0614L51.5463 27.4003L51.3197 27.739L51.0884 28.0774L50.8522 28.4155L50.6113 28.7531L50.3658 29.0901L50.1156 29.4266L49.8608 29.7623L49.6015 30.0973L49.3377 30.4314L49.0694 30.7646L48.7967 31.0968L48.5197 31.4279L48.2384 31.7578L47.9528 32.0864L47.663 32.4138L47.3691 32.7397L47.0711 33.0641L46.769 33.387L46.463 33.7082L46.1531 34.0277L45.8393 34.3455L45.5217 34.6614L45.2004 34.9753L44.8755 35.2873L44.5469 35.5972L44.2148 35.9049L43.8792 36.2104L43.5403 36.5136L43.198 36.8145L42.8524 37.113L42.5036 37.4089L42.1517 37.7024L41.7968 37.9931L41.4388 38.2813L41.078 38.5666L40.7143 38.8492L40.3479 39.1288L39.9788 39.4056L39.6071 39.6793L39.2329 39.95L38.8562 40.2176L38.4772 40.482L38.0958 40.7432L37.7123 41.0011L37.3266 41.2557L36.9389 41.5069L36.5493 41.7546L36.1577 41.9989L35.7644 42.2396L35.3693 42.4767L34.9727 42.7102L34.5745 42.94L34.1748 43.1661L33.7738 43.3884L33.3715 43.6069L32.968 43.8215L32.5634 44.0322L32.1578 44.239L31.7512 44.4418L31.3438 44.6406L30.9357 44.8353L30.5269 45.026L30.1176 45.2125L29.7077 45.3948L29.2975 45.573L28.887 45.747L28.4763 45.9167L28.0655 46.0821L27.6546 46.2432L27.2438 46.4L26.8332 46.5524L26.4229 46.7005L26.0128 46.8442L25.6033 46.9834L25.1942 47.1182L24.7858 47.2486L24.3781 47.3745L23.9712 47.4959L23.5652 47.6127L23.1602 47.7251L22.7563 47.8329L22.3536 47.9362L21.9521 48.035L21.552 48.1292L21.1533 48.2188L20.7562 48.3039L20.3607 48.3844L19.967 48.4603L19.575 48.5317L19.185 48.5984L18.797 48.6606L18.411 48.7182L18.0272 48.7713L17.6457 48.8198L17.2666 48.8637L16.8899 48.9031L16.5157 48.9379L16.1441 48.9682L15.7752 48.9939L15.4092 49.0152L15.0459 49.032L14.6857 49.0442L14.3285 49.0521L13.9744 49.0554L13.6236 49.0543L13.276 49.0489L12.9318 49.039L12.5911 49.0248L12.2539 49.0062L11.9203 48.9833L11.5905 48.9561L11.2644 48.9246L10.9422 48.8889L10.6238 48.849L10.3096 48.8048L9.99935 48.7566L9.69329 48.7042L9.39148 48.6477L9.09397 48.5872L8.80083 48.5227L8.51214 48.4542L8.22798 48.3817L7.9484 48.3054L7.67347 48.2252L7.40327 48.1411L7.13786 48.0533L6.8773 47.9618L6.62166 47.8665L6.37101 47.7676L6.12539 47.6652L5.88488 47.5591L5.64953 47.4495L5.41941 47.3365L5.19457 47.2201L4.97507 47.1003L4.76095 46.9772L4.55228 46.8508L4.34912 46.7213L4.1515 46.5886L3.95949 46.4528L3.77312 46.3139L3.59246 46.1721L3.41753 46.0273L3.2484 45.8797L3.08511 45.7292L2.92769 45.576L2.77619 45.4202L2.63065 45.2616L2.49111 45.1005L2.35761 44.9369L2.23018 44.7709L2.10886 44.6024L1.99368 44.4317L1.88467 44.2587L1.78187 44.0835L1.6853 43.9061L1.59499 43.7267L1.51098 43.5453L1.43328 43.362L1.36191 43.1768L1.2969 42.9898L1.23828 42.8011L1.18606 42.6107L1.14025 42.4188L1.10089 42.2253L1.06797 42.0304L1.04152 41.834L1.02155 41.6364L1.00806 41.4376L1.00107 41.2375L1.00059 41.0364L1.00662 40.8342L1.01917 40.6311L1.03823 40.4271L1.06383 40.2222L1.09594 40.0167L1.13458 39.8104L1.17973 39.6036L1.23141 39.3962L1.28959 39.1884L1.35428 38.9802L1.42547 38.7716L1.50314 38.5629L1.58729 38.354L1.6779 38.1449L1.77496 37.9359L1.87845 37.7269L1.98836 37.518L2.10466 37.3093L2.22734 37.1009L2.35638 36.8928L2.49175 36.6851L2.63342 36.4779L2.78139 36.2712L2.9356 36.0652L3.09604 35.8598L3.26269 35.6552L3.43549 35.4515L3.61443 35.2486L3.79947 35.0467L3.99057 34.8458L4.1877 34.646L4.39081 34.4474L4.59987 34.2501L4.81484 34.054L5.03567 33.8593L5.26232 33.6661L5.49475 33.4743L5.73291 33.2841L5.97674 33.0956L6.22621 32.9087L6.48126 32.7237L6.74184 32.5404L7.0079 32.359L7.27937 32.1795L7.55622 32.0021L7.83838 31.8267L8.12579 31.6535L8.4184 31.4824L8.71614 31.3136L9.01895 31.1471L9.32677 30.9829L9.63954 30.8212L9.95719 30.6619L10.2797 30.5052L10.6069 30.351L10.9388 30.1994L11.2753 30.0506L11.6163 29.9044L11.9618 29.7611L12.3118 29.6206L12.666 29.4829L13.0245 29.3482L13.3872 29.2165L13.7539 29.0878L14.1247 28.9621L14.4994 28.8396L14.878 28.7202L15.2604 28.604L15.6465 28.491L16.0362 28.3814L16.4295 28.275L16.8262 28.172L17.2263 28.0723L17.6296 27.9761L18.0362 27.8834L18.4459 27.7941L18.8587 27.7084L19.2743 27.6262L19.6929 27.5476L20.1142 27.4727L20.5381 27.4014L20.9647 27.3337L21.3938 27.2698L21.8253 27.2095L22.259 27.153L22.695 27.1003L23.1332 27.0514L23.5734 27.0063L24.0155 26.965L24.4595 26.9276L24.9052 26.894L25.3526 26.8643L25.8015 26.8385L26.252 26.8166L26.7038 26.7987L27.1569 26.7846L27.6111 26.7745L28.0665 26.7684L28.5228 26.7662L28.98 26.768L29.4381 26.7737L29.8968 26.7834L30.3561 26.7971L30.816 26.8148L31.2762 26.8364L31.7367 26.862L32.1975 26.8915L32.6584 26.9251L33.1192 26.9626L33.5801 27.004L34.0407 27.0494L34.501 27.0988L34.961 27.152L35.4205 27.2092L35.8794 27.2703L36.3377 27.3353L36.7952 27.4041L37.2518 27.4768L37.7075 27.5534L38.1622 27.6338L38.6156 27.718L39.0679 27.806L39.5188 27.8977L39.9683 27.9932L40.4162 28.0924L40.8625 28.1953L41.3072 28.3018L41.75 28.412L42.1909 28.5258L42.6298 28.6432L43.0666 28.7642L43.5012 28.8886L43.9336 29.0166L44.3636 29.1479L44.7912 29.2827L45.2163 29.4209L45.6387 29.5624L46.0584 29.7072L46.4753 29.8553L46.8893 30.0066L47.3004 30.1611L47.7084 30.3187L48.1132 30.4794L48.5149 30.6432L48.9132 30.8099L49.3081 30.9797L49.6996 31.1523L50.0876 31.3278L50.4719 31.5061L50.8525 31.6871L51.2293 31.8709L51.6022 32.0573L51.9713 32.2463L52.3363 32.4379L52.6972 32.632L53.054 32.8285L53.4066 33.0273L53.7548 33.2286L54.0987 33.432L54.4382 33.6377L54.7731 33.8456L55.1035 34.0555L55.4292 34.2675L55.7503 34.4814L56.0666 34.6972L56.378 34.9149L56.6846 35.1343L56.9862 35.3555L57.2829 35.5783L57.5744 35.8027L57.8609 36.0285L58.1422 36.2559L58.4182 36.4846L58.689 36.7147L58.9545 36.946L59.2146 37.1784L59.4692 37.412L59.7184 37.6466L59.9621 37.8822L60.2002 38.1186L60.4326 38.3559L60.6595 38.594L60.8806 38.8327L61.0961 39.072L61.3057 39.3119L61.5096 39.5522L61.7076 39.7929L61.8998 40.034L62.086 40.2753L62.2663 40.5167L62.4406 40.7583L62.609 40.9998L62.7713 41.2413L62.9276 41.4827L63.0778 41.7239L63.2219 41.9648L63.3599 42.2054L63.4918 42.4455L63.6175 42.6851L63.7371 42.9241L63.8505 43.1625L63.9576 43.4002L64.0586 43.637L64.1533 43.873L64.2419 44.108L64.3241 44.342L64.4002 44.5749L64.4699 44.8066L64.5334 45.0371L64.5907 45.2663L64.6417 45.494L64.6865 45.7203L64.725 45.945L64.7572 46.1681L64.7832 46.3895L64.8029 46.6091L64.8164 46.8269L64.8237 47.0428L64.8248 47.2567L64.8197 47.4686L64.8084 47.6783L64.7909 47.8858L64.7673 48.0911L64.7375 48.2941L64.7016 48.4946L64.6596 48.6927L64.6115 48.8882L64.5574 49.0811L64.4972 49.2713L64.431 49.4589L64.3589 49.6435L64.2808 49.8254L64.1968 50.0043L64.1069 50.1802L64.0111 50.353L63.9095 50.5227L63.8022 50.6892L63.6891 50.8525L63.5702 51.0125L63.4458 51.1691L63.3156 51.3222L63.1799 51.4719L63.0387 51.618L62.8919 51.7606L62.7397 51.8995L62.5821 52.0347L62.4191 52.1661L62.2508 52.2937L62.0772 52.4174L61.8984 52.5373L61.7145 52.6531L61.5254 52.765L61.3313 52.8727L61.1322 52.9764L60.9282 53.0759L60.7193 53.1712L60.5056 53.2623L60.2871 53.349L60.0639 53.4315L59.836 53.5095L59.6036 53.5832L59.3667 53.6523L59.1253 53.717L58.8795 53.7772L58.6295 53.8328L58.3752 53.8838L58.1167 53.9302L57.854 53.9719L57.5874 54.0089L57.3168 54.0412L57.0423 54.0688L56.7639 54.0916L56.4819 54.1095L56.1961 54.1227L55.9067 54.1309L55.6139 54.1343L55.3175 54.1328L55.0178 54.1264L54.7148 54.1151L54.4086 54.0987L54.0992 54.0775L53.7868 54.0512L53.4714 54.0199L53.1532 53.9836L52.8321 53.9423L52.5082 53.896L52.1818 53.8446L51.8527 53.7882L51.5212 53.7267L51.1872 53.6601L50.851 53.5885L50.5125 53.5119L50.1718 53.4301L49.8291 53.3433L49.4844 53.2514L49.1379 53.1545L48.7895 53.0525L48.4394 52.9454L48.0877 52.8333L47.7344 52.7162L47.3796 52.5941L47.0235 52.4669L46.6661 52.3347L46.3075 52.1976L45.9478 52.0554L45.5871 51.9083L45.2254 51.7563L44.8629 51.5993L44.4996 51.4375L44.1357 51.2708L43.7711 51.0992L43.4061 50.9228L43.0407 50.7415L42.6749 50.5555L42.3089 50.3648L41.9427 50.1693L41.5765 49.9691L41.2103 49.7643L40.8443 49.5549L40.4784 49.3408L40.1128 49.1222L39.7476 48.8991L39.3828 48.6715L39.0186 48.4395L38.655 48.203L38.2921 47.9622L37.93 47.7171L37.5688 47.4677L37.2085 47.2141L36.8493 46.9563L36.4912 46.6944L36.1344 46.4284L35.7788 46.1584L35.4246 45.8843L35.0718 45.6064L34.7206 45.3245L34.371 45.0389L34.0231 44.7495L33.6769 44.4564L33.3326 44.1596L32.9902 43.8592L32.6499 43.5553L32.3116 43.2479L31.9754 42.9371L31.6415 42.623L31.3099 42.3056L30.9806 41.9849L30.6538 41.6611L30.3295 41.3343L30.0078 41.0044L29.6887 40.6715L29.3724 40.3358L29.0589 39.9972L28.7482 39.6559L28.4404 39.312L28.1356 38.9654L27.8339 38.6163L27.5353 38.2648L27.2399 37.9109L26.9477 37.5547L26.6588 37.1963L26.3733 36.8357L26.0912 36.4731L25.8125 36.1085L25.5374 35.7419L25.2659 35.3736L24.998 35.0035L24.7339 34.6317L24.4734 34.2583L24.2168 33.8835L23.964 33.5072L23.7151 33.1296L23.4702 32.7507L23.2292 32.3707L22.9923 31.9895L22.7595 31.6074L22.5307 31.2244L22.3062 30.8405L22.0858 30.4559L21.8697 30.0706L21.6579 29.6848L21.4504 29.2985L21.2473 28.9118L21.0485 28.5248L20.8542 28.1376L20.6643 27.7502L20.4789 27.3628L20.2981 26.9755L20.1217 26.5883L19.95 26.2013L19.7828 25.8147L19.6203 25.4284L19.4624 25.0427L19.3092 24.6575L19.1607 24.273L19.0168 23.8893L18.8778 23.5064L18.7434 23.1245L18.6138 22.7436L18.489 22.3638L18.369 21.9852L18.2537 21.608L18.1433 21.2321L18.0377 20.8577L17.9369 20.4849L17.8409 20.1137L17.7498 19.7443L17.6635 19.3767L17.5821 19.011L17.5055 18.6473L17.4337 18.2858L17.3668 17.9264L17.3047 17.5692L17.2475 17.2145L17.1951 16.8621L17.1475 16.5123L17.1047 16.1651L17.0667 15.8206L17.0336 15.4789L17.0052 15.14L16.9816 14.8041L16.9627 14.4711L16.9486 14.1413L16.9392 13.8147L16.9345 13.4914V13.1714L16.9392 12.8548L16.9485 12.5417L16.9624 12.2323L16.981 11.9264L17.0041 11.6243L17.0317 11.3261L17.0639 11.0317L17.1006 10.7412L17.1417 10.4548L17.1872 10.1725L17.2372 9.89443L17.2915 9.62056L17.3501 9.35101L17.413 9.08584L17.4802 8.82513L17.5516 8.56894L17.6272 8.31734L17.7069 8.07039L17.7908 7.82816L17.8786 7.5907L17.9705 7.35809L18.0664 7.13038L18.1662 6.90763L18.2698 6.68991L18.3773 6.47726L18.4886 6.26975L18.6036 6.06743L18.7223 5.87036L18.8446 5.67858L18.9706 5.49216L19.1 5.31114L19.2329 5.13557L19.3692 4.96551L19.5089 4.80099L19.6519 4.64207L19.7982 4.48879L19.9477 4.34119L20.1003 4.19931L20.2559 4.06321L20.4146 3.93291L20.5763 3.80846L20.7408 3.68989L20.9082 3.57724L21.0784 3.47055L21.2512 3.36984L21.4267 3.27515L21.6048 3.18651L21.7854 3.10395L21.9685 3.0275L22.1539 2.95719L22.3416 2.89303L22.5316 2.83506L22.7238 2.78329L22.9181 2.73775L23.1144 2.69845L23.3128 2.66543L23.513 2.63868L23.715 2.61823L23.9188 2.6041L24.1244 2.59628L24.3315 2.5948L24.5402 2.59967L24.7503 2.61089L24.9619 2.62847L25.1748 2.65241L25.389 2.68273L25.6044 2.71941L25.8209 2.76247L26.0384 2.8119L26.2569 2.8677L26.4763 2.92987L26.6965 2.9984L26.9175 3.07328L27.1391 3.15452L27.3614 3.24209L27.5842 3.33599L27.8074 3.4362L28.031 3.54272L28.2549 3.65553L28.4791 3.77461L28.7034 3.89994L28.9278 4.03151L29.1523 4.16929L29.3766 4.31326L29.6009 4.4634L29.8249 4.61968L30.0486 4.78207L30.272 4.95056L30.495 5.1251L30.7175 5.30568L30.9394 5.49224L31.1607 5.68477L31.3812 5.88324L31.601 6.08759L31.8199 6.29779L32.0379 6.51381L32.255 6.73561L32.4709 6.96314L32.6857 7.19636L32.8993 7.43522L33.1117 7.67969L33.3227 7.92971L33.5323 8.18523L33.7405 8.44621L33.9471 8.7126L34.1521 8.98434L34.3555 9.26138L34.5571 9.54367L34.7569 9.83114L34.9549 10.1238L35.1509 10.4214L35.345 10.7241L35.537 11.0318L35.7269 11.3443L35.9147 11.6617L36.1002 11.9839L36.2835 12.3107L36.4644 12.6422L36.6429 12.9783L36.819 13.3188L36.9926 13.6638L37.1636 14.0132L37.332 14.3668L37.4977 14.7247L37.6607 15.0867L37.821 15.4527L37.9784 15.8228L38.133 16.1968L38.2846 16.5746L38.4333 16.9562L38.579 17.3415L38.7216 17.7304L38.8611 18.1228L38.9975 18.5186L39.1307 18.9178L39.2607 19.3203L39.3874 19.726L39.5108 20.1348L39.6309 20.5466L39.7476 20.9613L39.8608 21.3789L39.9706 21.7993L40.077 22.2224L40.1798 22.648L40.279 23.0761L40.3747 23.5067L40.4668 23.9395L40.5552 24.3746L40.64 24.8119L40.721 25.2511L40.7984 25.6923L40.872 26.1354L40.9418 26.5803L41.0079 27.0268L41.0702 27.4749L41.1286 27.9245L41.1832 28.3755L41.2339 28.8277L41.2808 29.2812L41.3237 29.7358L41.3628 30.1913L41.3979 30.6478L41.4291 31.1051L41.4564 31.5631L41.4797 32.0218L41.4991 32.4809L41.5145 32.9405L41.526 33.4004L41.5335 33.8606L41.537 34.3209L41.5366 34.7812L41.5322 35.2414L41.5238 35.7015L41.5115 36.1614L41.4952 36.6209L41.4749 37.08L41.4507 37.5385L41.4225 37.9963L41.3904 38.4535L41.3544 38.9098L41.3145 39.3651L41.2707 39.8194L41.223 40.2726L41.1714 40.7246L41.116 41.1753L41.0567 41.6246L40.9936 42.0723L40.9267 42.5185L40.856 42.9629L40.7815 43.4056L40.7034 43.8464L40.6215 44.2852L40.5359 44.722L40.4466 45.1566L40.3538 45.589L40.2573 46.019L40.1573 46.4466L40.0537 46.8716L39.9466 47.2941L39.836 47.7139L39.7219 48.1308L39.6045 48.5449L39.4837 48.9561L39.3596 49.3642L39.2321 49.7692L39.1014 50.1709L38.9675 50.5694L38.8304 50.9645L38.6902 51.3561L38.5469 51.7442L38.4005 52.1287L38.2512 52.5094L38.0989 52.8864L37.9437 53.2595L37.7856 53.6287L37.6248 53.9939L37.4611 54.355L37.2948 54.7119L37.1258 55.0646L36.9542 55.413L36.7801 55.757L36.6035 56.0966L36.4244 56.4316L36.243 56.7621L36.0592 57.0879L35.8732 57.409L35.6849 57.7253L35.4945 58.0368L35.3021 58.3433L35.1075 58.6449L34.9111 58.9415L34.7127 59.233L34.5125 59.5193L34.3105 59.8004L34.1067 60.0763L33.9014 60.3468L33.6944 60.612L33.4859 60.8718L33.276 61.1261L33.0647 61.3749L32.852 61.6181L32.6381 61.8557L32.4231 62.0877L32.2069 62.314L31.9896 62.5345L31.7714 62.7492L31.5523 62.9581L31.3323 63.1612L31.1116 63.3583L30.8902 63.5495L30.6681 63.7348L30.4456 63.914L30.2225 64.0872L29.999 64.2543L29.7752 64.4154L29.5511 64.5703L29.3268 64.7191L29.1024 64.8617L28.878 64.9981L28.6536 65.1283L28.4293 65.2522L28.2052 65.3699L27.9813 65.4813L27.7578 65.5864L27.5346 65.6852L27.312 65.7777L27.0898 65.8639L26.8683 65.9437L26.6475 66.0172L26.4275 66.0843L26.2083 66.1451L25.99 66.1995L25.7727 66.2475L25.5564 66.2891L25.3413 66.3244L25.1274 66.3533L24.9148 66.3758L24.7035 66.392L24.4937 66.4018L24.2854 66.4053L24.0786 66.4024L23.8734 66.3931L23.67 66.3776L23.4684 66.3558L23.2686 66.3276L23.0707 66.2932L22.8748 66.2525L22.681 66.2056L22.4893 66.1524L22.2997 66.0931L22.1125 66.0276L21.9276 65.9559L21.7451 65.8781L21.565 65.7942L21.3875 65.7042L21.2126 65.6082L21.0403 65.5061L20.8708 65.3981L20.704 65.2841L20.5401 65.1642L20.3791 65.0385L20.2211 64.9069L20.0661 64.7695L19.9142 64.6264L19.7655 64.4775L19.6199 64.323L19.4776 64.1628L19.3387 63.997L19.2031 63.8258L19.071 63.649L18.9423 63.4667L18.8172 63.2791L18.6956 63.0862L18.5778 62.8879L18.4636 62.6845L18.3531 62.4758L18.2465 62.262L18.1437 62.0432L18.0448 61.8193L17.9498 61.5905L17.8588 61.3568L17.7718 61.1183L17.6889 60.875L17.6101 60.627L17.5354 60.3744L17.4649 60.1172L17.3987 59.8555L17.3367 59.5893L17.279 59.3188L17.2257 59.044L17.1767 58.765L17.1322 58.4818L17.092 58.1945L17.0564 57.9031L17.0252 57.6079L16.9985 57.3087L16.9765 57.0058L16.9589 56.6992L16.946 56.3889L16.9377 56.075L16.9341 55.7577L16.9352 55.4369L16.9409 55.1129L16.9513 54.7855L16.9665 54.455L16.9864 54.1214L17.0111 53.7849L17.0405 53.4453L17.0748 53.103L17.1138 52.7579L17.1576 52.4101L17.2063 52.0597L17.2598 51.7068L17.3181 51.3515L17.3812 50.9939L17.4492 50.634L17.5221 50.2719L17.5997 49.9078L17.6823 49.5417L17.7696 49.1737L17.8618 48.8039L17.9588 48.4323L18.0607 48.0591L18.1674 47.6844L18.2789 47.3082L18.3952 46.9306L18.5163 46.5518L18.6422 46.1718L18.7728 45.7906L18.9082 45.4085L19.0484 45.0254L19.1932 44.6415L19.3428 44.2569L19.4971 43.8716L19.656 43.4857L19.8196 43.0993L19.9877 42.7126L20.1605 42.3256L20.3378 41.9383L20.5197 41.551L20.7061 41.1636L20.897 40.7763L21.0923 40.3891L21.292 40.0021L21.4961 39.6155L21.7046 39.2293L21.9173 38.8436L22.1344 38.4585L22.3557 38.074L22.5812 37.6903L22.8108 37.3075L23.0446 36.9256L23.2824 36.5447L23.5242 36.1649L23.77 35.7863L24.0198 35.409L24.2735 35.033L24.5309 34.6584L24.7922 34.2854L25.0572 33.914L25.3259 33.5443L25.5982 33.1764L25.8741 32.8102L26.1535 32.4461L26.4364 32.0839L26.7227 31.7238L27.0123 31.3658L27.3052 31.0101L27.6013 30.6568L27.9006 30.3058L28.203 29.9573L28.5085 29.6113L28.8169 29.2679L29.1282 28.9272L29.4424 28.5893L29.7593 28.2542L30.079 27.922L30.4013 27.5927L30.7262 27.2665L31.0535 26.9434L31.3833 26.6235L31.7154 26.3068L32.0499 25.9934L32.3865 25.6834L32.7253 25.3767L33.0661 25.0736L33.4089 24.774L33.7536 24.4781L34.1002 24.1858L34.4485 23.8972L34.7984 23.6124L35.15 23.3314L35.5031 23.0543L35.8576 22.7812L36.2135 22.512L36.5706 22.2469L36.929 21.9859L37.2884 21.729L37.6489 21.4764L38.0103 21.2279L38.3726 20.9838L38.7356 20.7439L39.0994 20.5085L39.4637 20.2774L39.8286 20.0508L40.1939 19.8287L40.5596 19.6111L40.9255 19.3981L41.2916 19.1896L41.6578 18.9858L42.024 18.7867L42.3902 18.5923L42.7561 18.4026L43.1218 18.2176L43.4872 18.0375L43.8521 17.8621L44.2165 17.6916L44.5804 17.526L44.9435 17.3652L45.3058 17.2093L45.6673 17.0584L46.0278 16.9124L46.3873 16.7714L46.7456 16.6353L47.1027 16.5043L47.4585 16.3782L47.813 16.2572L48.1659 16.1412L48.5173 16.0302L48.867 15.9243L49.215 15.8234L49.5612 15.7276L49.9054 15.6368L50.2476 15.5511L50.5878 15.4705L50.9258 15.395L51.2616 15.3245L51.595 15.259L51.926 15.1987L52.2545 15.1434L52.5804 15.0931L52.9036 15.0479L53.2241 15.0077L53.5417 14.9725L53.8565 14.9424L54.1682 14.9172L54.4769 14.897L54.7824 14.8818L55.0846 14.8716L55.3836 14.8662L55.6792 14.8658L55.9713 14.8703L56.2599 14.8797L56.5448 14.8939L56.8261 14.9129L57.1036 14.9367L57.3772 14.9654L57.647 14.9987L57.9127 15.0368L58.1744 15.0795L58.432 15.1269L58.6854 15.179L58.9345 15.2356L59.1793 15.2968L59.4197 15.3625L59.6556 15.4326L59.887 15.5073L60.1138 15.5863L60.336 15.6697L60.5534 15.7574L60.7661 15.8494L60.9739 15.9457L61.1769 16.0461L61.3749 16.1507L61.5678 16.2594L61.7558 16.3721L61.9386 16.4888L62.1162 16.6095L62.2886 16.7341L62.4557 16.8626L62.6175 16.9949L62.774 17.1309L62.925 17.2706L63.0705 17.4139L63.2105 17.5609L63.345 17.7113L63.4739 17.8653L63.5971 18.0226L63.7147 18.1833L63.8265 18.3473L63.9326 18.5145L64.0329 18.6849L64.1273 18.8585L64.2159 19.035L64.2986 19.2146L64.3754 19.397L64.4462 19.5824L64.5111 19.7705L64.5699 19.9613L64.6227 20.1548L64.6694 20.3509L64.7101 20.5496L64.7446 20.7506L64.773 20.9541L64.7953 21.1599L64.8114 21.3679L64.8214 21.5781L64.8251 21.7904L64.8227 22.0048L64.814 22.2211L64.7991 22.4393L64.778 22.6594L64.7506 22.8812L64.7169 23.1046L64.6771 23.3297L64.6309 23.5563L64.5785 23.7843L64.5199 24.0138L64.455 24.2445L64.3838 24.4765L64.3064 24.7097L64.2227 24.9439L64.1328 25.1791L64.0367 25.4153L63.9344 25.6523L63.8258 25.8902L63.7111 26.1287L63.5902 26.3679L63.4631 26.6076L63.3298 26.8479L63.1905 27.0885L63.045 27.3295L62.8934 27.5707L62.7358 27.8121L62.5721 28.0536L62.4025 28.2952L62.2268 28.5367L62.0452 28.7782L61.8576 29.0194L61.6641 29.2604L61.4648 29.501L61.2597 29.7413L61.0487 29.981L60.832 30.2202L60.6096 30.4588L60.3815 30.6967L60.1478 30.9338L59.9084 31.1701L59.6635 31.4054L59.4131 31.6398L59.1573 31.8731L58.896 32.1053L58.6294 32.3364L58.3574 32.5661L58.0802 32.7945L57.7977 33.0216L57.5101 33.2471L57.2174 33.4712L56.9197 33.6936L56.617 33.9144L56.3093 34.1335L55.9968 34.3507L55.6794 34.5661L55.3573 34.7796L55.0305 34.9911L54.6991 35.2006L54.3632 35.408L54.0227 35.6132L53.6779 35.8161L53.3286 36.0168L52.9752 36.2152L52.6174 36.4112L52.2556 36.6047L51.8897 36.7957L51.5198 36.9842L51.146 37.17L50.7683 37.3532L50.3869 37.5336L50.0017 37.7113L49.613 37.8861L49.2208 38.0581L48.825 38.2272L48.426 38.3933L48.0236 38.5564L47.618 38.7164L47.2094 38.8733L46.7976 39.0271L46.383 39.1777L45.9654 39.325L45.5451 39.4691L45.1221 39.6099L44.6965 39.7473L44.2684 39.8814L43.8378 40.012L43.4049 40.1391L42.9698 40.2628L42.5325 40.383L42.0931 40.4996L41.6518 40.6126L41.2086 40.722L40.7636 40.8277L40.3169 40.9298L39.8686 41.0282L39.4188 41.1228L38.9676 41.2137L38.5151 41.3009L38.0613 41.3842L37.6064 41.4638L37.1505 41.5395L36.6937 41.6113L36.236 41.6793L35.7776 41.7434L35.3185 41.8037L34.8589 41.86L34.3988 41.9124L33.9384 41.9608L33.4777 42.0053L33.0169 42.0459L32.556 42.0825L32.0952 42.1152L31.6345 42.1439L31.174 42.1686L30.7138 42.1893L30.2541 42.2061L29.7949 42.2189L29.3363 42.2277L28.8784 42.2326L28.4214 42.2335L27.9653 42.2304L27.5102 42.2234L27.0561 42.2124L26.6033 42.1975L26.1518 42.1787L25.7017 42.1559L25.2531 42.1293L24.8061 42.0987L24.3607 42.0643L23.9172 42.026L23.4755 41.9839L23.0357 41.9379L22.5981 41.8881L22.1625 41.8346L21.7292 41.7773L21.2983 41.7162L20.8698 41.6514L20.4438 41.583L20.0204 41.5108L19.5997 41.435L19.1818 41.3557L18.7668 41.2727L18.3547 41.1862L17.9457 41.0962L17.5398 41.0026L17.1371 40.9057L16.7378 40.8053L16.3419 40.7015L15.9494 40.5944L15.5605 40.484L15.1752 40.3703L14.7936 40.2534L14.4159 40.1333L14.042 40.0101L13.6721 39.8837L13.3063 39.7544L12.9445 39.622L12.587 39.4866L12.2337 39.3483L11.8847 39.2072L11.5402 39.0632L11.2002 38.9164L10.8647 38.767L10.5338 38.6148L10.2076 38.4601L9.88624 38.3028L9.56967 38.1429L9.25799 37.9807L8.95128 37.816L8.64959 37.6489L8.35298 37.4796L8.06152 37.3081L7.77528 37.1343L7.49429 36.9585L7.21863 36.7806L6.94835 36.6007L6.68351 36.4189L6.42415 36.2352L6.17034 36.0498L5.92211 35.8625L5.67954 35.6736L5.44265 35.4831L5.2115 35.291L4.98613 35.0974L4.7666 34.9024L4.55294 34.706L4.3452 34.5084L4.14341 34.3095L3.94762 34.1095L3.75786 33.9084L3.57417 33.7063L3.39659 33.5032L3.22515 33.2992L3.05989 33.0945L2.90082 32.8889L2.74799 32.6828L2.60142 32.476L2.46114 32.2686L2.32718 32.0609L2.19955 31.8527L2.07828 31.6442L1.9634 31.4355L1.85491 31.2266L1.75285 31.0175L1.65722 30.8085L1.56805 30.5995L1.48533 30.3906L1.4091 30.1819L1.33936 29.9734L1.27611 29.7653L1.21937 29.5575L1.16914 29.3503L1.12544 29.1436L1.08824 28.9375L1.05758 28.7321L1.03344 28.5274L1.01582 28.3236L1.00472 28.1207L1.00014 27.9187L1.00206 27.7178L1.01049 27.518L1.02542 27.3194L1.04683 27.1221L1.07472 26.9261L1.10907 26.7315L1.14987 26.5383L1.1971 26.3467L1.25075 26.1567L1.31079 25.9683L1.37721 25.7818L1.44998 25.597L1.52909 25.4141L1.61451 25.2331L1.7062 25.0542L1.80416 24.8773L1.90834 24.7026L2.01872 24.53L2.13527 24.3598L2.25795 24.1919L2.38673 24.0264L2.52158 23.8633L2.66245 23.7028L2.80932 23.5448L2.96214 23.3895L3.12086 23.2369L3.28546 23.0871L3.45588 22.9401L3.63207 22.796L3.81401 22.6548L4.00163 22.5167L4.1949 22.3815L4.39375 22.2495L4.59815 22.1207L4.80803 21.995L5.02334 21.8726L5.24404 21.7536L5.47005 21.6379L5.70134 21.5257L5.93784 21.4169L6.17949 21.3116L6.42622 21.2099L6.678 21.1118L6.93473 21.0174L7.19637 20.9267L7.46285 20.8397L7.73411 20.7565L8.01007 20.6771L8.29068 20.6017L8.57585 20.5301L8.86553 20.4625L9.15965 20.3988L9.45812 20.3392L9.76089 20.2836L10.0679 20.2322L10.379 20.1848L10.6942 20.1417L11.0134 20.1027L11.3365 20.0679L11.6634 20.0374L11.9941 20.0111L12.3285 19.9892L12.6665 19.9715L13.008 19.9583L13.3529 19.9494L13.7012 19.9449L14.0528 19.9448L14.4075 19.9491L14.7654 19.9579L15.1263 19.9712L15.4902 19.989L15.8569 20.0112L16.2264 20.038L16.5985 20.0693L16.9733 20.1051L17.3506 20.1455L17.7302 20.1904L18.1123 20.2399L18.4965 20.294L18.883 20.3526L19.2714 20.4158L19.6619 20.4836L20.0543 20.556L20.4484 20.6329L20.8442 20.7144L21.2417 20.8005L21.6407 20.8911L22.0411 20.9864L22.4429 21.0861L22.8459 21.1904L23.25 21.2993L23.6553 21.4127L24.0615 21.5305L24.4686 21.6529L24.8764 21.7798L25.285 21.9111L25.6942 22.0469L26.1038 22.1872L26.5139 22.3318L26.9244 22.4809L27.335 22.6343L27.7458 22.792L28.1567 22.9541L28.5675 23.1205L28.9782 23.2911L29.3886 23.466L29.7988 23.6451L30.2085 23.8284L30.6177 24.0158L31.0264 24.2074L31.4343 24.403L31.8416 24.6027L32.2479 24.8064L32.6533 25.0141L33.0577 25.2257L33.4609 25.4411L33.8629 25.6605L34.2637 25.8836L34.663 26.1105L35.0609 26.3412L35.4572 26.5755L35.8519 26.8134L36.2448 27.0549L36.636 27.2999L37.0252 27.5484L37.4125 27.8004L37.7976 28.0557L38.1807 28.3144L38.5615 28.5763L38.9401 28.8414L39.3162 29.1097L39.6899 29.381L40.061 29.6555L40.4295 29.9329L40.7953 30.2132L41.1584 30.4963L41.5186 30.7823L41.8758 31.071L42.2301 31.3624L42.5813 31.6564L42.9294 31.9529L43.2742 32.2519L43.6158 32.5533L43.954 32.8571L44.2888 33.1631L44.6202 33.4713L44.9479 33.7816L45.2721 34.094L45.5926 34.4084L45.9093 34.7247L46.2222 35.0429L46.5313 35.3628L46.8364 35.6844L47.1376 36.0076L47.4347 36.3324L47.7277 36.6586L48.0166 36.9863L48.3012 37.3152L48.5816 37.6454L48.8577 37.9767L49.1294 38.3091L49.3967 38.6425L49.6595 38.9768L49.9178 39.312L50.1716 39.6479L50.4207 39.9845L50.6652 40.3217L50.9051 40.6594L51.1401 40.9975L51.3705 41.336L51.596 41.6747L51.8166 42.0137L52.0324 42.3527L52.2433 42.6917L52.4492 43.0307L52.6502 43.3695L52.8461 43.7081L53.037 44.0464L53.2228 44.3843L53.4035 44.7216L53.5791 45.0584L53.7495 45.3946L53.9148 45.73L54.0749 46.0646L54.2298 46.3982L54.3794 46.7309L54.5238 47.0625L54.6629 47.3929L54.7967 47.7221L54.9252 48.0499L55.0485 48.3764L55.1664 48.7013L55.279 49.0246L55.3862 49.3463L55.4881 49.6662L55.5847 49.9843L55.6759 50.3005L55.7617 50.6146L55.8422 50.9267L55.9173 51.2366L55.9871 51.5443L56.0516 51.8497L56.1106 52.1526L56.1644 52.4531L56.2128 52.751L56.2558 53.0462L56.2936 53.3387L56.326 53.6284L56.3532 53.9152L56.375 54.1991L56.3916 54.4799L56.4029 54.7576L56.409 55.0321L56.4099 55.3034L56.4056 55.5713L56.3961 55.8358L56.3815 56.0969L56.3617 56.3543L56.3368 56.6082L56.3068 56.8583L56.2718 57.1046L56.2318 57.3472L56.1868 57.5858L56.1368 57.8204L56.0818 58.051L56.022 58.2775L55.9573 58.4998L55.8878 58.7179L55.8135 58.9316L55.7345 59.141L55.6507 59.346L55.5622 59.5465L55.4692 59.7424L55.3715 59.9337L55.2693 60.1204L55.1626 60.3023L55.0514 60.4795L54.9359 60.6518L54.8159 60.8192L54.6917 60.9817L54.5632 61.1392L54.4305 61.2917L54.2936 61.4391L54.1526 61.5813L54.0076 61.7183L53.8586 61.8502L53.7056 61.9767L53.5488 62.0979L53.3881 62.2138L53.2236 62.3242L53.0555 62.4293L52.8837 62.5288L52.7083 62.6228L52.5293 62.7112L52.3469 62.7941L52.1611 62.8714L51.972 62.9429L51.7796 63.0088L51.5839 63.069L51.3852 63.1234L51.1833 63.1721L50.9785 63.2149L50.7707 63.2519L50.56 63.2831L50.3465 63.3084L50.1303 63.3278L49.9114 63.3413L49.6899 63.3489L49.4659 63.3506L49.2395 63.3462L49.0107 63.3359L48.7795 63.3197L48.5462 63.2974L48.3106 63.2691L48.073 63.2348L47.8334 63.1945L47.5918 63.1481L47.3484 63.0958L47.1032 63.0373L46.8563 62.9729L46.6077 62.9024L46.3576 62.8259L46.106 62.7434L45.853 62.6548L45.5987 62.5602L45.3431 62.4597L45.0864 62.3531L44.8285 62.2405L44.5696 62.1219L44.3098 61.9974L44.0491 61.8669L43.7877 61.7305L43.5255 61.5882L43.2627 61.44L42.9993 61.2859L42.7355 61.1259L42.4713 60.9601L42.2067 60.7885L41.9419 60.6111L41.6769 60.4279L41.4119 60.239L41.1468 60.0445L40.8818 59.8442L40.6169 59.6383L40.3522 59.4268L40.0879 59.2098L39.8239 58.9872L39.5603 58.7591L39.2973 58.5256L39.0349 58.2867L38.7731 58.0424L38.5121 57.7927L38.2518 57.5378L37.9925 57.2777L37.7341 57.0123L37.4768 56.7419L37.2206 56.4663L36.9656 56.1857L36.7118 55.9001L36.4593 55.6096L36.2082 55.3142L35.9586 55.0139L35.7105 54.7089L35.464 54.3992L35.2192 54.0849L34.9761 53.766L34.7348 53.4425L34.4953 53.1146L34.2578 52.7822L34.0223 52.4455L33.7888 52.1046L33.5575 51.7595L33.3283 51.4102L33.1014 51.0569L32.8768 50.6995L32.6545 50.3383L32.4347 49.9731L32.2173 49.6043L32.0025 49.2316L31.7903 48.8554L31.5808 48.4756L31.3739 48.0924L31.1698 47.7057L30.9685 47.3157L30.7701 46.9225L30.5746 46.5261L30.382 46.1266L30.1925 45.7242L30.006 45.3188L29.8227 44.9106L29.6425 44.4996L29.4655 44.086L29.2917 43.6698L29.1213 43.251L28.9541 42.8299L28.7904 42.4065L28.63 41.9808L28.4731 41.553L28.3197 41.1232L28.1698 40.6913L28.0235 40.2576L27.8807 39.8221L27.7416 39.385L27.6062 38.9462L27.4744 38.5059L27.3464 38.0642L27.2221 37.6212L27.1016 37.1769L26.9849 36.7315L26.872 36.2851L26.763 35.8377L26.6578 35.3895L26.5566 34.9405L26.4593 34.4909L26.3659 34.0406L26.2764 33.5899L26.191 33.1389L26.1095 32.6875L26.032 32.236L25.9585 31.7844L25.8891 31.3328L25.8237 30.8813L25.7624 30.43L25.7051 29.979L25.6519 29.5283L25.6027 29.0782L25.5576 28.6287L25.5166 28.1798L25.4797 27.7317L25.4469 27.2845L25.4181 26.8383L25.3934 26.3932L25.3728 25.9492L25.3563 25.5064L25.3438 25.065L25.3354 24.6251L25.331 24.1867L25.3307 23.7499L25.3344 23.3149L25.3422 22.8817L25.3539 22.4504L25.3697 22.0211L25.3894 21.5939L25.4131 21.1689L25.4407 20.7462L25.4723 20.3259L25.5078 19.908L25.5471 19.4927L25.5904 19.0801L25.6374 18.6702L25.6883 18.2631L25.743 17.8589L25.8015 17.4577L25.8637 17.0596L25.9296 16.6647L25.9991 16.273L26.0724 15.8847L26.1492 15.4998L26.2297 15.1184L26.3136 14.7406L26.4011 14.3665L26.4921 13.9962L26.5865 13.6296L26.6844 13.267L26.7855 12.9084L26.89 12.5538L26.9978 12.2034L27.1088 11.8572L27.2231 11.5153L27.3404 11.1778L27.4609 10.8447L27.5844 10.5161L27.711 10.1921L27.8405 9.87274L27.9729 9.55811L28.1082 9.24828L28.2462 8.9433L28.3871 8.64324L28.5307 8.34816L28.6769 8.05813L28.8257 7.77322L28.9771 7.49348L29.131 7.21896L29.2872 6.94974L29.4459 6.68586L29.6069 6.42739L29.7702 6.17438L29.9356 5.92688L30.1032 5.68494L30.2729 5.44862L30.4446 5.21796L30.6183 4.99302L30.7939 4.77385L30.9712 4.56048L31.1504 4.35296L31.3313 4.15135L31.5138 3.95567L31.6979 3.76597L31.8835 3.58229L32.0705 3.40467L32.2589 3.23315L32.4487 3.06775L32.6396 2.90852L32.8318 2.75548L33.0251 2.60868L33.2193 2.46813L33.4146 2.33387L33.6108 2.20593L33.8078 2.08432L34.0055 1.96907L34.204 1.86022L34.403 1.75777L34.6027 1.66175L34.8027 1.57217L35.0033 1.48906L35.2041 1.41242L35.4052 1.34228L35.6065 1.27865L35.8079 1.22153L36.0094 1.17093L36.2108 1.12687L36.4122 1.08935L36.6134 1.05838L36.8144 1.03396L37.015 1.01609L37.2153 1.00477L37.4151 1L37.6144 1.00179L37.8131 1.01011L38.0111 1.02498L38.2085 1.04639L38.4049 1.07433L38.6006 1.10878L38.7952 1.14974L38.9889 1.19719L39.1815 1.25112L39.3729 1.31151L39.563 1.37836L39.7519 1.45163L39.9394 1.53132L40.1255 1.61739L40.3101 1.70983L40.4931 1.80861L40.6744 1.91371L40.8541 2.0251L41.032 2.14275L41.208 2.26664L41.3822 2.39672L41.5543 2.53298L41.7245 2.67537L41.8925 2.82386L42.0584 2.97841L42.222 3.139L42.3834 3.30556L42.5424 3.47808L42.699 3.65649L42.8531 3.84077L43.0047 4.03087L43.1537 4.22674L43.3001 4.42833L43.4437 4.63561L43.5846 4.8485L43.7227 5.06697L43.8579 5.29097L43.9902 5.52044L44.1194 5.75532L44.2457 5.99556L44.3688 6.24111L44.4888 6.49191L44.6056 6.74789L44.7192 7.009L44.8295 7.27518L44.9364 7.54636L45.04 7.82248L45.1401 8.10348L45.2368 8.38928L45.3299 8.67983L45.4194 8.97506L45.5054 9.27489L45.5877 9.57926L45.6663 9.8881L45.7412 10.2013L45.8123 10.5189L45.8796 10.8407L45.9431 11.1667L46.0027 11.4968L46.0583 11.8309L46.1101 12.1689L46.1578 12.5108L46.2016 12.8566L46.2413 13.206L46.277 13.559L46.3086 13.9156L46.336 14.2757L46.3593 14.6392L46.3785 15.006L46.3934 15.376L46.4042 15.7491L46.4107 16.1253L46.413 16.5044L46.411 16.8864L46.4047 17.2712L46.3941 17.6588L46.3792 18.0489L46.3599 18.4416L46.3364 18.8367L46.3084 19.2342L46.2762 19.6339L46.2395 20.0358L46.1985 20.4398L46.1531 20.8458L46.1033 21.2536L46.0491 21.6633L45.9905 22.0747L45.9276 22.4878L45.8602 22.9023L45.7885 23.3183L45.7123 23.7357L45.6318 24.1543L45.5469 24.5741L45.4577 24.9949L45.3641 25.4167L45.2661 25.8394L45.1638 26.2629L45.0571 26.6871L44.9462 27.1119L44.8309 27.5372L44.7114 27.9629L44.5876 28.3889L44.4595 28.8151L44.3272 29.2415L44.1907 29.6679L44.05 30.0943L43.9051 30.5205L43.7561 30.9465L43.603 31.3722L43.4458 31.7974L43.2845 32.2221L43.1192 32.6462L42.9499 33.0696L42.7766 33.4922L42.5994 33.9139L42.4183 34.3347L42.2333 34.7543L42.0445 35.1729L41.8519 35.5901L41.6555 36.0061L41.4554 36.4206L41.2517 36.8336L41.0443 37.245L40.8333 37.6548L40.6188 38.0627L40.4007 38.4688L40.1793 38.8729L39.9544 39.2751L39.7261 39.675L39.4946 40.0728L39.2598 40.4684L39.0217 40.8615L38.7806 41.2522L38.5363 41.6404L38.289 42.026L38.0386 42.4088L37.7854 42.789L37.5293 43.1662L37.2703 43.5406L37.0086 43.9119L36.7442 44.2802L36.4772 44.6453L36.2076 45.0072L35.9355 45.3658L35.6609 45.721L35.3839 46.0728L35.1047 46.4211L34.8231 46.7658L34.5394 47.1069L34.2536 47.4442L33.9657 47.7778L33.6758 48.1075L33.3841 48.4333L33.0905 48.7551L32.7951 49.0729L32.498 49.3866L32.1993 49.6961L31.899 50.0014L31.5973 50.3025L31.2941 50.5992L30.9897 50.8915L30.6839 51.1794L30.377 51.4627L30.069 51.7416L29.76 52.0158L29.45 52.2854L29.1391 52.5503L28.8275 52.8104L28.5151 53.0658L28.2021 53.3163L27.8886 53.5619L27.5746 53.8026L27.2602 54.0384L26.9454 54.2691L26.6305 54.4948L26.3154 54.7155L26.0002 54.931L25.685 55.1414L25.3699 55.3466L25.055 55.5465L24.7403 55.7413L24.426 55.9307L24.1121 56.1149L23.7987 56.2937L23.4859 56.4672L23.1738 56.6352L22.8624 56.7979L22.5518 56.9552L22.2421 57.107L21.9335 57.2534L21.6259 57.3943L21.3195 57.5297L21.0143 57.6595L20.7104 57.7839L20.408 57.9027L20.1071 58.016L19.8077 58.1237L19.5099 58.2259L19.214 58.3225L18.9198 58.4135L18.6275 58.499L18.3372 58.5789L18.0489 58.6532L17.7628 58.7219L17.4789 58.7851L17.1973 58.8426L16.9181 58.8947L16.6413 58.9411L16.367 58.982L16.0954 59.0174L15.8264 59.0472L15.5602 59.0715L15.2968 59.0902L15.0364 59.1035L14.7789 59.1113L14.5245 59.1137L14.2732 59.1106L14.0251 59.102L13.7803 59.0881L13.5389 59.0688L13.3008 59.0441L13.0663 59.0141L12.8353 58.9787L12.608 58.9381L12.3844 58.8922L12.1645 58.8412L11.9484 58.7849L11.7363 58.7234L11.5281 58.6568L11.324 58.5852L11.1239 58.5084L10.928 58.4267L10.7363 58.3399L10.5489 58.2482L10.3658 58.1516L10.1871 58.0502L10.0129 57.9439L9.84318 57.8329L9.67802 57.7171L9.51748 57.5966L9.36161 57.4715L9.21047 57.3418L9.06411 57.2076L8.92257 57.0689L8.78592 56.9257L8.65419 56.7781L8.52744 56.6262L8.4057 56.47L8.28903 56.3096L8.17748 56.1451L8.07107 55.9764L7.96986 55.8036L7.87388 55.6269L7.78318 55.4462L7.69779 55.2617L7.61775 55.0733L7.54309 54.8812L7.47385 54.6854L7.41006 54.4859L7.35176 54.2829L7.29897 54.0764L7.25173 53.8665L7.21006 53.6532L7.17399 53.4366L7.14354 53.2168L7.11874 52.9939L7.09961 52.7678L7.08617 52.5387L7.07845 52.3067L7.07646 52.0718L7.08022 51.8341L7.08975 51.5936L7.10505 51.3505L7.12615 51.1048L7.15305 50.8566L7.18577 50.6059L7.22432 50.3529L7.26869 50.0976L7.31891 49.8401L7.37497 49.5804L7.43689 49.3187L7.50465 49.055L7.57826 48.7894L7.65773 48.522L7.74304 48.2528L7.8342 47.9819L7.93121 47.7095L8.03405 47.4355L8.14271 47.1601L8.2572 46.8833L8.37749 46.6052L8.50358 46.326L8.63546 46.0456L8.7731 45.7642L8.91649 45.4818L9.06562 45.1985L9.22047 44.9144L9.38102 44.6296L9.54724 44.3442L9.71911 44.0581L9.89661 43.7716L10.0797 43.4847L10.2684 43.1975L10.4626 42.91L10.6624 42.6223L10.8676 42.3346L11.0783 42.0468L11.2944 41.7591L11.5159 41.4715L11.7427 41.1842L11.9748 40.8971L12.2122 40.6105L12.4549 40.3243L12.7027 40.0386L12.9557 39.7535L13.2138 39.4691L13.4769 39.1855L13.745 38.9027L14.0181 38.6208L14.2961 38.3399L14.579 38.0601L14.8667 37.7814L15.1591 37.5038L15.4563 37.2276L15.7581 36.9527L16.0644 36.6793L16.3753 36.4073L16.6907 36.1369L17.0105 35.8681L17.3346 35.6011L17.663 35.3358L17.9957 35.0723L18.3325 34.8107L18.6734 34.5512L19.0183 34.2936L19.3672 34.0382L19.72 33.7849L20.0766 33.5338L20.437 33.2851L20.801 33.0387L21.1687 32.7947L21.5398 32.5532L21.9145 32.3142L22.2925 32.0778L22.6738 31.8441L23.0584 31.6131L23.4461 31.3848L23.8369 31.1594L24.2306 30.9368L24.6273 30.7172L25.0268 30.5005L25.4291 30.2869L25.8341 30.0763L26.2416 29.8689L26.6516 29.6647L27.064 29.4637L27.4788 29.2659L27.8958 29.0715L28.3149 28.8805L28.7362 28.6928L29.1594 28.5086L29.5845 28.3279L30.0114 28.1507L30.44 27.9771L30.8702 27.8071L31.302 27.6407L31.7352 27.478L32.1697 27.319L32.6055 27.1638L33.0425 27.0123L33.4805 26.8647L33.9196 26.7208L34.3595 26.5809L34.8002 26.4448L35.2416 26.3127L35.6835 26.1845L36.1261 26.0602L36.569 25.94L37.0122 25.8238L37.4557 25.7116L37.8992 25.6034L38.3428 25.4994L38.7864 25.3994L39.2298 25.3035L39.6729 25.2117L40.1157 25.1241L40.558 25.0406L40.9998 24.9612L41.441 24.886L41.8814 24.815L42.321 24.7481L42.7597 24.6855L43.1973 24.627L43.6339 24.5727L44.0692 24.5225L44.5032 24.4766L44.9358 24.4349L45.3669 24.3973L45.7965 24.3639L46.2243 24.3348L46.6504 24.3097L47.0746 24.2889L47.4968 24.2722L47.917 24.2596L48.335 24.2512L48.7508 24.2469L49.1643 24.2468L49.5753 24.2507L49.9838 24.2587L50.3897 24.2708L50.793 24.2869L51.1934 24.3071L51.591 24.3313L51.9856 24.3594L52.3772 24.3915L52.7656 24.4276L53.1508 24.4676L53.5328 24.5115L53.9113 24.5592L54.2864 24.6108L54.6579 24.6662L55.0258 24.7254L55.3899 24.7883L55.7503 24.8549L56.1068 24.9252L56.4593 24.9992L56.8078 25.0768L57.1522 25.1579L57.4924 25.2426L57.8283 25.3308L58.1599 25.4224L58.487 25.5175L58.8097 25.6159L59.1279 25.7177L59.4413 25.8227L59.7501 25.931L60.0542 26.0425L60.3534 26.1572L60.6477 26.2749L60.937 26.3957L61.2213 26.5195L61.5004 26.6463L61.7745 26.776L62.0433 26.9085L62.3068 27.0438L62.565 27.1819L62.8178 27.3227L63.0652 27.4661L63.307 27.6121L63.5433 27.7606L63.7739 27.9116L63.9989 28.065L64.2182 28.2208L64.4317 28.3789L64.6394 28.5392L64.8412 28.7016L65.0371 28.8662L65.2271 29.0329L65.4111 29.2015L65.589 29.372L65.7609 29.5445L65.9266 29.7187L66.0862 29.8946L66.2397 30.0722L66.3869 30.2515L66.5278 30.4322L66.6625 30.6145L66.7908 30.7981L66.9128 30.9831L67.0285 31.1694L67.1377 31.3568L67.2405 31.5454L67.3369 31.7351L67.4268 31.9257L67.5102 32.1173L67.5871 32.3098L67.6575 32.503L67.7214 32.697L67.7786 32.8916L67.8294 33.0868L67.8735 33.2825L67.9111 33.4786L67.9421 33.6751L67.9664 33.8719L67.9842 34.0689L67.9954 34.2661L67.9999 34.4634" stroke="#F09744" stroke-width="1.5"/>
</svg>
