<svg width="646" height="300" viewBox="0 0 646 300" fill="none" xmlns="http://www.w3.org/2000/svg">
<circle cx="621.987" cy="59.9865" r="22.4865" stroke="white" stroke-width="3"/>
<path d="M615.918 68V50.5455H622.139C623.491 50.5455 624.614 50.7784 625.506 51.2443C626.403 51.7102 627.074 52.3551 627.517 53.179C627.96 53.9972 628.182 54.9432 628.182 56.017C628.182 57.0852 627.957 58.0256 627.509 58.8381C627.065 59.6449 626.395 60.2727 625.497 60.7216C624.605 61.1705 623.483 61.3949 622.131 61.3949H617.418V59.1278H621.892C622.744 59.1278 623.438 59.0057 623.972 58.7614C624.511 58.517 624.906 58.1619 625.156 57.696C625.406 57.2301 625.531 56.6705 625.531 56.017C625.531 55.358 625.403 54.7869 625.148 54.304C624.898 53.821 624.503 53.4517 623.963 53.196C623.429 52.9347 622.727 52.804 621.858 52.804H618.551V68H615.918ZM624.534 60.125L628.847 68H625.847L621.619 60.125H624.534Z" fill="white"/>
<path d="M101.52 80.24H125.1C111.06 105.26 85.32 150.08 75.78 167.18H53.46C37.26 138.38 20.34 111.2 2.88 80.24H27.36L64.62 148.64L101.52 80.24ZM189.7 84.92C202.3 75.2 234.34 77.18 237.22 100.4C237.76 105.26 237.22 109.58 237.22 109.58L214.54 109.4C214.54 109.4 216.52 96.62 202.66 95.9C185.38 95.18 176.56 118.58 176.92 135.5C176.92 135.5 176.74 153.86 176.74 167.18C169.9 167.18 161.44 167.18 154.42 167.18C154.42 138.2 154.6 109.22 154.42 80.42H175.84C175.84 89.06 176.02 98.24 176.02 106.88C176.02 106.88 178.9 93.2 189.7 84.92ZM268.765 80.06H290.725V167.18H268.765V80.06ZM280.465 45.68C273.625 45.68 268.045 40.1 268.045 33.26C268.045 26.42 273.625 20.84 280.465 20.84C287.305 20.84 292.885 26.42 292.885 33.26C292.885 40.1 287.305 45.68 280.465 45.68ZM408.705 117.14C420.765 118.94 431.565 124.52 434.265 136.4C436.065 144.14 432.285 152.78 424.545 158.9C408.165 171.32 354.525 172.04 335.265 157.46C325.005 149.72 323.745 137.12 323.745 137.12L346.965 137.3C346.965 137.3 346.245 144.5 356.325 148.64C366.945 152.78 386.745 153.32 401.685 150.26C412.665 147.74 414.465 142.34 411.945 138.02C409.245 132.98 395.925 132.62 379.185 131.36C363.525 130.46 342.825 131 332.205 121.82C325.185 115.88 321.765 105.62 329.685 94.82C344.445 74.84 388.365 78.98 394.485 80.06C404.925 81.86 420.765 85.64 429.045 100.22C431.925 105.44 431.745 109.76 431.745 109.76L409.065 109.58C409.065 109.58 408.705 104.18 403.665 100.22C399.165 96.8 391.605 93.56 377.565 93.56C363.885 93.56 355.965 96.8 351.645 100.04C346.425 103.82 345.165 112.28 357.765 113.36C374.145 114.98 392.685 114.62 408.705 117.14ZM578.093 106.88C578.993 109.4 580.253 115.88 580.253 121.82V167H558.293L558.473 146.12C558.473 146.12 553.073 155.12 542.633 161.96C523.553 174.56 489.173 172.58 473.873 163.4C462.173 156.2 459.653 142.34 465.053 131.72C468.833 124.16 478.193 118.58 492.053 117.14C513.653 114.62 536.333 116.24 557.933 117.14C557.933 117.14 557.933 113.72 557.393 112.1C556.313 109.76 555.053 106.52 550.913 102.74C548.212 100.4 543.353 96.8 532.373 94.64C524.813 93.2 507.353 92.66 497.093 99.86C492.773 102.92 492.773 106.88 492.593 107.96C484.673 107.96 476.573 108.14 468.473 108.14C468.473 108.14 467.213 98.96 477.653 90.5C487.193 82.94 498.173 80.78 506.453 79.52C511.133 78.8 532.013 76.82 548.573 81.5C557.033 84.02 561.353 86.9 562.973 87.8C565.673 89.78 574.493 95.9 578.093 106.88ZM522.653 154.22C541.733 151.16 556.133 141.26 557.933 131.54C542.633 130.64 526.973 130.64 511.493 131C494.933 131.36 485.393 133.52 485.033 142.7C484.313 155.66 506.273 156.92 522.653 154.22Z" fill="white"/>
</svg>
