<svg width="238" height="392" viewBox="0 0 238 392" fill="none" xmlns="http://www.w3.org/2000/svg">
<mask id="mask0_14_615" style="mask-type:alpha" maskUnits="userSpaceOnUse" x="0" y="0" width="238" height="392">
<rect width="238" height="392" rx="30" fill="url(#paint0_linear_14_615)"/>
</mask>
<g mask="url(#mask0_14_615)">
<path d="M366.5 328C366.5 328.729 365.941 329.821 363.896 331.186C361.92 332.506 358.908 333.837 354.887 335.136C346.864 337.728 335.177 340.084 320.641 342.07C291.592 346.04 251.413 348.5 207 348.5C162.587 348.5 122.408 346.04 93.3589 342.07C78.8232 340.084 67.1358 337.728 59.1133 335.136C55.0917 333.837 52.0801 332.506 50.104 331.186C48.0591 329.821 47.5 328.729 47.5 328C47.5 327.271 48.0591 326.179 50.104 324.814C52.0801 323.494 55.0917 322.163 59.1133 320.864C67.1358 318.272 78.8232 315.916 93.3589 313.93C122.408 309.96 162.587 307.5 207 307.5C251.413 307.5 291.592 309.96 320.641 313.93C335.177 315.916 346.864 318.272 354.887 320.864C358.908 322.163 361.92 323.494 363.896 324.814C365.941 326.179 366.5 327.271 366.5 328Z" stroke="#D9D9D9" stroke-width="3"/>
<path d="M366.5 304C366.5 304.729 365.941 305.821 363.896 307.186C361.92 308.506 358.908 309.837 354.887 311.136C346.864 313.728 335.177 316.084 320.641 318.07C291.592 322.04 251.413 324.5 207 324.5C162.587 324.5 122.408 322.04 93.3589 318.07C78.8232 316.084 67.1358 313.728 59.1133 311.136C55.0917 309.837 52.0801 308.506 50.104 307.186C48.0591 305.821 47.5 304.729 47.5 304C47.5 303.271 48.0591 302.179 50.104 300.814C52.0801 299.494 55.0917 298.163 59.1133 296.864C67.1358 294.272 78.8232 291.916 93.3589 289.93C122.408 285.96 162.587 283.5 207 283.5C251.413 283.5 291.592 285.96 320.641 289.93C335.177 291.916 346.864 294.272 354.887 296.864C358.908 298.163 361.92 299.494 363.896 300.814C365.941 302.179 366.5 303.271 366.5 304Z" stroke="#D9D9D9" stroke-width="3"/>
<path d="M366.5 280C366.5 280.729 365.941 281.821 363.896 283.186C361.92 284.506 358.908 285.837 354.887 287.136C346.864 289.728 335.177 292.084 320.641 294.07C291.592 298.04 251.413 300.5 207 300.5C162.587 300.5 122.408 298.04 93.3589 294.07C78.8232 292.084 67.1358 289.728 59.1133 287.136C55.0917 285.837 52.0801 284.506 50.104 283.186C48.0591 281.821 47.5 280.729 47.5 280C47.5 279.271 48.0591 278.179 50.104 276.814C52.0801 275.494 55.0917 274.163 59.1133 272.864C67.1358 270.272 78.8232 267.916 93.3589 265.93C122.408 261.96 162.587 259.5 207 259.5C251.413 259.5 291.592 261.96 320.641 265.93C335.177 267.916 346.864 270.272 354.887 272.864C358.908 274.163 361.92 275.494 363.896 276.814C365.941 278.179 366.5 279.271 366.5 280Z" stroke="#D9D9D9" stroke-width="3"/>
<path d="M366.5 256C366.5 256.729 365.941 257.821 363.896 259.186C361.92 260.506 358.908 261.837 354.887 263.136C346.864 265.728 335.177 268.084 320.641 270.07C291.592 274.04 251.413 276.5 207 276.5C162.587 276.5 122.408 274.04 93.3589 270.07C78.8232 268.084 67.1358 265.728 59.1133 263.136C55.0917 261.837 52.0801 260.506 50.104 259.186C48.0591 257.821 47.5 256.729 47.5 256C47.5 255.271 48.0591 254.179 50.104 252.814C52.0801 251.494 55.0917 250.163 59.1133 248.864C67.1358 246.272 78.8232 243.916 93.3589 241.93C122.408 237.96 162.587 235.5 207 235.5C251.413 235.5 291.592 237.96 320.641 241.93C335.177 243.916 346.864 246.272 354.887 248.864C358.908 250.163 361.92 251.494 363.896 252.814C365.941 254.179 366.5 255.271 366.5 256Z" stroke="#D9D9D9" stroke-width="3"/>
<path d="M366.5 232C366.5 232.729 365.941 233.821 363.896 235.186C361.92 236.506 358.908 237.837 354.887 239.136C346.864 241.728 335.177 244.084 320.641 246.07C291.592 250.04 251.413 252.5 207 252.5C162.587 252.5 122.408 250.04 93.3589 246.07C78.8232 244.084 67.1358 241.728 59.1133 239.136C55.0917 237.837 52.0801 236.506 50.104 235.186C48.0591 233.821 47.5 232.729 47.5 232C47.5 231.271 48.0591 230.179 50.104 228.814C52.0801 227.494 55.0917 226.163 59.1133 224.864C67.1358 222.272 78.8232 219.916 93.3589 217.93C122.408 213.96 162.587 211.5 207 211.5C251.413 211.5 291.592 213.96 320.641 217.93C335.177 219.916 346.864 222.272 354.887 224.864C358.908 226.163 361.92 227.494 363.896 228.814C365.941 230.179 366.5 231.271 366.5 232Z" stroke="#D9D9D9" stroke-width="3"/>
<path d="M173 152.5L177 422L181.5 152.5L250 149L181.5 143.5L177 57L173 143.5L87 149L173 152.5Z" stroke="#D9D9D9" stroke-width="3"/>
</g>
<defs>
<linearGradient id="paint0_linear_14_615" x1="14" y1="18" x2="222" y2="392" gradientUnits="userSpaceOnUse">
<stop stop-color="#181818"/>
<stop offset="1"/>
</linearGradient>
</defs>
</svg>
